<?xml version="1.0" encoding="utf-8"?>
<!-- Generator: Adobe Illustrator 21.0.0, SVG Export Plug-In . SVG Version: 6.00 Build 0)  -->
<svg version="1.1" id="图层_1" xmlns="http://www.w3.org/2000/svg" xmlns:xlink="http://www.w3.org/1999/xlink" x="0px" y="0px"
	 viewBox="0 0 1280 422" style="enable-background:new 0 0 1280 422;" xml:space="preserve">
<style type="text/css">
	@font-face {
	 font-family: Corbel;
	 src: url("http://localhost:8984/static/corbel-webfont.woff");
	}
	.st0{fill:#FFFFFF;}
	.st1{fill:none;}
	.st2{font-family:'Corbel';}
	.st3{font-size:48px;}
	.st4{fill:#FFA300;}
	.st5{font-size:60px;}
</style>
<g id="layer1">
	<path class="st0" d="M60.9,214.6c-28.7-2.8-52.1-12.3-58.9-24c-2.7-4.6-2.7-12.1,0-16.7c6.9-11.9,30.5-21.4,59.9-24.1
		c7.6-0.7,77.7-0.8,579.3-0.7l570.7,0.2l10,1.5c5.5,0.8,15.1,2.8,21.3,4.4c9.2,2.4,12.8,3.7,19.7,7.2c7,3.5,9.3,5,12.8,8.8l4.2,4.5
		v6.5v6.5l-4.2,4.5c-3.5,3.8-5.8,5.3-12.8,8.8c-6.9,3.5-10.5,4.8-19.7,7.2c-6.2,1.6-15.8,3.6-21.3,4.4l-10,1.5l-571.7,0.1
		C158.5,215.4,67.3,215.3,60.9,214.6z M1207.9,206.6c0.9-0.2,5.1-0.8,9.3-1.3c16.3-1.8,32.7-5.9,41.4-10.1c2.8-1.4,6.2-3.9,8.6-6.2
		c3.4-3.4,3.9-4.3,3.9-7.4c0-3-0.5-3.9-3.9-7.4c-2.3-2.3-5.7-4.8-8.6-6.2c-8.7-4.2-25-8.2-41.4-10.1c-4.1-0.5-8.5-1.1-9.6-1.3
		c-1.1-0.2-245.6-0.3-572.6-0.3l-570.6,0.1l-8.6,1.1c-4.7,0.6-13.2,2.2-18.8,3.6c-13.5,3.3-19.6,6.1-25.6,12.1
		C7.3,177.4,7,178,7,181.7c0,3.7,0.3,4.3,4.4,8.4c5.9,6,12.1,8.9,25.6,12.1c10.9,2.6,19.2,3.8,29.9,4.4
		C76.1,207.1,1205.6,207.2,1207.9,206.6z"/>
</g>
<rect x="34.7" y="157.7" class="st1" width="251.8" height="46.3"/>
<text transform="matrix(1 0 0 1 34.6665 197.4088)" class="st0 st2 st3">PAYS 2 TO 1</text>
<rect x="514.2" y="159.3" class="st1" width="251.7" height="43.1"/>
<text transform="matrix(1 0 0 1 514.8644 199.006)" class="st0 st2 st3">INSURANCE</text>
<text transform="matrix(1 0 0 1 103.6668 136.3335)" class="st4 st2 st5">Dealer must draw to 16 and stand on all 17s</text>
<rect x="897" y="159.1" class="st1" width="340" height="46.3"/>
<text transform="matrix(1 0 0 1 987.5547 198.778)" class="st0 st2 st3">PAYS 2 TO 1</text>
</svg>
