<?xml version="1.0" encoding="utf-8"?>
<!-- Generator: Adobe Illustrator 20.0.0, SVG Export Plug-In . SVG Version: 6.00 Build 0)  -->
<svg version="1.1" id="Layer_1" xmlns="http://www.w3.org/2000/svg" xmlns:xlink="http://www.w3.org/1999/xlink" x="0px" y="0px"
	 viewBox="0 0 508 508" style="enable-background:new 0 0 508 508;" xml:space="preserve">
<style type="text/css">
	.st0{opacity:0.75;}
	.st1{fill:#FAF3A4;}
	.st2{opacity:0.79;}
	.st3{fill:#FFA200;}
	.st4{fill:url(#SVGID_1_);}
	.st5{fill:url(#SVGID_2_);}
	.st6{opacity:0.58;}
	.st7{fill:#F5E74A;}
	.st8{fill:#FF0000;}
	.st9{font-family:'Corbel';}
	.st10{font-size:171.9823px;}
</style>
<g class="st0">
	<g>
		<g>
			<g>
				<path class="st1" d="M333.8,46.5c-4.2-0.6-4.7,6.2-4.2,9.4C333.9,57,334.8,48.9,333.8,46.5z"/>
				<path class="st1" d="M366,75.1c-1.9-1-3.3-1.1-4.6-0.7c-0.7,2.3,0.1,3.9,2.2,4.8C364.7,78.4,365.6,77.3,366,75.1z"/>
				<path class="st1" d="M210.6,59.7c-3.3-2.4-6.1,5.9-2.1,6.2C210.6,63.5,209.7,63,210.6,59.7z"/>
				<path class="st1" d="M369.2,118.8c-3,1.5-8.7,4-8.4,7.8C365.1,127.9,370,123.7,369.2,118.8z"/>
				<path class="st1" d="M127.2,35.1c-0.1,2.7,1.1,4.8,4.7,5.7C133.4,37.5,130.7,33.7,127.2,35.1z"/>
				<path class="st1" d="M190.4,60.2c-3-1.9-4.7,3-1.2,3.5C191.2,62.5,189.5,62.6,190.4,60.2z"/>
				<path class="st1" d="M411,145c-4.2-1.3-6.6,1-8.4,4.8C407.1,152,409.5,149.4,411,145z"/>
				<path class="st1" d="M185.7,82.2c5.6-0.9,6-13.7,1.4-15.3C180.4,64.5,172.2,79.6,185.7,82.2z"/>
				<path class="st1" d="M327.8,122.4c-3,0.2-6.5,5.5-6.4,7.5C324.1,129,329.1,127.1,327.8,122.4z"/>
				<path class="st1" d="M386.5,157.8C403.3,159.9,386,139.7,386.5,157.8L386.5,157.8z"/>
				<path class="st1" d="M273.4,136.1c4.2,4.5,3.4,10.7,7.7,13.7c12.8,8.8,28.1-0.5,30.2-12.7c2.2-13-10.3-20.5-23.3-21.4
					C279.7,120.3,276.2,124.4,273.4,136.1z"/>
				<path class="st1" d="M219.7,91.7c-2.1-1.5-2.3,1.1-4,0.5c0.9,4.1-1.5,5.7-1.3,9.4C217.3,101.1,220,94.2,219.7,91.7z"/>
				<path class="st1" d="M271.8,112.8c-3.7,0.3-6.6,8.5-2.8,10.9C270.8,119.6,271.3,116.2,271.8,112.8z"/>
				<path class="st1" d="M339.6,146.5c-4.3-1.8-3.9,4.8-3.3,6.7C338.6,153.2,340.5,148.7,339.6,146.5z"/>
				<path class="st1" d="M166,83.9c-6.3-1.9-11.7-1.9-15.2,2.4c0.5,0.7,1.1,1.4,2.2,1.8C156.5,84.8,162.6,87.3,166,83.9z"/>
				<path class="st1" d="M319.3,197.4c-3,7.6,0.8,11.8,0.5,18c7.5-0.9,15.8-2.1,17-10.6C338.2,195.6,326.4,191.7,319.3,197.4z"/>
				<path class="st1" d="M448.2,245.6c-2.4-1.1-4.6-1.8-5.1,1.1C444.9,248.2,447.2,249.5,448.2,245.6z"/>
				<path class="st1" d="M215.3,163.2c1.8,1.5,4.4,3.3,5.7,0.1C220.2,161.5,215.7,159.7,215.3,163.2z"/>
				<path class="st1" d="M124.3,129.9c1.7,0.2,4.7,3.1,4.9-0.2C127.3,128.4,125.4,126.4,124.3,129.9z"/>
				<path class="st1" d="M86.6,120.1c0.9,2,2.8,3.5,6.2,4.2C98.6,119.8,88.7,110.8,86.6,120.1z"/>
				<path class="st1" d="M212.2,175c-2.5-1.4-4.1-0.6-4.6,2.3C210.1,178.6,211.7,177.9,212.2,175z"/>
				<path class="st1" d="M181.3,181.5c-0.8-0.3-1.7-0.6-2.5-0.9c-0.4,1.2-0.8,2.3-1.2,3.5C179.7,185.1,180.7,183.8,181.3,181.5z"/>
				<path class="st1" d="M154.2,179.5c-2.1-1.1-3.2,0.2-3.8,2.6c1.1,0.4,2.3,0.8,3.4,1.2C154.9,181.6,154.1,180.7,154.2,179.5z"/>
				<path class="st1" d="M104.2,172c-4.3-0.4-3.7,5,0.5,4.1c0.3-0.9,0.6-1.8,0.9-2.6C104.5,173.3,104.1,172.7,104.2,172z"/>
				<path class="st1" d="M141.1,195.4c-1.7,2.5,0.4,3.2,0.2,5c3,0.9,5.8,1.3,6.6-2.5C147.1,196.2,142.8,194.6,141.1,195.4z"/>
				<path class="st1" d="M130,197.2c0.4,1,0.2,2.3-0.4,3.8c0.8,1.8,4.1,2.4,6.5,3.4C138,199.8,134,194.6,130,197.2z"/>
				<path class="st1" d="M471.5,372.8c1.3,1.6,3.8,4.6,6.5,3.4c0.4-1.2,0.8-2.3,1.2-3.5C476.2,370.7,473.2,368.6,471.5,372.8z"/>
				<path class="st1" d="M187.1,301.2c-0.9-0.5-1.6-0.4-2,0.3c-4.4,4.6,0.4,10.3-1.7,16.2C192.2,317.3,185.2,307,187.1,301.2z"/>
				<path class="st1" d="M58.4,271.9c6.2,3.8,8.6-0.8,12.8-1.2C69.9,266.4,60.3,267.5,58.4,271.9z"/>
				<path class="st1" d="M159,307.8c-0.4,1.6-1.7,1.5-2.1,3.2c1.4,2.7,6.1,3,6.9-0.4C163.2,309.1,161.2,308.4,159,307.8z"/>
				<path class="st1" d="M209.4,331.1c-4.7,0.6-8.4,3.2-10.7,8.9C203.8,340.5,207.2,337.2,209.4,331.1z"/>
				<path class="st1" d="M262.9,381.4c-4.6-1-6.5,5.7-1.6,7.3c0.6-0.6,1.3-1.3,2.3-1.1C265.5,384.5,262.6,383.7,262.9,381.4z"/>
				<path class="st1" d="M369,426.2c-0.4,1.2-0.8,2.3-1.2,3.5c2.4,1.1,4.6,1.8,5.1-1.1C372.2,427.6,371.1,426.7,369,426.2z"/>
				<path class="st1" d="M388.7,458.1c1-0.4,1.3-2.2,2.6-2C396.8,441.7,374.1,453.6,388.7,458.1z"/>
				<path class="st1" d="M328,426c-4-1.9-6.1,1.9-4.4,4.3c2.1,1.5,2.3-1.1,4-0.5C328.3,428.3,327.2,427.6,328,426z"/>
				<path class="st1" d="M36.1,323c-8.2,1.7-17.2,1.6-21.9,10.8C22.5,332.4,30.5,330.3,36.1,323z"/>
				<path class="st1" d="M125.5,363.7c-3.5,1.1-5.4,5.6-7.3,10.2C124.3,377.6,126.9,367.3,125.5,363.7z"/>
				<path class="st1" d="M228.4,426.1c1.6-7.3,8.1-3.8,10.7-8.9C236.3,414.6,223.4,421.1,228.4,426.1z"/>
				<path class="st1" d="M176.3,424.8c-2.2-0.7-2.7,2.3-3.5,4.7C175.7,431.4,177.1,426.6,176.3,424.8z"/>
				<path class="st1" d="M199.5,306.8c-1.9-3-1.3-7.2-3.2-10.1c-3.7-1.3-4.4,3.6-8.9,0.7c-1.3-4.5,2.5-11.1,3.1-14.7
					c-16.8-10.3-14.4,20.9-24.1,25.8c-1.2-8.9,9.9-19.9,6.5-27.3c-4,5.2-12.9-0.3-17.5,3.5c-3,12.1-11,26-19.4,31.5
					c-2.3-4.7-6-8.7-5.4-14.8c2.4-1.5,4.3-3.9,7.2-4.3c2.8,0.5,2.5,2.7,5.6,3.1c3.9-5.8,10.9-16,5.5-21.7c-3.5-0.9-5.6,1.1-8.3,1.9
					c-10.2-6-21-15.6-18.6-26.6c1.9-9,13.2-15,13-23.9c-2.9,0.3-4.7,3.1-8.3,1.9c-1.5-4.6-8.6-1.9-8.1-6.9c5.1,0.3,8.6-2.8,15.1,0.6
					c4-4.2,8.1-7.9,10.3-16c4.3,1.6,5.4-3.6,8.9-3.7c0.6-3.5-2.3-5.7,1-8.5c3.9,1.9,6.8,1.4,8.9-0.7c0.4-2.2-2.4-2.7-1-5.3
					c11.7,0.6,23.4-6.2,34.8-1.1c3.9-1.2,6.8-4.6,10.7-6c-2.8,6.3,3,8.3,6.6,11.3c4.6-0.8,8.4-3.2,14-1.8
					c-1.7,8.1,1.5,13.9,8.2,17.8c5,0.1,6.9-6.6,12.9-4.2c0.7,6.1-6.5,7-7.1,15.2c1.9,5.4,3.8,10.8,6,16c3.2-2.8,9.4,0.9,12.3-2.4
					c-3.8-6.8-1.5-17.4,3.3-26.5c-0.5-3.4-2.7-6-5.8-8.1c-2.3-0.5-3.5,1.7-6,0.8c-3.2-7.2-10.1-11.8-11.9-21.2c3-6.1-0.4-9.6,4-14.4
					c-3.7-5.5-1.4-13.9-4.8-19.5c-3.4,1.3-10.3-5-12.8-1.7c0,3.7,1.7,6.5-1.1,11.5c-4.9,2.7-13.3-1.7-16.1-5.9
					c-0.2,9.4-12.5,4.1-14.5,14.5c-3.3,1.6-3.1-4.5-6.2-1.3c-1.3,2.9,3.2,4.9-0.4,6.8c-1.7-4.2-8.2-7.4-10.8-2
					c-2.7-0.9-1.5-3.6-5.3-3.9c-1.7,4-0.2,5.5-3.3,6.7c-3.1-1.4-3.2-4.3-5.6-6c-1.6,1-4.2,0-6,0.8c-0.9-6.6-9.4-11-13.8-10
					c0.5-2.9,3.2-2.9,0.7-4.7c-3.8,1.2-11.8,0.7-12.7-4.7c2.3-1,6.2,1.1,8.5,0.2c1-5.4-5.5-7-0.9-14.2c-1.2-3.4-3.9-2.3-6.2-4.3
					c1-4.4,6.2,0.1,7.2-4.3c2.2-4-2.4-4.6-1-8.3c10.2,1.3,6.7-17.8,16.6-17.7c-0.9-2.9-4.6-5.2-1-8.3c3.5,1,3.6,3.6,7,4.6
					c5.4-0.6,8.5-4.2,8.7-8.7c3.5-1.3,1.4,4.7,4.7,5.7c6.2-0.9,10.3-6.3,17.2-5.6c2.9,6.3,9.4,14.7,17.5,10.4
					c-0.1,3.9-3.2,1.2-4.1,3.5c2.6,3.9,9,6.9,12.7,4.7c-0.1,3.3,3.7,5,6.5,3.4c2.4-1.6,0.5-3.7,3-5.8c4.5,1,6.5,4.7,11.1,1.1
					c6,6.3,13.1,12,15,20.3c-4,3-0.7,8.6,2.1,10.7c2.1,0.5,2.6-2.5,5.1-1.1c9.1,3.1,11.7,9.3,16,14.7c-3.3,11.6,6.5,16.8,14.1,23
					c4.7-3.5,8.2-9.8,13.1-13c-1.1,8.2-6.6,7.2-8,14.9c2.4,6.1,4.9,12.2,8.2,17.8c3.2-2.1,8.3-6,10.9-1c-1.6,4.6-6.2,3-8.1,6.9
					c0.9,3.1,4.2,3.4,6.8,2.5c-1.3,10-10,3.8-11.4,13.6c6.2,5,2.6,14.8,7.3,20.5c3.3-0.1,4.9-3.7,8.6-2.8c1.5,4.1-1.2,10.3,3.2,13
					c4-0.1,5.8-4.8,10.6-3c0.7,4.9-3.1,8.1-3.4,12.6c3.3,3.7,10.3,5.6,10.6,10.8c2.6-1.5,5.8-1.7,8.6-2.8c8.5,1.6,9.3,7.1,14.6,10.3
					c1.1-4.3,3.6-6.6,5.9-11.7c8.8,1.7,13.7-5.1,21.8-4.9c5.1,3.1,10.5,6,17.2,8.3c4.3,8.5,9.1,18.4,7.8,27.6c2.8,0.3,2.8,2,4.8,2.8
					c4.2-4.7,12.8,0.2,18.6-1.1c3.3,2.5,2.6,6.7,8.4,6.1c2.9,9,7.7,16.8,4.9,27.5c-0.8,3.2-4.8,4.6-3,8.8c-6.2,5-14.3,5.8-19.1,13.8
					c-3.5-1-0.9-4.9-3.6-6.3c-3.4,5.1-9.6-2.1-13.6-5c-2,0.7-2.8,4.1-5.8,2.8c1.7-6,0.1-10.3-4-13.3c0.6-1.8,1.2-3.5,1.8-5.3
					c-0.3-2.8-5.3-3.2-6.7-5.4c1.1-3.7,5.9,0.6,6.4-4.6c-4.8-4-12.1-1.1-14.4,5.6c-9-4.8-19.3-4.9-24.5-14.9c-2.2-0.3-3,2.7-6,0.8
					c5.4-7.6-0.5-11.9-4.8-16.6c-3.4,2.8-9.7-0.5-12.1,4.5c-0.8,3.6,2.4,5.1,1.8,8.6c-1.6,2.1-4.1,2.3-5.5,4.9
					c0.1,3.6,2.1,6.3,1.2,10.3c-4.2,2.5-6,7.8-4.2,12.3c-3.7,1-8.9,5.8-7.9,11.9c-17.8,5.4-0.6,17.8-7.1,29c-1.7,3-4.6,3.1-9.5,5.4
					c-6.7-2.1-9.9-5.9-11.8-10.3c-8.3,4.5-21-7-25.5,7.5c-6.3-0.8-2.2-6.7-6.7-8.4c-2.1,1.1-5.6-0.9-7.2,1.3
					c-1.5,3.8,1.2,5.5-1.9,8.2c-1.4-0.5-2.8-1-4.3-1.6c1-5,0.6-15.8-7.5-11.6c-0.8,2.5,1.9,4.9-1.3,6.5c-3.8-2-4.3-4.5-9.1-4.3
					c-0.9-2.2,1.4-6,2.2-9.1c-2.5-0.9-2.1-3.3-4.2-4.5c-2.1-0.4-3.7,0.2-6.2-1.3c-1.5-12.9-16.5-19.1-10.8-35.6
					c-1.6-1.2-1.7-3.1-4.5-3.6c0.4-3.8,3.4-1.7,3.8-5.5c-5.3-5.9-5.5-14.3-13.6-18.8c-0.8,2.3-2.2,5-0.1,5.9
					c2.1,0.9,3.1-0.4,4.9-0.2C203.2,293.4,207.4,305.1,199.5,306.8z M197.1,283.1c-3.6-0.8-5.7,6.1-3.9,8.5c0.8-0.2,1.7-0.4,2.9,0.1
					C197.6,288.3,198.4,285.2,197.1,283.1z"/>
			</g>
			<g class="st2">
				<path class="st3" d="M355.6,127.5c1.4-0.8,3.5-1.8,3.9-3.2c-0.1-0.4-0.5-0.3-0.8-0.2C358,124.8,355.3,126.4,355.6,127.5z
					 M336.3,132c0,0,0.1,0.4,0.2,0.8c0.3-0.5,0.4-0.1,0.6-0.6l-0.4,0.1C336.3,132,336.3,132,336.3,132z M191.9,237.1
					c-0.2-0.8-0.9-0.5-1.3-0.4c-0.3,0.5-0.3,0.5-0.3,0.5c0.1,0.4,0.8,1.4,1.1,1.3C191.8,238.3,192,237.4,191.9,237.1z M333.7,78.1
					c0.5,1.9-2.3,4.4-2.1,5.1c0,0,0.4-0.1,0.5,0.3s1,3.8,0.5,4.7c0,0,0.5,0.3,0.6,0.7c-0.4,0.1-0.3,0.5-0.2,0.9
					c0.2,0.8,0.4,1.5,0.9,1.8c-0.4,0.1-0.4,0.1-0.3,0.5c0,0,0.5,0.3,0.8,0.2c2.9-0.9,2.5-5.2,2.4-5.6c-0.3-1.1-0.8-1.4-0.9-1.8
					s0.3-0.5,0.6-0.6c-0.1-0.4-0.2-0.8-0.7-1c0.3-0.5,0.6-2.2,0.2-3.7c-0.3-1.1-1-2.2-2.1-1.8C333.6,77.7,333.6,77.7,333.7,78.1z
					 M231.6,106.1c-2.7-4.1-8-4.6-8-4.6c1.3,3.3,8.7,5.6,8.7,5.6l0.4-0.1C232.1,106.4,232,106,231.6,106.1z M249.9,171
					c-0.6-0.6-1.2,0-1.4-0.8c-0.6,0.6-1.8,0.5-1.4,2.1c0,0,2,1.5,2.4,1.3C250.5,173.2,250.1,171.7,249.9,171z M143.4,194.6
					c-0.4,0.1-0.8-0.2-1.2,0c-0.4,0.1-0.3,0.5,0.1,1.6c0,0,0.6,0.6,1.3,0.4C143.9,196.5,143.6,195.4,143.4,194.6z M314.4,96.4
					c0.8-1.6,5.6-6.9,7.9-10.8C317.1,90.5,314.5,94.6,314.4,96.4z M219.7,164.7c-1.1-1.9-2.2-1.4-4.5-0.7c-1.5,0.4-3.2,1.2-2.9,2.5
					c0.6,2.3,2.6,3.7,4,4.5c1.1-0.3,1.8-0.5,2.8-1.2C220.5,169,220.3,167,219.7,164.7z M136.9,216.9c-1.5,0.4-1.3,1.2-0.9,2.3
					c0.1,0.4,1.4,0.8,1.8,0.7c0.4-0.1,0.5-1,0.9-1.1C137.9,217.5,138,216.6,136.9,216.9z M150.4,241.5c0.1,0.4-0.2,0.9,0,1.2
					c0.3,1.1,2,0.2,2.9,0.4c-0.3-1.1-0.3-2.4-0.6-3.5C151.7,240.3,151.1,240.9,150.4,241.5z M171.3,237c-0.9-1.8-3.6-4.3-5.4-3.7
					c0.9,1.8,1.4,2.1,2.8,2.9C169.7,236.7,170.6,237.2,171.3,237z M229.4,188.4c0.4-0.1,0.6-0.6,0.5-1s-0.5-0.3-0.9-0.5
					c-0.3,0.5-0.2,0.9-0.4,1.4C228.9,188.2,229.1,188.5,229.4,188.4z M299.8,68.5c-0.6-2.3-2.4-3-4-2.9c-1.2,1.4-2.6,3.6-2.4,4
					c0.3,1.1,0.3,1.1,0.3,1.1c0.6,2.3,1.1,4.2,5.2,3C300.9,72.2,300,69.2,299.8,68.5z M276.6,76.1c-0.8-3-1.9-1.1-2.4-3
					c-1.8,0.5-2.1,2.3-1.6,4.1c0.3,1.1,2.9,3.2,3.6,3C277.3,80,276.9,77.2,276.6,76.1z M344.4,135.7c0.3,1.1-4,2.8-3.6,3.9
					c3.1-1.7,9.6-6.9,9.3-7.7c-2.1,1-4.6,1.8-4.7,3C344.2,135.4,344.3,135.2,344.4,135.7z M235.4,108.7c0.2,0.8,0.2,0.8,1.4,0.8
					C236.4,109.2,235.8,108.6,235.4,108.7z M214,171.3c0,0-0.5-0.3-0.6-0.7c-0.6,0.5-0.7,1.2-0.8,1.4l-0.9,0.3
					c-0.4-0.4-0.5-0.9-0.9-1.3c-2.8,0.8-3.4,1.5-3.2,4.1c0.6,0.3,1.9,1.3,2.5,1.6c3.4-1,2.7-2.3,2.5-4.5c0.1,0.2,0.5,0.2,1.2,0.3
					C213.9,172.2,214.1,171.7,214,171.3z M229.4,157c1.8-0.5,3.8-1.9,4.5-2.2l-0.4,0.1c-0.1-0.4,2-2.6,1.3-5.3c0,0,0,0,0.3-0.5
					c-0.5-1.9-3.3-4.8-6.6-3.8c-2.6,0.8-3.1,3-4.9,5.1C224.4,153.2,228.3,157.3,229.4,157z M240.5,111.2c-0.4,0.1-1.3-0.4-1.7-0.3
					c0.2,0.7,2.1,1.8,3.3,1.9C241.4,111.8,241.7,111.3,240.5,111.2z M338.3,133.5c-0.3,0.5-0.5,1-0.4,1.3c0.3,1.1,2.4,1.3,3.8,0.9
					c3.3-1,4-5.7,5.1-6c-0.8-1.4-0.8-1.4-1.7-1.9c-2.2,0.6-3.7,2.3-3.7,2.3C341,130.2,339.6,131,338.3,133.5z M415,342.8
					c1,3.8,4.1,6.1,7.7,5.1c4-1.2,4.9-5.1,4-8.5c-0.7,0.2-4.8-4.7-7.4-3.9c-0.1-0.4-0.1-0.4-0.1-0.4c-0.4,0.1-1.4,2.1-1.7,2.5
					c-0.7,0.2-1.6,0.1-1.9,0.2C415.2,337.8,415.8,342.5,415,342.8z M391.7,123.8c0.1,0.4,0.9,0.5,1.3,0.4c0.7-0.2,1.2-1.2,1-1.9
					c-0.7,0.2-1.5,0.4-2,1.4C391.7,123.8,391.7,123.8,391.7,123.8z M445.7,322.3c0,0-0.4,0.1-0.7,0.2c0.5,0.3,0.1,0.4,0.6,0.7
					C445.8,322.6,445.8,322.6,445.7,322.3z M422.6,317.2c0.1,0.4-0.2,0.9-0.2,0.9c1,0.9,1.3,1.7,2.7,1.2c1.5-0.4,2-1.4,1.6-2.9
					c-0.8-0.2-0.9-1.8-2.4-1.4C423.6,315.3,422.3,316.1,422.6,317.2z M448.8,340.6c1.1-0.3,0.7,1,1.8,0.7c1.4-0.8,1.6-1.3,1.7-2.5
					c-0.4-1.5-1.4-2.1-2.5-1.7C448,337.5,448.7,338.9,448.8,340.6z M311,422.4c-0.1-0.4-0.1-0.4-0.1-0.4c-0.7,0.2-1.3,1.2-1.1,1.6
					c0.1,0.4,1.1,1.3,2.2,1c0.7-0.2,0.8-1.5,0.8-1.5C312.2,422.5,311.7,422.2,311,422.4z M372.2,405.2c0.4-0.1,0.8,0.2,0.8,0.2
					c1.1-0.3,2-1.4,1.6-2.9c-0.5-1.9-0.8-1.4-1.2-1.7c-1.8,0.5-2.4,1.5-2.2,3.5C371.9,404.1,372,404.4,372.2,405.2z M376.8,331.6
					c-0.2-0.8-0.7-1-1-0.9c-0.4,0.1-1.4,0.8-1,1.9c0.5,0.3,0.6,0.6,1.8,0.7C376.8,333.2,377,332.3,376.8,331.6z M365,379.1
					c1.4-0.8,2.1-1,1.7-2.5c-0.5-0.9-0.9-1-1.2-0.9c-1.5,0.4-0.9,1.1-1.8,1.3C364,378.2,364.7,378,365,379.1z M470.6,376.6
					c2.6-2,3.1-3,3.6-5.6c-0.4,0.1-0.7,0.2-0.7,0.2c-0.1-0.4,0.3-0.5,0.3-0.5C471.5,371.4,470.3,374.2,470.6,376.6z M338.2,386.6
					c-0.6-0.7-0.7-1-1.4-0.8c-0.4,0.1-0.7,0.2-1,0.7c0.2,0.8,0.8,3,1.9,2.7c0.7-0.2,1.1-1.6,0.9-2.3
					C338.6,386.5,338.6,386.5,338.2,386.6z M443.5,324.8l-1.4-0.7c-0.5,0.1-3.4,0.5-4.6,0.8c-0.9,0.3-0.6,0.7-0.7,1.2l-1.4,0.4
					l0.1,0.5c-4,3-2.8,5.5-2.8,9.2l0.5-0.1l0.3,1c0.3,0.2,0.6,0.4,1.1,0.2l0.7,2.4c0.9-0.3,3.2,2.4,5.8,1.7c8.9-2.6,7.9-7.8,7-13
					l-0.5,0.1l-0.4-1.4c-0.1,0-0.3,0-0.4-0.1c0.3-0.6,0.6-1.6,0.2-3c-0.5-0.3-1.4-0.8-2.1-0.6C444.6,323.4,443.8,324.1,443.5,324.8z
					 M429.8,220.4c1.1,2.5,2.8,4.5,5.4,3.7c0.2,0.7-2.1,2.3-1.4,4.9c0.5,1.7,2.6,2.3,2.7,2.5c3.6-1.1,3.1-4.6,2.7-6.1
					c-0.5-0.3-0.8-0.2-0.9-0.5l0.4-0.1c-0.2-0.8-2-0.2-2.1-0.6c0,0,0,0,0.6-0.6c0.1,0.4,0.8,0.2,0.8,0.2c0.6-2.2,1.9-4.6,1.5-6.1
					c-0.7-2.6-3.9-4.2-6.1-3.5c-0.6,0.6-1,0.7-1.7,0.9C429.3,215.6,429.8,220.4,429.8,220.4z M407.7,197.5c0.2,0.8,1.2,1.7,2.1,1.8
					c-0.5-1.9-5-5.1-7-5.3C403.7,195.8,405.7,197.3,407.7,197.5z M469.6,208.3c0.6,0.6,0.5,1.9,1.6,1.6c2.6-0.8,2.1-2.3,2.5-2.4
					c-0.3-1.1-0.6-2.3-2.4-1.7C470.1,206.1,469.1,206.7,469.6,208.3z M381.6,132.9c0.7-0.2,1.8-0.5,1.4-2
					C381.6,131.3,381.6,131.3,381.6,132.9z M405.8,163.4c0.4,1.5,1.2,1.7,2.3,2.6c1.5-0.4,2.7-1.6,2.3-3.1c-0.1-0.4-1.1-2.5-1.8-2.3
					c-0.4,0.1-0.3,0.5-0.6,0.6l-0.1-0.4C404.4,161.7,406.9,163,405.8,163.4z M384.1,258c0.2,0.8,0.7,1,1.3,1.7
					c1.1-0.3,2.4-1.1,2.1-2.3c-0.2-0.8-1.2-1.7-2-1.5C384.8,256.1,384.5,257.8,384.1,258z M386,296.2c1.8-0.5,5.1-3.1,4.9-5.1
					c-0.7,0.2-0.6-0.6-1.1-0.9c-0.4,0.1-2.2,0.6-2.1,1C388,291.9,385.8,294.2,386,296.2z M377.8,306.8c1-0.7,2.7-1.6,2.5-2.4
					c-0.1-0.4-0.5-0.3-0.6-0.7C377.9,304.3,377.3,304.9,377.8,306.8z M395.3,244.1c0.2,0.7,0.2,0.7,0.7,1c0.7-0.2,1.4-0.8,1.5-1.7
					c-0.4,0.1-1.2-0.1-1.9,0.2C395.2,243.7,395.2,243.7,395.3,244.1z M402.7,319.4c0.5,1.9,1.5,2.4,2.6,2.1c1.5-0.4,3-2.1,2.6-3.6
					s-2.2-2.2-2.9-2C403.4,316.4,402.1,317.6,402.7,319.4z M160.5,309.6c-1.4-4.9-4.3-4-4.3-4c-2,0.8-0.8,2.3-1.9,3
					c1.9,6.8,7.5,7.2,7.6,7.5c0,0,0.6-2.2,0.4-3C161.9,311.6,161.2,310.6,160.5,309.6z M165.4,321.6c-0.1-0.4-0.3-1.1-0.8-1.4
					c-1.1,0.3-1.8,0.5-1.6,1.3c0.2,0.7,0.3,1.1,1.2,1.7C165.3,322.5,165.6,322,165.4,321.6z M138,338.3c0.1,0,0.2-0.1,0.3-0.1l0,0
					C138,338.3,138,338.3,138,338.3z M133.7,342.4c-0.1,1.2-0.5,2.6-0.5,2.6c1.3,4.9,5.6,4.5,7.4,3.9c3.6-1.1,3.4-3.4,2.7-6.1
					c-1.4-5-3.8-4.9-4.9-4.7c-0.6,0.6-0.9,1.1-1.6,1.3c-0.4,0.1-0.8-0.2-1.6,0.1c-0.4,0.1-0.4,0.1-0.3,0.5
					C134.8,340.9,133.7,341.2,133.7,342.4z M166.1,336.9c0,0,0.1-1.2,0-1.6c-0.9-0.5-0.9-0.5-2-0.2c-0.4,0.1-0.1,1.2-0.3,1.7
					C164.9,336.9,165,337.3,166.1,336.9z M307.1,382.7c-0.4,0.1-0.7,0.2-0.6,0.6c0.2,0.8,0.3,1.1,0.7,1c0.4-0.1,0.5-1,0.4-1.3
					C307.5,382.6,307.1,382.7,307.1,382.7z M104.1,338.5c0.2,0.7,0.3,1.1,0.8,1.4c0.4-0.1,0.2-2.1,0.1-2.5
					C103.9,337.7,104,338.1,104.1,338.5z M310,378.6c0,0-1.7,0.9-1.5,1.7c0,0,1,0.9,1.8,0.7c0.7-0.2,0.4-0.1,0.9-1.1
					C310.9,379.2,310.3,378.5,310,378.6z M330.9,384.3c-1.1,0.3-1.5,0.4-1.7,0.9c0.5,0.3,0.7,1,0.8,1.4c0.7-0.2,1-0.7,1.7-0.9
					C331.6,385.3,331.3,384.2,330.9,384.3z M335.5,160.4c0,0,0.1-0.2,0.1-0.3c-0.1-0.1-0.3-0.3-0.3-0.4
					C335.4,160,335.5,160.4,335.5,160.4z M251.4,385.3c0,0-0.7,0.2-1,0.7c0.3,1.1,0.8,1.4,1.5,1.2c0,0,0.4-0.1,0.6-0.6
					C252.2,385.5,251.7,385.2,251.4,385.3z M131.7,325.4c0.6,2.3,0.9,1.8,2.9,2C134.2,325.9,133.2,325,131.7,325.4z M196.3,344.8
					C196.4,344.8,196.4,344.7,196.3,344.8c0-0.2-0.1-0.3-0.1-0.4C196.3,344.8,196.3,344.8,196.3,344.8z M261.3,188
					c-7.7,2.3-11.1,4.1-11.1,4.1c0.1,0.4,0.8,0.2,2.3-0.3c2.2-0.6,6.6-1.9,11.7-4.7c-1.1,0.3-1.7,0.9-2.8,1.2L261.3,188z
					 M275.3,384.8c0.9-0.3,0.9-0.9,0.8-1.5c-0.1-0.2-0.1-0.4-0.1-0.4c-0.4,0.1-0.8-0.2-1.2-0.1c-0.4,0.1,0,0-0.6,0.6
					C274.4,384.2,274.6,385,275.3,384.8z M108.8,366.9c0,0-0.1-4.5,1.4-4.9c-2.2-7.9-12.2-9.9-12.2-9.9c-9.9,2.9-7.7,9.2-7,11.9
					c0.1,0.4,5.4,6.6,5.4,6.6l-0.4,0.1c0.2,0.8,4.6,2.3,6.8,1.7c0,0-0.4,0.1-0.3,0.5c0,0,1.5-0.4,2.2-0.6
					C104.4,371.1,110.1,371.4,108.8,366.9z M327.1,131.5c-0.4,1.5-1.3,1.6-2.6,2c3,3.6,4.8,3.1,5.2,3c1.1-0.3,0.7-1.8,2.1-2.3
					c0.7-0.2,1.6-0.1,1.9-0.2c0.7-0.2,1.6-1.3,2.3-1.5c-0.8-1.4-10.1-0.9-10.2-1.1C326,131.8,326.3,131.7,327.1,131.5z M174,345.6
					c-0.2-0.8-0.7-1-1.9-1.1l-0.1-0.4c-1.4,0.8-1.6,1.3-1.4,2.1c0.2,0.7,0.8,1.4,1.7,1.9C173.5,347.8,174.4,346.8,174,345.6z
					 M181.7,346.2c1.1-0.3,1-0.7,0.8-1.5c-0.7,0.2-1.5,0.4-1.2,1.2C181.3,345.9,181.6,345.8,181.7,346.2z M351.4,142.3
					c0.3-0.5,0.2-0.9,0-1.6c-0.6-0.6-1.3-1.7-2-1.5s-1.6,1.3-1.3,2.4c0.1,0.4,0.2,0.8,0.7,1c0.3-0.5,1-0.7,1.2-1.2
					C350.4,141.7,350.9,142,351.4,142.3z M318.6,414.1c1.8-0.5,3.7-3.9,2.9-6.6c-1.8-6.4-6.7-4.2-7.2-4.4c-2.6,0.8-4.6,3.4-3.6,7.2
					c0,0,1.4,3.7,3.1,4C315.9,414.4,314.9,415.1,318.6,414.1z M274.8,424.5l-0.3,0.5c0,0,0.3,1.1,0.7,1c0.7-0.2,1.1-0.3,0.8-1.5
					C275.7,424.7,275.2,424.4,274.8,424.5z M73.8,278.8c-0.1-0.4-0.7-1-1.4-0.8c-0.1-0.4-0.1-0.4-0.1-0.4c-0.6,0.6-1.4,0.8-1.2,1.2
					c0.4,1.5,1.2,1.7,1.6,1.6C73,280.3,74,279.6,73.8,278.8z M137.3,284.2c-0.4,0.1-2.4-1.3-2.4-1.3c-1.8,0.5-2.9,2.5-2.7,3.2
					c0.3,1.1,1.8,2.3,2.8,2.9C138,288.1,138,286.4,137.3,284.2z M349.7,398c-0.4,0.1-0.4,0.1-0.6,0.6c0.2,0.8,0.4,1.5,1.1,1.3
					c0.4-0.1,0.5-1,0.3-1.7C350,397.8,349.7,398,349.7,398z M309.4,423.7c-0.1-0.4-1.6-1.6-2.4-1.3c-0.7,0.2-1.4,2.1-1.9,3
					c0.9,1.8,1.4,2.1,3.5,1.4C309.3,426.2,309.7,424.8,309.4,423.7z M158.3,268.6l0.4-0.1c-0.9-3.4-3.8-3.8-4.9-3.5
					c-0.7,0.2-1.5,1.7-0.6,5.1c0.9,0.5,0.5,1.9,3.8,0.9C158,270.3,158.4,270.2,158.3,268.6z M242.2,442.3c1.6-1.3,1.1-3.2,0.6-5.1
					c-0.9-0.5-3.1-2.8-4.6-2.3c-2.6,0.8-2.1,2.3-3.1,4.6c1.1,4.2,4,4.5,6.2,3.9C241.7,443.3,242.1,443.2,242.2,442.3z M215.2,443.3
					c-0.4-1.5-1.1-2.5-1.8-2.3c-0.4,0.1-1.3,0.8-1.1,1.6c0.2,0.8,1.2,1.7,2.3,1.4C215,443.8,215.3,443.7,215.2,443.3z M361,403.2
					c0.8,0.2,1.3,0.4,1.7,0.3c-0.2-0.8-0.4-1.5-0.8-1.4C361.1,402.3,361.2,402.7,361,403.2z M91.6,301.7c0.1,0.2,0.1,0.4,0.2,0.6
					c0.2,0.6,0.4,0.9,1.4,0.6c-0.1-0.4,0.2-0.9,0.2-0.9C93.1,301.3,92.3,301.5,91.6,301.7z M95.1,304.4c0,0,0,0,0.4-0.1
					c-0.7-1-1-0.9-1.6-1.6c-1,0.7-1.7,0.9-1.5,1.7c0.3,1.1,0.9,1.8,1.6,1.6C94.7,305.7,95,305.2,95.1,304.4z M224.1,416.6
					c-0.2-0.8-2.2-1-2.6-2.1c-1.6,1.3-3.7,1.1-2.7,4.5c0.8,1.4,2.3,1.4,3,2.4C221.8,421.2,224.8,419.4,224.1,416.6z M304.2,395
					c-0.7,0.2-1.8,0.5-1.5,1.7c0.7,1,0.7,1,1.9,1.1c-0.1-0.4,0.6-0.6,1-0.7C305.3,395.9,304.8,395.7,304.2,395z M397.2,394.1
					c8-2.4,8-10.9,7.6-12.5c-4.6-4.4-3.7-4.8-3.8-5c-0.1-0.4-0.2-0.8-0.3-1.1c0,0,0.2,0.8-0.2,0.9c-2.9,0.9-6.8-1.7-9.7-2.1
					c-0.4,0.1-2.9,3.7-3.2,4.2c-0.7,0.2-1.9,0.2-2.7,0.4c0.2,0.7,0.8,1.4,0.9,1.8c0.4,1.5-1.6,2.9-1.1,4.4
					C388.4,398,395.8,393.3,397.2,394.1z M169,292.8c-0.6,0.2-0.9,0.3-1.3,0.4c-0.9,0.3-1.2,0.6-0.8,2.3c0.6,0.6,1,0.9,1.8,0.7
					C169.9,295.4,169.2,293.8,169,292.8z M322,395.1c-0.2-0.8-0.1-1.6,0.5-2.6c-0.1-0.4-0.7-1-1.4-0.8c-0.1-1.6-0.4-2.8-0.7-3.9
					c-0.9-0.5-0.6-2.3-3.2-1.5c-0.7,0.2-0.6,0.6-1,0.7c-1.1,0.3-2.1-0.6-3.2-0.3c-2.6,0.8-4.5,6.6-4,8.5c2,7.2,8.2,5.3,10.4,4.7
					C319.2,399.2,322.1,396.7,322,395.1z M393.7,222.7c0,0,0.5,0.1,0.7,0.8l0.7,2.4c0.3,0.2,0.8,0,1.1,0.2l0.3,1l0.5-0.1
					c1.1,1.2,4.7,2.5,9.2,1.2l-0.1-0.5l1.6-0.5l-0.1-0.5l0.9-0.3l-0.1-0.5c2.6-2.6,1.1-4.2,2.6-6.2c-2.1-3.8-3.5-8.1-10.3-7.9
					l-0.1-0.5c-2,0.9-4.1,1.5-5.4,3.2C392.6,217,393.5,220.1,393.7,222.7z M292,386.5c0.1-1.4,0.6-1.5,0.2-2.9
					c-2.6-9.4-6.3-7.3-7.6-12.1c-2.1,0.6-6.3-8.1-7.4-7.7c-3.5-6.3-6.9-4.8-7.6-6.4c-0.1,0-0.2,0-0.3,0c0.1-0.5,0.2-0.9,0.1-1
					c-3.3-12-6.5-9.1-8.4-12.7c0.3-1.1,1.1-2.3,3.3-3.7c0.3,1,9.5,3.2,9.5,3.5c0,0-0.3-0.2-0.5-0.1c0.6,2.2,1.6,3.2,2.9,4.9
					c4.1-1.2,1.6-4.4,2.5-6.3c0.2,0,0.5,0.1,0.6,0.1c0,0,1.8,0.7,1.9,1.1s-0.3,3.4-0.2,5c1.9,1.1,2.5,2.7,2.9,4.1
					c0.4,1.5,1,3.8,0.1,4c0.7,2.6,2.9,4.9,10.6,5.5c-0.1-0.4,0.3-0.5,0.6-0.6c0.7-0.2,2.9,0.4,3.6,0.2c11.7-3.4,10.4-18.2,10.1-23.4
					c0.2-0.1-2.1-1.7-4-3.6c-0.1-0.3-0.2-0.5-0.3-0.6c-0.2-0.8,1.7-3.1,3-4.2c1.1,1.6,3.1,2.2,4.6,3.1l0.5-0.1l0.3,1
					c0.2-0.1,1.2-0.1,1.6,1.3l0.9-0.3l1.2,0.7l0.3,1c0.3,0.2,0.8,0,1.1,0.2l1.5,5.5l0.5-0.1l0.3,1l0.5-0.1c0.4,0.4,0.7,0.8,1.3,1.2
					c1.3-0.7,2.7-1.3,4.3-1.8c0.1,1.2-0.6,2.9-0.2,4.8c-0.2,0.2-0.3,0.3-0.5,0.5c-0.8,0.8-0.6,2-0.4,3c0.5,1.9,1.4,2.9,2.3,3.8
					c0,0.4,0,0.9,0.1,1.2c0.2,0.7,1,1,1.5,0.9l0.3,1l0.5-0.1l0.3,1l0.5-0.1l0.2,0.8c0.2,2.8-2,4.7-1.7,6.1c0.4,1.5,3.3,6.4,3.8,7.9
					c0.4-0.1,10.8,6.2,11.1,7.3c0.8,0.2,10.1,0.7,10.1,0.7c0.3-0.5,0.3-0.5,0.6-0.6c0.7-0.2,2.4,0.1,3.1-0.1s1.1-0.3,1.1-0.3
					s-0.4,0.1-0.5-0.3c6.7-7.3,5.9-11.6,5.9-11.6c0.1-0.4,0.2-0.7,0.4-1.1c1.2-0.5,2.2-1,2.6-1.7c0.9-1,1.1-1.9,1.2-2.8
					c2.4-1.2,4.7-1.6,3.8-5.1c0.2-0.1,0.3-0.1,0.5-0.2c-0.2-0.6-0.1-1.1-0.1-1.7c1.3-2.1,4.6-4.3,4.5-4.6l-0.4,0.1
					c0.7-0.2,2-1.4,2.7-1.6c0,0,4.5-3.8,4.4-4.1l-0.4,0.1c0.7-1.8,5.2-1.1,4.1-5.3c-0.3-1.1-1.9-2.7-5.6-1.6c-1.1,0.3-2,1.4-3.1,1.7
					c-4.7,1.4-3.4-1-5-1c-0.4-1.5,0.4-3,0.2-3.7c-0.1-0.4-0.5-0.3-0.8-0.2c-0.7,0.2-1.7,0.9-2,1.4c-1.1,0.3-1.9-1.1-2.1-1.8
					c-0.4-1.5,1.7-0.9,1.2-2.8c-0.1-0.4-0.9-0.5-1.3-0.4s-0.4,0.1-0.3,0.5c-0.6,0.2-1,0.2-1.4,0.3c0-0.1-0.1-0.1-0.1-0.2v-1
					c2.8-0.8,3.4-1.3,3.9-4l0.5-0.1l-0.2-3.6c-0.1-0.3,0-0.8,0-1c-0.3-1-0.7-1.6-1.1-2l-0.5,0.1c-0.4-0.4-0.5-0.9-0.6-1.1
					c-0.3-1.1-0.1-2.3-0.1-3.3c0.4-0.1,0.8-0.2,1-0.3c-0.3-0.4-0.6-0.6-0.8-0.7l1-0.7l-0.3-1l3.7-1.1c-0.1-0.2,0.1-0.6,0-1l0.9-0.3
					c-0.2-0.7-0.2-1.5-0.3-2c-0.3-1-3.2-2.4-4.4-3.1c-0.7-2.4-0.2-1.7,0.1-3.4l0.9-0.3c-0.1-1.3-0.3-1,0.3-1.6
					c-1-3.6-3.2-3.2-5.8-3.8c-0.3-2.8-1-4.6,1.6-7l-0.5-1.9c-0.1-0.2-0.1-0.2,0.2-0.3c-0.3-0.2-1.7-0.8-2.5-0.8l-0.1-0.5
					c-0.2,0.1-0.5-0.1-0.5-0.1c-0.7,0.2-0.2,1.1-0.6,1.5l-0.9,0.3l-0.1-0.5l-1.2,0.4c-0.4-0.4-0.7-0.6-0.7-0.8l-0.9,0.3l-0.1-0.5
					c-0.9-0.5-1.4-1.4-1.6-2.1c-0.3-1-0.2-1.7-0.4-2.5c-0.1-0.5-0.2-0.7-0.6-1.1l-0.5,0.1c-1.7-2.4-3.7-1.8-5.5-2.5
					c0.3-0.1,0.6-0.1,0.8-0.2c-0.1-0.3-0.2-0.5-0.3-0.7c1.4,0.1,3.2-0.4,5.3-1c0.1,0.2,3.8-3.4,2.7-7.3c-1.4-4.9-6.3-7.1-7-6.9
					c-1.1,0.3-3.3,2.2-4.6,3.4c-2.2,0.6-1.8,5-1.8,5c0.6,2.1,1.2,3.7,1.9,4.7c-4.6-1-11.9,0.2-14.1-1.7c0.3,0,0.4,0.2,0.7,0.1
					c0.4-3-0.5-6.4,5.6-8.2c0.7-0.2,1.7,1.6,5,0.6c0.3-1.7,0.4-3.2,0.7-4.6l2.4-1.2l-0.1-0.5c1.4-0.4,2.6-0.8,3.4-0.5l0.1,0.5
					c0.8,0.3,0.8,0.3,2.1,0.2l0.3,1c0.8,0,0.2-0.1,0.8,0.3c2.3-0.7,1.7-2.1,1.5-2.8c-0.3-1.2-0.9-1.3-1.6-3.2
					c0.2-0.1,0.6-0.5,0.8-0.8l-0.1-0.5c0.9-0.3,1.9,0.5,3.1,0.1c3.1-0.9,2.4-4.6,3.3-7c0.5-0.4,0.7-0.9,1-1.3
					c0.2-0.2,0.5-0.4,0.8-0.5c0.9-0.3,1.2-0.1,3.1,0.4c0.4-1.4,1.5-3.6,2.5-4.6c-0.3-0.8-0.7-1.3-1-2l0,0c0.4-0.1,0.5,0.3,0.8,0.2
					c1.5-0.4,2.3-4.4,1.6-7c-0.1-0.3-0.2-0.5-0.3-0.7c1.1-0.7,2.2-1.5,2.8-2.6c-0.5-1.9-0.9-2.3-1.9-3.1l-0.5,0.1
					c-0.7-0.8,0-0.8-1.3-1.2c-1.6-5.8,4.8-7.4,4.3-9.1l0.5-0.1c0.1-0.6,0.4-1.2,0.5-1.7l0.9-0.3l-0.1-0.5l5.4-1.6l-0.1-0.5l0.9-0.3
					l-0.1-0.5c0.5,0.1,1,0,1.3,0.1c1.8-0.8,3.4-1.3,5-2c-0.7-0.8-0.1-0.5-0.7-0.8l-0.1-0.5c-3,0.9-3.9,1.4-6.1,0.8l-0.2-0.7
					c-1.5-0.1-1.4-0.6-1.7-0.5l-1.3,0.4c-0.4-0.4-1-0.7-1.6-0.5c-1.1,0.3-2.5,1.1-3.2,1.3c0,0-1.3-0.4-2-0.2
					c-0.3-1.1,1.1-4.4,0.2-7.8c-0.1-0.3-0.2-0.6-0.3-0.9c0.2-2.6,1-3.5,2.6-5.2l1.4-0.4l-0.1-0.5l0.9-0.3l-0.1-0.5l0.9-0.3l-0.1-0.5
					l0.9-0.3l-0.1-0.5l2.4-1.5l-0.1-0.5l4-1.2c0.2-0.3-0.2-0.7,1.1-1.4l-0.7-2.4c-3.8,1.6-2.4,2.3-6.4,5l0.1,0.5l-0.7,0.2l0.1,0.5
					c-1.4,0.4-3.2,0.4-4.3,0.8l0.1,0.5c-0.3,0.2-0.6,0.2-0.9,0.4c-0.6-1.5-1.4-2-2.4-3.3c0.9-0.3,0.6-2.2,0.2-3.7
					c-1.1-4-6-8-7.6-7.5c0,0-0.4,0.1-0.3,0.5c-1.6,0.1-1.6,0.1-2.2-1c-0.1,0.1-0.2,0.2-0.2,0.2c0-0.1,0.1-0.2,0.1-0.3h0.1
					c1-0.7,2.4-1.5,3.5-1.8c0.4-0.1,0.7-0.2,0.8,0.2c1.5-0.4,3.4-6.3,7.1-8.6c1.4,4.9,6.1,3.5,6.6,5.4c-0.4,0.1-0.3,0.5-0.3,0.5
					c0.2,0.8,1.2,1.7,2.1,1.8c-0.1-0.4,0.3-0.5,0.6-0.6c1.8-0.5,3.9,1.3,4,1.7c1.4-0.8,2.6-2,3.7-2.3c1.5-0.4,2.6,0.9,3.3,0.6
					c0.7-0.2,1.3-1.2,1.2-1.6c0.7-0.2,1.6-0.1,2.3-0.3c4.4-1.3,7.7-13.7,8.6-14.8c-0.1-0.4-0.5-0.3-0.5-0.3
					c-0.1-0.4,0.2-0.9,0.2-0.9c-0.1-0.4-0.5-0.3-0.5-0.3c-0.6-2.3,0.4-4.2,0.2-5c-0.6-2.3-2.2,0.6-3.4-3.9c0,0,0.6-0.6,0.3-1.7
					c-1.4-4.9-5-2.2-6.9-4.9l-0.6,0.6c-0.8-3-2.9-3.2-5.1-2.6c0.1,0.4-0.3,0.5-0.3,0.5c-3.9,0.3-5.6-3.2-6.7-2.9
					c-0.4,0.1-0.5,1-0.4,1.3c0.1,0.4,0.7,1,0.8,1.4c0.2,0.8-3,3.3-4.1,3.7c-0.7,0.2-2.3,0.3-3,0.5c-3.3,1-4.5,9.5-4.5,9.5
					s-4.2-5.3-5.7-7.7c-0.7,0.2-1.3,1.2-1.6,1.3c-2.6,0.8-3.8-3.8-3.9-4.2c-1.4,0.8-2,1.4-2.9,2.5c-0.6-0.6-2.1-0.6-3-0.8
					c-0.3,0.5-1.4,0.8-2.1,1c-0.1-0.4-0.6-0.6-0.6-0.6c-1.1,0.3-1.7,0.9-3.1,1.7c-0.2-0.8-1.3-0.4-1.8-0.7c-0.7,0.2-5.8,6.2-5.6,7
					c0.7-0.2,1.9-0.2,2.4,0.1c-0.8,1.5-1.9,1.8-2.6,2c-0.4,0.3-0.7,0.7-1,1.1l-0.4-1.4c0.7,0.1,1.2,0.3,1.4,0.3c0.5-1,0.5-1,0.2-2.1
					c-1.1,0.3-0.3,0.5-1.4,0.8c-0.5,0.2-0.9,0.2-1.3,0.3c0-0.1-0.2-0.2-0.2-0.3c-0.3,0.1-0.5,0.3-0.7,0.5c-1.4,0.2-2-0.2-2.6-2.4
					c-0.2-0.8,1.6-1.3,1.3-2.4c-0.1-0.4-0.6-0.6-0.6-0.6s8.3-5.7,8.1-6.5c-0.1-0.4-0.6-0.6-0.9-0.5c-3.6,1.1-4.1,3.7-4.9,3.9
					c-0.5,0.1-0.8,0.2-1.1,0.3l0.5,0.3c-2.2,0.6-0.2,0.9-2.7,1.6c0,0-0.5-0.3-0.6-0.6c-0.1-0.4,0.5-1,0.9-1.1c0,0,0.5,0.3,0.6,0.6
					c0.6-0.6,1.6-1.3,1.5-1.7c0.1,0.4-7.6-4.7-9-5.5c0-1.2-0.4-2.7-0.7-3.9c-0.5-0.3-0.7-1-0.8-1.4c0.7-0.2,1.5-0.4,2.2-0.6
					c-0.5-0.3-0.5-0.3-0.6-0.6c-0.1-0.4-0.1-0.4,0.2-0.9c-0.9-3.4-3.8-2.1-5.6-9c0.7-0.2,1.9-3,1.8-3.4c-0.4,0.1-0.5-0.3-0.5-0.3
					l0.1,0.4c-0.2-0.8-0.7-1-0.9-1.8c-0.5-1.9-0.4-2.7,0.9-3.9c-6.9-6.5-6.8,4-10.1-8c-0.5-1.9,0.6-2.2,0.3-3.3
					c-0.5-1.9-1.2-1.3-3.5-1.4c-0.9,1.1-1.6,1.3-2.4,1.5c0,0-2-3.1-3.5-2.6c-0.1-0.4,0.3-0.5,0.2-0.9c-1.8-1.3-1.2-2-2.8-2.6
					c-1.5-1.3-3.6-4.6-5.6-6.4c-2.8,1.2-1.4,4.9-4.3,5.8c-5.9,1.7-8-3.3-10.4-3.4c0.5-1,0-2.9-0.2-3.6c-0.2-0.8-0.8-1.4-1.5-1.2
					c-0.7,0.2-1.1,1.6-0.9,2.3c0.3,1.1,1,2.2,1.2,2.9c0.6,2.3-0.4,3-1.8,3.4c-1.1,0.3-1.7-0.3-2.8,0c-0.7,0.2-1,0.7-1.7,0.9
					c-3.3,1-2.5-1.7-7.7-3.5c-0.3,0.5-0.3,1.7-0.2,2.1c0.1,0.4,0.2,0.8,0.6,0.6c0,0-0.3,0.5-0.2,0.9c0.2,0.8,1,2.2,1.4,2.1
					c0.6,2.3-1.4,2-1.2,2.8l0.5,0.3c-2,1.4-3.4,5.1-3.4,5.1c-1.5,0.5-2.9,0.6-4.1,0.5c0-0.8-0.1-1.5-0.3-2.3c-0.3-1-1.5-1.9-1.9-3.3
					c-0.1-0.2,0.2-0.3,0.2-0.3c-1-3.6-8.5-2.4-11.8-1.7l0.1,0.5l-1.2,0.3l0.3,1l-0.9,0.3l0.3,1l-0.9,0.3l0.3,1l-0.9,0.3
					c0.2,1.5-0.7,2.8-0.6,4.1c1.6,4,2.2,5.3,5.6,8.5c1.7,0.5,1.8-0.8,3.5,0.8c5.7-3,5.9-3.3,5.8-3.5h0.2c-0.6,5.1-4.1,8.8-3.9,9.4
					c0.1,0.4,0.1,0.4,0.5,0.3c-0.4,0.1-1.1,4.4-0.6,6.3c1,3.8-4.9,5.1-4.8,5.5c0.1,0.4,1.9-0.2,2.1,0.6c0.8,3-0.4,3-1.8,3.4
					c-1.9,0.2-2.6-0.9-4.4-0.3c0.8,3,5.8-1.7,7.3,3.6c-0.7,0.2-1.2,0-1.9,0.2c0.5,1.9,3-0.5,3.9,2.5c0.6,2.3,0.2,3.6,0.6,5.1
					c0.3,1.1,1.7,1.9,2.1,3.4l-5.1,1.5c0.8,1.4,5.2,1.7,5.3,2.1c0,0,0,0-0.4,0.1c0.9-0.3,0.9,0.5,1,0.9c-1.5,0.4,0.6,3.5-0.9,3.9
					c1.3,4.5-7.7,5.1-6.7,8.5c8-2.4,5.1-6,7.6-6.7c0.2,0.8,0.3-0.5,1.9,1.1c0.7,1,1.6,1.6,1.9,2.7c0.3,1.1-2,2.6-1.8,3.4
					c-0.8-0.2-2.3,0.3-3.4,0.6c-1.5,0.4-2.6,0.8-2.3,1.5c0.1,0.4,0.5,0.3,0.6,0.7c-0.3,0.5-0.5,1-0.7,1.8c0.4-0.1,9.3,2.2,9.5,2.9
					c0.8,3,2.7,2.5,3.9,4.2c-2.7,4.5-3.2,5.4-3.2,5.4c0.1,0.4,0.5,0.3,0.8,0.2c1.8-0.5,2.2-3.5,3-5c1.4,0.8,3.8,2.2,4,2.9
					c-0.8-0.2-1.6,0.1-2.7,0.4c0.2,0.8-1,0.7-1.6,1.3c1.8-0.5,4-1.2,4.7-1.8c0.2,0.7-5.1,1.5-4.6,3.4c0.1,0.4,2.7-0.4,4.2-0.4
					c-0.1-0.2,0.2-0.4,0.6-0.6c0.3,0.9,1.5,1.6,2.3,1.9c0.7,2.7,1.1,3.9-0.5,5.4l0.3,1c-0.2,0.1-0.4,0.4-0.9,0.5v1
					c-0.3,0.6-0.4,1.2-0.5,1.7l-0.9,0.3l0.1,0.5l-0.9,0.3c-1.1,1.6-0.8,0.8-2.6,4.2l-0.4,0.1c-2.6-2.9-5.1-5.4-12.7-4.5
					c-1.6,0.2-3.3,0.3-5.1,0.5c0.3-1,0.5-2.3,0-3.9c-0.4,0.1-1.2-0.1-1.2-0.1c-0.2-0.8,0-1.6-0.3-2.4c-0.2-0.8-1.5-1.2-1.6-1.6
					c-0.1-0.4,0.9-1.1,0.8-1.5c-0.1-0.4-0.2-0.8-0.6-0.6c-0.4,0.1-0.3,0.5-0.6,0.6c-0.7,0.2-0.9-0.5-1.1-1.3c-0.7-2.6,0.3-1.7-0.3-4
					c0,0-1.3-0.4-1.7-0.3c-1.8,0.5-0.5,1-2,1.4c-0.7,0.2-1.6,0.1-2.3,0.3c0.2,0.8-0.9,1.1-1.5,1.7c-1-0.9-1.6,0.1-1.8-0.7
					c-0.1-0.4,0.2-0.9,0.2-0.9c-0.1-0.4-1.4-0.8-1.6-1.6c-1.1,0.3-1.6,4.2-1.4,4.9c-1.2-0.1-2.3,0.3-3.5,0.2
					c0.4,1.5,1.3,3.3,1.7,4.8c0.2,0.8,0.3,1.1,0.1,1.6c-0.4,0.1-1.1,0.3-1.6,0c0.2,0.8,0.6,0.7,0.7,1c0.2,0.8-0.8,1.5-1.2,1.6
					c0.1,0.3,0.2,0.5,0.2,0.8c-0.2,0-0.4,0-0.6,0.1c-2.6,0.8-6.2,5.7-10.2,6.9c-0.4-1.4-1.6,0.7-2.4-2.4c-1.2-4.3-9.6-4.5-11-4.1
					c-0.7,0.2-1.3,2.7-0.9,3.9c0.3,1,0.3,1.2,0.6,1.1l-0.1-0.2c0.2-0.1,0.3,0.2,0.4,0.7c1.1-0.6,2.2-1.2,3.4-1.5
					c2.8-0.8,4.5,0.8,4.8,2s-5.1,10.6-5,11.1c-0.5,0.1-1,0-1.2,0.1c-0.5,0.1-0.6,0.5-0.5,0.9c-1.8,0-2.6-1.3-3.1-3s0.5-1.7-0.3-4.9
					c-0.3-1.2-1-2.8-1.7-2.6c-0.3-1-0.2-1.8-0.2-2.5c-0.9,0.3-2.3,4.6-2.3,4.3c0.1,0.5,0.6,0.3,0.7,0.8c0.1,0.2,0,0.8,0,0.8
					c-0.2,0.1-0.3-0.2-0.3-0.2s0.4,0.4,0.8,1.9c0.8,2.9-0.2,4.8,0.4,6.9c0.3,1,0.7,1.6,1.5,2.7c-3.2,3.8-5.9,13.5-6.1,14.3
					c0.2-0.1-6.7,6.7-6.2,9.4c-0.5-0.1-1.1-0.2-1.8,0l0.4,1.4l1-0.8c0.1,0.5,0.1,0.5,0.6,0.3c2.6,9.4-2.9,13.1-2.9,13.1l0.2-0.1
					c-1.6,1.5-2.7,2.1-2.6,4.4c0.5-0.1,0.5,0.1,0.7,0.6c1,3.6-1.9,5-4,5.6c-6.5,1.9-7.1-0.2-9.5,0.4c-2.6,0.8-3.8,3.7-4.6,4.5
					c2.6,9.4,8.7,3.2,13.7,7.4c0.5-0.1,2.7,0.5,2.9,1.2l3.3-1c0.1,0.5,17.1,10.9,15.8,13.3c1.2,0.7,7,2.6,7.8,5.3
					c-3.4,0.5-4.2-1.4-6-0.8c-0.5,0.1-1.5,1.8-2.5,2c-0.2,0.1-0.5-0.1-0.7-0.6c-3.5,1.8-7,5.7-6.9,6.2c0.1,0.2,0.3,0.2,0.5,0.1
					c0.4,1.4-1.7,4.9-1.6,5.2c0.1,0.5,0.7,0.8,1,1.8c-0.5,0.1-0.9,2.3-0.6,3.3c0.1,0.5,0.2,0.7,0.7,0.6c0.1,1.3,0.4,2.5,0.5,3.7
					c4.3,0.8,6.1,4.2,9.6,5.1c0,1.5-0.1,2.8-1.7,3.2c-1.8,0.5-2.7,10.9-3.8,11.7c0.9,1.6,7,7,7.2,7.8c0.2-0.1,0.3-0.1,0.4-0.1
					c9.9-2.9,15.9,13.3,16.3,13.2c0,0-0.1-0.4-0.2-0.8c2.4,8.7,12.2,9.9,12.9,9.7c0,0,0,0-0.4,0.1c0.7,0.2,1.3,0.4,1.9,0.8
					c-0.1,0.7-0.1,1.4-0.1,1.4c0.5,0.9,0.7,1.6,1,2.6l0.2-0.3c0.2-0.1,0.3,0.2,0.4,0.4c0.8-0.2,1.6-0.5,2.4-0.9
					c0.4,0.5,0.7,0.8,0.8,0.8c0,0,0,0-0.1-0.4c0.4-0.1,1.2,0,1.9-0.2c0.4-0.1,1.4-0.8,2.1-1c1.1-0.3,5.7,0.8,6.8,0.4
					c1.1-0.3,1.1-0.3,1.1-1.6c0.7-0.2,1.8-0.5,1.6-1.3c0.8,0.2,1.2,0.1,1.9-0.2c-0.1-0.4,1.7-2.5,1.7-2.5c0.7-0.2,1.7,0.3,2,0.2
					c-0.2-0.8,3.9-7.3,5.7-7.8c0.4-0.1,0.4-0.1,0.5,0.3c1.3-0.4,2.3-1.6,3.1-3c1.4,1.3,2.7,3,4,5.6c3,6.4,5.9,7.6,6.1,8.4
					c0.7,2.4,3.3,2.9,3.9,4.9c0.4,1.4,0.3,3,0.7,4.5c1.6,2.9,4.8,3.8,8.1,2.8C291.2,388,291.8,387.6,292,386.5z M394.5,163.8
					c-0.8-0.2-1.7-0.3-1.7-0.3c-0.1-0.4,0.5-1,0.9-1.1C394.1,162.3,394.3,163.1,394.5,163.8z M342.4,148.2c0.6-0.6,2.3-1.9,3.7-2.3
					c0.1,0.4,0.6,0.6,0.8,1.4c0.2,0.8-2.1,2.3-3.2,2.6C343,149.2,342.6,148.9,342.4,148.2z M255.4,162.4c0.5-1,0.5-1,1.6-1.3
					c0.3,1.1,0.5,1.9,0.5,3.1C256.3,164.2,256.1,163.4,255.4,162.4z M344.9,154.4c-0.3,0.5-0.5,1-0.9,1.1s-0.8-0.2-1.2-0.1
					c-0.2-0.8,0.1-1.2,0.4-1.3C343.6,154,344,154.2,344.9,154.4z M336.7,152.4l-0.4,0.1c-0.1-0.1-0.1-0.1-0.2-0.2
					C336.3,152.4,336.5,152.4,336.7,152.4z M328.9,165.2c0.5-1.3,0-3.2,1.3-3.6c-0.1-0.4-0.3-1.1-0.9-1.8c1.3-1.2,1.3-2.4,1.3-2.4
					l0.1,0.4c0.1-2,1.1-3.7,2.7-4.7c-1.2,1.5-2,3.8-1.8,6l-0.9,0.3c-0.2,1.9-0.2,3.7-0.5,5.6C329.7,165.1,329.3,165.1,328.9,165.2z
					 M336.7,166.3c-0.4-0.2-0.5-0.4-1-1l-0.5,0.1c-0.8-3-0.2-5.9,0.6-8.2c0,0,0,0,0.1,0c-0.2,1.3-0.2,2.3-0.3,2.9
					c0.5,0.5,1.6,0.9,1.9,1.8c0.6,2.3-1.7,0.9-0.9,3.9c0.3-1.7,0.4-3,2.2-3.5c1.5-0.4,3.3,3.5,3.7,3.4c-0.3,0.5-0.2,0.9-0.1,1.2
					c0,0,0,0,0.4-0.1c-0.2,0.8-0.4,0.9-0.5,0.9c-1-0.1-2.1-0.3-3-0.5c-0.6-2-1.4-0.7-2.8-1.5C336.6,165.9,336.7,166.1,336.7,166.3z
					 M276,187.5c-1.1-1.2-2.3-1.4-3.4-1.8c1.5-0.2,3.2,0,4.7,0.4c-0.1,0.3-0.3,0.7-0.4,1.1L276,187.5z M342.3,167.8
					c0.3-0.1,0.3-0.1,0.7-0.2c0,0,0.1,0.2,0.1,0.3C342.8,167.9,342.6,167.8,342.3,167.8z M239.9,331.2c0,0.1,0,0.3,0,0.4
					c-0.3,0.2-0.5,0.5-0.9,0.6c-0.2-0.6-0.3-1.2-0.6-1.8C239,330.7,239.5,330.9,239.9,331.2z M220.3,338.5c0.1-1.2-0.2-2-0.5-3.1
					c-0.8-0.2-2-1.5-2.3-2.6c-0.6-2.3,0.4-3-0.2-4.9c-1,0.7-1.6,2.9-2.7,3.2c-2.2,0.6-4-1.2-5.2-3c0.3-0.9,0.9-1.6,1.9-1.9
					c0.7-0.2,1.2-0.1,1.7-0.2c2.1-0.6,4.1-7,4-8.2c-0.5,0.1-0.8-0.3-1-0.8c-0.3-1.2,0-4.4-0.4-6.1c-0.3-1-0.6-1.4-1.3-1.2
					c-0.1-0.2,0-1-0.1-1.3c-0.5-1.9-1.6-1.3-2-2.8c7.3,1.8,10.5,8.9,10.8,8.8l-0.1-0.2c2.3,0.9,3,2.5,3.9,2.2l1.1,4.1
					c1.6-0.5,5.5,3.3,6.2,3.1c0.4,2.2-1.3,2.5-0.7,4.9c0,0.1,0.2,0.2,0.5,0.3c-0.1,0.5-0.1,1.1-0.1,1.4c0.1,0.4,0.6,0.6,0.8,1.4
					c0.5,1.9-0.9,3.9-2.3,4.4c-1.8,0.5-2.7,0.4-3.8-0.9c-3.7,2.3-2.7,4.5-4.2,4.9C221.7,341,221.4,338.2,220.3,338.5z M247.1,401
					c-0.9,0.3-0.8-1.1-1.7-0.8c-0.7,0.2-1.3,0.6-0.9,2.1c0.4,1.4,0.6,2.2,2.2,1.7c0.2-0.1,0.5-0.1,0.6-0.5
					C247.6,402.7,247.5,402.4,247.1,401z M170.9,220.9c0.1,0.3,3.5,3.4,5.1,2.9C175.2,222.6,172.3,220.5,170.9,220.9z M168.5,206.6
					c1.1,1.2,2.7,1.6,3.6,3.1c0.5-0.1,0.6-0.5,0.6-0.7C172.4,208,169.2,206.4,168.5,206.6z M164.3,207.8c1,2.6,3.6,2.9,4.9,5.1
					l0.9-0.3C168.7,211.2,166.4,207.2,164.3,207.8z M247.4,391c-1.2,0.3-3.4,1.3-3.1,2.5c0.2,0.7,0.9,1.3,1.6,1.1
					C248.2,393.9,247.2,392.4,247.4,391z M181.1,204.9c0.2-0.1,0.5-0.1,0.5,0.1c0.1,0.2,0.1,0.5,0,0.8l1.5,0.1
					c0.4,0.7,0.7,0.8,1,0.8c0.2-0.1,0-0.8-0.2-1.5c-0.5,0.1-4.8-5.6-5.1-5.6c-0.9,0.3-0.8,1.6-0.8,1.8
					C179.1,201.1,181,205.2,181.1,204.9z M180.8,216.5c0.8,1.9,3.1,5.6,5.2,5C185.1,220.2,182.4,216,180.8,216.5z M178.8,265
					c-1,0-2.2,0.4-2.4,0.5c-0.9,0.3-0.4,1.2-0.3,2.4C177.7,267.4,178.3,266.7,178.8,265z M155,233.7c-1.4-0.6-3.5-1.6-4.9-1.2
					c-0.5,0.1-0.7,0.2-0.6,0.4c0.1,0.2,1.1,0.2,1.3,0.1c1.2-0.1,3.4,1.3,3.6,1.3C154.7,234.3,154.6,234.1,155,233.7z M130.3,243.9
					c-0.3-1-2.9-1.5-3.9-1.2c-0.5,0.1-0.2,0.3-0.9,0.5c2.1,2,3.7,2.3,8.4,2.2l-0.3-1C132.5,244.5,131.3,243.8,130.3,243.9z
					 M203.4,193.4c-0.8,0-1.5,0.2-1.7-0.5c-0.9,0.5-1,1.1-0.8,1.5c0.1,0.5,0.8,1.1,1.5,1.9c0.7,0.6,1,1,1.5,0.9s0.6-1.5,0.3-2.5
					C203.6,194.9,203.6,194.1,203.4,193.4z M148.5,236.7c0.1,0.2,0.9,0.5,1.3,0.9c0.5-0.1,3.3-0.7,3.1-1.4c-0.5-0.1-3-0.7-3.7-0.5
					C148.8,235.8,148.5,236.7,148.5,236.7z M193.3,193.2c0.5,1.7,0.7,2.4,1.9,3.1c-0.2-0.7-0.2-1.5-0.3-2
					C194.7,193.6,194.3,193.2,193.3,193.2z M215,142.3c-0.6-0.3-1-0.8-1.2-1.5c-0.3-1-0.1-2.3-0.4-3.3c-0.4-1.4-1.2-1.7-1.7-1.6
					c-0.7,0.2-0.5,1.7,0.1,3.9c1.1,3.9,3.7,7.8,4.2,9.7c0.7-1,0.6-2.5,0.2-4C215.9,144.4,215.3,143.2,215,142.3z M196.7,334.5
					c0.5-0.1,0.3-0.6,0.2-2.1c-1.2,0.4-1,0.8-1.7,1C195.9,334.3,196.5,334.6,196.7,334.5z M189.6,199c-1.2-1.7-4.2-5-4.4-5
					c0.1,0.5,0.1,0.5-0.3,0.6C185.7,196,188.2,199.4,189.6,199z M187.4,384.7c-0.6-1.1-1.3-2-1.5-2.7c-2.7,1.3-2.9,3.2-2.2,5.6
					c0.4,1.5,1.1,2,2,1.8C187.5,388.8,187.9,386.4,187.4,384.7z M233.2,379.8c-0.7-1.6-1.1-2-1.5-1.9c-0.5,0.1-0.9,0.5-1.7,1.3
					c1.1,2,0.7,2.7,3.1,2c-0.1-0.2-0.4-0.4-0.4-0.7C232.6,380.3,232.7,379.9,233.2,379.8z M187.8,331.4c-1.1,0.6-1.6,1.5-1.3,2.5
					c0.5,1.7,1.5,1.9,2.2,1.7c0.9-0.3,2-0.9,1.5-2.8C190,332.9,187.9,331.7,187.8,331.4z M172.1,181.5c0.2,0.7,2.5,3.7,3,3.5
					c0,0,0.2-0.3,0-0.8C174.3,183.7,173.1,181.2,172.1,181.5z M169.5,179.4c1,0.8,1.2,1.5,2.5,1.6l-0.3-1c-0.8-0.3-1-0.8-1.4-1.4
					C169.4,178.9,170.5,179.1,169.5,179.4z M156.9,184.9c-0.3-1-2.4-3.2-3.6-2.9l0.5,1.9c0.7-0.2,5.4,4.9,6.6,4.6
					C159.9,187.4,157.9,184.7,156.9,184.9z M200.9,167c-0.3-0.2-0.4-0.4-0.4-0.7c-0.1-0.2,0.2-0.3,0.2-1.1c-0.2-0.7-5.2-8.6-5.9-8.4
					c0.5,1.9,2.1,3,2.6,5c0.1,0.2,0,0.8,0.1,1.3c0.7-0.2,2.1,3.8,3,4.6c-0.1-0.5-0.2-0.7,0-0.8C200.6,166.8,200.7,167.1,200.9,167z"
					/>
			</g>
			
				<linearGradient id="SVGID_1_" gradientUnits="userSpaceOnUse" x1="229.3118" y1="166.814" x2="229.3118" y2="88.91" gradientTransform="matrix(1 0 0 -1 0 510)">
				<stop  offset="0" style="stop-color:#FFCB30"/>
				<stop  offset="1" style="stop-color:#FFE085"/>
			</linearGradient>
			<path class="st4" d="M226.7,269.6c0,0,1.4,108.6,0.9,129.2c-0.2,9.5,5.2,8.3,4.2-1s-3.6-111.4-0.6-128.3L226.7,269.6z"/>
			
				<linearGradient id="SVGID_2_" gradientUnits="userSpaceOnUse" x1="324.2454" y1="102.135" x2="324.2454" y2="42.8384" gradientTransform="matrix(1 0 0 -1 0 510)">
				<stop  offset="0" style="stop-color:#FFCB30"/>
				<stop  offset="1" style="stop-color:#FFE085"/>
			</linearGradient>
			<path class="st5" d="M319.8,351.9c0,0,2.3,82.7,1.6,98.3c-0.3,7.2,8.7,6.3,7.1-0.7c-1.6-7.1-6-84.8-1.1-97.6H319.8z"/>
			<g class="st6">
				<path class="st7" d="M185.8,157.4c0.1-1.5-1.2-2.1-0.7-3.6l-5.6-6.2c-0.3,0.3-5.1-2.8-5.1-2.8c-0.2-0.2-0.3-0.3-0.3-0.6
					c-0.6,0.7-4.7-5.9-8.1-2.3c-2,2.2,5.5,9.4,8.3,12.1c0.2-0.2,0.6,0,1.1,0.5c0.3,0.3,0.6,1,0.5,1.1c5.9,5.9,9.5,3.4,9.9,3.1
					C186,158.2,186.2,157.7,185.8,157.4z M174.2,241.2c-0.3-0.3-3.1,0.7-3.3,0.9c-1.1,1.2-2,0.9-3.8,2c2.9,2.2,4.1-2.4,6.9-2.4
					C174.3,241.3,174.2,241.2,174.2,241.2z M159.8,209c-0.2-0.2-0.5-0.5-0.8-0.8c-0.6,1-0.4,1.5,0.2,2.1c0.2,0.2,0.6,0.6,1,1
					C160.6,210.1,160.3,209.5,159.8,209z M164.5,123.4c-0.3-0.3-0.5-0.8-0.8-1.1c-0.3-0.3-1-0.3-1.9,0.4c0.3,0.3,0.3,0.3,0.2,0.5
					c-0.2,0.2-0.3,0.3-0.5,0.5c0.6,0.6,1.6,1.3,2.4,1.8C164.4,124.8,165.2,124,164.5,123.4z M246.5,152.7c0.2-0.2,0.1-0.5,0.1-1.2
					c-0.6,0.3-1.1,0.5-1.6,1C245.8,152.9,246.2,153,246.5,152.7z M315.7,158c0.6,0.6,1,0.6,2-0.5c0.1-0.8,0.3-1.3,0-1.6
					c-1.1-1.1-1.7-0.8-2.2-0.3C314.5,156.6,314.9,157.2,315.7,158z M174.5,136.9c0.8,0.8,1.9,0.9,2.7,0.1c1.6-1.7,0.3-2.9-0.5-4.1
					c-1,0-1.9-0.3-2.5,0.4C173.5,134,173.7,136.1,174.5,136.9z M156.6,113.6c-0.8,0.8-4.3-0.1-4.9,0.6c-1.1,1.2,0.4,5.2,1.4,6.2
					c2.1,2.1,4.7,0.6,5.4,1.2c0.8-1.8,0.4-4.1,0.9-4.6C158.2,115.8,157.4,114.7,156.6,113.6z M104.3,387.4c-0.7-0.2-1.6,0.6-1.9,1.7
					c0,0,0.5,0.9,1.1,1.1c0.7,0.2,1.3-0.7,1.4-1.1C105,388.8,104.8,388,104.3,387.4z M175.8,283.5c-1-0.3-2.6,0.4-3,1.7
					c-0.3,1,1.1,2.5,1.8,2.7c1.3,0.4,2.5-1.1,2.7-2.2C177.6,284.8,176.8,283.8,175.8,283.5z M126.2,318.1c-4-1.1-7,2.1-9.3,5.1
					c0.3,0.1,0.6,0.5,0.9,0.6c1,0.3,3.1-1,4.1-0.7c2.2-0.1,4.4-1.7,4.8-3.1C127,319.5,126.7,319,126.2,318.1z M229.2,108.7
					c-1.3-0.4-2.8-0.1-3.7,0.4c-1.3,0.7-2,2-2.3,3.1c0.4,2.3,0.3,4.2,3.3,5c0,0,4.4,0.9,5.4-2.9
					C232.6,111.9,231.5,109.3,229.2,108.7z M164,101.7c1,0.3,1.8,0.1,2-0.9c0.1-0.3-0.1-0.8-0.8-1s-1.3,0.7-1.5,1.4L164,101.7z
					 M179.7,164.4c-0.2,0.7,0.1,0.8,0.5,0.9c2,0.6,4.6-0.9,5.9-2c0.1-0.4-0.3-1.6-0.6-1.7C183.3,162.9,181,163.4,179.7,164.4z
					 M179.4,263.7c0.4-0.2,0.9-0.5,0.9-0.8c0.2-0.7,0.2-2.2-0.8-2.5l-15.4-4.1c-2.7-0.4-5.1,0.4-5.7,2.4c0.8,2.5,2.7,3.4,4.7,3.9
					c3,0.9,6,0.3,8.6,0.3c0.9,0.6,1.6,0.8,2.6,1.1C176.2,264.7,177.7,264.4,179.4,263.7z M247.8,375.5c0.4-0.3,0.4-0.3,0.4-0.3
					c0.1-0.4-0.2-0.4-0.2-0.4c-1.3-0.4-1.6,0.7-1.7,1c-0.1,0.3,0.1,0.8,0.5,0.9c0.3,0.1,1.2-0.4,1.3-0.7
					C248,375.9,248.1,375.6,247.8,375.5z M246.1,371.3c-0.8,0.5-1.7,1-1.9,1.7c-0.1,0.3-0.1,1.8,0.9,2.1c1,0.3,1.6-0.7,1.9-1.7
					C247.1,372.7,246.7,371.5,246.1,371.3z M104.8,397.6c-3-0.9-6.7,0.7-7.4,3.4c-0.1,0.3,0.1,0.8,0.1,1.1c0.7,0.2,1.2,3.7,2.5,4.1
					c2,0.6,6.4,0.3,7.2-2.8C107.9,400.7,107.1,398.3,104.8,397.6z M339.4,351.2c-1-0.3-2.4-0.3-3.5-0.3c0.3-1,0.2-2.2,0.4-2.8
					c0.7-2.8,5-1.2,5.4-2.5c0.2-0.7-0.3-1.6-1-1.8c-1.9,0.6-4,0.3-6-0.3c-0.3-0.1-0.6-0.5-0.5-0.9c0.1-0.3,0.5-0.6,0.6-0.9
					c0.1-0.4-0.1-0.8-0.8-1c-0.7-0.2-1.1,0-1.4,0c-2.3-0.7-4.2-3.1-4.5-4.6c2.9-5.5,6.7-11.4,11.3-11.2c0.3,0.1,0.2,0.4,0.1,0.8
					c-0.8,0.1-2.1,1.2-2.2,1.6l0.3,0.1l21.6-5.6c0.3,0.1,0.4-0.2,0.4-0.2c0.1-0.4-0.5-0.9-0.8-1c-2.3-0.7-11.9,2.8-15,3.8
					c-0.3-0.1,0.3-1-0.3-1.6c-1-0.3-1.9,0.2-2.4,0.8c-0.4-1.2-1.6-4.6-2.3-4.7c-0.3-0.1-0.6-0.5-0.9-0.6c-0.7-0.2-1.1,0.1-1.5,0.3
					c-2.5-0.7-1.9-2.5-1.3-4.6c0.7,0.4,1.3,0.6,1.8,0.1c-0.2-0.2-0.5-0.5-0.8-0.8c-0.2-0.2-0.4-0.5-0.6-0.7c0.4-1.9,0.4-4-2.3-5.7
					c-0.1-1.5-0.2-3,0.1-3.2c2.8-3,10,1.9,10.1,1.7c0.8-1.2,0.8-0.8-0.5-2.1c-1.4-1.4-2.7,1.5-5.1-0.9c-0.5-0.4-1.2-2-1.7-3.2
					c0.3,0,0.7,0.1,1,0.4c0.8,0.8-0.1,1.8,0.7,2.6c0.2,0.1,0.5,0.1,0.6,0c0.3-0.3,0.5-0.8,0.8-1.2c0.5-0.5,5.7,0.9,8-1.6
					c0.9-1,0.6-2.3,1.4-3.1c0.6-0.7,1.4,0.8,2.1,0.4c0-0.7,0.1-5.1-0.3-7.7c1.1-1.2,1.8-5.9,1.1-6.6c-0.3-0.3-1-0.6-1.4-1.1
					c-1-1-2.3-2.2-0.6-4.1c0.8-0.8,1.7,0.1,2.7-0.9c-1.1-1.1-1.1-1.8-0.4-2.6c0.6-0.7,2.2,0.3,4.1,0.2c0.6,0.6,1,1.6,1.6,2.2
					c0.3,0.3,0.8,0.8,1.3,0.3c0.8-0.8-2.9-3.9-2-4.9c0.6-0.7,2.2-1,3.1-2c0.2-0.2,0.3-1,0.1-1.1c-1.4-1.4-3-1.4-4.6-1.7
					c-0.2-0.2-0.2-0.5,0-0.7c1.7-1.5,3.9-2.2,5.6-2.4c0.3,1.3-1.5,3-0.9,3.6c0.2,0.2,0.3,0,0.5,0.2c0.5-0.5,0.1-1.5,0.7-2.1
					c0.3-0.3,0.8-0.2,0.9,0c1,1,0.5,2.1,1,2.6c0.3,0.3,4.2-1.2,7.9,0.8c0.4-2.5,2.6-5.4,4.3-8.2c-0.2-0.2-0.5-0.2-0.6-0.3
					c-0.2-0.2-0.2-0.5,0.1-0.8c0.5-0.5,1.1-0.5,1.7-0.8c0.8-0.8-0.3-1.6-1-2.3c-1.8-1.8-0.2-2.8-0.2-4.4c-0.6-0.3-1.1-0.5-1.6-0.9
					c-0.8-0.8-0.5-1.8-1.3-2.6c-0.3-0.3-0.6-0.3-0.6-0.3l-3,0.2c-0.3,0.3-1.1-0.8-1.1-0.8c-2.4-2.4-10,3.5-12.6,0.9
					c-0.5-0.5-0.6-5-0.7-5.2c-0.5-0.5-2,1.5-3.3,0.6c0.2-0.2,0.5-0.2,0.6-0.3c0.2-0.2,0.5-0.5,0.3-0.7c-0.7-0.6-3,0.2-3.5-0.3
					c-0.2-0.2-0.2-2.4-0.1-2.6c0.2-0.2,0.6-0.3,0.8-0.5c-0.8,0.5-1.9,0.4-2.2,0c-0.3-0.3-0.3-1,0-1.3s1.3-0.4,1.7-0.9
					c0.2-0.2,0.1-0.8,0-1c-0.3-0.3-2.5,1-3.5,0.1c-1.3-1.3,0.4-2.5,1-3.5c-0.5-0.5-1.3,0-1.6,0c1.4-1.5,2.2-1,2.8-1.7
					c0.1-0.2,0.3-1-0.2-1.5c-1-1-2.4-1.1-3.3-0.1c-0.6,0.7-1.1,1.5-1.2,2.3c-0.8,0.8-1.6,0-1.9-0.3c-1.9-1.9-0.9-3.4,0.2-4.6
					c0.9-1,2-2.2,2.5-2.3c0.2,0.2,0.2,0.5,0.3,0.6c0.3,0.3,1,0.3,1.3,0s0-1-0.3-1.3c-0.8-0.1-1.1,0.2-1.3,0.4c0.3-0.3,0-1.3-0.3-1.6
					c-0.6-0.3-1.7-0.5-2.5,0.4l-3.6,4.2c-0.8,0.8-2.1-0.1-2.2-0.3c-0.5-0.5-1-1.3-0.5-1.8c0.3-0.3,1.7-0.2,2.4-0.9
					c0.5-0.5-1-1.9-0.1-2.9c0,0,0.3,0,0.5-0.2c-0.2-1.8-0.1-3.9-1.4-5.2c-0.8-0.8-1.1-0.8-2.6-1.6c0-0.6,0-1.6-0.5-2.1
					c-0.8-0.8-1.9-0.6-2.5,0c-0.5,0.5-0.8,1.2-0.4,1.8c-0.8-0.1-1.4-0.5-1.7-0.1c-0.8,0.8-2.3,2.8-2.6,3.8c-0.8-0.8-0.8-1.8-0.2-2.4
					c0.5-0.5,0.9-0.3,1.4-0.8s0.7-2.5-0.2-3.4c-1.6-1.6-3-0.4-3.5,0.1c-0.6,0.7-0.9,2.3,0.1,3.3l0,0c-0.6,0.2-1.5,0.8-2.5,1.5
					c-0.2-0.9-0.3-1.8-0.8-2.3c-0.2-0.2-0.5-0.1-0.6,0c0,0-0.2,0.2,0,0.3l0.8,2.5c-0.9,0.7-1.7,1.4-2.4,1.9c-0.9,0-1.8-0.2-2.5-0.9
					c-0.3-0.3-0.6-0.6-0.8-1.1c-0.3-0.3-0.8-0.8-1.3-0.3c-0.3,0.3,0.3,1.3,0.8,1.8c0.6,0.6,1.6,0.6,1.9,0.9c0.1,0.1,0.1,0.3,0.1,0.6
					c-1.1,0.4-2.2,0.8-3.4,1.1c-1-1.3-1.2-2.6-1.7-3.2c-0.2-0.2-11.9,4.8-11.6,4.5c-0.2,0.2-0.1,0.5-0.3,0.7
					c-0.4,0.5-0.9,0.7-1.4,0.9c0.2-0.7,0.4-1.2,0.5-1.4c0.9-1,2.2-1,2.8-1.7c0.3-0.3,0.3-1-0.3-1.6c-1.9-1.9-3.8,1.4-6.3-1.2
					c-1-1-1-2.3,0.2-3.6s3.1-1.4,4.7-3c0.1-0.2,0.2-0.3,0.3-0.5c1.4,0.4,3.1,1,4.2,2.2c0.3,0.3,0.5,0.8,0.7,1.3
					c0.2,0.2,0.9-0.3,1.6-1c1.6,0.9,6.6,0.5,6.9,0.2c0.8-0.8,0.9-2.3,1.8-3.3c2.6-2.8,4.8,2.2,6.6,0.2c1.9-2-4.1-5.6-3.6-8.7
					c0.1-1.1,1.7-2.5,0.9-3.3c-0.5-0.5-1.1-0.8-1.6-1.3c-0.8-0.8-1.8-1.8-0.7-2.9c1.1-1.2,3.5,0.3,4.4,0.9c2.3-0.5,3.8-1.7,7,1.5
					c1.3,1.3,2.4,3.1,3.6,4.5c0.6-0.3,1.3-0.4,1.6-0.7c1.4-1.5-4.1-6-0.3-9.9c0.5-0.5,1.6-0.7,2-1.2c0.2-0.2,0.3-0.7,0.6-1
					c0.3-0.4,0.8-0.5,1.2-0.4l0,0c0,0-1.4,5.2-0.4,5.4c1,0.3,1.5-0.3,1.6-0.6c0.3-1,0.7-3.2,0.5-4.5c0.6,0.2,1.3,0.4,2,0.5
					c0.5-0.5,0.8-1.2,0.3-1.6c-2.1-1.4-4.3-3-6.4-4.1c-0.3-0.3-0.7-2.6,0.2-3.6c0.2-0.2,0.5-0.5,0.8-0.5c-0.2-0.8,0.6-1,0.3-1.6
					c-0.6-0.6-1.4-1.1-1.9-1.6c0.2-0.8,0-1.6-0.5-2.1c-0.3-0.3-0.8-0.5-1.1-0.8c-0.5-0.5-0.7-1.3-1.5-2.1c-2.4-2.4-5.6-1.7-7.5-2.6
					c-4.3-2-8,1-12.4,5.6c-3.6,3.8-6.5,8.3-9.7,12.8l1,1.3c-1.1,2.1-0.5,5.6-1.5,6.6c-1.9,1.2-4.5,2.3-6.7,1.4
					c0-0.1,0.1-0.3,0.1-0.4c-0.2,0.1-0.4,0.1-0.6,0.2c-0.3-0.2-0.6-0.2-0.9-0.5s-0.7-1.3-0.8-1.5c-1.5-0.9-2.7-1.1-3.9-0.3
					c0.1-2.8-0.4-6.8-1.5-8.4c-0.5,0.5-3-1.4-3.7-2c-5-5-0.7-9.6-0.4-9.9c-1.3-0.6-3.3-1.1-4.6-0.4c-2.4-1.1-4.8-2.2-7-3.1
					c0.3-0.3,0-0.6-0.2-0.8s-0.3-0.3-0.5-0.5c1.1-1.2,2.6-5.1,5.2-7.9c1.2-1.3,3-2.8,4.5-3.8l3.9-4.2c0.6,0.6,1.9-1,2.5-1.4l-1-1
					c-2.5,2.3-5.9,4.7-8.2,7.2c-0.3,0.3-0.6,1.6-1.1,2.1c-0.2-0.2-1.4,0.2-1.4,0.2c-0.6,0.7-0.8,1.5-1.4,2.1c-2,2.2-8.3,2.6-9,2
					c0-0.3-0.2-0.5-0.3-0.6c-0.2-0.2-0.3,0-0.6,0.3c-3.1-3,1-6.4-2.6-11.2c-1.7,1.8-7.6,1.5-8.2,2.1c0,0-0.5,0.8-1.4,1.8
					c-1.4,1.5-3.7,3.3-5.5,1.6c-0.8-0.8-0.7-2.6-1.6-3.6c-0.3-0.3-1.6-0.9-2.4-0.1c-0.5,0.5-0.9,1.3-1.2,1.7c-0.9,1-1.9,0.7-2.8,1
					c-2.4-2.4-2.3-3.2-1.7-3.9c0.2-0.2,0.5-0.2,0.6-0.3c0.3-0.3,0.3-0.7-0.2-1.1c-1.1-1.1-1.8-1.8-2.9-0.6c-1.2,1.3-0.7,3.8-2.1,5.3
					c-2.9,3.2-11.6-2.9-11.6-2.9v0.3c-0.2,0.2-0.7-1-1.9,0.4l-2,0.5c-0.3,0.3-0.6,1-0.8,1.5c-0.3-0.3-0.6-0.3-0.8-0.1
					s-0.3,0.7-0.5,0.8c-0.8-0.1-1.6-0.6-2.2,0c-1.1,1.5-0.4,2.5-1.5,3.6c-1.9,2-4.1,1.4-5.8-0.4c-0.3-0.3-0.2-0.5-0.3-0.6
					c0.2,0.2-2.4-1.1-2.9-0.6c-1.5,1.7,1.8,5,0,7l-2.3,2.5c-0.6,0.7-0.9,1.3-1.4,1.8s-6.6,2.4-6.6,2.4c-0.5,0.8-2,3.5-1.3,4.1
					c-2.5,1.4-6.2-2-7.3-0.8c-0.6,0.7-0.6,2,0.4,2.9c0.2,0.2,0.5,0.5,0.8,0.5c-1.3,0.7-2.2,1.7-3.1,2.7c1.6,0,2.5-1.4,3.4-2.4
					c1.3,1.3,2.1,3.1-0.1,5.4c-2,2.2-3.9,0.2-4.9,1.2c-0.9,1-1.4,1.5-0.1,2.8c0.6,0.3,1.3,0.6,1.9,0.9c1.8,1.8,0.4,2.9-0.2,3.6
					l-1.5,1.7c-0.6,0.7-1.2,2.3-2,3.1c-1.7,1.8-3.5-0.6-4.7,0.1c-0.5,0.2-0.6,0-1.1-0.1c-0.8,1.2-0.7,2.1-1.2,3.3
					c2.2,1.6,5.9,1,7.3,2.5c1.4,1.4-1.7,10.6-1.4,11.4c-1.7,1.6-4,0.3-5.5,1c-0.6,0.3-1.4,0.8-2.2,1c0,1-0.6,1.3,0,2
					c2.3,2.2,7.4-1.3,8.8,0.1c0.6,0.6,1.5,1.8,0.1,3.3c-0.6,0.7-1.9,0.4-2.5,1c-0.8,0.8-0.7,2.1,0.2,3.1c1.1,1.1,4.3,0.7,4.3,0.7
					c1.8,1.8,4.7,5.9,2.7,8.1c-1.1,1.2-3,1.5-3.9,2.5c-0.5,0.5-1.2,2.6-0.6,3.3c1.4,1.4,5.6-3.7,7.8-2.8c-0.9,1,1.3,0.6-1.1,3.1
					c-0.2,0.2-0.3,0.3,0.3,1c0,0.3-0.3,2,0,2.3c0.2,0.2,0.5-0.5,1.1,0.1c0.5,0.5,0.6,0.6,1.6,0.3l2.7-0.9c1.3,1.3,2.4,1.7,3.5,2.9
					c3.2,3.2-1.3,5.4,0.3,7c2.4,2.4,4.4-2.4,5.5-1.3c0.1-0.5,0.3-1,0.6-1.3c0.6,0.3,1,0.6,1.7,0.5l1.9,1.9c-1.2,1.7-2,4.4-2,4.8
					c3.4,2.4,3.9-4.2,8.9,0.8c2.9,2.9,4.8-1.2,8.5-0.4c-0.1,2.9-1,5.6,3,9.5c1.3,1.3-2.4,4.6-1.2,5.9c1.3,1.3,2.7-0.1,4-0.9
					c0.5,1.4,1,2.8,1.4,4.2c-0.3,0.2-0.6,0.3-0.8,0.5c0.3,0.3,0.7,0.3,1.1,0.3c1.4,4.6,2.5,8.7,4.2,9.2c0.1,0,0.2-0.1,0.3-0.2
					c-0.1,0.3,0,0.7,0.2,1.1v-0.3c0.2-0.2,0.3,0,0.6,0.3c0.1-0.7,0.6-1.3,0.3-2c0.6-0.6,1.2-1.2,1.4-1.1c0.7,0.2,1.3,1.9,1.9,2.1
					c1.4,0.4,1.8-0.8,3.5-0.7c-0.3,0.6-0.4,1.2,0.2,1.8c0.1,0.1,0.3,0,0.6-0.1c0.1,0.3,0.1,0.5,0.2,0.8c-1.2,0.8-2.4,1.7-2.6,1.9
					c-5,5.3-4.2,12.5,0.6,17.3c0.3,0.3,1.9,0,2.5,0.6c0.3,0.3,0.3,1,0.7,1.3c0.2,0,0.5,0.1,0.7,0.1c0.2,0.2,0.4,0.3,0.7,0.5
					c0.5-0.3,0.8-0.4,1.2-0.5c2.8-0.2,6.6-1,8.8-2.6c2.1,1,4.7,2.5,5.4,3.8c-0.1,0.3-0.4,0.2-0.5,0.6c0,0.2,0.7,1.4,1.5,2.7l0,0
					c-0.3,0.3-0.6,1-0.5,1.2c0.3,0.3,0.7,0.1,1.1-0.1c0.5,0.8,1,1.7,1.2,2.4c-1.7,1-3.6,1.5-4.2,3.6c-0.5,1.7,0.1,2.3-0.5,4.7
					c-0.9,3.4-4.4,1.7-7,4.6c1.4,2.6,1.5,5.2,0.8,7.6c-0.4,1.4-1.2,3-1.6,4.7c3.1,3.1,2.6,15.6,1.1,25.2c11,3.2,8.6,24,24.2,28.5
					c12,3.5,24.5-18.9,26.1-24.7c0.6-2.1,0.9-4.6,1.6-7.3c1.2,2.2,5,2.9,8.3,3.9c4,1.2,7.7,1.9,8.2,0.1c0.7-2.4,4.9,0.3,7-3.2l2.1-5
					c6.3-1.9,11.2-9.4,11.2-9.4c0.8-0.2,3.1,0.5,3.2,0.2C340.1,351.4,339.4,351.2,339.4,351.2z M287.5,197.9
					c-0.1-0.2-0.3-0.5-0.4-0.7c0.3,0.2,0.5,0.3,0.8,0.4L287.5,197.9z M291,210.8c-0.6-0.6-0.7-1.9,0.3-2.9c0.6-0.7,1.9-1.3,2.5-2
					s1.2-1.3,0.6-2c-1.8-1.8-4,4.2-6.9,2.5c0-0.7,0.2-1.5,0.8-2.3c1.3-1.7,1-3.1,0.3-4.3c0.6-0.8,1-1.5,1-2.1
					c1.6-0.1,3.4-0.3,5.3,1.6c2.6,2.6,2.5,6.8,2.3,8.9c-0.3,0.2-0.7,0.4-1,0.8c-0.3,0.3-0.3,1-0.6,1.3
					C294.5,211.7,292.3,212,291,210.8z M324.4,215.3c0.1,0,0.1,0,0.2,0v0.1C324.5,215.4,324.5,215.4,324.4,215.3z M258.3,312.9
					c0-0.1,0.2-0.2,0.3-0.2c0.1,0.6,0.1,1.1,0,1.5C258.4,313.6,258.2,313.1,258.3,312.9z M307.7,257.2c-0.3-0.3-1.3-0.6-1.6-1
					c-0.2-0.2-0.3-0.6-0.5-0.9c0.3-0.3,0.7-0.7,0.7-0.9c0-0.1-0.3-0.8-0.8-1.8l1-2.3c1.7-1.5,3.5-0.7,5.1,0.6
					c-1.4,1.8-1.6,6.7-1.4,7.2c2.9,2.2,4.1-1.4,5.5,0c1.3,1.3,0.3,3.7-1.2,5.9c0.1-0.9,0-2.1-0.6-2.7c-0.7,1.3-1.2,2.3-1.6,3.2
					c-1-0.6-2,0.2-2.8-0.4c0.2-1,0.6-1.6,0.8-2.2c0.2,0,0.4-0.1,0.5-0.3c0.1-0.3,0.2-0.7-0.1-0.8c-0.1,0-0.2,0-0.3-0.1
					C310.2,260,309.5,259,307.7,257.2z M260.7,317.3c-0.4-0.3-0.9-1-1.4-1.8c0.4-0.1,0.8-0.1,1.1,0.2c0.8,0.8,0.2,0.8,0.5,1.4
					C260.8,317.1,260.8,317.2,260.7,317.3z M307.5,269.9c0-0.8-0.1-1.7-0.3-2.4c1.8-1.5,3.4-1,4.6-1.3c-0.3,0.9-0.5,1.6-0.6,2.1
					c-0.4,0.6-0.7,1.1-0.9,1.6C309.1,270.4,308.2,270.3,307.5,269.9z M301,364.5c1-0.8,0.8-1.6,2.5-1.1c1.3,0.4,2.2,1,3.1,1.7
					c1.2,0.7,2.1,1.7,3.1,3.1C306.7,367.3,303.6,365.7,301,364.5z M211.4,368.3c-0.3-0.1-1.4,0-1.6,0.6c-0.1,0.3,0,1.1,0.4,1.2
					c1,0.3,1.4,0.1,1.7-1C211.9,368.8,211.7,368.4,211.4,368.3z M180.5,325.7c-0.8,0.2-1.3,0.7-1.5,1.4c-0.3,1,0.2,1.9,1.5,2.3
					c1.1-0.1,1.7-1,1.8-1.3C182.9,326.3,181.6,325.9,180.5,325.7z M177.3,342.9c-0.6-0.5-0.9-0.6-1.2-0.7c-2-0.6-3.5,0.8-3.8,2.2
					c-0.5,1.7,0.9,3.2,2.2,3.6c1.7,0.5,3.4-0.5,3.7-1.9C178.6,344.8,178.2,343.5,177.3,342.9z M241.6,334.8c0.1-0.4,0-1.5,0.2-2.2
					c0.3-1,1.2-1.9,1.4-2.6c0.3-1-2.8-4.2-4.8-4.7c-3.7-1.1-6.7,0-8.1,3.9c0-0.1,0-0.1,0-0.2c-3.2-4.2-6.7-10.5-8.6-12.4
					c-0.6,0-0.9,0-1.1,0.2c-0.3,0.3,0.5,0.5-0.1,1.1l2.4,2.4c-0.6,0.7,2.8,4.3,3.4,5.3c-0.5,0.5-0.3,1,0,1.3s1.1,0.8,1.8,1.4
					c0.5,0.5-0.1,0.8,0.2,1.1c0.2,0.2,0.3,0,0.5-0.2c0.5,0.5,0.7,1,1.1,1.4c0.1-0.1,0.1-0.1,0.2-0.2c0.4,0.8,1.2,3.6,2.9,5.7
					c1,0.3,2.7,0.8,2.9,1.2l5.3-2.2C241.4,335.5,241.5,335.1,241.6,334.8z M179.3,324.9c1,0.3,2.2-0.1,3-0.6c0.4-0.3,0.9-2,1-2.3
					c-0.3-1.6-1.2-2.2-2.4-2.9c-1.7-0.5-2.9,1.4-3.3,2.8C177.3,323.2,178,324.5,179.3,324.9z M216,331.1c-1.7-0.5-4.1,4.7-4.9,7.5
					c-0.7,2.7,1.8,5.3,4.4,6.1c0.7,0.2,1.7,0.5,2.4,0.3c2.7,0.8,5.5-4.3,5.5-4.3C224,336,219.7,332.1,216,331.1z M348.7,225.8
					c0,0,0,0.3,0.2,0.5s0.3,0,0.5-0.2s0.3-0.3,0-0.7c-0.2-0.2-0.5-0.2-0.6,0C348.6,225.5,348.5,225.7,348.7,225.8z M369.8,235.4
					c0.2-0.2,0.1-0.5,0-0.7c-0.6-0.6-1.1-0.5-1.3-0.3c-0.3,0.3-0.3,1-0.5,1.5C368.7,235.9,369.5,235.7,369.8,235.4z M369.9,240.3
					c0.2-0.2,0-0.3,0-0.7c-0.2-0.5-0.6,0-0.6,0c-0.2,0.2,0,0.3,0.2,0.5C369.6,240.3,369.8,240.4,369.9,240.3z M362.2,223.9
					c1,1,2.6,1.6,4.1-0.1c0.8-0.8,0.9-2.6-0.2-3.8c-1.1-1.1-2.7-1.1-3.8,0.1c-0.5,0.5-0.9,1.3-0.7,2.1
					C361.4,222.8,361.7,223.5,362.2,223.9z M366.3,230.9c0.2-0.2,0.2-0.5,0-0.7c-0.3-0.3-0.8-0.5-1-0.3s0,0.3,0,0.6
					C365.7,230.9,366,231.2,366.3,230.9z M395.2,234.4c0.2,0.2,0.2,0.5,0.3,0.6c0.5,0.5,1.6,0,1.7-0.2c0.6-0.7,0.3-1.6-0.2-2.1
					c-0.6-0.6-1.6,0-1.7,0.2C394.9,233.4,395.1,233.9,395.2,234.4z M358.3,298.4c0.1-0.2,0-0.3,0-0.3l-1.2-2.8c-0.2-0.5-0.6-1-1-1.3
					c0.3,1.3,0.5,2.8,1.3,4.2C357.6,298.4,358.1,298.6,358.3,298.4z M384.2,319.1c0.6,0.3,1.4,1.1,2.2,0.9c-1.4-1.4-4-3.7-4.6-3
					C382.3,317.5,383.4,319,384.2,319.1z M383.6,188.2c0.2-0.2,0.3-0.7,0.5-0.8h0.3l-1.8-1.8c-0.2,0.2-0.5,0.5-0.3,1
					C382.7,187,383,187.6,383.6,188.2z M374.5,240.3c0.2-0.2,0.3-0.3,0.3-0.7c-1.1,0.2-2.2,0.7-3.3,1.2c0.8,0.1,1.6-0.4,2.4-0.2
					C374.1,240.8,374.4,240.5,374.5,240.3z M358.5,280.5c-0.9,1,2.8,5.7,3,5.8c0.5,0.5,1.1,0.5,1.4,0.1c0.3-0.3,0.5-0.8,0.1-1.5
					c-0.7-1.6-2.1-3.1-3.6-4.5C359.2,280.1,358.7,280.3,358.5,280.5z M371.7,332.9h-0.3c0,0,0,0,0.2,0.2s0,1,0.5,1.5
					c0.2,0.2,0.5,0.5,0.6,0.3C373.1,334.4,371.9,333.4,371.7,332.9z M349,278.7c0.2,0.8,1,1.6,1.5,2.1c0.8,0.8,0.8,0.8,1,0.6
					c0.3-0.3-0.5-1.1-1-1.6C350.2,279.5,349.2,278.5,349,278.7z M323.3,148.8l-0.6-0.6l-0.6,0.7l0.6,0.6L323.3,148.8z M283.4,163.2
					c0.3,0.3,1.1-0.2,1.1-0.2c0.3-0.3,0.3-1,0-1.3c-0.2-0.2-0.9,0-1.1,0.2C283,162.2,283,162.5,283.4,163.2z M372.1,327.5
					c-0.5,0.5,0.7,2.3,0.8,2.4c0.2,0.2,0.3,0,0.5-0.2c0.1-0.8-0.7-1.3-0.8-2.1C372.4,327.5,372.1,327.5,372.1,327.5z M307,252
					c0,0-0.2-0.2-0.3,0c-0.3,0.3-0.5,0.8-0.1,1.1c0,0,0.2,0.2,0.5-0.2C307,253,307.5,252.5,307,252z M365,172c0.2-0.2,0-0.7-0.2-0.8
					h-0.3c-0.5,0.5-0.6,1.3-0.6,2C364.1,173,364.8,172.1,365,172z M346.5,218.9c0,0-0.1,0.2,0,0.3c0.6,0.6,4.1-0.4,5-1.4
					c0.3-0.3,0.3-1.6-0.2-2.1c-0.8-0.8-2.5,0.1-3.6,1.2C347.1,217.5,346.6,218.1,346.5,218.9z M366.1,197.1c0.5,0.2,0.6,0,0.8-0.2
					c0.5-0.5,0.6-1,0.3-1.3c-0.3-0.3-0.8-0.8-1.1-0.5C365.6,195.6,365.3,196.3,366.1,197.1z M328.3,149.5c0.2,0.2,0.2,0.2,0.5,0.2
					s0.6,0,0.8-0.2c0.3-0.3,0.5-0.8,0.1-1.1c-0.3-0.3-1.1-0.5-1.4-0.1C328.1,148.4,328.1,149.4,328.3,149.5z M359,171.4
					c-0.2,0.2,1.3,1,1.9,0.3c0.5-0.5,0.3-1.3-0.3-2c-0.5-0.1-1.1-0.1-1.4,0.2C358.8,170.3,358.8,171,359,171.4z M345.7,226.4
					c-0.5,0.5-0.1,1.1,0,1.3c0.3,0.3,0.9-0.3,0.9-0.3c0.5-0.5,0-1,0-1C346.3,226.1,346.1,225.9,345.7,226.4z"/>
			</g>
			<g class="st2">
				<path class="st7" d="M247.7,307.9c0.4,0.8,1.9,1.7,1.6,2.4C248.7,311.1,246.6,308.3,247.7,307.9z"/>
				<path class="st7" d="M233,290.5c-1.4-0.4-1.1-3.4,0-3.5C233.5,288.2,233,289.3,233,290.5z"/>
				<path class="st7" d="M172.8,215.8c0.3-0.9,1.1-1.7,1.1-2.6c-0.7-0.7-1.5,0.2-2.3-0.2c-0.7-2.5-2.8-1.8-4.1-3.2
					c0.2-1.3,1.8-1.7,2.7-1.5c1.2,1.7,2.3,2.4,3.5,2.5c1.2-0.5,0.6-1.3,0.8-2c2.8,0.4,5.6,1.4,8.4,4.2c1.4,0.4,2.8-0.5,4.1,1.5
					c0,0.5-0.5,0.9-1,1.3c2.3,1.6,5.4,2.5,5.5,5.9c0.6,0.9,1.2,0.1,1.9,0.5c0.6,1.2,0.1,2.3,0,3.4c-3.2,1.6-6.3,0.3-9.5-1.9
					c-0.5-1.2-0.1-2-1.6-2.9c0.2-0.7,0.9-1.3,0.8-2c-1.9-1.5-2-2.6-2.9-4.3c1.9-0.4,1.2-2-0.4-3.5c-1.1,0.8-0.3,1.8,0.2,2.8
					C177.2,213.1,175.7,221.2,172.8,215.8z"/>
				<path class="st7" d="M222,274.4c-0.9-0.6,0.9-2.1,1.2-0.7C222.9,274.5,222.5,273.9,222,274.4z"/>
				<path class="st7" d="M178,219.4c1.2-0.3,2.3,0.2,3.5,1.2C180.4,221.6,178.4,221,178,219.4z"/>
				<path class="st7" d="M273.5,331.5c0.8-0.9,1.7-0.4,2.5,0.8c-0.8,0.5,0.2,1.2-0.8,1.6C274.2,332.9,273.8,332.7,273.5,331.5z"/>
				<path class="st7" d="M223.3,270.3c0.9-0.2,1.8-0.1,2.7-0.2C226.8,271.8,223.6,272.5,223.3,270.3z"/>
				<path class="st7" d="M277.2,332.5c-0.7-0.9-0.4-1.6-0.2-2.4c0.4,0.5,0.8,1,1.2,1.5C277.9,331.9,277.6,332.2,277.2,332.5z"/>
				<path class="st7" d="M196.4,231.9c1-1,2.3,1.4,1.2,1.9C197.1,233.7,195.8,232.4,196.4,231.9z"/>
				<path class="st7" d="M195.6,229.2c0.4-0.8,0.8,0.2,1.2,0.6c0.6-0.8,0.1-1.8,0.6-2.7c0.3,0,0.5,0,0.8-0.3c0.6,0.1,1.6,1.4,1.6,2
					c-1.1,0.7-1.5,1.5-1.3,2.4C197.7,231.1,196.6,230.4,195.6,229.2z"/>
				<path class="st7" d="M204,238.9c0.9-0.8,2.5,0.1,2.7,1.1C205.8,240.6,204.9,240.1,204,238.9z"/>
				<path class="st7" d="M179.7,208.9c-0.5-0.6-1-1.2-1-1.7c0.8-0.4,1.6,0.4,2.5,0.8C180.7,208.8,180.2,208.5,179.7,208.9z"/>
				<path class="st7" d="M200.3,233.6c1.4-0.1,2.9,1.2,4.3,2.6C203.2,236.7,201.8,235.3,200.3,233.6z"/>
				<path class="st7" d="M272,318.3c0.8-0.9,1.7-1.2,2.5,0C273.7,319,272.8,319.5,272,318.3z"/>
				<path class="st7" d="M217.1,250.5c-0.8-1.2-1.3-2.4-0.6-3.3C217.5,247.9,218.1,249.6,217.1,250.5z"/>
				<path class="st7" d="M183.6,209.3c2.3-1.2,4.5,4.3,6.8,3c0.7,0.7,0,1.3-0.6,1.8C187.8,212.1,184.9,210.8,183.6,209.3z"/>
				<path class="st7" d="M206.7,234.4c-0.9-0.9,0.2-1.4,0.8-2c0.4,0.5,0.8,1,1.2,1.5C208.1,234.4,207.4,234.2,206.7,234.4z"/>
				<path class="st7" d="M209.4,234.2c0.4-1,2.2,0.5,1.2,1.1C210.2,235.1,209.8,234.8,209.4,234.2z"/>
				<path class="st7" d="M208,230.3c1.1-0.5,2.2-0.7,3.3,0.5C210.9,232,208.4,232.1,208,230.3z"/>
				<path class="st7" d="M205.4,227.1c-0.6-0.7-1.1-1.3-0.4-1.8C205.6,225.9,206.1,226.6,205.4,227.1z"/>
				<path class="st7" d="M213.6,224.1c0.9-0.9,2.6-0.2,2.9,1.3C215.5,226.1,214.6,224.9,213.6,224.1z"/>
				<path class="st7" d="M210,217.9c0.9-1.9-1-4.3-2.2-6.6c1.8,0,1-2.1,0.2-3.2c0.8-0.6,1.5,0.3,2.3-0.7c1.5,2,6.6,3.7,4.9,5.5
					c1.8,3.8,3,4.9,6.1,6.6c-3.2,1.2-6.3-3.7-9.5-3.7c-0.6,1.1,1.2,2.6,1,3.8c-0.2,0.2-0.4,0.4-0.6,0.5
					C211.6,219.8,211,218.5,210,217.9z"/>
				<path class="st7" d="M207.6,207.6c-1.7-2.1-0.7-3.7-1-5.6c1,0.2,1.9,1.4,2.9,2.6C209.6,205.6,208.4,207.4,207.6,207.6z"/>
				<path class="st7" d="M226,227.3c1-1.3,1.9-0.6,2.9,0C228.4,228.5,227,228.8,226,227.3z"/>
				<path class="st7" d="M294.6,309.2c1.1-1.2,2.2-0.6,3.3,0.1C296.8,310.7,294.9,310.8,294.6,309.2z"/>
				<path class="st7" d="M233.2,233c1,0.2,2,1.4,2,2.5C234.2,236.7,231.9,233.9,233.2,233z"/>
				<path class="st7" d="M311.2,324.2c0.9-0.5,1.8-0.8,2.7,0.2c0.3-0.4,0.9-1.9,1.7-1.5c0.1,1.7-1.5,3.1-0.7,4.9
					c0.6,0.5,1.2-0.8,0.4-1.2c0.6-0.4,1.1,0.5,1.6,1.1c-0.4,1.2-1.1,2.3-1.9,3.4C312.3,329.4,314.1,326.6,311.2,324.2z"/>
				<path class="st7" d="M311.4,321c1-0.9,2.1-0.5,3.1-0.6c0.1,0.5,0.6,1.1,0.2,1.5C313.6,322.2,312.5,322,311.4,321z"/>
				<path class="st7" d="M308.4,314.7c-0.4-0.4-0.2-0.6-0.4-0.9c0.7-0.7,1.4-0.8,2.1,0.3C309.5,314.8,308.9,314.4,308.4,314.7z"/>
				<path class="st7" d="M310.9,314.2c0.4-1,2.2,0.6,1.2,1.1C311.7,315.1,311.3,314.8,310.9,314.2z"/>
				<path class="st7" d="M308.8,310.4c1-0.2,2.9-0.7,3.3,0.5C311.1,311.7,309.2,312.2,308.8,310.4z"/>
				<path class="st7" d="M224.1,205.5c-1.1-1.8,1.2-1.2,1.9-1.2C226.3,205.7,224.9,205.2,224.1,205.5z"/>
				<path class="st7" d="M227.1,202c1.1-0.1,2.6,0.8,3.1,2c-0.3,0.2-0.3,0.4-0.2,0.6C228.5,206.2,226.3,203.4,227.1,202z"/>
				<path class="st7" d="M236.3,210.7c-0.2-0.3-0.4-0.5-0.6-0.8c0.1-0.4,0.3-0.8,0.8-1.2C237.6,209.8,237.1,210.4,236.3,210.7z"/>
				<path class="st7" d="M315.3,305.2c-1.3-1.3-1.6-2.4-2.2-3.6c1-0.1,2.1,1.3,3.1,2.4C316,304.4,315.8,304.8,315.3,305.2z"/>
				<path class="st7" d="M227.7,198c-1.4-3.8-8.6-14-4.2-16c1.6-0.7,3.8,1.6,5.1,4.1c1.3-0.3,0.3-2.6,0.4-3.8c2,1.2,1.8,5.6,4.3,8.2
					c-0.2,1.9,1.3,4.1,1,6c1.3,1.3,1.1,2.3,1.4,3.5c-0.5,1.3-2.2,2.3-3.3,2.1c-1-1.5,0-2.7-0.2-4.1
					C230.7,198.4,229.2,196.4,227.7,198z"/>
				<path class="st7" d="M241.2,210.6c1-0.2,2.1,0.5,3.1,1.1C244.2,213.9,240,212.3,241.2,210.6z"/>
				<path class="st7" d="M311.1,292.2c0.6-0.4,1.1,0.5,1.6,1.1C312.1,294.2,311.6,292.6,311.1,292.2z"/>
				<path class="st7" d="M276.5,234.8c0.9-0.5,0.7-1.2,1.5-1.7c0.9,1,0.8,1.9,1.2,2.8C278.3,236.9,277.4,235.5,276.5,234.8z"/>
				<path class="st7" d="M324.7,290.1c0.6-0.3,1.3,1.2,1.2,1.5C325,292,324.7,290.7,324.7,290.1z"/>
				<path class="st7" d="M325.1,288.8c-1.7-1.8-0.5-3.5,1.3-4.1C327.9,286.8,326.2,287.6,325.1,288.8z"/>
				<path class="st7" d="M328.2,292.1c0.6,0,1.2-0.2,1.9,0.5C329.4,293.3,328.8,292.6,328.2,292.1z"/>
				<path class="st7" d="M283.8,230.6c-0.2-0.4-0.1-0.7,0.2-1c0.5,0.4,1.1,0.3,1.6,1.1C285,231.4,284.4,230.5,283.8,230.6z"/>
				<path class="st7" d="M270.9,211.5c-0.4-0.4-0.2-0.6-0.4-0.9c1-0.7,1.9,0.5,2.9-0.4c0.6,0.7,1,1.3,0.8,1.9
					C273.1,212.7,272.1,210.3,270.9,211.5z"/>
				<path class="st7" d="M252.2,186.9c-0.6-0.8,0.9-2,1.5-0.8C253.3,186.9,253,186.7,252.2,186.9z"/>
				<path class="st7" d="M255.1,186c-0.4-0.9,0.5-2.2,1.5-2.1c0.8,0.6,0.5,1.1,1,1.7C256.7,186.7,255.9,185.7,255.1,186z"/>
				<path class="st7" d="M253.3,182.5c-0.3-0.5-0.1-0.9,0.4-1.2c0.2,0.2,0.4,0.5,0.6,0.7C253.9,182.5,253.6,182.3,253.3,182.5z"/>
				<path class="st7" d="M325.1,266.2c-0.1-0.2-0.3-0.3-0.4-0.5c-0.5-1.2,0.1-2.3,0.4-3.4c-0.7-0.9-1.7-1.9-1.4-2.6
					c0.7-0.6,1.4,0,2.1,0.8c0.6,1.7,0,3.2,0.8,4.9C326.1,265.8,325.6,266.2,325.1,266.2z"/>
				<path class="st7" d="M306.4,242.4c-0.5-0.7-0.5-1.4,0.2-1.9c0.7,0.8,0.7,1.4,0.2,2C306.6,242.2,306.5,242.3,306.4,242.4z"/>
				<path class="st7" d="M313.7,234.7c-0.5-0.9-1-0.4-1.4-1.3c0.4-1.1,1.5-0.8,2.5-0.5c0.5,1.3-0.4,2.1,1.4,3c0.1,1-1.1,0.4-1,1.3
					c0.5,0.9,1,0.4,1.4,1.3c0.6-0.5-0.3-1.2,0.8-1.6c1.1,1.8,2,3.6,0.6,5c-1.8-1.5-5.3-1.4-3.7-4.5
					C313.3,236.6,312.6,235.5,313.7,234.7z"/>
				<path class="st7" d="M293,212.6c0.2-0.2,0.4-0.4,0.6-0.5c0.3,0.5,1.2,1.1,0.4,1.4C293.7,213.4,293.4,213.1,293,212.6z"/>
				<path class="st7" d="M324.5,249.7c0.3-0.3,0.7-0.6,1-0.9c0.5,0.5,0.7,1,0.8,1.4C325.7,250.6,325.1,250.5,324.5,249.7z"/>
				<path class="st7" d="M286.5,199.9c0.8,0.2,2.5,0,2.7,1.1C288.3,200.9,287.4,201.1,286.5,199.9z"/>
				<path class="st7" d="M327.4,247.5c0.9-0.9,1.8-0.3,2.7,0.6C329.2,249,328.3,248.5,327.4,247.5z"/>
				<path class="st7" d="M304.1,218.3c0.8-0.8,1.5-1.2,2.3-0.3C306.7,219.6,304.4,220,304.1,218.3z"/>
				<path class="st7" d="M342.5,264.2c1.3-1.1,2.5-0.3,3.7,0.6C345,266.4,343,265.8,342.5,264.2z"/>
				<path class="st7" d="M286.8,195.9c-0.2-0.2-0.4-0.5-0.6-0.7c0.6-0.5,1.1-1.1,1.7-1C288.3,194.9,287.7,196,286.8,195.9z"/>
				<path class="st7" d="M303.1,215.3c-0.9-0.5,0.5-1.6,0.8-1.2C304.9,214.9,303.4,215.4,303.1,215.3z"/>
				<path class="st7" d="M333.5,251.1c-0.2-1.5,0-1.9-1.6-2.8c0.6-0.7,1.1-0.4,1.7-0.6c0.7,1.2,2.1,2.1,2.2,2.7
					C335.1,251.3,334.3,251,333.5,251.1z"/>
				<path class="st7" d="M325.6,235.8c-0.5-0.6-1-1.2-1-1.7c0.8-0.8,1.5-1.2,2.3-0.3C326.9,234.6,326.5,235.2,325.6,235.8z"/>
				<path class="st7" d="M289.3,191.5c0.2-3-1.8-6.3,0.5-9c1.2,2.2,1.4,4.8,3.5,6C292,189.6,291.4,191.3,289.3,191.5z"/>
				<path class="st7" d="M336.7,243.2c1.2-1.5,0.7-3.2,2.3-4.6c2.3,2.2,3.4,5.2,5.1,7.9c-1.1,1-1.4,1.9-2.7,2.4
					C338.3,247.6,338.2,246.3,336.7,243.2z"/>
				<path class="st7" d="M304.9,204.8c-0.4-2,1.8-4.3,3.7-3.3c1.1,1.1,0.3,1.9,0.2,2.8C307.5,204.2,306.2,203.8,304.9,204.8z"/>
				<path class="st7" d="M344,239.8c0.4,0.6,0.8,1.3,0,1.7C342.7,241.1,342.8,239.7,344,239.8z"/>
				<path class="st7" d="M298.1,217.6c0.8,1.2,1.6,0.5,2.5,0.8c0.8,1.1,0.2,2.1,0.8,3.2c1.7,0.7,2.2,1.7,3.7,2.8
					c-0.7,1.7-2.1,2.1-3.7,2.8c-2-2.6-4.1-2.9-6.2-4c-0.9,0.5-0.5,1.2-1.5,1.7c0.2-1.1-1.3-1.8-2.2-2.3c-1,1.4-1.9,0.9-2.9,1.3
					c1.4,0.1,2.9,1.6,4.3,2.2c-1.6,2.4-3.6,6.6-6.6,4.1c0.3-1.2,0.7-2.2,2.1-2.7c-0.3-1.9-2.3-2.2-3.3-0.5c-1-0.5-1-1-1.6-2
					c-1.9,3.6-4.1,1-6.9,4.7c-1.9-1-3.9,1.1-5.8,0.4c-1.4,0.9-0.9,2.2-2.5,3.1c-1,4.4,3.1,3.3,5.9,6.3c1.4,0.6,2.9-1.7,4.3-1.7
					c0.3,0.4,0.5,0.7,0.8,0.6c0.7,1.6-0.7,2.9,0.6,4.6c1.5-0.9,3-0.6,4.5,1.6c-0.3,0.6-0.6,1.2-0.6,1.8c0.8,0,1.5,0.8,2.3,1.9
					c0.2,1.3-0.5,2.4,0.2,3.7c1.6,0.5,3.2,1.2,4.7,0.1c0.3-0.7-0.1-1.6-1-2.5c0.6-1,0.7-1.6,1.9-2.1c0.9,0.1,1.8,1.3,2.7,1.5
					c0.3-0.2,0.6-0.5,0.8-0.7c0.5-0.9-0.3-2.1,0.4-3c1.9-1.3,3.7,0.8,5.6-0.6c1-0.8-0.8-2,0.7-2.7c1.8,1.1,0.8,3.4,1.6,5
					c4,1.4,6.7-3,10.7-0.4c1.7,1.9,2.2,3.7,2.6,5.4c-0.7,0.2-2,0.9-2.1,1.8c2.8,1,5.7-3.1,8.5,1.1c-0.4,0.7-0.2,1.6-1,2.2
					c-0.7-0.8-1.4-1.7-2-2.5c-0.7-0.5-1.4,0.4-2.1,0.1c1.1,3.3,3.1,6.8,4.4,10.2c-0.6,0.7-1.1,0.4-1.7,0.6c-0.6,0.6-0.3,1.2-0.2,1.9
					c3.1,2.1,6.3,2.9,9.5,4.1c0.7-0.3,0-0.9,0-1.3c1.8,0.4,1,2.3,1.2,3.2c0.7,1.3,1.5-0.5,2.3,0.6c-0.4,1.5-2,1.8-2.1,3.5
					c0.8,1.1,2.4,2.4,2,3.3c-0.2,0.2-0.4,0.4-0.6,0.5c-2.5-1.8-2.4-6.1-5.1-7.9c-1.2,1-1.1,2.1,0,3.5c-0.4,0.9-0.5,0.4-1.2,1.1
					c2,0.4,0.8,3.6,1,5.1c-0.6,0.6-1.1-0.1-1.6-0.7c-0.6-0.6-0.4-1.1,0.2-1.5c-1,0-2.8-1.1-3.1-2.4c0.6-1,1.2-0.2,1.9-0.8
					c-2.2-2.1-2.2-6.2-4.3-3.1c-0.8-0.6-1.6-1.2-2.5-0.8c0.3,1.6,3.2,2.4,3.5,4.2c-1.7,1.2-4.1-2-3.7-3.6c-1-0.2-1.8,0.1-1.9,1.2
					c0.5,0.9,1.1,0.5,1.6,1.6c-0.9,2.1-3.4,2-5,1.8c-0.8,1.1-0.3,2.4-1.9,3.4c-0.8-0.8-0.9-1.4-0.6-2c-0.9-0.5-1.8-0.7-2.7-0.7
					c-0.7,2.8,0,5.9,0.9,9c-0.9,1.3-1.2,2.7-0.9,4.2c2.5,1.2,4.9,4.1,7.4,4.6c-0.6,1.2-1.5,1.3-2.1,2.7c-1.5-0.6-1.8-3.7-3.5-3.8
					c-3.1,1.5-0.7,3.9-0.1,6c-1.2,0.2-2.5-2.8-3.7-1.5c-0.1,0.3-0.1,0.6-0.4,0.8c0.8,1.4,1.6,0.8,2.5,2.1c-0.8,1-1.3,2-1.9,2.9
					c-1-2-3.3-2.9-2.4-4.7c-2.4-1.3-4.9-0.1-5.8,2.5c-1-1-0.8-1.7-1.8-2.7c-1.8,0.2-4,1.4-4.2,3.2c-0.7-1.5-1.9-2-3.1-2.9
					c-0.9,0.4,0.4,1.2,0,1.7c-3.2,0.4-2.9,4.1-6,3.6c-0.3,1.1,1.6,2.6,2.4,3.9c0.3,1.2-0.6,2.2,0.4,3.5c-1.5,0.1-1.2,1.4-1.7,2.3
					c-0.5-0.6-0.9-1.2-1.4-1.3c-0.9,1.5,1.3,3.5-0.3,4.9c-1.5-1.2-3-2.3-4.5-1.2c-0.3-1.2-0.7-1.8-1.8-2.7c0.1-0.5,0.6-0.9,0.2-1.5
					c-0.9-1.4-1.8-1.1-2.7-1.5c-1.1-2-1.1-3.8-2.6-5.8c0.9-0.5,1.5-0.6,1.5-1.7c-0.9-0.5-1.8-1-2.7-2.4c-0.6,0.6-0.1,1.4-1.3,2
					c-2.5-1.8-1-2.8-2.6-5c-0.8,0.1-1.5,1.8-0.9,2.9c-0.3,0.2-0.7-0.5-1-0.8c-1.5,0.5-1,2-2.1,3.1c0.7,1.1,1.5,0.6,2.3,1.9
					c-0.2,0.6-1.7,1.2-2.5,2.2c-1-0.3-1.9-1.3-2.9-1.3c-0.6,0.8,0.5,1.9-1.1,2.6c-0.4,1.6,1.5,3.6,0.6,5.1c-2.1-1.3-2.6-4.7-4.1-5.8
					c-0.6,0.4-0.1,1,0.2,1.5c-3.2-2.2-7.8-5.5-10-10c-0.7-0.4-0.2,1.1-1,1.3c-3.2-2.7-8.4-5.5-6.3-9.9c-2.5-3.3-1.4-6-1.6-8.9
					c0.6-0.6,1.3-1.1,1.9-1.6c-3.4-3.2-3.6-6.8-5.3-10.4c-0.9-1-1.8-0.2-2.7-0.2c0.5-1.4-0.3-2-1.6-2.9c0.5-0.6,0.7-1.3,0.4-2.1
					c-0.8-1.4-1.6-0.2-2.5-1.3c-0.7-2.2-1.2-4-3-5.9c0.7-1.1,1.4,0.2,2.1-0.5c0.3-0.5,0.2-1.1,0.4-1.7c-1.5-1.3-2.4,1-2.9,1.3
					c-2.6-2.1-4.7-5.7-3-7.6c1.2-1.5,5-0.8,3.5-4c-0.8-1.1-1.6-0.9-2.5-2.1c1.9-1,1.2-3-0.4-3.9c-0.4-2.7-3-5.7-2.4-8.2
					c-1-1.1-1.9-1.2-2.9-1.3c-1.8-2.4-0.5-4.8-3.4-6.8c0.8-0.9,0.1-2.1,0.6-3.1c1.4,1.3,0.7,2.3,1,3.4c1.6,1.2,3.1,2.2,4.7,3.6
					c0.4,0.9-0.9,1.6,0,2.6c1.3-0.6,2.6-1.2,3.9,0c-0.6,0.9-1.1,0.1-1.7,0.2c-0.8,0.5-0.1,1.1,0,1.7c1.6,1.4,3.2-1.1,4.7,1
					c0.8-0.4,0.4-1.3,1.2-1.1c2.1,1.9,4.8,2.6,6.4,0.4c1.1,0.5,1.6,1.1,1.8,2.2c-0.5,0.7-1,0.4-1.5,0.8c0.5,0.9,1.1,1,1.6,1.6
					c0.1-2.3,3.2-1.6,3.3-3.8c-0.7-0.8-1.4-1.7-2-2.5c0.3-1.2,0.5-2.4,0.2-3.6c-1.8-1.8-3.7,1.1-3.5,2.7c-2.4,1.7-4.8-2.6-7.2-0.9
					c-0.3-1.1,0.2-1.2,1-1.8c1.5,1.8,6.9,0.9,5.2-2.4c1-1.7,2.1-0.4,3.1-1.4c0.6,1.3,1.4,1.9,2.5,1.7c2.3-3-2.5-7.2-3.8-10.8
					c2.7-1.1,0.9-2.9,1.5-4.3c1.3,0.4,1.3,2.4,2.7,2.8c1.3-0.8,0.6-1.9,1.7-2.8c1,0,1.3,1,1.6,2c-2.1-0.2-2.2,2.6-4.6,1.9
					c-0.2,1,1.3,1.7,1.9,0.5c1.2,2.5-2,3.4-0.3,5.8c0.9,1.3,1.5,0.1,2.7,1.9c0.5,0.4,1.1-1.1,1.7-0.6c1.2,1.2,0.1,2.2-0.8,2.5
					c-0.3,1,0.5,1.1,1.2,1.9c1-0.5,0-1.3,1.1-1.8c1,0.2,1.9,0.7,2.9,2.2c1.1,0.5,2.2-0.4,3.3-0.8c0.4-0.9-0.6-2.1-1.2-3.2
					c2.1-0.7,0.2-2.1,0-3.4c-0.2-1.5,1.7-4.3-0.4-5.2c-1.1-0.8-2.2,1.9-3.3,0.3c3.1-1.4,1.3-3.7,2.3-5.5c-2-2.1-3.4-6.1-5.7-5.2
					c-0.9,0.5-0.2,1.9-1.5,1.7c0.6-4.6-1.9-9.8,0.5-14.2c1.2,0.7,2.4,3.1,3.7,2.3c2.3,3.8,2.3,9.2,7.1,10.4c-1.4,0.2-0.7,1.8-0.4,3
					c2.3,1.5,4.5,0.2,6.8-0.4c1-0.8,0.4-1.9,0.4-3c-1.2-0.7-2.4,2-3.5,1.4c-1.3-2.2,0.3-4-1.6-6.3c0.7-1,1.4-0.8,2.1-0.5
					c1.1-1-1.1-2.5,0-3.5c1.1,0.7,0.7,1.6,2.2,2.7c0.2,0.8-0.9,1.4-1.1,2.2c1,1.4,2.1-1.2,3.1-1c1,2,3.2,4.1,4.9,3.8
					c0.2,1.9,1.6,2.3,2.9,2.6c-0.8,0.3-0.2,0.8-0.8,1.2c1.2,1.3,2.5,2.5,3.7,3.2c-0.7,2.2,2.3,5,2.4,7.3c1.2,1.4,2.3,0.5,3.5,1.2
					c0.7-1.2,0.2-2.6-0.8-4c0.4-0.5,0.8-0.7,1.3-0.7c-0.4-2.5,0-4.9,0.9-7.2c-1.6-1.7-0.6-3-0.8-4.4c0.4-0.5,0.8,0.1,1.2-0.7
					c1.2,1.1,0.8,1.9,1.2,2.8c0.5,0.5,1,0,1.4,0c0.2-0.9-0.1-1.9-1-3c1.2-1,0.7-2.3,1.9-3.4c0.7,1.6,2.4,1.9,3.7,4
					c-2.4,0.5,1.3,3.9,2.4,3.4c0,2.1-0.2,5.7,2.8,6.9c2.8-3.3-3.2-6.8-2.8-10.4c1-0.8,1.9,1.2,2.9-0.4c1,1.1-0.5,1.8-0.7,2.7
					c1.5,1.5,1.8,2.9,3.3,4.4c0,0.9-0.5,1.7-0.8,2.5c0.5,0.6,1,0.9,1.4,0.9c0.9,1.6-1.4,3.3-2.7,2.8c-0.5-0.6-0.3-1.1-0.6-1.6
					c-0.7,0.1-2.2,0.6-2.3,1.6c2.7,2.2,5.3,3.4,8,1.1c-0.3-1.9,0.4-3.5,0.3-5.4c1.9-1.1,3.8,3.6,5.8,1.4c0,1.8,0.5,3.4,1.8,4.8
					C301.6,218.8,299.9,217.1,298.1,217.6z M228.3,244.6c0.6-0.8-0.5-2.1-1.4-2.6C225.5,242.8,226.9,245.7,228.3,244.6z M268,236.7
					c-0.7,0.5-0.8,1.2-0.2,1.9C269.1,238.9,269,236.8,268,236.7z M265.4,227c-0.3,0.2-0.7,0-1,0.5c0.2,0.4,0.1,0.7,0.6,1.2
					C265.6,228.2,266.2,227.7,265.4,227z M293.7,254.8c-0.5-0.1-1,0.4-1.5,0.8c0.3,0.6,0.1,1,0.6,1.6
					C293.9,257.3,294.4,255.8,293.7,254.8z M312.9,271.8c-0.8-1.3-1.6-1.4-2.5-1.7c-0.7,1,0.1,2.3,0,3.5
					C311.5,273.9,312.9,273.1,312.9,271.8z M263.3,213.9c-0.4-1.4-0.2-3.3-1.6-4.1c-0.8,0.5-0.4,1.1-1.3,1.5
					C261.7,212.5,261.5,215,263.3,213.9z M314.6,270.3c0.2-0.9,0.3-1.8-1-3C311.5,268.4,313.2,270.4,314.6,270.3z M307.3,254.9
					c0.7-0.3,0-0.9,0.4-1.2c-0.7-0.3-1.4-1.6-2.1-1.2C306.2,253.3,306.1,254.6,307.3,254.9z M308.2,249.4c0.1,1.3-1.3,2.4,0,3.9
					c2-0.5,4,1.5,5.9,4.2c1.8-1.1-0.6-2.8-0.2-4.1c0.6-0.9,1.2-0.6,1.9-1.2C315.5,247.5,310.5,246.7,308.2,249.4z"/>
			</g>
		</g>
	</g>
</g>
<text transform="matrix(0.7403 -0.6722 0.6722 0.7403 110.2001 453.6494)" class="st8 st9 st10">Busted</text>
</svg>
