<?xml version="1.0" encoding="utf-8"?>
<!-- Generator: Adobe Illustrator 20.0.0, SVG Export Plug-In . SVG Version: 6.00 Build 0)  -->
<svg version="1.1" id="Layer_1" xmlns="http://www.w3.org/2000/svg" xmlns:xlink="http://www.w3.org/1999/xlink" x="0px" y="0px"
	 viewBox="0 0 512 512" style="enable-background:new 0 0 512 512;" xml:space="preserve">
<style type="text/css">
	.st0{fill:#0575A5;}
	.st1{display:none;fill:#025E90;}
	.st2{fill:#B8D1E6;}
	.st3{fill:#E1EFFA;}
	.st4{fill:#FFFFFF;}
	.st5{fill:#FF8E31;}
	.st6{fill:#5D6D7E;}
	.st7{font-family:'Corbel';}
	.st8{font-size:172px;}
</style>
<circle class="st0" cx="256" cy="256" r="256"/>
<path class="st1" d="M502.6,324.6L396.9,218.9c-0.3-0.3-0.6-0.6-0.9-0.9L291.1,130c-3.6-3-9.1-2.6-12.1,1.1l-19.7,23.5L202.9,134
	c-4.4-1.6-9.4,0.7-11,5.1l-10.5,28.8h-60c-4.7,0-8.6,3.9-8.6,8.6v196.9c0,1.7,0.5,3.2,1.3,4.5l2.8,2.8l131,131.1
	c2.7,0.1,5.3,0.2,8,0.2C373.6,512,472.6,432.7,502.6,324.6z"/>
<path class="st2" d="M270.5,277.9c-3,3.6-8.5,4.1-12.1,1.1l-105-88.1c-3.6-3-4.1-8.5-1.1-12.1L279,28c3-3.6,8.5-4.1,12.1-1.1
	L396.1,115c3.6,3,4.1,8.5,1.1,12.1L270.5,277.9z"/>
<path class="st3" d="M269.4,273.9c-1.6,4.4-6.6,6.7-11,5.1l-128.7-46.9c-4.4-1.6-6.7-6.5-5.1-11L192,36.1c1.6-4.4,6.5-6.7,11-5.1
	l128.7,46.9c4.4,1.6,6.7,6.5,5.1,11L269.4,273.9z"/>
<path class="st4" d="M267,270.4c0,4.7-3.9,8.6-8.6,8.6h-137c-4.7,0-8.6-3.9-8.6-8.6V73.5c0-4.7,3.9-8.6,8.6-8.6h137
	c4.7,0,8.6,3.9,8.6,8.6V270.4z"/>
<g>
	<path class="st5" d="M212.1,155.6c-7.5-9.7-22.2-4-22.2,5.9c0-9.9-14.7-15.6-22.2-5.9c-7.7,10-0.1,27.6,22.2,37.7
		C212.3,183.2,219.9,165.6,212.1,155.6z"/>
	<path class="st5" d="M142.1,106.8c-2.5-3.3-7.6-1.4-7.6,2c0-3.4-5-5.3-7.6-2c-2.6,3.4,0,9.4,7.6,12.9
		C142.2,116.2,144.8,110.2,142.1,106.8z"/>
</g>
<path class="st6" d="M140.6,96.3l-1.6-4h-8.9l-1.6,4H126l7.2-17.9h2.8l7.2,17.9H140.6z M134.6,80.7l-3.8,9.6h7.6L134.6,80.7z"/>
<path class="st5" d="M237.8,237.2c2.6,3.3,7.6,1.4,7.6-2c0,3.4,5,5.3,7.6,2c2.6-3.4,0-9.4-7.6-12.9
	C237.7,227.7,235.1,233.7,237.8,237.2z"/>
<path class="st6" d="M239.3,247.6l1.6,4h8.9l1.6-4h2.5l-7.2,17.8h-2.8l-7.2-17.8H239.3z M245.3,263.2l3.8-9.6h-7.6L245.3,263.2z"/>
<text transform="matrix(1 0 0 1 144.1496 456.0009)" class="st4 st7 st8">Hit</text>
</svg>
