<?xml version="1.0" encoding="utf-8"?>
<!-- Generator: Adobe Illustrator 20.0.0, SVG Export Plug-In . SVG Version: 6.00 Build 0)  -->
<svg version="1.1" id="Layer_1" xmlns="http://www.w3.org/2000/svg" xmlns:xlink="http://www.w3.org/1999/xlink" x="0px" y="0px"
	 viewBox="0 0 508 508" style="enable-background:new 0 0 508 508;" xml:space="preserve">
<style type="text/css">
	.st0{fill:#EA7D7D;}
	.st1{fill:#FFE7D4;}
	.st2{fill:#5565C4;}
	.st3{fill:#FFFFFF;}
	.st4{font-family:'Corbel';}
	.st5{font-size:172px;}
</style>
<circle class="st0" cx="254" cy="254" r="254"/>
<path class="st1" d="M299.1,60.9c-5.9,0.3-10.8,5.2-10.8,11.2l-0.3,36.2c-0.1,0.6-0.5,1.3-1.4,1.3c-0.6-0.1-1.3-0.5-1.3-1.4l0.5-58
	c0-5.7-3.8-10.9-9.5-11.8c-7.2-1.1-13.4,4.2-13.4,11.1l-0.7,52.6c-0.1,0.6-0.5,1.3-1.4,1.3c-0.6-0.1-1-0.6-0.9-1.2l0.6-68.6
	c0.1-6.6-5.2-11.9-11.8-12l-0.3,0.1c-0.3,0.1-0.9,0-1.1,0c-5.8,0.8-9.9,6.3-9.9,12.1l-0.5,72c-0.1,0.6-0.5,1.3-1.4,1.3
	c-0.6-0.1-1.3-0.5-1.3-1.4l0.1-65.3c0-6.9-5.6-12.4-12.4-12.1c-6.5,0.2-11.6,5.4-11.7,11.7l-1.1,74.7c-5.4-12.7-12.9-23.7-22.5-28.9
	c-4.8-2.9-11.2,1.8-12.8,7.2c-0.7,2.5-0.6,5.9,1.2,9.1c0,0,12.5,11.5,10.4,37.6c-2.2,25.8,28.7,55.2,28.7,55.2
	c10.7,12.1,9.1,70.3,9.1,70.3l61.5-1.9c0.9-27.2,11.6-66.3,11.6-66.3l4.5-17c5.2-19.5,7.9-39.5,8.4-59.7l1.1-47.3
	C310.8,65.8,305.6,60.7,299.1,60.9z"/>
<path class="st2" d="M202.6,303.1c29.9,16.2,64.4,23.6,99.5,20.2l4.1-80.2L206,234.3L202.6,303.1z"/>
<text transform="matrix(0.7922 0 0 1 88 447)" class="st3 st4 st5">Stand</text>
</svg>
