<svg xmlns="http://www.w3.org/2000/svg" viewBox="0 0 179.58 250.45"><defs><style>.cls-1{fill:#f9faf9;stroke:#231815;}.cls-2{fill:none;}</style></defs><title>资源 1</title><g id="图层_2" data-name="图层 2"><g id="ace"><rect class="cls-1" x="0.5" y="0.5" width="178.58" height="249.45" rx="14.17" ry="14.17"/><path d="M13.25,43a3.61,3.61,0,0,0-3.38,3.8,4,4,0,0,0,1.27,3c.26.24.15.5-.12.33a3.09,3.09,0,0,0-1.61-.48,3.69,3.69,0,0,0,0,7.33,3.2,3.2,0,0,0,2.81-1.82c.06-.11.1-.25.18-.25s.16.17.16.5A12.62,12.62,0,0,1,11.32,60a10.58,10.58,0,0,1,1.94-.27,10.54,10.54,0,0,1,1.94.27,12.69,12.69,0,0,1-1.25-4.62c0-.33,0-.5.16-.5s.12.14.18.25A3.21,3.21,0,0,0,17.09,57a3.69,3.69,0,0,0,0-7.33,3.09,3.09,0,0,0-1.61.48c-.26.16-.37-.1-.12-.33a4,4,0,0,0,1.27-3A3.61,3.61,0,0,0,13.25,43Z"/><path d="M166.33,207.43a3.61,3.61,0,0,0,3.38-3.8,4,4,0,0,0-1.27-3c-.26-.24-.15-.5.12-.33a3.06,3.06,0,0,0,1.6.48,3.69,3.69,0,0,0,0-7.33,3.21,3.21,0,0,0-2.81,1.82c-.05.11-.1.25-.18.25s-.16-.18-.16-.5a12.61,12.61,0,0,1,1.25-4.62,10.64,10.64,0,0,1-1.94.27,10.52,10.52,0,0,1-1.93-.27,12.69,12.69,0,0,1,1.25,4.62c0,.33-.05.5-.16.5s-.12-.15-.18-.25a3.2,3.2,0,0,0-2.81-1.82,3.69,3.69,0,0,0,0,7.33,3.06,3.06,0,0,0,1.6-.48c.27-.16.38.1.12.33a4,4,0,0,0-1.27,3A3.61,3.61,0,0,0,166.33,207.43Z"/><path d="M89.79,104c-4.66,0-8.44,4.26-8.44,9.5a10,10,0,0,0,3.17,7.42c.65.59.37,1.24-.29.84a7.7,7.7,0,0,0-4-1.19c-4.49,0-8.14,4.11-8.14,9.16s3.65,9.17,8.14,9.17a8,8,0,0,0,7-4.54c.14-.27.25-.63.44-.63s.39.44.39,1.25c0,3.29-1.26,7.13-3.13,11.54a26.26,26.26,0,0,1,4.84-.68,26.3,26.3,0,0,1,4.84.68c-1.87-4.41-3.13-8.25-3.13-11.54,0-.82.13-1.25.39-1.25s.31.36.44.63a8,8,0,0,0,7,4.54c4.5,0,8.14-4.11,8.14-9.17s-3.64-9.16-8.14-9.16a7.73,7.73,0,0,0-4,1.19c-.66.4-.94-.24-.29-.84a10,10,0,0,0,3.17-7.42C98.23,108.22,94.45,104,89.79,104Z"/><polygon class="cls-2" points="11.14 30.63 15.47 30.63 13.31 19.07 11.14 30.63"/><path d="M18.73,36.47,14.66,14.7l-2.19,0v0h-.54L7.88,36.47H6.17v2.3h5.45v-2.3H10l.62-3.33h5.26l.62,3.34H14.89v2.3h5.45v-2.3Zm-7.59-5.83,2.17-11.56,2.16,11.55Z"/><polygon class="cls-2" points="168.44 219.82 164.11 219.82 166.27 231.38 168.44 219.82"/><path d="M160.85,214l4.07,21.77,2.19,0v0h.54L171.71,214h1.71v-2.3H168V214h1.57l-.62,3.33h-5.26L163,214h1.67v-2.3h-5.45V214Zm7.59,5.83-2.17,11.56-2.16-11.55Z"/></g></g></svg>