<svg xmlns="http://www.w3.org/2000/svg" viewBox="0 0 179.58 250.45"><defs><style>.cls-1{fill:#f9faf9;stroke:#231815;}</style></defs><title>资源 10</title><g id="图层_2" data-name="图层 2"><g id="ten"><rect class="cls-1" x="0.5" y="0.5" width="178.58" height="249.45" rx="14.17" ry="14.17"/><path d="M13.26,43a3.61,3.61,0,0,0-3.38,3.8,4,4,0,0,0,1.27,3c.26.24.15.49-.12.33a3.09,3.09,0,0,0-1.61-.48,3.69,3.69,0,0,0,0,7.33,3.2,3.2,0,0,0,2.81-1.82c.06-.11.1-.25.18-.25s.16.18.16.5A12.63,12.63,0,0,1,11.32,60a10.59,10.59,0,0,1,1.94-.27,10.59,10.59,0,0,1,1.94.27,12.65,12.65,0,0,1-1.25-4.62c0-.33,0-.5.16-.5s.12.15.18.25A3.2,3.2,0,0,0,17.09,57a3.69,3.69,0,0,0,0-7.33,3.09,3.09,0,0,0-1.61.48c-.26.16-.37-.1-.12-.33a4,4,0,0,0,1.27-3A3.61,3.61,0,0,0,13.26,43Z"/><path d="M166.33,207.43a3.61,3.61,0,0,0,3.38-3.8,4,4,0,0,0-1.27-3c-.26-.24-.15-.49.12-.33a3.08,3.08,0,0,0,1.61.48,3.69,3.69,0,0,0,0-7.33,3.2,3.2,0,0,0-2.81,1.82c-.06.11-.1.25-.18.25s-.16-.18-.16-.5a12.65,12.65,0,0,1,1.25-4.62,7,7,0,0,1-3.87,0,12.68,12.68,0,0,1,1.25,4.62c0,.33-.05.5-.16.5s-.12-.15-.18-.25a3.2,3.2,0,0,0-2.81-1.82,3.69,3.69,0,0,0,0,7.33,3.08,3.08,0,0,0,1.61-.48c.26-.16.38.1.12.33a4,4,0,0,0-1.27,3A3.61,3.61,0,0,0,166.33,207.43Z"/><path d="M45.85,26c-4.66,0-8.44,4.26-8.44,9.5a10,10,0,0,0,3.17,7.42c.65.59.37,1.24-.29.84a7.7,7.7,0,0,0-4-1.19c-4.49,0-8.14,4.11-8.14,9.17s3.65,9.17,8.14,9.17a8,8,0,0,0,7-4.54c.14-.27.25-.63.44-.63s.39.44.39,1.26c0,3.29-1.26,7.13-3.13,11.54a26.3,26.3,0,0,1,4.84-.68,26.29,26.29,0,0,1,4.84.68c-1.87-4.41-3.13-8.25-3.13-11.54,0-.82.13-1.26.39-1.26s.3.36.44.63a8,8,0,0,0,7,4.54c4.5,0,8.14-4.11,8.14-9.17s-3.65-9.17-8.14-9.17a7.7,7.7,0,0,0-4,1.19c-.66.4-.94-.24-.29-.84a10,10,0,0,0,3.17-7.42C54.29,30.27,50.51,26,45.85,26Z"/><path d="M46.56,78c-4.66,0-8.44,4.26-8.44,9.5a10,10,0,0,0,3.17,7.42c.65.59.37,1.24-.29.84a7.7,7.7,0,0,0-4-1.19c-4.49,0-8.14,4.11-8.14,9.17s3.65,9.17,8.14,9.17a8,8,0,0,0,7-4.54c.14-.27.25-.63.44-.63s.39.44.39,1.26c0,3.29-1.26,7.13-3.13,11.54a26.22,26.22,0,0,1,4.84-.68,26.23,26.23,0,0,1,4.84.68c-1.87-4.41-3.13-8.25-3.13-11.54,0-.82.12-1.26.39-1.26s.31.37.44.63a8,8,0,0,0,7,4.54c4.5,0,8.14-4.11,8.14-9.17s-3.65-9.17-8.14-9.17a7.69,7.69,0,0,0-4,1.19c-.66.4-.94-.24-.29-.84A10,10,0,0,0,55,87.48C55,82.24,51.22,78,46.56,78Z"/><path d="M46.56,224.44c4.66,0,8.44-4.26,8.44-9.5a10,10,0,0,0-3.17-7.42c-.65-.59-.37-1.24.29-.84a7.69,7.69,0,0,0,4,1.19c4.49,0,8.14-4.11,8.14-9.17s-3.65-9.17-8.14-9.17a8,8,0,0,0-7,4.54c-.14.27-.25.63-.44.63s-.39-.44-.39-1.26c0-3.29,1.26-7.13,3.13-11.54a26.34,26.34,0,0,1-4.84.68,26.34,26.34,0,0,1-4.84-.68c1.87,4.41,3.13,8.25,3.13,11.54,0,.82-.12,1.26-.39,1.26s-.31-.37-.44-.63a8,8,0,0,0-7-4.54c-4.49,0-8.14,4.11-8.14,9.17s3.65,9.17,8.14,9.17a7.69,7.69,0,0,0,4-1.19c.66-.4.94.24.29.84a10,10,0,0,0-3.17,7.42C38.12,220.18,41.9,224.44,46.56,224.44Z"/><path d="M46.56,172.47c4.66,0,8.44-4.26,8.44-9.5a10,10,0,0,0-3.17-7.42c-.65-.59-.37-1.24.29-.84a7.7,7.7,0,0,0,4,1.19c4.49,0,8.14-4.11,8.14-9.17s-3.65-9.17-8.14-9.17a8,8,0,0,0-7,4.54c-.14.26-.25.63-.44.63s-.39-.44-.39-1.26c0-3.29,1.26-7.12,3.13-11.54a26.35,26.35,0,0,1-4.84.68,26.35,26.35,0,0,1-4.84-.68c1.87,4.41,3.13,8.25,3.13,11.54,0,.82-.12,1.26-.39,1.26s-.31-.37-.44-.63a8,8,0,0,0-7-4.54c-4.49,0-8.14,4.11-8.14,9.17s3.65,9.17,8.14,9.17a7.7,7.7,0,0,0,4-1.19c.66-.4.94.24.29.84A10,10,0,0,0,38.12,163C38.12,168.21,41.9,172.47,46.56,172.47Z"/><path d="M133,26c-4.66,0-8.44,4.26-8.44,9.5a10,10,0,0,0,3.17,7.42c.65.59.37,1.24-.29.84a7.7,7.7,0,0,0-4-1.19c-4.49,0-8.14,4.11-8.14,9.17s3.65,9.17,8.14,9.17a8,8,0,0,0,7-4.54c.14-.27.25-.63.44-.63s.39.44.39,1.26c0,3.29-1.26,7.13-3.13,11.54a26.29,26.29,0,0,1,4.84-.68,26.29,26.29,0,0,1,4.84.68c-1.87-4.41-3.13-8.25-3.13-11.54,0-.82.13-1.26.39-1.26s.31.36.44.63a8,8,0,0,0,7,4.54c4.49,0,8.14-4.11,8.14-9.17s-3.65-9.17-8.14-9.17a7.7,7.7,0,0,0-4,1.19c-.66.4-.94-.24-.29-.84a10,10,0,0,0,3.17-7.42C141.46,30.27,137.68,26,133,26Z"/><path d="M133,78c-4.66,0-8.44,4.26-8.44,9.5a10,10,0,0,0,3.17,7.42c.65.59.37,1.24-.29.84a7.7,7.7,0,0,0-4-1.19c-4.49,0-8.14,4.11-8.14,9.17s3.65,9.17,8.14,9.17a8,8,0,0,0,7-4.54c.14-.27.25-.63.44-.63s.39.44.39,1.26c0,3.29-1.26,7.13-3.13,11.54a26.23,26.23,0,0,1,4.84-.68,26.23,26.23,0,0,1,4.84.68c-1.87-4.41-3.13-8.25-3.13-11.54,0-.82.13-1.26.39-1.26s.31.37.44.63a8,8,0,0,0,7,4.54c4.49,0,8.14-4.11,8.14-9.17s-3.65-9.17-8.14-9.17a7.7,7.7,0,0,0-4,1.19c-.66.4-.94-.24-.29-.84a10,10,0,0,0,3.17-7.42C141.46,82.24,137.68,78,133,78Z"/><path d="M133,224.44c4.66,0,8.44-4.26,8.44-9.5a10,10,0,0,0-3.17-7.42c-.65-.59-.37-1.24.29-.84a7.69,7.69,0,0,0,4,1.19c4.49,0,8.14-4.11,8.14-9.17s-3.65-9.17-8.14-9.17a8,8,0,0,0-7,4.54c-.14.27-.25.63-.44.63s-.39-.44-.39-1.26c0-3.29,1.26-7.13,3.13-11.54a26.33,26.33,0,0,1-4.84.68,26.35,26.35,0,0,1-4.84-.68c1.87,4.41,3.13,8.25,3.13,11.54,0,.82-.12,1.26-.39,1.26s-.31-.37-.44-.63a8,8,0,0,0-7-4.54c-4.5,0-8.14,4.11-8.14,9.17s3.65,9.17,8.14,9.17a7.69,7.69,0,0,0,4-1.19c.66-.4.94.24.29.84a10,10,0,0,0-3.17,7.42C124.58,220.18,128.36,224.44,133,224.44Z"/><path d="M133,172.47c4.66,0,8.44-4.26,8.44-9.5a10,10,0,0,0-3.17-7.42c-.65-.59-.37-1.24.29-.84a7.7,7.7,0,0,0,4,1.19c4.49,0,8.14-4.11,8.14-9.17s-3.65-9.17-8.14-9.17a8,8,0,0,0-7,4.54c-.14.26-.25.63-.44.63s-.39-.44-.39-1.26c0-3.29,1.26-7.12,3.13-11.54a26.34,26.34,0,0,1-4.84.68,26.36,26.36,0,0,1-4.84-.68c1.87,4.41,3.13,8.25,3.13,11.54,0,.82-.12,1.26-.39,1.26s-.31-.37-.44-.63a8,8,0,0,0-7-4.54c-4.5,0-8.14,4.11-8.14,9.17s3.65,9.17,8.14,9.17a7.7,7.7,0,0,0,4-1.19c.66-.4.94.24.29.84a10,10,0,0,0-3.17,7.42C124.58,168.21,128.36,172.47,133,172.47Z"/><path d="M89.79,54.36c-4.66,0-8.44,4.26-8.44,9.5a10,10,0,0,0,3.17,7.42c.65.59.37,1.24-.29.84a7.7,7.7,0,0,0-4-1.19c-4.49,0-8.14,4.11-8.14,9.17s3.65,9.17,8.14,9.17a8,8,0,0,0,7-4.54c.14-.27.25-.63.44-.63s.39.44.39,1.26c0,3.29-1.26,7.13-3.13,11.54a26.3,26.3,0,0,1,4.84-.68,26.27,26.27,0,0,1,4.84.68c-1.87-4.41-3.13-8.25-3.13-11.54,0-.82.13-1.26.39-1.26s.31.36.44.63a8,8,0,0,0,7,4.54c4.5,0,8.14-4.11,8.14-9.17s-3.65-9.17-8.14-9.17a7.7,7.7,0,0,0-4,1.19c-.66.4-.94-.24-.29-.84a10,10,0,0,0,3.17-7.42C98.23,58.62,94.45,54.36,89.79,54.36Z"/><path d="M89.79,196.09c4.66,0,8.44-4.26,8.44-9.5a10,10,0,0,0-3.17-7.42c-.65-.59-.37-1.24.29-.84a7.7,7.7,0,0,0,4,1.19c4.49,0,8.14-4.11,8.14-9.17s-3.65-9.17-8.14-9.17a8,8,0,0,0-7,4.54c-.14.26-.25.63-.44.63s-.39-.44-.39-1.26c0-3.29,1.26-7.13,3.13-11.54a26.35,26.35,0,0,1-4.84.68,26.37,26.37,0,0,1-4.84-.68c1.87,4.41,3.13,8.25,3.13,11.54,0,.82-.12,1.26-.39,1.26s-.31-.37-.44-.63a8,8,0,0,0-7-4.54c-4.49,0-8.14,4.11-8.14,9.17s3.65,9.17,8.14,9.17a7.69,7.69,0,0,0,4-1.19c.66-.4.94.24.29.84a10,10,0,0,0-3.17,7.42C81.35,191.83,85.13,196.09,89.79,196.09Z"/><polygon points="6.17 38.73 6.17 14.67 8.35 14.67 8.35 38.73 6.17 38.73 6.17 38.73"/><path d="M12.91,37.45a4.68,4.68,0,0,1-1.3-3.26h0V19.25A4.68,4.68,0,0,1,12.91,16h0A4.26,4.26,0,0,1,16,14.67h0A4.26,4.26,0,0,1,19,16h0a4.68,4.68,0,0,1,1.3,3.26h0V34.19A4.68,4.68,0,0,1,19,37.45h0A4.26,4.26,0,0,1,16,38.77h0a4.26,4.26,0,0,1-3.07-1.32Zm1.5-19.72a2.18,2.18,0,0,0-.62,1.53h0V34.19a2.18,2.18,0,0,0,.62,1.53h0a2.17,2.17,0,0,0,1.57.67h0a2.17,2.17,0,0,0,1.57-.67h0a2.18,2.18,0,0,0,.62-1.53h0V19.25a2.18,2.18,0,0,0-.62-1.53h0A2.18,2.18,0,0,0,16,17.06h0a2.17,2.17,0,0,0-1.57.67Z"/><polygon points="173.41 211.72 173.41 235.78 171.23 235.78 171.23 211.72 173.41 211.72 173.41 211.72"/><path d="M166.67,213a4.68,4.68,0,0,1,1.3,3.26h0V231.2a4.68,4.68,0,0,1-1.3,3.26h0a4.26,4.26,0,0,1-3.07,1.32h0a4.26,4.26,0,0,1-3.07-1.32h0a4.68,4.68,0,0,1-1.3-3.26h0V216.26a4.68,4.68,0,0,1,1.3-3.26h0a4.26,4.26,0,0,1,3.07-1.32h0a4.26,4.26,0,0,1,3.07,1.32Zm-1.5,19.72a2.18,2.18,0,0,0,.62-1.53h0V216.26a2.18,2.18,0,0,0-.62-1.53h0a2.17,2.17,0,0,0-1.57-.67h0a2.17,2.17,0,0,0-1.57.67h0a2.18,2.18,0,0,0-.62,1.53h0V231.2a2.18,2.18,0,0,0,.62,1.53h0a2.17,2.17,0,0,0,1.57.67h0a2.17,2.17,0,0,0,1.57-.67Z"/></g></g></svg>