<svg xmlns="http://www.w3.org/2000/svg" viewBox="0 0 179.58 250.45"><defs><style>.cls-1{fill:#f9faf9;stroke:#231815;}</style></defs><title>资源 2</title><g id="图层_2" data-name="图层 2"><g id="two"><rect class="cls-1" x="0.5" y="0.5" width="178.58" height="249.45" rx="14.17" ry="14.17"/><path d="M13.26,43a3.61,3.61,0,0,0-3.37,3.8,4,4,0,0,0,1.27,3c.26.24.15.5-.12.33a3.1,3.1,0,0,0-1.61-.48,3.69,3.69,0,0,0,0,7.33,3.2,3.2,0,0,0,2.81-1.82c.05-.11.1-.25.18-.25s.16.18.16.5A12.63,12.63,0,0,1,11.32,60a10.55,10.55,0,0,1,1.94-.27,10.53,10.53,0,0,1,1.94.27,12.63,12.63,0,0,1-1.25-4.62c0-.33.05-.5.16-.5s.12.15.18.25A3.2,3.2,0,0,0,17.09,57a3.69,3.69,0,0,0,0-7.33,3.08,3.08,0,0,0-1.61.48c-.26.16-.37-.1-.12-.33a4,4,0,0,0,1.27-3A3.61,3.61,0,0,0,13.26,43Z"/><path d="M166.32,207.43a3.61,3.61,0,0,0,3.38-3.8,4,4,0,0,0-1.27-3c-.26-.24-.15-.5.11-.33a3.1,3.1,0,0,0,1.61.48,3.69,3.69,0,0,0,0-7.33,3.2,3.2,0,0,0-2.81,1.82c-.05.11-.1.25-.18.25s-.16-.17-.16-.5a12.72,12.72,0,0,1,1.25-4.61,7.08,7.08,0,0,1-3.87,0,12.68,12.68,0,0,1,1.25,4.61c0,.33-.05.5-.16.5s-.12-.15-.18-.25a3.21,3.21,0,0,0-2.81-1.82,3.69,3.69,0,0,0,0,7.33,3.09,3.09,0,0,0,1.61-.48c.27-.16.38.1.12.33a4,4,0,0,0-1.27,3A3.61,3.61,0,0,0,166.32,207.43Z"/><path d="M89.79,26c-4.66,0-8.44,4.26-8.44,9.5a10,10,0,0,0,3.17,7.42c.65.59.37,1.24-.29.84a7.71,7.71,0,0,0-4-1.19c-4.49,0-8.14,4.11-8.14,9.17s3.65,9.17,8.14,9.17a8,8,0,0,0,7-4.54c.14-.27.25-.63.44-.63s.39.44.39,1.26c0,3.29-1.26,7.13-3.13,11.54a26.41,26.41,0,0,1,4.84-.68,26.38,26.38,0,0,1,4.84.68C92.77,64.12,91.5,60.28,91.5,57c0-.82.13-1.26.39-1.26s.3.37.44.63a8,8,0,0,0,7,4.54c4.5,0,8.14-4.11,8.14-9.17s-3.65-9.17-8.14-9.17a7.69,7.69,0,0,0-4,1.19c-.66.4-.94-.24-.29-.84a10,10,0,0,0,3.17-7.42C98.23,30.27,94.45,26,89.79,26Z"/><path d="M89.79,224.44c4.66,0,8.44-4.26,8.44-9.51a10,10,0,0,0-3.17-7.41c-.65-.59-.37-1.24.29-.84a7.69,7.69,0,0,0,4,1.19c4.5,0,8.14-4.11,8.14-9.17s-3.65-9.17-8.14-9.17a8,8,0,0,0-7,4.54c-.14.27-.25.63-.44.63s-.39-.44-.39-1.26c0-3.29,1.27-7.12,3.13-11.54a26.38,26.38,0,0,1-4.84.68,26.38,26.38,0,0,1-4.84-.68c1.87,4.41,3.13,8.25,3.13,11.54,0,.82-.12,1.26-.39,1.26s-.3-.37-.44-.63a8,8,0,0,0-7-4.54c-4.49,0-8.14,4.11-8.14,9.17s3.65,9.17,8.14,9.17a7.71,7.71,0,0,0,4-1.19c.66-.4.94.24.29.84a10,10,0,0,0-3.17,7.41C81.35,220.18,85.13,224.44,89.79,224.44Z"/><path d="M20.32,35H18v1.45H8.48a3.76,3.76,0,0,1,.46-1.24,14.33,14.33,0,0,1,2.39-3,42.69,42.69,0,0,1,3.42-3h0a43,43,0,0,0,3.62-3.1,7.1,7.1,0,0,0,1.24-1.76,6.44,6.44,0,0,0,.61-2.23,5.58,5.58,0,0,0,0-.56,8,8,0,0,0-.25-2,6.54,6.54,0,0,0-1.93-3.29,6.79,6.79,0,0,0-4.68-1.6,7,7,0,0,0-4,1.11,6.24,6.24,0,0,0-1.77,1.83A8.39,8.39,0,0,0,6.53,20.5a9.28,9.28,0,0,0-.18,1.7v.07l2-.05h.3v0a7.08,7.08,0,0,1,.67-2.86,4.07,4.07,0,0,1,1.37-1.61A4.76,4.76,0,0,1,13.39,17a5.25,5.25,0,0,1,2.42.51,3.68,3.68,0,0,1,1.72,1.88A5.57,5.57,0,0,1,18,21.54c0,.13,0,.25,0,.34a4.09,4.09,0,0,1-.38,1.42,6,6,0,0,1-1.49,1.8c-.71.64-1.65,1.36-2.76,2.28A38.24,38.24,0,0,0,8.66,31.7,13.53,13.53,0,0,0,7,34a5.79,5.79,0,0,0-.77,2.38h0v.14h0v2.18H20.32V35Z"/><path d="M159.24,215.45h2.28V214h9.56a3.82,3.82,0,0,1-.46,1.24,14.37,14.37,0,0,1-2.39,3,42.82,42.82,0,0,1-3.42,3h0a42.66,42.66,0,0,0-3.62,3.1,7.07,7.07,0,0,0-1.24,1.76,6.4,6.4,0,0,0-.61,2.24c0,.17,0,.36,0,.56a8.11,8.11,0,0,0,.25,2,6.57,6.57,0,0,0,1.93,3.29,6.78,6.78,0,0,0,4.68,1.6,7,7,0,0,0,4-1.11,6.18,6.18,0,0,0,1.77-1.83,8.38,8.38,0,0,0,1.12-2.89,9.27,9.27,0,0,0,.18-1.69.55.55,0,0,0,0-.07l-2,.05h-.3v0a7.1,7.1,0,0,1-.67,2.86,4,4,0,0,1-1.37,1.61,4.74,4.74,0,0,1-2.73.73,5.24,5.24,0,0,1-2.42-.51,3.68,3.68,0,0,1-1.72-1.88,5.57,5.57,0,0,1-.44-2.14c0-.13,0-.25,0-.34a4,4,0,0,1,.38-1.42,6,6,0,0,1,1.49-1.8c.71-.64,1.65-1.36,2.76-2.28a38.57,38.57,0,0,0,4.67-4.33,13.65,13.65,0,0,0,1.71-2.35,5.79,5.79,0,0,0,.77-2.39h0v-.14h0v-2.18H159.24v3.77Z"/></g></g></svg>