<svg xmlns="http://www.w3.org/2000/svg" viewBox="0 0 179.58 250.45"><defs><style>.cls-1{fill:#f9faf9;stroke:#231815;}</style></defs><title>资源 3</title><g id="图层_2" data-name="图层 2"><g id="three"><rect class="cls-1" x="0.5" y="0.5" width="178.58" height="249.45" rx="14.17" ry="14.17"/><path d="M13.26,43a3.61,3.61,0,0,0-3.37,3.8,4,4,0,0,0,1.27,3c.26.24.15.5-.12.33a3.1,3.1,0,0,0-1.61-.48,3.69,3.69,0,0,0,0,7.33,3.2,3.2,0,0,0,2.81-1.82c.06-.11.1-.25.18-.25s.16.17.16.5A12.64,12.64,0,0,1,11.32,60a10.59,10.59,0,0,1,1.94-.27,10.56,10.56,0,0,1,1.94.27,12.65,12.65,0,0,1-1.25-4.62c0-.33.05-.5.16-.5s.12.15.18.25A3.2,3.2,0,0,0,17.09,57a3.69,3.69,0,0,0,0-7.33,3.09,3.09,0,0,0-1.61.48c-.26.16-.37-.1-.12-.33a4,4,0,0,0,1.27-3A3.61,3.61,0,0,0,13.26,43Z"/><path d="M166.32,207.43a3.61,3.61,0,0,0,3.37-3.8,4,4,0,0,0-1.27-3c-.26-.24-.15-.49.11-.33a3.08,3.08,0,0,0,1.61.48,3.69,3.69,0,0,0,0-7.33,3.2,3.2,0,0,0-2.81,1.82c-.05.11-.1.25-.18.25s-.15-.17-.15-.5a12.72,12.72,0,0,1,1.25-4.62,7,7,0,0,1-3.87,0,12.73,12.73,0,0,1,1.25,4.62c0,.33-.05.5-.16.5s-.12-.15-.18-.25a3.21,3.21,0,0,0-2.81-1.82,3.69,3.69,0,0,0,0,7.33,3.09,3.09,0,0,0,1.61-.48c.26-.16.38.1.12.33a4,4,0,0,0-1.27,3A3.61,3.61,0,0,0,166.32,207.43Z"/><path d="M89.79,26c-4.66,0-8.44,4.26-8.44,9.5a10,10,0,0,0,3.17,7.42c.65.59.37,1.24-.29.84a7.7,7.7,0,0,0-4-1.19c-4.49,0-8.14,4.11-8.14,9.17s3.65,9.17,8.14,9.17a8,8,0,0,0,7-4.54c.14-.27.25-.63.44-.63s.39.44.39,1.26c0,3.29-1.26,7.13-3.13,11.54a26.35,26.35,0,0,1,4.84-.68,26.33,26.33,0,0,1,4.84.68c-1.87-4.41-3.12-8.25-3.12-11.54,0-.82.12-1.26.39-1.26s.31.37.45.63a8,8,0,0,0,7,4.54c4.49,0,8.14-4.11,8.14-9.17s-3.65-9.17-8.14-9.17a7.7,7.7,0,0,0-4,1.19c-.66.4-.94-.24-.29-.84a10,10,0,0,0,3.17-7.42C98.23,30.27,94.45,26,89.79,26Z"/><path d="M89.79,104c-4.66,0-8.44,4.25-8.44,9.5a10,10,0,0,0,3.17,7.42c.65.59.37,1.24-.29.84a7.7,7.7,0,0,0-4-1.2c-4.49,0-8.14,4.11-8.14,9.17s3.65,9.16,8.14,9.16a8,8,0,0,0,7-4.54c.14-.27.25-.63.44-.63s.39.44.39,1.25c0,3.29-1.26,7.13-3.13,11.55a26.33,26.33,0,0,1,4.84-.68,26.3,26.3,0,0,1,4.84.68c-1.87-4.42-3.12-8.26-3.12-11.55,0-.82.12-1.25.39-1.25s.31.36.45.63a8,8,0,0,0,7,4.54c4.49,0,8.14-4.1,8.14-9.16s-3.65-9.17-8.14-9.17a7.69,7.69,0,0,0-4,1.2c-.66.4-.94-.24-.29-.84a10.05,10.05,0,0,0,3.17-7.42C98.23,108.22,94.45,104,89.79,104Z"/><path d="M89.79,224.44c4.66,0,8.44-4.26,8.44-9.5a10,10,0,0,0-3.17-7.42c-.65-.59-.37-1.24.29-.84a7.71,7.71,0,0,0,4,1.19c4.49,0,8.14-4.11,8.14-9.17s-3.65-9.17-8.14-9.17a8,8,0,0,0-7,4.54c-.14.27-.25.63-.45.63s-.39-.44-.39-1.26c0-3.29,1.26-7.12,3.12-11.54a26.29,26.29,0,0,1-4.84.68,26.35,26.35,0,0,1-4.84-.68c1.87,4.41,3.13,8.25,3.13,11.54,0,.82-.12,1.26-.39,1.26s-.31-.37-.44-.63a8,8,0,0,0-7-4.54c-4.49,0-8.14,4.11-8.14,9.17s3.65,9.17,8.14,9.17a7.71,7.71,0,0,0,4-1.19c.66-.4.94.24.29.84a10,10,0,0,0-3.17,7.42C81.35,220.18,85.13,224.44,89.79,224.44Z"/><path d="M14.31,22.46l5.88-5.25h0v0h0V14.67H6.68v4.07H8.76V17.2h7.91L8.91,24.4,10,26.06a4.52,4.52,0,0,1,3.08-1.24,4.92,4.92,0,0,1,3.64,1.68,6.39,6.39,0,0,1,0,8.11,4.91,4.91,0,0,1-3.64,1.68,4.61,4.61,0,0,1-3.5-1.68,6,6,0,0,1-1.33-2.78l-2.11.44c.68,3.72,3.53,6.5,6.94,6.51,3.92,0,7.23-3.68,7.24-8.22C20.34,26.49,17.68,23.12,14.31,22.46Z"/><polygon points="10.03 26.06 10.03 26.06 10.03 26.06 10.03 26.06"/><path d="M165.27,228l-5.88,5.25h0v0h0v2.51H172.9V231.7h-2.08v1.54H162.9l7.77-7.2-1.12-1.66a4.51,4.51,0,0,1-3.08,1.24,4.91,4.91,0,0,1-3.64-1.68,6.39,6.39,0,0,1,0-8.11,4.92,4.92,0,0,1,3.64-1.68,4.62,4.62,0,0,1,3.5,1.68,6,6,0,0,1,1.33,2.78l2.11-.44c-.68-3.72-3.53-6.5-6.94-6.51-3.92,0-7.23,3.68-7.23,8.22C159.24,224,161.9,227.32,165.27,228Z"/><polygon points="169.55 224.38 169.55 224.38 169.55 224.38 169.55 224.38"/></g></g></svg>