<svg xmlns="http://www.w3.org/2000/svg" viewBox="0 0 179.58 250.45"><defs><style>.cls-1{fill:#f9faf9;stroke:#231815;}.cls-2{fill:none;}</style></defs><title>资源 4</title><g id="图层_2" data-name="图层 2"><g id="four"><rect class="cls-1" x="0.5" y="0.5" width="178.58" height="249.45" rx="14.17" ry="14.17"/><path d="M13.26,43a3.61,3.61,0,0,0-3.38,3.8,4,4,0,0,0,1.27,3c.26.24.15.5-.12.33a3.09,3.09,0,0,0-1.61-.48,3.69,3.69,0,0,0,0,7.33,3.2,3.2,0,0,0,2.81-1.82c.06-.11.1-.25.18-.25s.16.17.16.5A12.62,12.62,0,0,1,11.32,60a10.59,10.59,0,0,1,1.94-.27,10.57,10.57,0,0,1,1.94.27,12.66,12.66,0,0,1-1.25-4.62c0-.33,0-.5.16-.5s.12.15.18.25A3.2,3.2,0,0,0,17.09,57a3.69,3.69,0,0,0,0-7.33,3.09,3.09,0,0,0-1.61.48c-.26.16-.37-.1-.12-.33a4,4,0,0,0,1.27-3A3.61,3.61,0,0,0,13.26,43Z"/><path d="M166.33,207.43a3.61,3.61,0,0,0,3.38-3.8,4,4,0,0,0-1.27-3c-.26-.24-.15-.5.12-.33a3.08,3.08,0,0,0,1.61.48,3.69,3.69,0,0,0,0-7.33,3.2,3.2,0,0,0-2.81,1.82c-.06.11-.1.25-.18.25s-.16-.17-.16-.5a12.67,12.67,0,0,1,1.25-4.62,7,7,0,0,1-3.87,0,12.67,12.67,0,0,1,1.25,4.62c0,.33-.05.5-.16.5s-.12-.15-.18-.25a3.2,3.2,0,0,0-2.81-1.82,3.69,3.69,0,0,0,0,7.33,3.08,3.08,0,0,0,1.61-.48c.26-.16.37.1.12.33a4,4,0,0,0-1.27,3A3.61,3.61,0,0,0,166.33,207.43Z"/><path d="M46.56,26c-4.66,0-8.44,4.26-8.44,9.5a10,10,0,0,0,3.17,7.42c.65.59.37,1.24-.29.84a7.7,7.7,0,0,0-4-1.19c-4.49,0-8.14,4.11-8.14,9.17s3.65,9.17,8.14,9.17a8,8,0,0,0,7-4.54c.14-.27.25-.63.45-.63s.39.44.39,1.26c0,3.29-1.26,7.13-3.13,11.54a26.35,26.35,0,0,1,4.84-.68,26.35,26.35,0,0,1,4.84.68c-1.87-4.41-3.13-8.25-3.13-11.54,0-.82.13-1.26.39-1.26s.31.37.44.63a8,8,0,0,0,7,4.54c4.49,0,8.14-4.11,8.14-9.17s-3.65-9.17-8.14-9.17a7.7,7.7,0,0,0-4,1.19c-.66.4-.94-.24-.29-.84A10,10,0,0,0,55,35.52C55,30.27,51.22,26,46.56,26Z"/><path d="M46.56,224.29c4.66,0,8.44-4.26,8.44-9.5a10,10,0,0,0-3.17-7.42c-.65-.59-.37-1.24.29-.84a7.69,7.69,0,0,0,4,1.19c4.49,0,8.14-4.11,8.14-9.17s-3.65-9.17-8.14-9.17a8,8,0,0,0-7,4.54c-.14.27-.25.63-.44.63s-.39-.44-.39-1.25c0-3.29,1.26-7.13,3.13-11.54a26.25,26.25,0,0,1-4.84.68,26.23,26.23,0,0,1-4.84-.68c1.87,4.41,3.13,8.25,3.13,11.54,0,.82-.12,1.25-.39,1.25s-.31-.36-.44-.63a8,8,0,0,0-7-4.54c-4.49,0-8.14,4.11-8.14,9.17s3.65,9.17,8.14,9.17a7.69,7.69,0,0,0,4-1.19c.66-.4.94.25.29.84a10,10,0,0,0-3.17,7.42C38.12,220,41.9,224.29,46.56,224.29Z"/><path d="M133,26.16c-4.66,0-8.44,4.26-8.44,9.5a10,10,0,0,0,3.17,7.42c.65.59.37,1.24-.29.84a7.7,7.7,0,0,0-4-1.19c-4.49,0-8.14,4.11-8.14,9.17s3.65,9.17,8.14,9.17a8,8,0,0,0,7-4.54c.14-.27.25-.63.45-.63s.39.44.39,1.26c0,3.29-1.26,7.13-3.13,11.54A26.32,26.32,0,0,1,133,68a26.31,26.31,0,0,1,4.84.68c-1.87-4.41-3.13-8.25-3.13-11.54,0-.82.13-1.26.39-1.26s.31.37.44.63a8,8,0,0,0,7,4.54c4.49,0,8.14-4.11,8.14-9.17s-3.65-9.17-8.14-9.17a7.7,7.7,0,0,0-4,1.19c-.66.4-.94-.24-.29-.84a10,10,0,0,0,3.17-7.42C141.46,30.42,137.68,26.16,133,26.16Z"/><path d="M133,224.44c4.66,0,8.44-4.26,8.44-9.5a10,10,0,0,0-3.17-7.42c-.65-.59-.37-1.24.29-.84a7.71,7.71,0,0,0,4,1.19c4.49,0,8.14-4.11,8.14-9.17s-3.65-9.17-8.14-9.17a8,8,0,0,0-7,4.54c-.14.27-.25.63-.44.63s-.39-.44-.39-1.26c0-3.29,1.26-7.12,3.13-11.54a26.33,26.33,0,0,1-4.84.68,26.35,26.35,0,0,1-4.84-.68c1.87,4.41,3.13,8.25,3.13,11.54,0,.82-.12,1.26-.39,1.26s-.31-.37-.44-.63a8,8,0,0,0-7-4.54c-4.5,0-8.14,4.11-8.14,9.17s3.65,9.17,8.14,9.17a7.71,7.71,0,0,0,4-1.19c.66-.4.94.24.29.84a10,10,0,0,0-3.17,7.42C124.58,220.18,128.36,224.44,133,224.44Z"/><polygon class="cls-2" points="8.79 30.24 15.13 30.24 15.13 19.11 8.79 30.24"/><path d="M20.34,32.63V30.24h-3V14.67H15L6.17,30.24v2.39h9v3.74h-1.5v2.39l5.24,0V36.36h-1.5V32.63ZM8.79,30.24l6.34-11.13V30.24Z"/><polygon class="cls-2" points="170.79 220.21 164.45 220.21 164.46 231.34 170.79 220.21"/><path d="M159.24,217.82v2.39h3v15.57h2.31l8.88-15.57v-2.39h-9v-3.74h1.5v-2.39l-5.24,0v2.39h1.5v3.73Zm11.55,2.39-6.34,11.13V220.21Z"/></g></g></svg>