<svg xmlns="http://www.w3.org/2000/svg" viewBox="0 0 179.58 250.45"><defs><style>.cls-1{fill:#f9faf9;stroke:#231815;}</style></defs><title>资源 5</title><g id="图层_2" data-name="图层 2"><g id="five"><rect class="cls-1" x="0.5" y="0.5" width="178.58" height="249.45" rx="14.17" ry="14.17"/><path d="M13.26,43a3.61,3.61,0,0,0-3.38,3.8,4,4,0,0,0,1.27,3c.26.24.15.5-.12.33a3.09,3.09,0,0,0-1.61-.48,3.69,3.69,0,0,0,0,7.33,3.2,3.2,0,0,0,2.81-1.82c.06-.11.1-.25.18-.25s.16.17.16.5A12.62,12.62,0,0,1,11.32,60a10.59,10.59,0,0,1,1.94-.27,10.57,10.57,0,0,1,1.94.27,12.66,12.66,0,0,1-1.25-4.62c0-.33,0-.5.16-.5s.12.15.18.25A3.2,3.2,0,0,0,17.09,57a3.69,3.69,0,0,0,0-7.33,3.09,3.09,0,0,0-1.61.48c-.26.16-.37-.1-.12-.33a4,4,0,0,0,1.27-3A3.61,3.61,0,0,0,13.26,43Z"/><path d="M166.33,207.43a3.61,3.61,0,0,0,3.38-3.8,4,4,0,0,0-1.27-3c-.26-.24-.15-.49.12-.33a3.07,3.07,0,0,0,1.61.48,3.69,3.69,0,0,0,0-7.33,3.2,3.2,0,0,0-2.81,1.82c-.06.11-.1.25-.18.25s-.16-.17-.16-.5a12.65,12.65,0,0,1,1.25-4.62,7,7,0,0,1-3.87,0,12.65,12.65,0,0,1,1.25,4.62c0,.33-.05.5-.16.5s-.12-.15-.18-.25a3.2,3.2,0,0,0-2.81-1.82,3.69,3.69,0,0,0,0,7.33,3.07,3.07,0,0,0,1.61-.48c.26-.16.38.1.12.33a4,4,0,0,0-1.27,3A3.61,3.61,0,0,0,166.33,207.43Z"/><path d="M46.56,26c-4.66,0-8.44,4.26-8.44,9.5a10,10,0,0,0,3.17,7.42c.65.59.37,1.24-.29.84a7.71,7.71,0,0,0-4-1.19c-4.49,0-8.14,4.11-8.14,9.17s3.65,9.17,8.14,9.17a8,8,0,0,0,7-4.54c.14-.27.25-.63.45-.63s.39.44.39,1.26c0,3.29-1.26,7.13-3.13,11.54a26.35,26.35,0,0,1,4.84-.68,26.35,26.35,0,0,1,4.84.68c-1.87-4.41-3.13-8.25-3.13-11.54,0-.82.13-1.26.39-1.26s.3.37.44.63a8,8,0,0,0,7,4.54c4.49,0,8.14-4.11,8.14-9.17s-3.65-9.17-8.14-9.17a7.7,7.7,0,0,0-4,1.19c-.66.4-.94-.24-.29-.84A10,10,0,0,0,55,35.52C55,30.27,51.22,26,46.56,26Z"/><path d="M46.56,224.44c4.66,0,8.44-4.26,8.44-9.5a10,10,0,0,0-3.17-7.42c-.65-.59-.37-1.24.29-.84a7.69,7.69,0,0,0,4,1.19c4.49,0,8.14-4.11,8.14-9.17s-3.65-9.17-8.14-9.17a8,8,0,0,0-7,4.54c-.14.27-.25.63-.44.63s-.39-.44-.39-1.26c0-3.29,1.26-7.13,3.13-11.54a26.32,26.32,0,0,1-4.84.68,26.33,26.33,0,0,1-4.84-.68c1.87,4.41,3.13,8.25,3.13,11.54,0,.82-.12,1.26-.39,1.26s-.31-.37-.44-.63a8,8,0,0,0-7-4.54c-4.49,0-8.14,4.11-8.14,9.17s3.65,9.17,8.14,9.17a7.69,7.69,0,0,0,4-1.19c.66-.4.94.24.29.84a10,10,0,0,0-3.17,7.42C38.12,220.18,41.9,224.44,46.56,224.44Z"/><path d="M133,26c-4.66,0-8.44,4.26-8.44,9.5a10,10,0,0,0,3.17,7.42c.65.59.37,1.24-.29.84a7.71,7.71,0,0,0-4-1.19c-4.49,0-8.14,4.11-8.14,9.17s3.65,9.17,8.14,9.17a8,8,0,0,0,7-4.54c.14-.27.25-.63.45-.63s.39.44.39,1.26c0,3.29-1.26,7.13-3.13,11.54a26.35,26.35,0,0,1,4.84-.68,26.34,26.34,0,0,1,4.84.68c-1.87-4.41-3.13-8.25-3.13-11.54,0-.82.13-1.26.39-1.26s.31.36.44.63a8,8,0,0,0,7,4.54c4.49,0,8.14-4.11,8.14-9.17s-3.65-9.17-8.14-9.17a7.71,7.71,0,0,0-4,1.19c-.66.4-.94-.24-.29-.84a10,10,0,0,0,3.17-7.42C141.46,30.27,137.68,26,133,26Z"/><path d="M133,224.44c4.66,0,8.44-4.26,8.44-9.5a10,10,0,0,0-3.17-7.42c-.65-.59-.37-1.24.29-.84a7.69,7.69,0,0,0,4,1.19c4.49,0,8.14-4.11,8.14-9.17s-3.65-9.17-8.14-9.17a8,8,0,0,0-7,4.54c-.14.27-.25.63-.44.63s-.39-.44-.39-1.26c0-3.29,1.26-7.12,3.13-11.54a26.34,26.34,0,0,1-4.84.68,26.35,26.35,0,0,1-4.84-.68c1.87,4.41,3.13,8.25,3.13,11.54,0,.82-.12,1.26-.39,1.26s-.31-.36-.44-.63a8,8,0,0,0-7-4.54c-4.5,0-8.14,4.11-8.14,9.17s3.65,9.17,8.14,9.17a7.69,7.69,0,0,0,4-1.19c.66-.4.94.24.29.84a10,10,0,0,0-3.17,7.42C124.58,220.18,128.36,224.44,133,224.44Z"/><path d="M89.79,104c-4.66,0-8.44,4.26-8.44,9.51a10,10,0,0,0,3.17,7.42c.65.59.37,1.24-.29.84a7.69,7.69,0,0,0-4-1.2c-4.49,0-8.14,4.12-8.14,9.18s3.65,9.15,8.14,9.15a8,8,0,0,0,7-4.54c.14-.27.25-.63.44-.63s.39.44.39,1.25c0,3.28-1.26,7.12-3.13,11.52a26.34,26.34,0,0,1,4.84-.68,26.31,26.31,0,0,1,4.84.68c-1.87-4.41-3.13-8.24-3.13-11.52,0-.82.13-1.25.39-1.25s.3.37.44.63a8,8,0,0,0,7,4.54c4.5,0,8.14-4.1,8.14-9.15s-3.65-9.18-8.14-9.18a7.69,7.69,0,0,0-4,1.2c-.66.4-.94-.24-.29-.84a10,10,0,0,0,3.17-7.42C98.23,108.22,94.45,104,89.79,104Z"/><path d="M18.23,23.63A6.83,6.83,0,0,0,12.95,21a6.43,6.43,0,0,0-3.59,1.12V17h9.37V14.67H7.11v.83h0v9.73H9.36a5,5,0,0,1,3.59-1.9,4.63,4.63,0,0,1,3.58,1.85,7.78,7.78,0,0,1,0,9.37,4.62,4.62,0,0,1-3.58,1.84,4.34,4.34,0,0,1-2.77-1,6.36,6.36,0,0,1-1.91-2.78l-2.1.85a8.75,8.75,0,0,0,2.64,3.81,6.54,6.54,0,0,0,4.14,1.52h0a6.83,6.83,0,0,0,5.28-2.67,10.26,10.26,0,0,0,0-12.46Z"/><path d="M161.35,226.81a6.84,6.84,0,0,0,5.29,2.68,6.44,6.44,0,0,0,3.59-1.12v5h-9.37v2.38h11.6v-.83h0v-9.73h-2.25a4.94,4.94,0,0,1-3.59,1.9,4.62,4.62,0,0,1-3.58-1.85,7.79,7.79,0,0,1,0-9.37,4.63,4.63,0,0,1,3.58-1.85,4.36,4.36,0,0,1,2.77,1,6.38,6.38,0,0,1,1.91,2.78l2.1-.85a8.73,8.73,0,0,0-2.64-3.81,6.54,6.54,0,0,0-4.14-1.52h0a6.84,6.84,0,0,0-5.28,2.67,10.26,10.26,0,0,0,0,12.46Z"/></g></g></svg>