<svg xmlns="http://www.w3.org/2000/svg" viewBox="0 0 179.58 250.45"><defs><style>.cls-1{fill:#f9faf9;stroke:#231815;}.cls-2{fill:none;}</style></defs><title>资源 6</title><g id="图层_2" data-name="图层 2"><g id="six"><rect class="cls-1" x="0.5" y="0.5" width="178.58" height="249.45" rx="14.17" ry="14.17"/><path d="M13.26,43a3.61,3.61,0,0,0-3.38,3.8,4,4,0,0,0,1.27,3c.26.24.15.5-.12.33a3.08,3.08,0,0,0-1.61-.48,3.69,3.69,0,0,0,0,7.33,3.2,3.2,0,0,0,2.81-1.82c.06-.11.1-.25.18-.25s.16.17.16.5A12.63,12.63,0,0,1,11.32,60a10.58,10.58,0,0,1,1.94-.27,10.56,10.56,0,0,1,1.94.27,12.66,12.66,0,0,1-1.25-4.62c0-.33,0-.5.16-.5s.12.15.18.25A3.2,3.2,0,0,0,17.09,57a3.69,3.69,0,0,0,0-7.33,3.09,3.09,0,0,0-1.61.48c-.26.16-.37-.1-.12-.33a4,4,0,0,0,1.27-3A3.61,3.61,0,0,0,13.26,43Z"/><path d="M166.33,207.43a3.61,3.61,0,0,0,3.38-3.8,4,4,0,0,0-1.27-3c-.26-.24-.15-.49.12-.33a3.07,3.07,0,0,0,1.61.48,3.69,3.69,0,0,0,0-7.33,3.2,3.2,0,0,0-2.81,1.82c-.06.11-.1.25-.18.25s-.16-.17-.16-.5a12.68,12.68,0,0,1,1.25-4.62,7,7,0,0,1-3.87,0,12.68,12.68,0,0,1,1.25,4.62c0,.33-.05.5-.16.5s-.12-.15-.18-.25a3.2,3.2,0,0,0-2.81-1.82,3.69,3.69,0,0,0,0,7.33,3.07,3.07,0,0,0,1.61-.48c.26-.16.37.1.12.33a4,4,0,0,0-1.27,3A3.61,3.61,0,0,0,166.33,207.43Z"/><path d="M46.56,26.12c-4.66,0-8.44,4.26-8.44,9.5A10,10,0,0,0,41.29,43c.65.59.37,1.24-.29.84a7.71,7.71,0,0,0-4-1.19c-4.49,0-8.14,4.11-8.14,9.17S32.5,61,37,61a8,8,0,0,0,7-4.54c.14-.27.25-.63.44-.63s.39.44.39,1.26c0,3.29-1.26,7.13-3.13,11.54A26.3,26.3,0,0,1,46.56,68a26.31,26.31,0,0,1,4.84.68c-1.87-4.41-3.13-8.25-3.13-11.54,0-.82.13-1.26.39-1.26s.31.37.44.63a8,8,0,0,0,7,4.54c4.49,0,8.14-4.11,8.14-9.17s-3.65-9.17-8.14-9.17a7.7,7.7,0,0,0-4,1.19c-.66.4-.94-.24-.29-.84A10,10,0,0,0,55,35.62C55,30.37,51.22,26.12,46.56,26.12Z"/><path d="M46.56,104c-4.66,0-8.44,4.25-8.44,9.49a10.07,10.07,0,0,0,3.17,7.43c.65.59.37,1.24-.29.84a7.69,7.69,0,0,0-4-1.2c-4.49,0-8.14,4.11-8.14,9.17s3.65,9.16,8.14,9.16a8,8,0,0,0,7-4.54c.14-.27.25-.63.44-.63s.39.44.39,1.25c0,3.28-1.26,7.12-3.13,11.54a26.26,26.26,0,0,1,4.84-.68,26.26,26.26,0,0,1,4.84.68c-1.87-4.42-3.13-8.26-3.13-11.54,0-.82.13-1.25.39-1.25s.31.36.44.63a8,8,0,0,0,7,4.54c4.49,0,8.14-4.1,8.14-9.16s-3.65-9.17-8.14-9.17a7.68,7.68,0,0,0-4,1.2c-.66.4-.94-.24-.29-.84A10.07,10.07,0,0,0,55,113.51C55,108.27,51.22,104,46.56,104Z"/><path d="M46.56,224.44c4.66,0,8.44-4.26,8.44-9.5a10,10,0,0,0-3.17-7.41c-.65-.59-.37-1.24.29-.84a7.69,7.69,0,0,0,4,1.19c4.49,0,8.14-4.11,8.14-9.17s-3.65-9.17-8.14-9.17a8,8,0,0,0-7,4.54c-.14.27-.25.63-.44.63s-.39-.44-.39-1.26c0-3.29,1.26-7.12,3.13-11.54a26.26,26.26,0,0,1-4.84.68,26.24,26.24,0,0,1-4.84-.68c1.87,4.41,3.13,8.25,3.13,11.54,0,.82-.12,1.26-.39,1.26s-.31-.37-.44-.63a8,8,0,0,0-7-4.54c-4.49,0-8.14,4.11-8.14,9.17s3.65,9.17,8.14,9.17a7.69,7.69,0,0,0,4-1.19c.66-.4.94.24.29.84a10,10,0,0,0-3.17,7.41C38.12,220.18,41.9,224.44,46.56,224.44Z"/><path d="M133,26c-4.66,0-8.44,4.26-8.44,9.5a10,10,0,0,0,3.17,7.42c.65.59.37,1.24-.29.84a7.7,7.7,0,0,0-4-1.19c-4.49,0-8.14,4.11-8.14,9.17s3.65,9.17,8.14,9.17a8,8,0,0,0,7-4.54c.14-.27.25-.63.44-.63s.39.44.39,1.26c0,3.29-1.26,7.13-3.13,11.54a26.35,26.35,0,0,1,4.84-.68,26.36,26.36,0,0,1,4.84.68c-1.87-4.41-3.13-8.25-3.13-11.54,0-.82.13-1.26.39-1.26s.31.36.44.63a8,8,0,0,0,7,4.54c4.49,0,8.14-4.11,8.14-9.17s-3.65-9.17-8.14-9.17a7.7,7.7,0,0,0-4,1.19c-.66.4-.94-.24-.29-.84a10,10,0,0,0,3.17-7.42C141.46,30.27,137.68,26,133,26Z"/><path d="M133,104c-4.66,0-8.44,4.25-8.44,9.49a10.07,10.07,0,0,0,3.17,7.43c.65.59.37,1.24-.29.84a7.68,7.68,0,0,0-4-1.2c-4.49,0-8.14,4.12-8.14,9.17s3.65,9.16,8.14,9.16a8,8,0,0,0,7-4.54c.14-.27.25-.63.44-.63s.39.44.39,1.25c0,3.28-1.26,7.12-3.13,11.54a26.16,26.16,0,0,1,4.84-.68,26.17,26.17,0,0,1,4.84.68c-1.87-4.42-3.13-8.26-3.13-11.54,0-.82.13-1.25.39-1.25s.31.36.44.63a8,8,0,0,0,7,4.54c4.49,0,8.14-4.1,8.14-9.16s-3.65-9.17-8.14-9.17a7.68,7.68,0,0,0-4,1.2c-.66.4-.94-.24-.29-.84a10.07,10.07,0,0,0,3.17-7.43C141.46,108.22,137.68,104,133,104Z"/><path d="M133,224.44c4.66,0,8.44-4.26,8.44-9.5a10,10,0,0,0-3.17-7.41c-.65-.59-.37-1.24.29-.84a7.7,7.7,0,0,0,4,1.19c4.49,0,8.14-4.11,8.14-9.17s-3.65-9.17-8.14-9.17a8,8,0,0,0-7,4.54c-.14.27-.25.63-.44.63s-.39-.44-.39-1.26c0-3.29,1.26-7.13,3.13-11.54a26.24,26.24,0,0,1-4.84.68,26.26,26.26,0,0,1-4.84-.68c1.87,4.41,3.13,8.25,3.13,11.54,0,.82-.13,1.26-.39,1.26s-.31-.37-.44-.63a8,8,0,0,0-7-4.54c-4.5,0-8.14,4.11-8.14,9.17s3.65,9.17,8.14,9.17a7.7,7.7,0,0,0,4-1.19c.66-.4.94.24.29.84a10,10,0,0,0-3.17,7.41C124.58,220.18,128.36,224.44,133,224.44Z"/><path class="cls-2" d="M15.36,24.28a4.38,4.38,0,0,0-2-.46h-.05a4.14,4.14,0,0,0-2,.51,4.62,4.62,0,0,0-1.5,1.35,8,8,0,0,0-1.34,4.64c0,.12,0,.23,0,.34s0,.18,0,.27h0A6.72,6.72,0,0,0,9.84,34.7a4.3,4.3,0,0,0,3.44,1.67,4.23,4.23,0,0,0,2-.48,4.61,4.61,0,0,0,1.51-1.32A7.63,7.63,0,0,0,18.16,30a8.05,8.05,0,0,0-.76-3.57A4.67,4.67,0,0,0,15.36,24.28Z"/><path d="M18.52,24a6.6,6.6,0,0,0-2.24-1.89,6.4,6.4,0,0,0-2.94-.69h-.08a6.18,6.18,0,0,0-2.95.77A6.55,6.55,0,0,0,8.76,23.4c0-.25.08-.49.13-.71.13-.68.26-1.21.36-1.58l.12-.41,0-.1v0h0v-.06h0a5.92,5.92,0,0,1,.91-1.74,4.54,4.54,0,0,1,1.24-1.13,4.07,4.07,0,0,1,1.92-.58h.32a4.59,4.59,0,0,1,3,1,4.23,4.23,0,0,1,.66.66l.14.2,0,0h0l.54-.39,1.3-.89A5.87,5.87,0,0,0,18,16.12a6.67,6.67,0,0,0-4.24-1.45h-.43a6.11,6.11,0,0,0-2.95.92A7.23,7.23,0,0,0,8,18.25a7.88,7.88,0,0,0-.66,1.55,29.66,29.66,0,0,0-1.16,8.38c0,.85,0,1.75.13,2.67a9.32,9.32,0,0,0,1.9,5.44,6.42,6.42,0,0,0,5.06,2.48h0a6.25,6.25,0,0,0,3-.72,7.27,7.27,0,0,0,3.06-3.27A10.83,10.83,0,0,0,20.34,30,9.9,9.9,0,0,0,18.52,24ZM16.79,34.57a4.61,4.61,0,0,1-1.51,1.32,4.23,4.23,0,0,1-2,.48A4.3,4.3,0,0,1,9.84,34.7a6.72,6.72,0,0,1-1.35-3.76h0c0-.09,0-.18,0-.27s0-.23,0-.34a8,8,0,0,1,1.34-4.64,4.62,4.62,0,0,1,1.5-1.35,4.14,4.14,0,0,1,2-.51h.05a4.38,4.38,0,0,1,2,.46,4.67,4.67,0,0,1,2,2.15A8.05,8.05,0,0,1,18.16,30,7.63,7.63,0,0,1,16.79,34.57Z"/><path class="cls-2" d="M164.22,226.17a4.38,4.38,0,0,0,2,.46h.06a4.14,4.14,0,0,0,2-.51,4.63,4.63,0,0,0,1.5-1.35,8,8,0,0,0,1.34-4.64c0-.12,0-.23,0-.34s0-.18,0-.27h0a6.72,6.72,0,0,0-1.35-3.76,4.3,4.3,0,0,0-3.44-1.67,4.23,4.23,0,0,0-2,.48,4.61,4.61,0,0,0-1.51,1.32,7.64,7.64,0,0,0-1.36,4.57,8.07,8.07,0,0,0,.76,3.57A4.67,4.67,0,0,0,164.22,226.17Z"/><path d="M161.06,226.46a6.6,6.6,0,0,0,2.24,1.89,6.4,6.4,0,0,0,2.94.69h.08a6.19,6.19,0,0,0,2.95-.77,6.58,6.58,0,0,0,1.56-1.22c0,.25-.08.49-.13.71-.13.68-.26,1.21-.36,1.58l-.12.41,0,.1v0h0v.06h0a5.91,5.91,0,0,1-.91,1.74,4.51,4.51,0,0,1-1.24,1.13,4.07,4.07,0,0,1-1.92.58h-.32a4.59,4.59,0,0,1-3-1,4.19,4.19,0,0,1-.66-.66l-.14-.19,0,0h0l-.54.39-1.3.89a5.89,5.89,0,0,0,1.39,1.55,6.67,6.67,0,0,0,4.24,1.45h.43a6.11,6.11,0,0,0,2.95-.92,7.23,7.23,0,0,0,2.44-2.65,8,8,0,0,0,.66-1.55,29.7,29.7,0,0,0,1.16-8.38c0-.85,0-1.75-.13-2.67a9.32,9.32,0,0,0-1.9-5.43,6.42,6.42,0,0,0-5.06-2.48h0a6.25,6.25,0,0,0-3,.72,7.27,7.27,0,0,0-3.06,3.27,10.83,10.83,0,0,0-1.06,4.79A9.9,9.9,0,0,0,161.06,226.46Zm1.73-10.57a4.61,4.61,0,0,1,1.51-1.32,4.23,4.23,0,0,1,2-.48,4.3,4.3,0,0,1,3.44,1.67,6.72,6.72,0,0,1,1.35,3.76h0c0,.09,0,.18,0,.27s0,.23,0,.34a8,8,0,0,1-1.34,4.64,4.63,4.63,0,0,1-1.5,1.35,4.14,4.14,0,0,1-2,.51h-.06a4.38,4.38,0,0,1-2-.46,4.67,4.67,0,0,1-2-2.15,8.07,8.07,0,0,1-.76-3.57A7.64,7.64,0,0,1,162.79,215.88Z"/></g></g></svg>