<svg xmlns="http://www.w3.org/2000/svg" viewBox="0 0 179.58 250.45"><defs><style>.cls-1{fill:#f9faf9;stroke:#231815;}</style></defs><title>资源 8</title><g id="图层_2" data-name="图层 2"><g id="seven"><rect class="cls-1" x="0.5" y="0.5" width="178.58" height="249.45" rx="14.17" ry="14.17"/><path d="M13.26,43a3.61,3.61,0,0,0-3.38,3.8,4,4,0,0,0,1.27,3c.26.24.15.5-.12.33a3.08,3.08,0,0,0-1.61-.48,3.69,3.69,0,0,0,0,7.33,3.2,3.2,0,0,0,2.81-1.82c.06-.11.1-.25.18-.25s.16.18.16.5A12.63,12.63,0,0,1,11.32,60a10.54,10.54,0,0,1,1.94-.27,10.53,10.53,0,0,1,1.94.27,12.65,12.65,0,0,1-1.25-4.62c0-.33,0-.5.16-.5s.12.15.18.25A3.2,3.2,0,0,0,17.09,57a3.69,3.69,0,0,0,0-7.33,3.09,3.09,0,0,0-1.61.48c-.26.16-.37-.1-.12-.33a4,4,0,0,0,1.27-3A3.61,3.61,0,0,0,13.26,43Z"/><path d="M166.33,207.43a3.61,3.61,0,0,0,3.38-3.8,4,4,0,0,0-1.27-3c-.26-.24-.15-.49.12-.33a3.08,3.08,0,0,0,1.61.48,3.69,3.69,0,0,0,0-7.33,3.2,3.2,0,0,0-2.81,1.82c-.06.11-.1.25-.18.25s-.16-.18-.16-.5a12.68,12.68,0,0,1,1.25-4.62,7,7,0,0,1-3.87,0,12.68,12.68,0,0,1,1.25,4.62c0,.33-.05.5-.16.5s-.12-.15-.18-.25a3.2,3.2,0,0,0-2.81-1.82,3.69,3.69,0,0,0,0,7.33,3.08,3.08,0,0,0,1.61-.48c.26-.16.37.1.12.33a4,4,0,0,0-1.27,3A3.61,3.61,0,0,0,166.33,207.43Z"/><path d="M46.56,26c-4.66,0-8.44,4.26-8.44,9.5a10,10,0,0,0,3.17,7.42c.65.59.37,1.24-.29.84a7.7,7.7,0,0,0-4-1.19c-4.49,0-8.14,4.11-8.14,9.17s3.65,9.17,8.14,9.17a8,8,0,0,0,7-4.54c.14-.27.25-.63.44-.63s.39.44.39,1.26c0,3.29-1.26,7.13-3.13,11.54a26.3,26.3,0,0,1,4.84-.68,26.3,26.3,0,0,1,4.84.68c-1.87-4.41-3.13-8.25-3.13-11.54,0-.82.13-1.26.39-1.26s.31.36.44.63a8,8,0,0,0,7,4.54c4.49,0,8.14-4.11,8.14-9.17s-3.65-9.17-8.14-9.17a7.69,7.69,0,0,0-4,1.19c-.66.4-.94-.24-.29-.84A10,10,0,0,0,55,35.52C55,30.27,51.22,26,46.56,26Z"/><path d="M46.56,104c-4.66,0-8.44,4.25-8.44,9.5a10.05,10.05,0,0,0,3.17,7.42c.65.59.37,1.24-.29.84a7.7,7.7,0,0,0-4-1.19c-4.49,0-8.14,4.11-8.14,9.17s3.65,9.16,8.14,9.16a8,8,0,0,0,7-4.54c.14-.27.25-.63.44-.63s.39.44.39,1.25c0,3.28-1.26,7.12-3.13,11.54a26.24,26.24,0,0,1,4.84-.68,26.25,26.25,0,0,1,4.84.68c-1.87-4.42-3.13-8.26-3.13-11.54,0-.82.13-1.25.39-1.25s.31.36.44.63a8,8,0,0,0,7,4.54c4.49,0,8.14-4.1,8.14-9.16s-3.65-9.17-8.14-9.17a7.7,7.7,0,0,0-4,1.19c-.66.4-.94-.24-.29-.84A10,10,0,0,0,55,113.46C55,108.22,51.22,104,46.56,104Z"/><path d="M46.56,224.44c4.66,0,8.44-4.26,8.44-9.5a10,10,0,0,0-3.17-7.41c-.65-.59-.37-1.24.29-.84a7.69,7.69,0,0,0,4,1.19c4.49,0,8.14-4.11,8.14-9.17s-3.65-9.17-8.14-9.17a8,8,0,0,0-7,4.54c-.14.27-.25.63-.44.63s-.39-.44-.39-1.26c0-3.29,1.26-7.13,3.13-11.54a26.43,26.43,0,0,1-4.84.68,26.42,26.42,0,0,1-4.84-.68c1.87,4.41,3.13,8.25,3.13,11.54,0,.82-.12,1.26-.39,1.26s-.31-.37-.44-.63a8,8,0,0,0-7-4.54c-4.49,0-8.14,4.11-8.14,9.17s3.65,9.17,8.14,9.17a7.69,7.69,0,0,0,4-1.19c.66-.4.94.24.29.84a10,10,0,0,0-3.17,7.41C38.12,220.18,41.9,224.44,46.56,224.44Z"/><path d="M133,26c-4.66,0-8.44,4.26-8.44,9.5a10,10,0,0,0,3.17,7.42c.65.59.37,1.24-.29.84a7.7,7.7,0,0,0-4-1.19c-4.49,0-8.14,4.11-8.14,9.17s3.65,9.17,8.14,9.17a8,8,0,0,0,7-4.54c.14-.27.25-.63.44-.63s.39.44.39,1.26c0,3.29-1.26,7.13-3.13,11.54a26.3,26.3,0,0,1,4.84-.68,26.31,26.31,0,0,1,4.84.68c-1.87-4.41-3.13-8.25-3.13-11.54,0-.82.13-1.26.39-1.26s.31.36.44.63a8,8,0,0,0,7,4.54c4.5,0,8.14-4.11,8.14-9.17s-3.65-9.17-8.14-9.17a7.69,7.69,0,0,0-4,1.19c-.66.4-.94-.24-.29-.84a10,10,0,0,0,3.17-7.42C141.46,30.27,137.68,26,133,26Z"/><path d="M133,104c-4.66,0-8.44,4.25-8.44,9.5a10,10,0,0,0,3.17,7.42c.65.59.37,1.24-.29.84a7.7,7.7,0,0,0-4-1.19c-4.49,0-8.14,4.11-8.14,9.17s3.65,9.16,8.14,9.16a8,8,0,0,0,7-4.54c.14-.27.25-.63.44-.63s.39.44.39,1.25c0,3.29-1.26,7.12-3.13,11.55a26.23,26.23,0,0,1,4.84-.68,26.24,26.24,0,0,1,4.84.68c-1.87-4.42-3.13-8.26-3.13-11.55,0-.82.13-1.25.39-1.25s.31.36.44.63a8,8,0,0,0,7,4.54c4.5,0,8.14-4.1,8.14-9.16s-3.65-9.17-8.14-9.17a7.69,7.69,0,0,0-4,1.19c-.66.4-.94-.24-.29-.84a10,10,0,0,0,3.17-7.42C141.46,108.22,137.68,104,133,104Z"/><path d="M133,224.44c4.66,0,8.44-4.26,8.44-9.5a10,10,0,0,0-3.17-7.41c-.65-.59-.37-1.24.29-.84a7.69,7.69,0,0,0,4,1.19c4.5,0,8.14-4.11,8.14-9.17s-3.65-9.17-8.14-9.17a8,8,0,0,0-7,4.54c-.14.27-.25.63-.44.63s-.39-.44-.39-1.26c0-3.29,1.26-7.13,3.13-11.54a26.34,26.34,0,0,1-4.84.68,26.33,26.33,0,0,1-4.84-.68c1.87,4.41,3.13,8.25,3.13,11.54,0,.82-.12,1.26-.39,1.26s-.31-.37-.44-.63a8,8,0,0,0-7-4.54c-4.49,0-8.14,4.11-8.14,9.17s3.65,9.17,8.14,9.17a7.69,7.69,0,0,0,4-1.19c.66-.4.94.24.29.84a10,10,0,0,0-3.17,7.41C124.58,220.18,128.36,224.44,133,224.44Z"/><path d="M89.79,57.19c-4.66,0-8.44,4.26-8.44,9.5a10,10,0,0,0,3.17,7.41c.65.59.37,1.24-.29.84a7.7,7.7,0,0,0-4-1.19c-4.49,0-8.14,4.1-8.14,9.16s3.65,9.16,8.14,9.16a8,8,0,0,0,7-4.54c.14-.27.25-.63.44-.63s.39.44.39,1.26c0,3.29-1.26,7.13-3.13,11.55A26.22,26.22,0,0,1,89.79,99a26.23,26.23,0,0,1,4.84.68c-1.87-4.42-3.13-8.26-3.13-11.55,0-.82.13-1.26.39-1.26s.31.36.44.63a8,8,0,0,0,7,4.54c4.5,0,8.14-4.11,8.14-9.16s-3.65-9.16-8.14-9.16a7.7,7.7,0,0,0-4,1.19c-.66.4-.94-.24-.29-.84a10,10,0,0,0,3.17-7.41C98.23,61.45,94.45,57.19,89.79,57.19Z"/><path d="M6.17,14.67v1.44h0v2.45H8.4V17.08h9.34A63.61,63.61,0,0,0,11,38.77h2.24a57.93,57.93,0,0,1,3.88-15.41C17.9,21.46,18.66,20,19.22,19c.28-.5.5-.88.66-1.14l.47-.77V14.67Z"/><path d="M173.41,235.78v-1.44h0v-2.45h-2.23v1.49h-9.34a63.63,63.63,0,0,0,6.76-21.69h-2.24a57.93,57.93,0,0,1-3.88,15.41c-.81,1.89-1.57,3.37-2.12,4.37-.28.5-.5.88-.66,1.14l-.47.77v2.41Z"/></g></g></svg>