<svg xmlns="http://www.w3.org/2000/svg" viewBox="0 0 179.58 250.45"><defs><style>.cls-1{fill:#f9faf9;stroke:#231815;}.cls-2{fill:none;}</style></defs><title>资源 7</title><g id="图层_2" data-name="图层 2"><g id="eight"><rect class="cls-1" x="0.5" y="0.5" width="178.58" height="249.45" rx="14.17" ry="14.17"/><path d="M13.26,43a3.61,3.61,0,0,0-3.38,3.8,4,4,0,0,0,1.27,3c.26.24.15.49-.12.33a3.08,3.08,0,0,0-1.61-.48,3.69,3.69,0,0,0,0,7.33,3.2,3.2,0,0,0,2.81-1.82c.06-.11.1-.25.18-.25s.16.18.16.5A12.63,12.63,0,0,1,11.32,60a10.57,10.57,0,0,1,1.94-.27,10.56,10.56,0,0,1,1.94.27,12.65,12.65,0,0,1-1.25-4.62c0-.33,0-.5.16-.5s.12.15.18.25A3.2,3.2,0,0,0,17.09,57a3.69,3.69,0,0,0,0-7.33,3.08,3.08,0,0,0-1.61.48c-.26.16-.37-.1-.12-.33a4,4,0,0,0,1.27-3A3.61,3.61,0,0,0,13.26,43Z"/><path d="M166.32,207.43a3.61,3.61,0,0,0,3.38-3.8,4,4,0,0,0-1.27-3c-.26-.24-.15-.49.11-.33a3.09,3.09,0,0,0,1.61.48,3.69,3.69,0,0,0,0-7.33,3.2,3.2,0,0,0-2.81,1.82c-.06.11-.1.25-.18.25s-.16-.18-.16-.5a12.65,12.65,0,0,1,1.25-4.62,7.07,7.07,0,0,1-3.87,0,12.65,12.65,0,0,1,1.25,4.62c0,.33-.05.5-.16.5s-.12-.15-.18-.25a3.2,3.2,0,0,0-2.81-1.82,3.69,3.69,0,0,0,0,7.33,3.09,3.09,0,0,0,1.61-.48c.26-.16.38.1.12.33a4,4,0,0,0-1.27,3A3.61,3.61,0,0,0,166.32,207.43Z"/><path d="M46.56,26c-4.66,0-8.44,4.26-8.44,9.5a10,10,0,0,0,3.17,7.42c.65.59.37,1.24-.29.84a7.7,7.7,0,0,0-4-1.19c-4.49,0-8.14,4.11-8.14,9.17s3.65,9.17,8.14,9.17a8,8,0,0,0,7-4.54c.14-.27.25-.63.44-.63s.39.44.39,1.26c0,3.29-1.26,7.13-3.13,11.54a26.26,26.26,0,0,1,4.84-.68,26.25,26.25,0,0,1,4.84.68c-1.87-4.41-3.13-8.25-3.13-11.54,0-.82.13-1.26.39-1.26s.31.37.44.63a8,8,0,0,0,7,4.54c4.49,0,8.14-4.11,8.14-9.17s-3.65-9.17-8.14-9.17a7.69,7.69,0,0,0-4,1.19c-.66.4-.94-.24-.29-.84A10,10,0,0,0,55,35.52C55,30.27,51.22,26,46.56,26Z"/><path d="M46.56,104c-4.66,0-8.44,4.26-8.44,9.5a10,10,0,0,0,3.17,7.41c.65.59.37,1.24-.29.84a7.7,7.7,0,0,0-4-1.19c-4.49,0-8.14,4.1-8.14,9.16s3.65,9.16,8.14,9.16a8,8,0,0,0,7-4.54c.14-.27.25-.63.44-.63s.39.44.39,1.26c0,3.29-1.26,7.13-3.13,11.55a26.16,26.16,0,0,1,4.84-.68,26.16,26.16,0,0,1,4.84.68c-1.87-4.42-3.13-8.27-3.13-11.55,0-.82.13-1.26.39-1.26s.31.37.44.63a8,8,0,0,0,7,4.54c4.49,0,8.14-4.11,8.14-9.16s-3.65-9.16-8.14-9.16a7.7,7.7,0,0,0-4,1.19c-.66.4-.94-.24-.29-.84A10,10,0,0,0,55,113.46C55,108.22,51.22,104,46.56,104Z"/><path d="M46.56,224.44c4.66,0,8.44-4.26,8.44-9.5a10,10,0,0,0-3.17-7.41c-.65-.59-.37-1.24.29-.84a7.69,7.69,0,0,0,4,1.19c4.49,0,8.14-4.11,8.14-9.17s-3.65-9.17-8.14-9.17a8,8,0,0,0-7,4.54c-.14.27-.25.63-.44.63s-.39-.44-.39-1.26c0-3.29,1.26-7.13,3.13-11.54a26.31,26.31,0,0,1-4.84.68,26.33,26.33,0,0,1-4.84-.68c1.87,4.41,3.13,8.25,3.13,11.54,0,.82-.12,1.26-.39,1.26s-.31-.37-.44-.63a8,8,0,0,0-7-4.54c-4.5,0-8.14,4.11-8.14,9.17s3.65,9.17,8.14,9.17a7.69,7.69,0,0,0,4-1.19c.66-.4.94.24.29.84a10,10,0,0,0-3.17,7.41C38.12,220.18,41.9,224.44,46.56,224.44Z"/><path d="M133,26c-4.66,0-8.44,4.26-8.44,9.5a10,10,0,0,0,3.17,7.42c.65.59.37,1.24-.29.84a7.7,7.7,0,0,0-4-1.19c-4.49,0-8.14,4.11-8.14,9.17s3.65,9.17,8.14,9.17a8,8,0,0,0,7-4.54c.14-.27.25-.63.44-.63s.39.44.39,1.26c0,3.29-1.26,7.13-3.13,11.54a26.31,26.31,0,0,1,4.84-.68,26.32,26.32,0,0,1,4.84.68c-1.87-4.41-3.13-8.25-3.13-11.54,0-.82.13-1.26.39-1.26s.31.36.44.63a8,8,0,0,0,7,4.54c4.49,0,8.14-4.11,8.14-9.17s-3.65-9.17-8.14-9.17a7.7,7.7,0,0,0-4,1.19c-.66.4-.94-.24-.29-.84a10,10,0,0,0,3.17-7.42C141.45,30.27,137.67,26,133,26Z"/><path d="M133,104c-4.66,0-8.44,4.26-8.44,9.5a10,10,0,0,0,3.17,7.41c.65.59.37,1.24-.29.84a7.7,7.7,0,0,0-4-1.19c-4.49,0-8.14,4.1-8.14,9.16s3.65,9.16,8.14,9.16a8,8,0,0,0,7-4.54c.14-.27.25-.63.44-.63s.39.44.39,1.26c0,3.29-1.26,7.13-3.13,11.55a26.23,26.23,0,0,1,4.84-.68,26.24,26.24,0,0,1,4.84.68c-1.87-4.42-3.13-8.26-3.13-11.55,0-.82.13-1.26.39-1.26s.31.36.44.63a8,8,0,0,0,7,4.54c4.49,0,8.14-4.11,8.14-9.16s-3.65-9.16-8.14-9.16a7.69,7.69,0,0,0-4,1.19c-.66.4-.94-.24-.29-.84a10,10,0,0,0,3.17-7.41C141.45,108.22,137.67,104,133,104Z"/><path d="M133,224.44c4.66,0,8.44-4.26,8.44-9.5a10,10,0,0,0-3.17-7.41c-.65-.59-.37-1.24.29-.84a7.69,7.69,0,0,0,4,1.19c4.49,0,8.14-4.11,8.14-9.17s-3.65-9.17-8.14-9.17a8,8,0,0,0-7,4.54c-.14.27-.25.63-.44.63s-.39-.44-.39-1.26c0-3.29,1.26-7.13,3.13-11.54a26.33,26.33,0,0,1-4.84.68,26.33,26.33,0,0,1-4.84-.68c1.87,4.41,3.13,8.25,3.13,11.54,0,.82-.12,1.26-.39,1.26s-.31-.37-.44-.63a8,8,0,0,0-7-4.54c-4.49,0-8.14,4.11-8.14,9.17s3.65,9.17,8.14,9.17a7.69,7.69,0,0,0,4-1.19c.66-.4.94.24.29.84a10,10,0,0,0-3.17,7.41C124.57,220.18,128.36,224.44,133,224.44Z"/><path d="M89.79,67.11c-4.66,0-8.44,4.26-8.44,9.5A10,10,0,0,0,84.52,84c.65.59.37,1.24-.29.84a7.7,7.7,0,0,0-4-1.19c-4.49,0-8.14,4.1-8.14,9.16S75.72,102,80.21,102a8,8,0,0,0,7-4.54c.14-.27.25-.63.44-.63s.39.44.39,1.26c0,3.29-1.26,7.13-3.13,11.55a26.22,26.22,0,0,1,4.84-.68,26.25,26.25,0,0,1,4.84.68c-1.87-4.42-3.13-8.26-3.13-11.55,0-.82.13-1.26.39-1.26s.31.36.44.63a8,8,0,0,0,7,4.54c4.5,0,8.14-4.11,8.14-9.16s-3.65-9.16-8.14-9.16a7.69,7.69,0,0,0-4,1.19c-.66.4-.94-.24-.29-.84a10,10,0,0,0,3.17-7.41C98.23,71.37,94.44,67.11,89.79,67.11Z"/><path d="M89.79,183.33c4.66,0,8.44-4.26,8.44-9.5a10,10,0,0,0-3.17-7.42c-.65-.59-.37-1.24.29-.84a7.7,7.7,0,0,0,4,1.19c4.5,0,8.14-4.11,8.14-9.17s-3.65-9.17-8.14-9.17a8,8,0,0,0-7,4.54c-.14.27-.25.63-.44.63s-.39-.44-.39-1.26c0-3.29,1.26-7.13,3.13-11.54a26.34,26.34,0,0,1-4.84.68,26.32,26.32,0,0,1-4.84-.68c1.87,4.41,3.13,8.25,3.13,11.54,0,.82-.12,1.26-.39,1.26s-.31-.37-.44-.63a8,8,0,0,0-7-4.54c-4.49,0-8.14,4.11-8.14,9.17s3.65,9.17,8.14,9.17a7.7,7.7,0,0,0,4-1.19c.66-.4.94.24.29.84a10,10,0,0,0-3.17,7.42C81.35,179.08,85.13,183.33,89.79,183.33Z"/><path class="cls-2" d="M13.26,27.11h0A4.86,4.86,0,0,0,9.84,28.5a4.41,4.41,0,0,0,0,6.35,4.92,4.92,0,0,0,6.83,0,4.41,4.41,0,0,0,0-6.35A4.86,4.86,0,0,0,13.26,27.11Z"/><path class="cls-2" d="M13.26,24.56a4,4,0,0,0,2.83-1.14,3.61,3.61,0,0,0,0-5.21,4,4,0,0,0-2.83-1.14h0a4,4,0,0,0-2.82,1.14,3.61,3.61,0,0,0,0,5.21A4,4,0,0,0,13.26,24.56Z"/><path d="M18.22,26.61a7,7,0,0,0-1.22-1,6.24,6.24,0,0,0,.54-.46,6.12,6.12,0,1,0-8.57,0,6.4,6.4,0,0,0,.54.46,7.08,7.08,0,1,0,8.71,1ZM10.43,18.2a4,4,0,0,1,2.82-1.14h0a4,4,0,0,1,2.83,1.14,3.61,3.61,0,0,1,0,5.21,4.07,4.07,0,0,1-5.65,0,3.61,3.61,0,0,1,0-5.21Zm6.24,16.65a4.92,4.92,0,0,1-6.83,0,4.41,4.41,0,0,1,0-6.35,4.86,4.86,0,0,1,3.42-1.38h0a4.86,4.86,0,0,1,3.42,1.38,4.41,4.41,0,0,1,0,6.35Z"/><path class="cls-2" d="M166.32,223.33h0a4.86,4.86,0,0,0,3.42-1.38,4.41,4.41,0,0,0,0-6.36,4.92,4.92,0,0,0-6.83,0,4.41,4.41,0,0,0,0,6.36A4.86,4.86,0,0,0,166.32,223.33Z"/><path class="cls-2" d="M166.32,225.89a4,4,0,0,0-2.83,1.14,3.61,3.61,0,0,0,0,5.21,4,4,0,0,0,2.83,1.14h0a4,4,0,0,0,2.82-1.14,3.61,3.61,0,0,0,0-5.21A4,4,0,0,0,166.32,225.89Z"/><path d="M161.35,223.84a7,7,0,0,0,1.22,1,6.41,6.41,0,0,0-.54.46,6.12,6.12,0,1,0,8.57,0,6.57,6.57,0,0,0-.54-.46,7.08,7.08,0,1,0-8.71-1Zm7.79,8.41a4,4,0,0,1-2.82,1.14h0a4,4,0,0,1-2.83-1.14,3.61,3.61,0,0,1,0-5.21,4.07,4.07,0,0,1,5.65,0,3.61,3.61,0,0,1,0,5.21ZM162.9,215.6a4.92,4.92,0,0,1,6.83,0,4.41,4.41,0,0,1,0,6.36,4.86,4.86,0,0,1-3.42,1.38h0A4.86,4.86,0,0,1,162.9,222a4.41,4.41,0,0,1,0-6.36Z"/></g></g></svg>