<svg xmlns="http://www.w3.org/2000/svg" viewBox="0 0 179.58 250.45"><defs><style>.cls-1{fill:#f9faf9;stroke:#231815;}.cls-2{fill:none;}</style></defs><title>资源 9</title><g id="图层_2" data-name="图层 2"><g id="nine"><rect class="cls-1" x="0.5" y="0.5" width="178.58" height="249.45" rx="14.17" ry="14.17"/><path d="M13.26,43a3.61,3.61,0,0,0-3.38,3.8,4,4,0,0,0,1.27,3c.26.24.15.5-.12.33a3.08,3.08,0,0,0-1.61-.48,3.69,3.69,0,0,0,0,7.33,3.2,3.2,0,0,0,2.81-1.82c.06-.11.1-.25.18-.25s.16.18.16.5A12.64,12.64,0,0,1,11.32,60a10.56,10.56,0,0,1,1.94-.27,10.59,10.59,0,0,1,1.94.27,12.65,12.65,0,0,1-1.25-4.62c0-.33,0-.5.16-.5s.12.15.18.25A3.2,3.2,0,0,0,17.09,57a3.69,3.69,0,0,0,0-7.33,3.08,3.08,0,0,0-1.61.48c-.26.16-.37-.1-.12-.33a4,4,0,0,0,1.27-3A3.61,3.61,0,0,0,13.26,43Z"/><path d="M166.33,207.43a3.61,3.61,0,0,0,3.38-3.8,4,4,0,0,0-1.27-3c-.26-.24-.15-.49.12-.33a3.08,3.08,0,0,0,1.61.48,3.69,3.69,0,0,0,0-7.33,3.2,3.2,0,0,0-2.81,1.82c-.06.11-.1.25-.18.25s-.16-.18-.16-.5a12.65,12.65,0,0,1,1.25-4.62,7.07,7.07,0,0,1-3.87,0,12.65,12.65,0,0,1,1.25,4.62c0,.33-.05.5-.16.5s-.12-.15-.18-.25a3.2,3.2,0,0,0-2.81-1.82,3.69,3.69,0,0,0,0,7.33,3.09,3.09,0,0,0,1.61-.48c.26-.16.38.1.12.33a4,4,0,0,0-1.27,3A3.61,3.61,0,0,0,166.33,207.43Z"/><path d="M46.56,26c-4.66,0-8.44,4.26-8.44,9.5a10,10,0,0,0,3.17,7.42c.65.59.37,1.24-.29.84a7.7,7.7,0,0,0-4-1.19c-4.49,0-8.14,4.11-8.14,9.17s3.65,9.17,8.14,9.17a8,8,0,0,0,7-4.54c.14-.27.25-.63.44-.63s.39.44.39,1.26c0,3.29-1.26,7.13-3.13,11.54a26.3,26.3,0,0,1,4.84-.68,26.3,26.3,0,0,1,4.84.68c-1.87-4.41-3.13-8.25-3.13-11.54,0-.82.13-1.26.39-1.26s.31.36.44.63a8,8,0,0,0,7,4.54c4.49,0,8.14-4.11,8.14-9.17s-3.65-9.17-8.14-9.17a7.7,7.7,0,0,0-4,1.19c-.66.4-.94-.24-.29-.84A10,10,0,0,0,55,35.52C55,30.27,51.22,26,46.56,26Z"/><path d="M46.56,78c-4.66,0-8.44,4.26-8.44,9.5a10,10,0,0,0,3.17,7.41c.65.59.37,1.24-.29.84a7.7,7.7,0,0,0-4-1.19c-4.49,0-8.14,4.1-8.14,9.16s3.65,9.16,8.14,9.16a8,8,0,0,0,7-4.54c.14-.27.25-.63.44-.63s.39.44.39,1.26c0,3.29-1.26,7.13-3.13,11.55a26.24,26.24,0,0,1,4.84-.68,26.24,26.24,0,0,1,4.84.68c-1.87-4.42-3.13-8.26-3.13-11.55,0-.82.13-1.26.39-1.26s.31.36.44.63a8,8,0,0,0,7,4.54c4.49,0,8.14-4.11,8.14-9.16s-3.65-9.16-8.14-9.16a7.7,7.7,0,0,0-4,1.19c-.66.4-.94-.24-.29-.84A10,10,0,0,0,55,87.48C55,82.24,51.22,78,46.56,78Z"/><path d="M46.56,224.44c4.66,0,8.44-4.26,8.44-9.5a10,10,0,0,0-3.17-7.42c-.65-.59-.37-1.24.29-.84a7.69,7.69,0,0,0,4,1.19c4.49,0,8.14-4.11,8.14-9.17s-3.65-9.17-8.14-9.17a8,8,0,0,0-7,4.54c-.14.27-.25.63-.44.63s-.39-.44-.39-1.26c0-3.29,1.26-7.13,3.13-11.54a26.34,26.34,0,0,1-4.84.68,26.33,26.33,0,0,1-4.84-.68c1.87,4.41,3.13,8.25,3.13,11.54,0,.82-.12,1.26-.39,1.26s-.31-.37-.44-.63a8,8,0,0,0-7-4.54c-4.49,0-8.14,4.11-8.14,9.17s3.65,9.17,8.14,9.17a7.69,7.69,0,0,0,4-1.19c.66-.4.94.24.29.84a10,10,0,0,0-3.17,7.42C38.12,220.18,41.9,224.44,46.56,224.44Z"/><path d="M46.56,172.47c4.66,0,8.44-4.26,8.44-9.5a10,10,0,0,0-3.17-7.42c-.65-.59-.37-1.24.29-.84a7.7,7.7,0,0,0,4,1.19c4.49,0,8.14-4.11,8.14-9.17s-3.65-9.17-8.14-9.17a8,8,0,0,0-7,4.54c-.14.26-.25.63-.44.63s-.39-.44-.39-1.26c0-3.29,1.26-7.12,3.13-11.54a26.35,26.35,0,0,1-4.84.68,26.34,26.34,0,0,1-4.84-.68c1.87,4.41,3.13,8.25,3.13,11.54,0,.82-.12,1.26-.39,1.26s-.3-.37-.44-.63a8,8,0,0,0-7-4.54c-4.49,0-8.14,4.11-8.14,9.17s3.65,9.17,8.14,9.17a7.7,7.7,0,0,0,4-1.19c.66-.4.94.24.29.84A10,10,0,0,0,38.12,163C38.12,168.21,41.91,172.47,46.56,172.47Z"/><path d="M133,26c-4.66,0-8.44,4.26-8.44,9.5a10,10,0,0,0,3.17,7.42c.65.59.37,1.24-.29.84a7.7,7.7,0,0,0-4-1.19c-4.49,0-8.14,4.11-8.14,9.17s3.65,9.17,8.14,9.17a8,8,0,0,0,7-4.54c.14-.27.25-.63.44-.63s.39.44.39,1.26c0,3.29-1.26,7.13-3.13,11.54a26.29,26.29,0,0,1,4.84-.68,26.29,26.29,0,0,1,4.84.68c-1.87-4.41-3.13-8.25-3.13-11.54,0-.82.13-1.26.39-1.26s.31.36.44.63a8,8,0,0,0,7,4.54c4.49,0,8.14-4.11,8.14-9.17s-3.65-9.17-8.14-9.17a7.7,7.7,0,0,0-4,1.19c-.66.4-.94-.24-.29-.84a10,10,0,0,0,3.17-7.42C141.46,30.27,137.68,26,133,26Z"/><path d="M133,78c-4.66,0-8.44,4.26-8.44,9.5a10,10,0,0,0,3.17,7.41c.65.59.37,1.24-.29.84a7.7,7.7,0,0,0-4-1.19c-4.49,0-8.14,4.1-8.14,9.16s3.65,9.16,8.14,9.16a8,8,0,0,0,7-4.54c.14-.27.25-.63.44-.63s.39.44.39,1.25c0,3.29-1.26,7.13-3.13,11.55a26.23,26.23,0,0,1,4.84-.68,26.23,26.23,0,0,1,4.84.68c-1.87-4.42-3.13-8.26-3.13-11.55,0-.82.13-1.25.39-1.25s.31.36.44.63a8,8,0,0,0,7,4.54c4.49,0,8.14-4.11,8.14-9.16s-3.65-9.16-8.14-9.16a7.71,7.71,0,0,0-4,1.19c-.66.4-.94-.24-.29-.84a10,10,0,0,0,3.17-7.41C141.46,82.24,137.68,78,133,78Z"/><path d="M133,224.44c4.66,0,8.44-4.26,8.44-9.5a10,10,0,0,0-3.17-7.42c-.65-.59-.37-1.24.29-.84a7.7,7.7,0,0,0,4,1.19c4.49,0,8.14-4.11,8.14-9.17s-3.65-9.17-8.14-9.17a8,8,0,0,0-7,4.54c-.14.27-.25.63-.44.63s-.39-.44-.39-1.26c0-3.29,1.26-7.13,3.13-11.54a26.33,26.33,0,0,1-4.84.68,26.35,26.35,0,0,1-4.84-.68c1.87,4.41,3.13,8.25,3.13,11.54,0,.82-.12,1.26-.39,1.26s-.31-.37-.44-.63a8,8,0,0,0-7-4.54c-4.5,0-8.14,4.11-8.14,9.17s3.65,9.17,8.14,9.17a7.69,7.69,0,0,0,4-1.19c.66-.4.94.24.29.84a10,10,0,0,0-3.17,7.42C124.58,220.18,128.36,224.44,133,224.44Z"/><path d="M133,172.47c4.66,0,8.44-4.26,8.44-9.5a10,10,0,0,0-3.17-7.42c-.65-.59-.37-1.24.29-.84a7.7,7.7,0,0,0,4,1.19c4.49,0,8.14-4.11,8.14-9.17s-3.65-9.17-8.14-9.17a8,8,0,0,0-7,4.54c-.14.26-.25.63-.44.63s-.39-.44-.39-1.26c0-3.29,1.26-7.12,3.13-11.54a26.34,26.34,0,0,1-4.84.68,26.36,26.36,0,0,1-4.84-.68c1.87,4.41,3.13,8.25,3.13,11.54,0,.82-.12,1.26-.39,1.26s-.31-.37-.44-.63a8,8,0,0,0-7-4.54c-4.5,0-8.14,4.11-8.14,9.17s3.65,9.17,8.14,9.17a7.7,7.7,0,0,0,4-1.19c.66-.4.94.24.29.84a10,10,0,0,0-3.17,7.42C124.58,168.21,128.36,172.47,133,172.47Z"/><path d="M89.79,104c-4.66,0-8.44,4.26-8.44,9.51a10,10,0,0,0,3.17,7.42c.65.59.37,1.24-.29.84a7.7,7.7,0,0,0-4-1.19c-4.49,0-8.14,4.11-8.14,9.17s3.65,9.16,8.14,9.16a8,8,0,0,0,7-4.54c.14-.27.25-.63.44-.63s.39.44.39,1.25c0,3.28-1.26,7.12-3.13,11.53a26.16,26.16,0,0,1,4.84-.68,26.15,26.15,0,0,1,4.84.68c-1.87-4.41-3.13-8.25-3.13-11.53,0-.82.13-1.25.39-1.25s.3.36.44.63a8,8,0,0,0,7,4.54c4.5,0,8.14-4.1,8.14-9.16s-3.65-9.17-8.14-9.17a7.7,7.7,0,0,0-4,1.19c-.66.4-.94-.24-.29-.84a10,10,0,0,0,3.17-7.42C98.23,108.23,94.45,104,89.79,104Z"/><path class="cls-2" d="M13.3,17a4.23,4.23,0,0,0-2,.46A4.47,4.47,0,0,0,9.85,18.7a7.18,7.18,0,0,0-1.34,4.38,7.53,7.53,0,0,0,.75,3.41,4.52,4.52,0,0,0,2,2.06,4.38,4.38,0,0,0,2,.44h.05a4.15,4.15,0,0,0,2-.49,4.52,4.52,0,0,0,1.47-1.3A7.49,7.49,0,0,0,18,22.77a6.55,6.55,0,0,0-1.35-4.19A4.26,4.26,0,0,0,13.3,17Z"/><path d="M20.15,22a8.72,8.72,0,0,0-1.86-5,6.37,6.37,0,0,0-5-2.38h0a6.28,6.28,0,0,0-2.9.69,7,7,0,0,0-3,3.13,10.16,10.16,0,0,0-1,4.58,9.32,9.32,0,0,0,1.79,5.74,6.29,6.29,0,0,0,5.08,2.47h.08a6.17,6.17,0,0,0,2.89-.73A6.57,6.57,0,0,0,18.11,29,12.37,12.37,0,0,1,17,33.92a4.5,4.5,0,0,1-1.54,1.77,4.93,4.93,0,0,1-2.75.72,4.52,4.52,0,0,1-2.16-.51,5.07,5.07,0,0,1-1.85-1.75,5.86,5.86,0,0,1-.41-.75l-.09-.21,0,0h0l-2,.79A8,8,0,0,0,7.6,36.36a7,7,0,0,0,2,1.65,6.6,6.6,0,0,0,3.12.75h0a7,7,0,0,0,3.87-1.06,6.51,6.51,0,0,0,1.89-1.9,10.29,10.29,0,0,0,1.4-3.55,20.2,20.2,0,0,0,.38-3.41c0-.71,0-1.39,0-2C20.34,24.43,20.18,22.38,20.15,22Zm-3.44,5.16a4.52,4.52,0,0,1-1.47,1.3,4.15,4.15,0,0,1-2,.49h-.05a4.38,4.38,0,0,1-2-.44,4.52,4.52,0,0,1-2-2.06,7.53,7.53,0,0,1-.75-3.41A7.18,7.18,0,0,1,9.85,18.7a4.47,4.47,0,0,1,1.49-1.26,4.38,4.38,0,0,1,5.34,1.14A6.55,6.55,0,0,1,18,22.77,7.49,7.49,0,0,1,16.71,27.21Z"/><path class="cls-2" d="M166.28,233.48a4.22,4.22,0,0,0,2-.46,4.48,4.48,0,0,0,1.49-1.26,7.18,7.18,0,0,0,1.34-4.38,7.53,7.53,0,0,0-.75-3.41,4.52,4.52,0,0,0-2-2.06,4.38,4.38,0,0,0-2-.44h-.05a4.15,4.15,0,0,0-2,.49,4.52,4.52,0,0,0-1.47,1.3,7.49,7.49,0,0,0-1.32,4.44,6.55,6.55,0,0,0,1.35,4.19A4.26,4.26,0,0,0,166.28,233.48Z"/><path d="M159.43,228.4a8.72,8.72,0,0,0,1.86,5,6.37,6.37,0,0,0,5,2.38h0a6.28,6.28,0,0,0,2.9-.69,7,7,0,0,0,3-3.13,10.15,10.15,0,0,0,1-4.58,9.32,9.32,0,0,0-1.79-5.74,6.29,6.29,0,0,0-5.08-2.47h-.08a6.17,6.17,0,0,0-2.89.73,6.59,6.59,0,0,0-1.9,1.57,12.37,12.37,0,0,1,1.06-4.93,4.5,4.5,0,0,1,1.54-1.77,4.92,4.92,0,0,1,2.75-.72,4.51,4.51,0,0,1,2.16.51,5.06,5.06,0,0,1,1.85,1.75,5.83,5.83,0,0,1,.41.75l.09.21,0,0h0l2-.79a8,8,0,0,0-1.43-2.42,7,7,0,0,0-2-1.65,6.6,6.6,0,0,0-3.12-.75h0a7,7,0,0,0-3.87,1.06,6.52,6.52,0,0,0-1.89,1.9,10.29,10.29,0,0,0-1.4,3.55,20.19,20.19,0,0,0-.38,3.41c0,.71,0,1.39,0,2C159.24,226,159.41,228.07,159.43,228.4Zm3.44-5.16a4.52,4.52,0,0,1,1.47-1.3,4.15,4.15,0,0,1,2-.49h.05a4.38,4.38,0,0,1,2,.44,4.52,4.52,0,0,1,2,2.06,7.53,7.53,0,0,1,.75,3.41,7.18,7.18,0,0,1-1.34,4.38,4.48,4.48,0,0,1-1.49,1.26,4.38,4.38,0,0,1-5.34-1.14,6.55,6.55,0,0,1-1.35-4.19A7.49,7.49,0,0,1,162.87,223.24Z"/></g></g></svg>