<svg xmlns="http://www.w3.org/2000/svg" viewBox="0 0 179.58 250.45"><defs><style>.cls-1{fill:#f9faf9;stroke:#231815;}.cls-2{fill:#e13837;}</style></defs><title>资源 1</title><g id="图层_2" data-name="图层 2"><g id="ace"><rect class="cls-1" x="0.5" y="0.5" width="178.58" height="249.45" rx="14.17" ry="14.17"/><path class="cls-2" d="M13.27,43a24.48,24.48,0,0,0,7.08,8.51A24.56,24.56,0,0,0,13.27,60a24.81,24.81,0,0,0-7.1-8.5A24.72,24.72,0,0,0,13.27,43Z"/><path class="cls-2" d="M166.34,190.42a24.52,24.52,0,0,0,7.08,8.51,24.58,24.58,0,0,0-7.08,8.5,24.8,24.8,0,0,0-7.1-8.5,24.74,24.74,0,0,0,7.1-8.51Z"/><path class="cls-2" d="M89,106.29a59.41,59.41,0,0,0,17.69,20.56A59.88,59.88,0,0,0,89,147.39a60.43,60.43,0,0,0-17.74-20.54A60,60,0,0,0,89,106.29Z"/><path class="cls-2" d="M18.73,36.46,14.66,14.7l-2.19,0v0h-.54L7.88,36.47H6.17v2.3h5.45v-2.3H10l.62-3.33h5.26l.62,3.34H14.89v2.3h5.45v-2.3Zm-7.59-5.83,2.17-11.56,2.16,11.55Z"/><path class="cls-2" d="M160.85,214l4.07,21.77,2.19,0v0h.54L171.71,214h1.7v-2.3H168V214h1.57l-.62,3.33h-5.26L163,214h1.67v-2.3h-5.45V214Zm7.59,5.83-2.17,11.56-2.16-11.55Z"/></g></g></svg>