<svg xmlns="http://www.w3.org/2000/svg" viewBox="0 0 179.58 250.45"><defs><style>.cls-1{fill:#f9faf9;stroke:#231815;}.cls-2{fill:#e13837;}</style></defs><title>资源 10</title><g id="图层_2" data-name="图层 2"><g id="ten"><rect class="cls-1" x="0.5" y="0.5" width="178.58" height="249.45" rx="14.17" ry="14.17"/><path class="cls-2" d="M13.27,43a24.48,24.48,0,0,0,7.08,8.51A24.57,24.57,0,0,0,13.27,60a24.82,24.82,0,0,0-7.1-8.5A24.73,24.73,0,0,0,13.27,43Z"/><path class="cls-2" d="M166.34,190.42a24.51,24.51,0,0,0,7.08,8.51,24.57,24.57,0,0,0-7.08,8.5,24.81,24.81,0,0,0-7.1-8.5,24.75,24.75,0,0,0,7.1-8.51Z"/><path class="cls-2" d="M46.59,26A61.3,61.3,0,0,0,64.28,47.29,61.47,61.47,0,0,0,46.59,68.53,62,62,0,0,0,28.85,47.29,61.82,61.82,0,0,0,46.59,26Z"/><path class="cls-2" d="M46.59,78A61.3,61.3,0,0,0,64.28,99.27,61.48,61.48,0,0,0,46.59,120.5,62,62,0,0,0,28.85,99.27,61.81,61.81,0,0,0,46.59,78Z"/><path class="cls-2" d="M46.59,129.95a61.3,61.3,0,0,0,17.69,21.28,61.47,61.47,0,0,0-17.69,21.24,62,62,0,0,0-17.74-21.24,61.83,61.83,0,0,0,17.74-21.28Z"/><path class="cls-2" d="M46.59,181.91A61.29,61.29,0,0,0,64.28,203.2a61.47,61.47,0,0,0-17.69,21.24A62,62,0,0,0,28.85,203.2a61.82,61.82,0,0,0,17.74-21.28Z"/><path class="cls-2" d="M133,26a61.29,61.29,0,0,0,17.69,21.28A61.46,61.46,0,0,0,133,68.53,62,62,0,0,0,115.3,47.29,61.82,61.82,0,0,0,133,26Z"/><path class="cls-2" d="M133,78a61.31,61.31,0,0,0,17.69,21.28A61.47,61.47,0,0,0,133,120.5,62,62,0,0,0,115.3,99.27,61.82,61.82,0,0,0,133,78Z"/><path class="cls-2" d="M133,129.95a61.31,61.31,0,0,0,17.69,21.28A61.48,61.48,0,0,0,133,172.47a62,62,0,0,0-17.74-21.24A61.82,61.82,0,0,0,133,129.95Z"/><path class="cls-2" d="M133,181.91a61.28,61.28,0,0,0,17.69,21.28A61.46,61.46,0,0,0,133,224.43,62,62,0,0,0,115.3,203.2,61.83,61.83,0,0,0,133,181.91Z"/><path class="cls-2" d="M89.82,54.36a61.32,61.32,0,0,0,17.69,21.28A61.48,61.48,0,0,0,89.82,96.88,62,62,0,0,0,72.08,75.64,61.82,61.82,0,0,0,89.82,54.36Z"/><path class="cls-2" d="M89.82,153.57a61.32,61.32,0,0,0,17.69,21.28,61.49,61.49,0,0,0-17.69,21.24,62,62,0,0,0-17.74-21.24,61.83,61.83,0,0,0,17.74-21.28Z"/><polygon class="cls-2" points="6.17 38.73 6.17 14.67 8.35 14.67 8.35 38.73 6.17 38.73 6.17 38.73"/><path class="cls-2" d="M12.91,37.45a4.68,4.68,0,0,1-1.3-3.26h0V19.25A4.68,4.68,0,0,1,12.91,16h0A4.26,4.26,0,0,1,16,14.67h0A4.26,4.26,0,0,1,19,16h0a4.68,4.68,0,0,1,1.3,3.26h0V34.19A4.68,4.68,0,0,1,19,37.45h0A4.26,4.26,0,0,1,16,38.77h0a4.25,4.25,0,0,1-3.07-1.32Zm1.5-19.72a2.18,2.18,0,0,0-.62,1.53h0V34.19a2.18,2.18,0,0,0,.62,1.53h0a2.17,2.17,0,0,0,1.57.67h0a2.17,2.17,0,0,0,1.57-.67h0a2.18,2.18,0,0,0,.62-1.53h0V19.25a2.18,2.18,0,0,0-.62-1.53h0A2.17,2.17,0,0,0,16,17.06h0a2.17,2.17,0,0,0-1.57.67Z"/><polygon class="cls-2" points="173.41 211.71 173.41 235.77 171.23 235.77 171.23 211.71 173.41 211.71 173.41 211.71"/><path class="cls-2" d="M166.67,213a4.68,4.68,0,0,1,1.3,3.26h0v14.94a4.69,4.69,0,0,1-1.3,3.26h0a4.26,4.26,0,0,1-3.07,1.32h0a4.26,4.26,0,0,1-3.06-1.32h0a4.68,4.68,0,0,1-1.3-3.26h0V216.26a4.68,4.68,0,0,1,1.3-3.26h0a4.25,4.25,0,0,1,3.06-1.32h0a4.26,4.26,0,0,1,3.07,1.32Zm-1.5,19.72a2.17,2.17,0,0,0,.62-1.53h0V216.26a2.18,2.18,0,0,0-.62-1.53h0a2.17,2.17,0,0,0-1.57-.67h0a2.18,2.18,0,0,0-1.57.67h0a2.18,2.18,0,0,0-.62,1.53h0v14.94a2.18,2.18,0,0,0,.62,1.53h0a2.18,2.18,0,0,0,1.57.67h0a2.17,2.17,0,0,0,1.57-.67Z"/></g></g></svg>