<svg xmlns="http://www.w3.org/2000/svg" viewBox="0 0 179.58 250.45"><defs><style>.cls-1{fill:#f9faf9;stroke:#231815;}.cls-2{fill:#e13837;}</style></defs><title>资源 2</title><g id="图层_2" data-name="图层 2"><g id="two"><rect class="cls-1" x="0.5" y="0.5" width="178.58" height="249.45" rx="14.17" ry="14.17"/><path class="cls-2" d="M13.27,43a24.47,24.47,0,0,0,7.08,8.51A24.58,24.58,0,0,0,13.27,60a24.81,24.81,0,0,0-7.1-8.5A24.71,24.71,0,0,0,13.27,43Z"/><path class="cls-2" d="M166.34,190.42a24.52,24.52,0,0,0,7.08,8.51,24.58,24.58,0,0,0-7.08,8.5,24.81,24.81,0,0,0-7.1-8.5,24.75,24.75,0,0,0,7.1-8.51Z"/><path class="cls-2" d="M89.82,26a61.3,61.3,0,0,0,17.69,21.28A61.46,61.46,0,0,0,89.82,68.53,62,62,0,0,0,72.07,47.29,61.81,61.81,0,0,0,89.82,26Z"/><path class="cls-2" d="M89.82,181.92a61.28,61.28,0,0,0,17.69,21.28,61.46,61.46,0,0,0-17.69,21.24A62,62,0,0,0,72.07,203.2a61.79,61.79,0,0,0,17.74-21.28Z"/><path class="cls-2" d="M20.32,35H18v1.45H8.48a3.82,3.82,0,0,1,.46-1.24,14.38,14.38,0,0,1,2.39-3,42.89,42.89,0,0,1,3.42-3h0a42.61,42.61,0,0,0,3.62-3.1,7.09,7.09,0,0,0,1.24-1.76,6.41,6.41,0,0,0,.61-2.24c0-.17,0-.36,0-.56a8.09,8.09,0,0,0-.25-2,6.56,6.56,0,0,0-1.93-3.29,6.79,6.79,0,0,0-4.68-1.6,7,7,0,0,0-4,1.11,6.21,6.21,0,0,0-1.77,1.83,8.41,8.41,0,0,0-1.12,2.9,9.29,9.29,0,0,0-.18,1.69s0,.06,0,.07l2-.05h.3v0a7.09,7.09,0,0,1,.66-2.86,4.07,4.07,0,0,1,1.37-1.61A4.74,4.74,0,0,1,13.39,17a5.25,5.25,0,0,1,2.42.51,3.69,3.69,0,0,1,1.72,1.88A5.57,5.57,0,0,1,18,21.54c0,.13,0,.25,0,.34a4,4,0,0,1-.38,1.42,6,6,0,0,1-1.49,1.8c-.71.64-1.66,1.36-2.76,2.28A38.26,38.26,0,0,0,8.66,31.7,13.64,13.64,0,0,0,7,34a5.8,5.8,0,0,0-.77,2.38h0v.14h0v2.18H20.32V35Z"/><path class="cls-2" d="M159.24,215.45h2.28V214h9.56a3.79,3.79,0,0,1-.46,1.24,14.36,14.36,0,0,1-2.39,3,43,43,0,0,1-3.42,3h0a42.64,42.64,0,0,0-3.62,3.1,7.11,7.11,0,0,0-1.24,1.76,6.42,6.42,0,0,0-.61,2.24c0,.17,0,.36,0,.56a8.07,8.07,0,0,0,.25,2,6.56,6.56,0,0,0,1.93,3.29,6.79,6.79,0,0,0,4.68,1.6,7,7,0,0,0,4-1.11,6.2,6.2,0,0,0,1.77-1.83,8.38,8.38,0,0,0,1.12-2.89,9.31,9.31,0,0,0,.18-1.69s0-.06,0-.07l-2,.05h-.3v0a7.09,7.09,0,0,1-.66,2.86,4.08,4.08,0,0,1-1.37,1.61,4.74,4.74,0,0,1-2.73.73,5.25,5.25,0,0,1-2.42-.51,3.68,3.68,0,0,1-1.72-1.88,5.57,5.57,0,0,1-.44-2.14c0-.13,0-.25,0-.34a4,4,0,0,1,.38-1.42,6,6,0,0,1,1.48-1.8c.71-.64,1.66-1.36,2.76-2.28a38.33,38.33,0,0,0,4.67-4.33,13.59,13.59,0,0,0,1.71-2.35,5.81,5.81,0,0,0,.76-2.39h0v-.14h0v-2.18H159.24v3.77Z"/></g></g></svg>