<svg xmlns="http://www.w3.org/2000/svg" viewBox="0 0 179.58 250.45"><defs><style>.cls-1{fill:#f9faf9;stroke:#231815;}.cls-2{fill:#e13837;}</style></defs><title>资源 3</title><g id="图层_2" data-name="图层 2"><g id="three"><rect class="cls-1" x="0.5" y="0.5" width="178.58" height="249.45" rx="14.17" ry="14.17"/><path class="cls-2" d="M13.27,43a24.49,24.49,0,0,0,7.08,8.51A24.58,24.58,0,0,0,13.27,60a24.81,24.81,0,0,0-7.1-8.5A24.72,24.72,0,0,0,13.27,43Z"/><path class="cls-2" d="M166.34,190.42a24.51,24.51,0,0,0,7.08,8.51,24.57,24.57,0,0,0-7.08,8.5,24.81,24.81,0,0,0-7.1-8.5,24.75,24.75,0,0,0,7.1-8.51Z"/><path class="cls-2" d="M89.81,26A61.28,61.28,0,0,0,107.5,47.29,61.45,61.45,0,0,0,89.81,68.53,62,62,0,0,0,72.07,47.29,61.8,61.8,0,0,0,89.81,26Z"/><path class="cls-2" d="M89.81,104a61.05,61.05,0,0,0,17.69,21.27,61.43,61.43,0,0,0-17.69,21.25,62,62,0,0,0-17.74-21.25A61.57,61.57,0,0,0,89.81,104Z"/><path class="cls-2" d="M89.81,181.92A61.27,61.27,0,0,0,107.5,203.2a61.45,61.45,0,0,0-17.69,21.24A62,62,0,0,0,72.07,203.2a61.79,61.79,0,0,0,17.74-21.28Z"/><path class="cls-2" d="M14.31,22.46l5.88-5.25h0v0h0V14.67H6.68v4.07H8.76V17.2h7.91L8.91,24.4,10,26.06a4.52,4.52,0,0,1,3.08-1.25,4.92,4.92,0,0,1,3.64,1.68,6.39,6.39,0,0,1,0,8.11,4.91,4.91,0,0,1-3.64,1.68,4.62,4.62,0,0,1-3.5-1.68,6,6,0,0,1-1.33-2.78l-2.11.44c.68,3.72,3.53,6.5,6.94,6.51,3.92,0,7.23-3.68,7.23-8.22C20.34,26.49,17.68,23.12,14.31,22.46Z"/><polygon class="cls-2" points="10.03 26.06 10.03 26.06 10.03 26.06 10.03 26.06"/><path class="cls-2" d="M165.27,228l-5.88,5.25h0v0h0v2.51H172.9V231.7h-2.08v1.54H162.9l7.77-7.2-1.12-1.66a4.51,4.51,0,0,1-3.08,1.24,4.91,4.91,0,0,1-3.64-1.68,6.39,6.39,0,0,1,0-8.11,4.91,4.91,0,0,1,3.64-1.68,4.62,4.62,0,0,1,3.5,1.68,6,6,0,0,1,1.33,2.78l2.11-.44c-.68-3.72-3.53-6.5-6.94-6.51-3.92,0-7.24,3.68-7.24,8.22C159.24,224,161.9,227.32,165.27,228Z"/><polygon class="cls-2" points="169.55 224.38 169.55 224.38 169.55 224.38 169.55 224.38"/></g></g></svg>