<svg xmlns="http://www.w3.org/2000/svg" viewBox="0 0 179.58 250.45"><defs><style>.cls-1{fill:#f9faf9;stroke:#231815;}.cls-2{fill:#e13837;}</style></defs><title>资源 4</title><g id="图层_2" data-name="图层 2"><g id="four"><rect class="cls-1" x="0.5" y="0.5" width="178.58" height="249.45" rx="14.17" ry="14.17"/><path class="cls-2" d="M13.27,43a24.49,24.49,0,0,0,7.08,8.51A24.58,24.58,0,0,0,13.27,60a24.8,24.8,0,0,0-7.1-8.5A24.71,24.71,0,0,0,13.27,43Z"/><path class="cls-2" d="M166.34,190.42a24.52,24.52,0,0,0,7.08,8.51,24.58,24.58,0,0,0-7.08,8.5,24.81,24.81,0,0,0-7.1-8.5,24.75,24.75,0,0,0,7.1-8.51Z"/><path class="cls-2" d="M46.59,26A61.31,61.31,0,0,0,64.28,47.29,61.47,61.47,0,0,0,46.59,68.53,62,62,0,0,0,28.85,47.29,61.84,61.84,0,0,0,46.59,26Z"/><path class="cls-2" d="M46.59,181.92A61.29,61.29,0,0,0,64.28,203.2a61.47,61.47,0,0,0-17.69,21.24A62,62,0,0,0,28.85,203.2a61.84,61.84,0,0,0,17.74-21.28Z"/><path class="cls-2" d="M133,26a61.31,61.31,0,0,0,17.69,21.28A61.47,61.47,0,0,0,133,68.53,62,62,0,0,0,115.3,47.29,61.82,61.82,0,0,0,133,26Z"/><path class="cls-2" d="M133,181.92a61.27,61.27,0,0,0,17.69,21.28A61.45,61.45,0,0,0,133,224.44,62,62,0,0,0,115.3,203.2,61.79,61.79,0,0,0,133,181.92Z"/><path class="cls-2" d="M20.34,32.63V30.24h-3V14.67H15L6.17,30.24v2.39h9v3.74h-1.5v2.39l5.24,0V36.36h-1.5V32.63ZM8.79,30.24l6.34-11.13V30.24Z"/><path class="cls-2" d="M159.24,217.82v2.39h3v15.57h2.31l8.88-15.57v-2.39h-9v-3.74h1.5v-2.39l-5.24,0v2.39h1.5v3.73Zm11.55,2.39-6.34,11.13V220.21Z"/></g></g></svg>