<svg xmlns="http://www.w3.org/2000/svg" viewBox="0 0 179.58 250.45"><defs><style>.cls-1{fill:#f9faf9;stroke:#231815;}.cls-2{fill:#e13837;}</style></defs><title>资源 5</title><g id="图层_2" data-name="图层 2"><g id="five"><rect class="cls-1" x="0.5" y="0.5" width="178.58" height="249.45" rx="14.17" ry="14.17"/><path class="cls-2" d="M13.27,43a24.45,24.45,0,0,0,7.08,8.51A24.55,24.55,0,0,0,13.27,60a24.81,24.81,0,0,0-7.1-8.5A24.7,24.7,0,0,0,13.27,43Z"/><path class="cls-2" d="M166.34,190.42a24.56,24.56,0,0,0,7.08,8.51,24.62,24.62,0,0,0-7.08,8.5,24.75,24.75,0,0,0-7.1-8.5,24.69,24.69,0,0,0,7.1-8.51Z"/><path class="cls-2" d="M46.59,26A61.31,61.31,0,0,0,64.28,47.29,61.46,61.46,0,0,0,46.59,68.53,62,62,0,0,0,28.85,47.29,61.8,61.8,0,0,0,46.59,26Z"/><path class="cls-2" d="M89.81,104a61,61,0,0,0,17.69,21.27,61.46,61.46,0,0,0-17.69,21.25,61.92,61.92,0,0,0-17.74-21.25A61.42,61.42,0,0,0,89.81,104Z"/><path class="cls-2" d="M46.59,181.92A61.31,61.31,0,0,0,64.28,203.2a61.48,61.48,0,0,0-17.69,21.24A62,62,0,0,0,28.85,203.2a61.78,61.78,0,0,0,17.74-21.28Z"/><path class="cls-2" d="M133,26A61.27,61.27,0,0,0,150.74,47.3,61.41,61.41,0,0,0,133,68.53,62,62,0,0,0,115.3,47.3,61.84,61.84,0,0,0,133,26Z"/><path class="cls-2" d="M133,181.92a61.24,61.24,0,0,0,17.69,21.28A61.42,61.42,0,0,0,133,224.44,62,62,0,0,0,115.3,203.2,61.82,61.82,0,0,0,133,181.92Z"/><path class="cls-2" d="M18.23,23.63A6.83,6.83,0,0,0,12.95,21a6.43,6.43,0,0,0-3.59,1.12V17h9.37V14.67H7.11v.83h0v9.73H9.36a5,5,0,0,1,3.59-1.9,4.63,4.63,0,0,1,3.58,1.85,7.79,7.79,0,0,1,0,9.37,4.63,4.63,0,0,1-3.58,1.85,4.36,4.36,0,0,1-2.77-1,6.36,6.36,0,0,1-1.91-2.78l-2.1.85a8.74,8.74,0,0,0,2.64,3.81,6.54,6.54,0,0,0,4.14,1.52h0a6.83,6.83,0,0,0,5.28-2.67,10.26,10.26,0,0,0,0-12.46Z"/><path class="cls-2" d="M161.35,226.81a6.83,6.83,0,0,0,5.29,2.67,6.43,6.43,0,0,0,3.59-1.12v5h-9.37v2.38h11.61v-.83h0v-9.73h-2.25a5,5,0,0,1-3.59,1.9,4.62,4.62,0,0,1-3.58-1.85,7.79,7.79,0,0,1,0-9.37,4.62,4.62,0,0,1,3.58-1.85,4.36,4.36,0,0,1,2.77,1,6.37,6.37,0,0,1,1.91,2.78l2.1-.85a8.73,8.73,0,0,0-2.64-3.81,6.54,6.54,0,0,0-4.14-1.52h0a6.83,6.83,0,0,0-5.28,2.67,10.25,10.25,0,0,0,0,12.46Z"/></g></g></svg>