<svg xmlns="http://www.w3.org/2000/svg" viewBox="0 0 179.58 250.45"><defs><style>.cls-1{fill:#f9faf9;stroke:#231815;}.cls-2{fill:#e13837;}</style></defs><title>资源 6</title><g id="图层_2" data-name="图层 2"><g id="six"><rect class="cls-1" x="0.5" y="0.5" width="178.58" height="249.45" rx="14.17" ry="14.17"/><path class="cls-2" d="M13.27,43a24.48,24.48,0,0,0,7.08,8.51A24.58,24.58,0,0,0,13.27,60a24.81,24.81,0,0,0-7.1-8.5A24.72,24.72,0,0,0,13.27,43Z"/><path class="cls-2" d="M166.34,190.42a24.51,24.51,0,0,0,7.08,8.51,24.57,24.57,0,0,0-7.08,8.5,24.81,24.81,0,0,0-7.1-8.5,24.75,24.75,0,0,0,7.1-8.51Z"/><path class="cls-2" d="M46.59,26A61.3,61.3,0,0,0,64.28,47.29,61.47,61.47,0,0,0,46.59,68.53,62,62,0,0,0,28.85,47.29,61.82,61.82,0,0,0,46.59,26Z"/><path class="cls-2" d="M46.59,104a61.07,61.07,0,0,0,17.69,21.27,61.42,61.42,0,0,0-17.69,21.24,62,62,0,0,0-17.74-21.24A61.61,61.61,0,0,0,46.59,104Z"/><path class="cls-2" d="M46.59,181.91A61.29,61.29,0,0,0,64.28,203.2a61.48,61.48,0,0,0-17.69,21.24A62,62,0,0,0,28.85,203.2a61.82,61.82,0,0,0,17.74-21.28Z"/><path class="cls-2" d="M133,26a61.31,61.31,0,0,0,17.69,21.28A61.48,61.48,0,0,0,133,68.53,62,62,0,0,0,115.3,47.29,61.81,61.81,0,0,0,133,26Z"/><path class="cls-2" d="M133,104a61.07,61.07,0,0,0,17.69,21.27A61.44,61.44,0,0,0,133,146.48a62,62,0,0,0-17.74-21.25A61.58,61.58,0,0,0,133,104Z"/><path class="cls-2" d="M133,181.91a61.29,61.29,0,0,0,17.69,21.28A61.46,61.46,0,0,0,133,224.43,62,62,0,0,0,115.3,203.2,61.81,61.81,0,0,0,133,181.91Z"/><path class="cls-2" d="M18.52,24a6.59,6.59,0,0,0-2.23-1.89,6.41,6.41,0,0,0-2.94-.69h-.08a6.19,6.19,0,0,0-2.95.77A6.59,6.59,0,0,0,8.76,23.4c0-.25.08-.49.13-.71.13-.68.26-1.21.36-1.58l.12-.41,0-.1v0h0v-.06h0a5.92,5.92,0,0,1,.91-1.74,4.5,4.5,0,0,1,1.24-1.13,4.07,4.07,0,0,1,1.92-.58h.32a4.59,4.59,0,0,1,3,1,4.23,4.23,0,0,1,.66.66l.14.19,0,0h0l.54-.39,1.3-.89A5.89,5.89,0,0,0,18,16.12a6.67,6.67,0,0,0-4.24-1.45h-.43a6.12,6.12,0,0,0-2.95.92A7.23,7.23,0,0,0,8,18.25a7.91,7.91,0,0,0-.66,1.55,29.67,29.67,0,0,0-1.16,8.38c0,.85,0,1.75.13,2.67a9.32,9.32,0,0,0,1.9,5.44,6.42,6.42,0,0,0,5.06,2.48h0a6.25,6.25,0,0,0,3-.72,7.27,7.27,0,0,0,3.06-3.27A10.83,10.83,0,0,0,20.34,30,9.91,9.91,0,0,0,18.52,24ZM16.79,34.57a4.6,4.6,0,0,1-1.51,1.32,4.23,4.23,0,0,1-2,.48A4.3,4.3,0,0,1,9.84,34.7a6.72,6.72,0,0,1-1.35-3.76h0c0-.09,0-.18,0-.27s0-.23,0-.34a8,8,0,0,1,1.34-4.64,4.63,4.63,0,0,1,1.5-1.35,4.14,4.14,0,0,1,2-.51h.06a4.38,4.38,0,0,1,2,.46,4.68,4.68,0,0,1,2,2.15A8.07,8.07,0,0,1,18.16,30,7.64,7.64,0,0,1,16.79,34.57Z"/><path class="cls-2" d="M161.06,226.45a6.6,6.6,0,0,0,2.23,1.89,6.4,6.4,0,0,0,2.94.69h.08a6.19,6.19,0,0,0,2.95-.77,6.61,6.61,0,0,0,1.56-1.22c0,.25-.08.49-.13.71-.13.68-.26,1.21-.36,1.58l-.12.41,0,.1v0h0v.06h0a6,6,0,0,1-.91,1.74,4.5,4.5,0,0,1-1.24,1.13,4.07,4.07,0,0,1-1.92.58h-.32a4.6,4.6,0,0,1-3-1,4.24,4.24,0,0,1-.66-.66l-.14-.19,0,0h0l-.54.39-1.3.89a5.88,5.88,0,0,0,1.39,1.55,6.67,6.67,0,0,0,4.24,1.45h.43a6.13,6.13,0,0,0,2.95-.92,7.23,7.23,0,0,0,2.44-2.65,7.83,7.83,0,0,0,.66-1.55,29.63,29.63,0,0,0,1.16-8.38c0-.85,0-1.75-.13-2.67a9.33,9.33,0,0,0-1.9-5.44,6.42,6.42,0,0,0-5.06-2.48h0a6.25,6.25,0,0,0-3,.72,7.27,7.27,0,0,0-3.05,3.27,10.84,10.84,0,0,0-1.06,4.79A9.9,9.9,0,0,0,161.06,226.45Zm1.73-10.57a4.59,4.59,0,0,1,1.51-1.32,4.23,4.23,0,0,1,2-.48,4.3,4.3,0,0,1,3.44,1.67,6.72,6.72,0,0,1,1.35,3.76h0c0,.09,0,.18,0,.27s0,.23,0,.34a8,8,0,0,1-1.34,4.64,4.63,4.63,0,0,1-1.5,1.36,4.14,4.14,0,0,1-2,.51h-.06a4.38,4.38,0,0,1-2-.46,4.68,4.68,0,0,1-2-2.15,8.05,8.05,0,0,1-.76-3.57A7.64,7.64,0,0,1,162.79,215.88Z"/></g></g></svg>