<svg xmlns="http://www.w3.org/2000/svg" viewBox="0 0 179.58 250.44"><defs><style>.cls-1{fill:#f9faf9;stroke:#231815;}.cls-2{fill:#e13837;}</style></defs><title>资源 7</title><g id="图层_2" data-name="图层 2"><g id="seven"><rect class="cls-1" x="0.5" y="0.5" width="178.58" height="249.44" rx="14.17" ry="14.17"/><path class="cls-2" d="M13.27,43a24.49,24.49,0,0,0,7.08,8.51A24.58,24.58,0,0,0,13.27,60a24.81,24.81,0,0,0-7.1-8.5A24.72,24.72,0,0,0,13.27,43Z"/><path class="cls-2" d="M166.34,190.41a24.52,24.52,0,0,0,7.08,8.51,24.58,24.58,0,0,0-7.08,8.5,24.81,24.81,0,0,0-7.1-8.5,24.75,24.75,0,0,0,7.1-8.51Z"/><path class="cls-2" d="M46.59,26A61.31,61.31,0,0,0,64.28,47.29,61.47,61.47,0,0,0,46.59,68.53,62,62,0,0,0,28.85,47.29,61.82,61.82,0,0,0,46.59,26Z"/><path class="cls-2" d="M46.59,104a61.18,61.18,0,0,0,17.69,21.27,61.42,61.42,0,0,0-17.69,21.24,62,62,0,0,0-17.74-21.24A61.72,61.72,0,0,0,46.59,104Z"/><path class="cls-2" d="M46.59,181.91a61.29,61.29,0,0,0,17.69,21.28,61.47,61.47,0,0,0-17.69,21.24,62,62,0,0,0-17.74-21.24,61.82,61.82,0,0,0,17.74-21.28Z"/><path class="cls-2" d="M133,26a61.31,61.31,0,0,0,17.69,21.28A61.47,61.47,0,0,0,133,68.53,62,62,0,0,0,115.3,47.29,61.81,61.81,0,0,0,133,26Z"/><path class="cls-2" d="M133,104a61.18,61.18,0,0,0,17.69,21.27A61.43,61.43,0,0,0,133,146.48a61.94,61.94,0,0,0-17.74-21.24A61.69,61.69,0,0,0,133,104Z"/><path class="cls-2" d="M133,181.91a61.29,61.29,0,0,0,17.69,21.28A61.47,61.47,0,0,0,133,224.43a62,62,0,0,0-17.74-21.24A61.8,61.8,0,0,0,133,181.91Z"/><path class="cls-2" d="M89.82,57.19a61.32,61.32,0,0,0,17.69,21.28A61.49,61.49,0,0,0,89.82,99.71,62,62,0,0,0,72.07,78.48,61.81,61.81,0,0,0,89.82,57.19Z"/><path class="cls-2" d="M6.17,14.67v1.44h0v2.45H8.4V17.08h9.34A63.63,63.63,0,0,0,11,38.77h2.24a57.91,57.91,0,0,1,3.88-15.41C17.9,21.46,18.66,20,19.22,19c.28-.5.5-.88.66-1.14l.47-.77V14.67Z"/><path class="cls-2" d="M173.41,235.77v-1.44h0v-2.45h-2.23v1.49h-9.35a63.59,63.59,0,0,0,6.77-21.69h-2.24a57.88,57.88,0,0,1-3.88,15.41c-.81,1.89-1.57,3.37-2.12,4.38-.28.5-.5.88-.65,1.14l-.47.77v2.41Z"/></g></g></svg>