<svg xmlns="http://www.w3.org/2000/svg" viewBox="0 0 179.58 250.44"><defs><style>.cls-1{fill:#f9faf9;stroke:#231815;}.cls-2{fill:#e13837;}</style></defs><title>资源 8</title><g id="图层_2" data-name="图层 2"><g id="eight"><rect class="cls-1" x="0.5" y="0.5" width="178.58" height="249.44" rx="14.17" ry="14.17"/><path class="cls-2" d="M13.27,43a24.48,24.48,0,0,0,7.08,8.51A24.58,24.58,0,0,0,13.27,60a24.81,24.81,0,0,0-7.1-8.5A24.72,24.72,0,0,0,13.27,43Z"/><path class="cls-2" d="M166.34,190.41a24.51,24.51,0,0,0,7.08,8.51,24.57,24.57,0,0,0-7.08,8.5,24.81,24.81,0,0,0-7.1-8.5,24.75,24.75,0,0,0,7.1-8.51Z"/><path class="cls-2" d="M46.59,26A61.3,61.3,0,0,0,64.28,47.3,61.47,61.47,0,0,0,46.59,68.53,62,62,0,0,0,28.85,47.3,61.83,61.83,0,0,0,46.59,26Z"/><path class="cls-2" d="M46.59,104a61.29,61.29,0,0,0,17.69,21.28,61.43,61.43,0,0,0-17.69,21.23,62,62,0,0,0-17.74-21.23A61.84,61.84,0,0,0,46.59,104Z"/><path class="cls-2" d="M46.59,181.91a61.29,61.29,0,0,0,17.69,21.28,61.47,61.47,0,0,0-17.69,21.24,62,62,0,0,0-17.74-21.24,61.82,61.82,0,0,0,17.74-21.28Z"/><path class="cls-2" d="M133,26A61.31,61.31,0,0,0,150.73,47.3,61.46,61.46,0,0,0,133,68.53,62,62,0,0,0,115.3,47.3,61.82,61.82,0,0,0,133,26Z"/><path class="cls-2" d="M133,104a61.3,61.3,0,0,0,17.69,21.28A61.48,61.48,0,0,0,133,146.48a62,62,0,0,0-17.74-21.23A61.81,61.81,0,0,0,133,104Z"/><path class="cls-2" d="M133,181.91a61.29,61.29,0,0,0,17.69,21.28A61.47,61.47,0,0,0,133,224.43a62,62,0,0,0-17.74-21.24A61.79,61.79,0,0,0,133,181.91Z"/><path class="cls-2" d="M89.82,67.11A61.31,61.31,0,0,0,107.51,88.4a61.48,61.48,0,0,0-17.69,21.23A62,62,0,0,0,72.07,88.4,61.81,61.81,0,0,0,89.82,67.11Z"/><path class="cls-2" d="M89.82,140.81a61.31,61.31,0,0,0,17.69,21.29,61.47,61.47,0,0,0-17.69,21.23,62,62,0,0,0-17.74-21.23,61.83,61.83,0,0,0,17.74-21.29Z"/><path class="cls-2" d="M18.22,26.61a7.09,7.09,0,0,0-1.22-1,6.12,6.12,0,1,0-8-.46,6.3,6.3,0,0,0,.54.46,7.17,7.17,0,0,0-1.22,1,7.09,7.09,0,1,0,9.93,0ZM10.43,18.2a4,4,0,0,1,2.82-1.14h0a4,4,0,0,1,2.83,1.14,3.61,3.61,0,0,1,0,5.21,4.07,4.07,0,0,1-5.65,0,3.61,3.61,0,0,1,0-5.21Zm6.24,16.65a4.92,4.92,0,0,1-6.83,0,4.41,4.41,0,0,1,0-6.35,4.86,4.86,0,0,1,3.42-1.38h0a4.86,4.86,0,0,1,3.42,1.38,4.41,4.41,0,0,1,0,6.35Z"/><path class="cls-2" d="M161.36,223.83a7.15,7.15,0,0,0,1.22,1,6.38,6.38,0,0,0-.54.46,6.12,6.12,0,1,0,8.57,0,6.23,6.23,0,0,0-.54-.46,7.1,7.1,0,0,0,1.22-11.08,7.09,7.09,0,0,0-9.93,10.13Zm7.79,8.41a4,4,0,0,1-2.82,1.14h0a4,4,0,0,1-2.83-1.14,3.61,3.61,0,0,1,0-5.21,4.07,4.07,0,0,1,5.65,0,3.61,3.61,0,0,1,0,5.21Zm-6.24-16.65a4.92,4.92,0,0,1,6.83,0,4.41,4.41,0,0,1,0,6.35,4.86,4.86,0,0,1-3.42,1.38h0a4.86,4.86,0,0,1-3.42-1.38,4.41,4.41,0,0,1,0-6.35Z"/></g></g></svg>