<svg xmlns="http://www.w3.org/2000/svg" viewBox="0 0 179.58 250.45"><defs><style>.cls-1{fill:#f9faf9;stroke:#231815;}.cls-2{fill:#e13837;}.cls-3{fill:none;}</style></defs><title>资源 9</title><g id="图层_2" data-name="图层 2"><g id="nine"><rect class="cls-1" x="0.5" y="0.5" width="178.58" height="249.45" rx="14.17" ry="14.17"/><path class="cls-2" d="M13.27,43a24.49,24.49,0,0,0,7.08,8.51A24.58,24.58,0,0,0,13.27,60a24.8,24.8,0,0,0-7.1-8.5A24.71,24.71,0,0,0,13.27,43Z"/><path class="cls-2" d="M166.34,190.42a24.52,24.52,0,0,0,7.08,8.51,24.58,24.58,0,0,0-7.08,8.5,24.81,24.81,0,0,0-7.1-8.5,24.75,24.75,0,0,0,7.1-8.51Z"/><path class="cls-2" d="M46.59,26A61.31,61.31,0,0,0,64.28,47.3,61.47,61.47,0,0,0,46.59,68.53,62,62,0,0,0,28.85,47.3,61.84,61.84,0,0,0,46.59,26Z"/><path class="cls-2" d="M46.59,78A61.31,61.31,0,0,0,64.28,99.27,61.48,61.48,0,0,0,46.59,120.5,62,62,0,0,0,28.85,99.27,61.83,61.83,0,0,0,46.59,78Z"/><path class="cls-2" d="M46.59,129.95a61.29,61.29,0,0,0,17.69,21.28,61.47,61.47,0,0,0-17.69,21.24,62,62,0,0,0-17.74-21.24,61.84,61.84,0,0,0,17.74-21.28Z"/><path class="cls-2" d="M46.59,181.91A61.31,61.31,0,0,0,64.28,203.2a61.49,61.49,0,0,0-17.69,21.24A62,62,0,0,0,28.85,203.2a61.85,61.85,0,0,0,17.74-21.28Z"/><path class="cls-2" d="M133,26a61.3,61.3,0,0,0,17.69,21.28A61.47,61.47,0,0,0,133,68.53,62,62,0,0,0,115.3,47.29,61.82,61.82,0,0,0,133,26Z"/><path class="cls-2" d="M133,78a61.31,61.31,0,0,0,17.69,21.28A61.49,61.49,0,0,0,133,120.5,62,62,0,0,0,115.3,99.26,61.85,61.85,0,0,0,133,78Z"/><path class="cls-2" d="M133,129.94a61.29,61.29,0,0,0,17.69,21.28A61.48,61.48,0,0,0,133,172.47a62,62,0,0,0-17.74-21.24A61.8,61.8,0,0,0,133,129.94Z"/><path class="cls-2" d="M133,181.91a61.31,61.31,0,0,0,17.69,21.28A61.49,61.49,0,0,0,133,224.43,62,62,0,0,0,115.3,203.2,61.82,61.82,0,0,0,133,181.91Z"/><path class="cls-2" d="M89.82,104a61.23,61.23,0,0,0,17.69,21.29,61.45,61.45,0,0,0-17.69,21.22,61.94,61.94,0,0,0-17.74-21.22A61.72,61.72,0,0,0,89.82,104Z"/><path class="cls-3" d="M13.31,17a4.24,4.24,0,0,0-2,.46,4.46,4.46,0,0,0-1.49,1.26,7.19,7.19,0,0,0-1.34,4.38,7.53,7.53,0,0,0,.75,3.41,4.52,4.52,0,0,0,2,2.06,4.39,4.39,0,0,0,2,.44h.05a4.14,4.14,0,0,0,1.95-.49,4.49,4.49,0,0,0,1.47-1.3A7.49,7.49,0,0,0,18,22.76a6.56,6.56,0,0,0-1.35-4.19A4.26,4.26,0,0,0,13.31,17Z"/><path class="cls-2" d="M20.15,22a8.72,8.72,0,0,0-1.86-5,6.37,6.37,0,0,0-5-2.38h0a6.28,6.28,0,0,0-2.9.69,7,7,0,0,0-3,3.13,10.17,10.17,0,0,0-1,4.58,9.32,9.32,0,0,0,1.79,5.74,6.29,6.29,0,0,0,5.08,2.47h.07a6.18,6.18,0,0,0,2.9-.74A6.59,6.59,0,0,0,18.11,29,12.41,12.41,0,0,1,17,33.92a4.51,4.51,0,0,1-1.54,1.77,4.91,4.91,0,0,1-2.75.72,4.52,4.52,0,0,1-2.16-.51,5.09,5.09,0,0,1-1.85-1.75,6,6,0,0,1-.41-.75l-.09-.21,0,0h0l-2,.79A8,8,0,0,0,7.6,36.36a7,7,0,0,0,2,1.65,6.61,6.61,0,0,0,3.12.75h0a7,7,0,0,0,3.87-1.06,6.51,6.51,0,0,0,1.89-1.9,10.29,10.29,0,0,0,1.4-3.55,20.3,20.3,0,0,0,.38-3.41c0-.71,0-1.39,0-2C20.34,24.43,20.18,22.38,20.15,22Zm-3.44,5.16a4.49,4.49,0,0,1-1.47,1.3,4.14,4.14,0,0,1-1.95.49h-.05a4.39,4.39,0,0,1-2-.44,4.52,4.52,0,0,1-2-2.06,7.53,7.53,0,0,1-.75-3.41A7.19,7.19,0,0,1,9.85,18.7a4.46,4.46,0,0,1,1.49-1.26,4.38,4.38,0,0,1,5.35,1.14A6.56,6.56,0,0,1,18,22.76,7.49,7.49,0,0,1,16.71,27.21Z"/><path class="cls-2" d="M159.43,228.4a8.73,8.73,0,0,0,1.86,5,6.37,6.37,0,0,0,5,2.38h0a6.28,6.28,0,0,0,2.9-.69,7,7,0,0,0,3-3.13,10.16,10.16,0,0,0,1-4.58,9.32,9.32,0,0,0-1.79-5.74,6.29,6.29,0,0,0-5.08-2.47h-.07a6.18,6.18,0,0,0-2.9.74,6.59,6.59,0,0,0-1.9,1.57,12.41,12.41,0,0,1,1.06-4.93,4.51,4.51,0,0,1,1.54-1.77,4.91,4.91,0,0,1,2.75-.72,4.52,4.52,0,0,1,2.16.51,5.08,5.08,0,0,1,1.85,1.75,6.06,6.06,0,0,1,.41.75l.09.21,0,0h0l2-.79a8,8,0,0,0-1.43-2.42,7,7,0,0,0-2-1.65,6.61,6.61,0,0,0-3.12-.75h0a7,7,0,0,0-3.87,1.06,6.5,6.5,0,0,0-1.89,1.9,10.29,10.29,0,0,0-1.4,3.55,20.3,20.3,0,0,0-.38,3.41c0,.71,0,1.39,0,2C159.24,226,159.41,228.06,159.43,228.4Zm3.44-5.16a4.5,4.5,0,0,1,1.47-1.3,4.14,4.14,0,0,1,1.95-.49h.05a4.38,4.38,0,0,1,2,.44,4.51,4.51,0,0,1,2,2.06,7.53,7.53,0,0,1,.75,3.41,7.19,7.19,0,0,1-1.34,4.38,4.46,4.46,0,0,1-1.49,1.26,4.38,4.38,0,0,1-5.35-1.14,6.56,6.56,0,0,1-1.35-4.2A7.49,7.49,0,0,1,162.87,223.24Z"/></g></g></svg>