<svg xmlns="http://www.w3.org/2000/svg" viewBox="0 0 179.58 250.45"><defs><style>.cls-1{fill:#f9faf9;stroke:#231815;}.cls-2{fill:#e13837;}</style></defs><title>资源 1</title><g id="图层_2" data-name="图层 2"><g id="ace"><rect class="cls-1" x="0.5" y="0.5" width="178.58" height="249.45" rx="14.17" ry="14.17"/><path class="cls-2" d="M17.23,43.12c-1.25-.39-3.19.29-3.9,3.12-.06.15-.12.15-.18,0-1-2.87-2.72-3.49-3.91-3.12-1.76.57-3.19,2.67-3.06,5.36,0,4.68,4.23,7,7.06,11.52,2.83-4.48,7.07-6.83,7.08-11.54A4.94,4.94,0,0,0,17.23,43.12Z"/><path class="cls-2" d="M13.25,60l0,0,0,0Z"/><path class="cls-2" d="M166.35,190.45c-2.83,4.48-7.07,6.83-7.08,11.54a4.94,4.94,0,0,0,3.09,5.34c1.25.39,3.19-.3,3.9-3.12.06-.16.12-.15.18,0,1,2.87,2.72,3.49,3.91,3.12,1.77-.57,3.2-2.67,3.06-5.36C173.37,197.29,169.18,194.93,166.35,190.45Z"/><path class="cls-2" d="M166.33,190.42l0,0,0,0Z"/><path class="cls-2" d="M89.78,146.49l0-.07,0,.07Z"/><path class="cls-2" d="M99.73,104.21c-3.12-1-8,.74-9.75,7.8-.15.39-.3.38-.45,0-2.57-7.16-6.8-8.72-9.78-7.79-4.41,1.42-8,6.68-7.65,13.39.09,11.71,10.56,17.61,17.64,28.81,7.09-11.2,17.68-17.08,17.71-28.84C108.06,110.79,104.26,105.61,99.73,104.21Z"/><path class="cls-2" d="M18.73,36.46,14.66,14.7l-2.19,0v0h-.54L7.88,36.47H6.17v2.3h5.45v-2.3H10l.62-3.33h5.26l.62,3.34H14.89v2.3h5.45v-2.3Zm-7.59-5.83,2.17-11.56,2.16,11.55Z"/><path class="cls-2" d="M160.85,214l4.07,21.77,2.19,0v0h.54L171.71,214h1.7v-2.3H168V214h1.57l-.62,3.33h-5.26L163,214h1.67v-2.3h-5.45V214Zm7.59,5.83-2.17,11.56-2.16-11.55Z"/></g></g></svg>