<svg xmlns="http://www.w3.org/2000/svg" viewBox="0 0 179.58 250.45"><defs><style>.cls-1{fill:#f9faf9;stroke:#231815;}.cls-2{fill:#e13837;}</style></defs><title>资源 10</title><g id="图层_2" data-name="图层 2"><g id="ten"><rect class="cls-1" x="0.5" y="0.5" width="178.58" height="249.45" rx="14.17" ry="14.17"/><path class="cls-2" d="M13.25,60l0,0,0,0Z"/><path class="cls-2" d="M17.23,43.12c-1.25-.39-3.19.29-3.9,3.12-.06.15-.12.15-.18,0-1-2.86-2.72-3.49-3.91-3.12-1.76.57-3.2,2.67-3.06,5.36,0,4.68,4.23,7,7.06,11.52,2.83-4.48,7.07-6.83,7.08-11.54A4.94,4.94,0,0,0,17.23,43.12Z"/><path class="cls-2" d="M166.33,190.42l0,0,0,0Z"/><path class="cls-2" d="M166.35,190.45c-2.83,4.48-7.07,6.83-7.08,11.54a4.94,4.94,0,0,0,3.09,5.34c1.25.39,3.19-.29,3.9-3.12.06-.15.12-.15.18,0,1,2.87,2.72,3.49,3.91,3.12,1.77-.57,3.2-2.67,3.06-5.36C173.37,197.29,169.18,194.93,166.35,190.45Z"/><path class="cls-2" d="M46.56,68.53l0-.07,0,.07Z"/><path class="cls-2" d="M56.5,26.26c-3.12-1-8,.74-9.74,7.8-.15.39-.31.38-.45,0-2.57-7.16-6.8-8.73-9.78-7.79-4.41,1.42-8,6.68-7.66,13.39C29,51.36,39.44,57.26,46.51,68.46c7.07-11.2,17.67-17.08,17.7-28.84C64.83,32.84,61,27.66,56.5,26.26Z"/><path class="cls-2" d="M56.5,77.28c-3.12-1-8,.74-9.74,7.8-.15.39-.31.38-.45,0-2.57-7.16-6.8-8.73-9.78-7.79-4.41,1.42-8,6.68-7.66,13.39.09,11.71,10.57,17.61,17.65,28.81,7.07-11.2,17.67-17.08,17.7-28.84C64.83,83.86,61,78.68,56.5,77.28Z"/><path class="cls-2" d="M46.56,119.55l0-.07,0,.07Z"/><path class="cls-2" d="M46.57,179.08l0,.07,0-.07Z"/><path class="cls-2" d="M64.26,208c-.09-11.71-10.57-17.61-17.64-28.81-7.07,11.2-17.67,17.08-17.7,28.84-.61,6.78,3.18,12,7.72,13.36,3.12,1,8-.74,9.74-7.8.15-.39.31-.38.45,0,2.57,7.16,6.8,8.73,9.78,7.79C61,219.93,64.59,214.67,64.26,208Z"/><path class="cls-2" d="M64.26,156.94c-.09-11.71-10.57-17.61-17.64-28.81-7.07,11.2-17.67,17.08-17.7,28.84-.61,6.78,3.18,12,7.72,13.36,3.12,1,8-.74,9.74-7.81.15-.39.31-.38.45,0,2.57,7.16,6.8,8.73,9.78,7.79C61,168.91,64.59,163.65,64.26,156.94Z"/><path class="cls-2" d="M46.57,128.06l0,.07,0-.07Z"/><path class="cls-2" d="M99.73,54.61c-3.12-1-8,.74-9.75,7.8-.15.39-.31.38-.45,0-2.57-7.16-6.8-8.73-9.78-7.79C75.34,56,71.77,61.29,72.1,68c.09,11.71,10.57,17.61,17.64,28.81,7.08-11.2,17.68-17.08,17.71-28.84C108.06,61.18,104.26,56,99.73,54.61Z"/><path class="cls-2" d="M89.78,96.88l0-.07,0,.07Z"/><path class="cls-2" d="M107.49,182.45c-.08-11.71-10.57-17.61-17.65-28.81-7.07,11.19-17.67,17.07-17.7,28.84-.61,6.78,3.18,12,7.72,13.36,3.12,1,8-.74,9.74-7.81.15-.39.3-.38.45,0,2.58,7.16,6.81,8.73,9.79,7.79C104.24,194.42,107.82,189.16,107.49,182.45Z"/><path class="cls-2" d="M89.79,153.57l0,.07,0-.07Z"/><path class="cls-2" d="M133,68.53l0-.07,0,.07Z"/><path class="cls-2" d="M143,26.26c-3.12-1-8,.74-9.75,7.8-.14.39-.3.38-.44,0-2.57-7.16-6.8-8.73-9.78-7.79-4.41,1.42-8,6.68-7.66,13.39.09,11.71,10.57,17.61,17.64,28.8,7.08-11.2,17.67-17.08,17.7-28.84C151.29,32.84,147.49,27.66,143,26.26Z"/><path class="cls-2" d="M143,77.28c-3.12-1-8,.74-9.75,7.81-.14.39-.3.38-.44,0-2.57-7.16-6.8-8.73-9.78-7.79-4.41,1.42-8,6.68-7.66,13.39.09,11.71,10.57,17.61,17.64,28.8,7.08-11.2,17.67-17.08,17.7-28.84C151.29,83.86,147.49,78.68,143,77.28Z"/><path class="cls-2" d="M133,119.55l0-.07,0,.07Z"/><path class="cls-2" d="M150.72,208c-.09-11.71-10.57-17.61-17.64-28.81-7.08,11.2-17.68,17.08-17.7,28.84-.62,6.78,3.18,12,7.72,13.36,3.12,1,8-.74,9.75-7.8.14-.39.3-.38.44,0,2.57,7.16,6.8,8.73,9.78,7.79C147.47,219.93,151,214.67,150.72,208Z"/><path class="cls-2" d="M133,179.08l0,.07,0-.07Z"/><path class="cls-2" d="M133,128.06l0,.07,0-.07Z"/><path class="cls-2" d="M150.72,156.94c-.09-11.71-10.57-17.61-17.64-28.81-7.08,11.2-17.68,17.08-17.7,28.84-.62,6.78,3.18,12,7.72,13.36,3.12,1,8-.74,9.75-7.8.14-.39.3-.38.44,0,2.57,7.16,6.8,8.73,9.78,7.79C147.47,168.91,151,163.65,150.72,156.94Z"/><polygon class="cls-2" points="6.17 38.73 6.17 14.67 8.35 14.67 8.35 38.73 6.17 38.73 6.17 38.73"/><path class="cls-2" d="M12.91,37.45a4.68,4.68,0,0,1-1.3-3.26h0V19.25A4.68,4.68,0,0,1,12.91,16h0A4.26,4.26,0,0,1,16,14.67h0A4.26,4.26,0,0,1,19,16h0a4.68,4.68,0,0,1,1.3,3.26h0V34.19A4.68,4.68,0,0,1,19,37.45h0A4.26,4.26,0,0,1,16,38.77h0a4.25,4.25,0,0,1-3.07-1.32Zm1.5-19.72a2.18,2.18,0,0,0-.62,1.53h0V34.19a2.18,2.18,0,0,0,.62,1.53h0a2.17,2.17,0,0,0,1.57.67h0a2.17,2.17,0,0,0,1.57-.67h0a2.18,2.18,0,0,0,.62-1.53h0V19.25a2.18,2.18,0,0,0-.62-1.53h0A2.17,2.17,0,0,0,16,17.06h0a2.17,2.17,0,0,0-1.57.67Z"/><polygon class="cls-2" points="173.41 211.72 173.41 235.78 171.23 235.78 171.23 211.72 173.41 211.72 173.41 211.72"/><path class="cls-2" d="M166.67,213a4.68,4.68,0,0,1,1.3,3.26h0V231.2a4.68,4.68,0,0,1-1.3,3.26h0a4.26,4.26,0,0,1-3.07,1.32h0a4.26,4.26,0,0,1-3.07-1.32h0a4.68,4.68,0,0,1-1.3-3.26h0V216.26a4.68,4.68,0,0,1,1.3-3.26h0a4.26,4.26,0,0,1,3.07-1.32h0a4.26,4.26,0,0,1,3.07,1.32Zm-1.5,19.72a2.18,2.18,0,0,0,.62-1.53h0V216.26a2.18,2.18,0,0,0-.62-1.53h0a2.17,2.17,0,0,0-1.57-.67h0a2.17,2.17,0,0,0-1.57.67h0a2.18,2.18,0,0,0-.62,1.53h0V231.2a2.18,2.18,0,0,0,.62,1.53h0a2.17,2.17,0,0,0,1.57.67h0a2.17,2.17,0,0,0,1.57-.67Z"/></g></g></svg>