<svg xmlns="http://www.w3.org/2000/svg" viewBox="0 0 179.58 250.45"><defs><style>.cls-1{fill:#f9faf9;stroke:#231815;}.cls-2{fill:#e13837;}</style></defs><title>资源 2</title><g id="图层_2" data-name="图层 2"><g id="two"><rect class="cls-1" x="0.5" y="0.5" width="178.58" height="249.45" rx="14.17" ry="14.17"/><path class="cls-2" d="M17.23,43.12c-1.25-.39-3.19.29-3.9,3.12-.06.15-.12.15-.18,0-1-2.87-2.72-3.49-3.91-3.12-1.76.57-3.19,2.67-3.06,5.36,0,4.68,4.23,7,7.06,11.52,2.83-4.48,7.07-6.83,7.08-11.54A4.94,4.94,0,0,0,17.23,43.12Z"/><path class="cls-2" d="M13.25,60l0,0,0,0Z"/><path class="cls-2" d="M166.35,190.45c-2.83,4.48-7.07,6.83-7.08,11.54a4.94,4.94,0,0,0,3.09,5.34c1.25.39,3.19-.29,3.9-3.12.06-.15.12-.15.18,0,1,2.86,2.72,3.49,3.91,3.12,1.77-.57,3.2-2.67,3.06-5.36C173.37,197.29,169.18,194.93,166.35,190.45Z"/><path class="cls-2" d="M166.33,190.42l0,0,0,0Z"/><path class="cls-2" d="M89.79,181.92l0,.07,0-.07Z"/><path class="cls-2" d="M107.49,210.8c-.09-11.71-10.56-17.61-17.65-28.81-7.08,11.2-17.67,17.08-17.7,28.84-.61,6.78,3.18,12,7.71,13.36,3.12,1,8-.74,9.74-7.81.15-.39.3-.38.45,0,2.57,7.16,6.81,8.73,9.79,7.79C104.24,222.77,107.81,217.51,107.49,210.8Z"/><path class="cls-2" d="M89.78,68.53l0-.07,0,.07Z"/><path class="cls-2" d="M99.73,26.26c-3.12-1-8,.74-9.75,7.8-.15.39-.3.38-.45,0-2.57-7.16-6.8-8.73-9.78-7.79-4.41,1.42-8,6.68-7.66,13.39.09,11.71,10.57,17.61,17.64,28.81,7.08-11.2,17.68-17.08,17.71-28.84C108.06,32.84,104.26,27.66,99.73,26.26Z"/><path class="cls-2" d="M20.32,35H18v1.45H8.48a3.82,3.82,0,0,1,.46-1.24,14.38,14.38,0,0,1,2.39-3,42.89,42.89,0,0,1,3.42-3h0a42.61,42.61,0,0,0,3.62-3.1,7.09,7.09,0,0,0,1.24-1.76,6.41,6.41,0,0,0,.61-2.24c0-.17,0-.36,0-.56a8.09,8.09,0,0,0-.25-2,6.56,6.56,0,0,0-1.93-3.29,6.79,6.79,0,0,0-4.68-1.6,7,7,0,0,0-4,1.11,6.21,6.21,0,0,0-1.77,1.83,8.41,8.41,0,0,0-1.12,2.9,9.29,9.29,0,0,0-.18,1.69s0,.06,0,.07l2-.05h.3v0a7.09,7.09,0,0,1,.66-2.86,4.07,4.07,0,0,1,1.37-1.61A4.74,4.74,0,0,1,13.39,17a5.25,5.25,0,0,1,2.42.51,3.69,3.69,0,0,1,1.72,1.88A5.57,5.57,0,0,1,18,21.54c0,.13,0,.25,0,.34a4,4,0,0,1-.38,1.42,6,6,0,0,1-1.49,1.8c-.71.64-1.66,1.36-2.76,2.28A38.26,38.26,0,0,0,8.66,31.7,13.64,13.64,0,0,0,7,34a5.8,5.8,0,0,0-.77,2.38h0v.14h0v2.18H20.32V35Z"/><path class="cls-2" d="M159.26,215.45h2.28V214h9.56a3.81,3.81,0,0,1-.46,1.24,14.4,14.4,0,0,1-2.39,3,43,43,0,0,1-3.42,3h0a42.8,42.8,0,0,0-3.62,3.1,7.08,7.08,0,0,0-1.24,1.76,6.4,6.4,0,0,0-.61,2.24c0,.17,0,.36,0,.56a8.07,8.07,0,0,0,.25,2,6.57,6.57,0,0,0,1.93,3.29,6.79,6.79,0,0,0,4.68,1.6,7,7,0,0,0,4-1.11,6.19,6.19,0,0,0,1.77-1.83,8.38,8.38,0,0,0,1.12-2.89,9.22,9.22,0,0,0,.18-1.69s0-.06,0-.07l-2,.05H171v0a7.1,7.1,0,0,1-.66,2.86,4.09,4.09,0,0,1-1.37,1.61,4.75,4.75,0,0,1-2.73.73,5.25,5.25,0,0,1-2.42-.51,3.68,3.68,0,0,1-1.72-1.88,5.56,5.56,0,0,1-.44-2.14c0-.13,0-.25,0-.34a4,4,0,0,1,.38-1.42,6,6,0,0,1,1.48-1.8c.71-.64,1.66-1.36,2.76-2.28a38.41,38.41,0,0,0,4.67-4.33,13.63,13.63,0,0,0,1.7-2.35,5.79,5.79,0,0,0,.76-2.39h0v-.14h0v-2.18H159.26v3.77Z"/></g></g></svg>