<svg xmlns="http://www.w3.org/2000/svg" viewBox="0 0 179.58 250.45"><defs><style>.cls-1{fill:#f9faf9;stroke:#231815;}.cls-2{fill:#e13837;}</style></defs><title>资源 3</title><g id="图层_2" data-name="图层 2"><g id="three"><rect class="cls-1" x="0.5" y="0.5" width="178.58" height="249.45" rx="14.17" ry="14.17"/><path class="cls-2" d="M17.23,43.12c-1.25-.39-3.19.29-3.9,3.12-.06.16-.12.15-.18,0-1-2.87-2.72-3.49-3.91-3.12-1.76.57-3.19,2.67-3.06,5.36,0,4.68,4.23,7,7.06,11.52,2.83-4.48,7.07-6.83,7.08-11.54A4.94,4.94,0,0,0,17.23,43.12Z"/><path class="cls-2" d="M13.25,60l0,0,0,0Z"/><path class="cls-2" d="M166.33,190.42l0,0,0,0Z"/><path class="cls-2" d="M166.35,190.45c-2.83,4.48-7.07,6.83-7.08,11.54a4.94,4.94,0,0,0,3.09,5.34c1.25.39,3.19-.29,3.9-3.12.06-.15.12-.15.18,0,1,2.87,2.72,3.49,3.91,3.12,1.77-.57,3.19-2.67,3.06-5.36C173.37,197.29,169.18,194.93,166.35,190.45Z"/><path class="cls-2" d="M107.49,210.8c-.09-11.71-10.57-17.61-17.65-28.81-7.08,11.2-17.67,17.08-17.7,28.84-.61,6.78,3.18,12,7.72,13.36,3.12,1,8-.74,9.74-7.81.15-.39.3-.38.45,0,2.57,7.16,6.81,8.73,9.79,7.79C104.24,222.77,107.82,217.51,107.49,210.8Z"/><path class="cls-2" d="M89.79,181.92l0,.07,0-.07Z"/><path class="cls-2" d="M89.78,68.53l0-.07,0,.07Z"/><path class="cls-2" d="M99.73,26.26c-3.12-1-8,.74-9.75,7.8-.15.39-.3.38-.45,0-2.57-7.16-6.8-8.73-9.78-7.79-4.41,1.42-8,6.68-7.66,13.39.09,11.71,10.57,17.61,17.64,28.81,7.08-11.2,17.68-17.08,17.71-28.84C108.06,32.84,104.26,27.66,99.73,26.26Z"/><path class="cls-2" d="M89.78,146.48l0-.07,0,.07Z"/><path class="cls-2" d="M99.73,104.21c-3.12-1-8,.74-9.75,7.8-.15.39-.3.38-.45,0-2.57-7.16-6.8-8.73-9.78-7.79-4.41,1.42-8,6.68-7.66,13.39.09,11.71,10.57,17.61,17.64,28.81,7.08-11.2,17.68-17.08,17.71-28.84C108.06,110.79,104.26,105.61,99.73,104.21Z"/><path class="cls-2" d="M14.31,22.46l5.88-5.25h0v0h0V14.67H6.68v4.07H8.76V17.2h7.91l-7.77,7.2L10,26.06a4.52,4.52,0,0,1,3.08-1.24,4.91,4.91,0,0,1,3.64,1.68,6.39,6.39,0,0,1,0,8.11,4.91,4.91,0,0,1-3.64,1.68,4.62,4.62,0,0,1-3.5-1.68,6,6,0,0,1-1.33-2.78l-2.11.44c.68,3.72,3.53,6.5,6.94,6.51,3.92,0,7.23-3.68,7.23-8.22C20.34,26.49,17.68,23.12,14.31,22.46Z"/><polygon class="cls-2" points="10.03 26.06 10.03 26.06 10.03 26.06 10.03 26.06"/><path class="cls-2" d="M165.27,228l-5.88,5.25h0v0h0v2.51H172.9v-4.07h-2.08v1.54H162.9l7.77-7.2-1.12-1.66a4.52,4.52,0,0,1-3.08,1.24,4.91,4.91,0,0,1-3.64-1.68,6.39,6.39,0,0,1,0-8.11,4.91,4.91,0,0,1,3.64-1.68,4.61,4.61,0,0,1,3.5,1.68,6,6,0,0,1,1.33,2.78l2.11-.44c-.68-3.72-3.53-6.5-6.94-6.51-3.92,0-7.24,3.68-7.24,8.22C159.24,224,161.9,227.33,165.27,228Z"/><polygon class="cls-2" points="169.55 224.39 169.55 224.39 169.55 224.39 169.55 224.39"/></g></g></svg>