<svg xmlns="http://www.w3.org/2000/svg" viewBox="0 0 179.58 250.45"><defs><style>.cls-1{fill:#f9faf9;stroke:#231815;}.cls-2{fill:#e13837;}</style></defs><title>资源 4</title><g id="图层_2" data-name="图层 2"><g id="four"><rect class="cls-1" x="0.5" y="0.5" width="178.58" height="249.45" rx="14.17" ry="14.17"/><path class="cls-2" d="M17.23,43.12c-1.25-.39-3.19.29-3.9,3.12-.06.15-.12.15-.18,0-1-2.87-2.72-3.49-3.91-3.12-1.77.57-3.19,2.67-3.06,5.36,0,4.68,4.23,7,7.06,11.52,2.83-4.48,7.07-6.83,7.08-11.54A4.94,4.94,0,0,0,17.23,43.12Z"/><path class="cls-2" d="M13.25,60l0,0,0,0Z"/><path class="cls-2" d="M166.35,190.45c-2.83,4.48-7.07,6.83-7.08,11.54a4.94,4.94,0,0,0,3.09,5.34c1.25.39,3.19-.29,3.9-3.12.06-.15.12-.15.18,0,1,2.87,2.72,3.49,3.91,3.12,1.76-.57,3.19-2.67,3.06-5.36C173.37,197.29,169.18,194.93,166.35,190.45Z"/><path class="cls-2" d="M166.33,190.42l0,0,0,0Z"/><path class="cls-2" d="M56.5,26.26c-3.12-1-8,.74-9.75,7.8-.15.39-.3.38-.45,0-2.57-7.16-6.8-8.73-9.78-7.79-4.41,1.42-8,6.68-7.66,13.39C29,51.36,39.44,57.26,46.51,68.46c7.08-11.2,17.67-17.08,17.7-28.84C64.83,32.84,61,27.66,56.5,26.26Z"/><path class="cls-2" d="M46.56,68.53l0-.07,0,.07Z"/><path class="cls-2" d="M64.26,210.8c-.09-11.71-10.57-17.61-17.64-28.81-7.08,11.2-17.67,17.08-17.7,28.84-.61,6.78,3.18,12,7.72,13.36,3.12,1,8-.74,9.75-7.81.15-.39.3-.38.45,0,2.57,7.16,6.8,8.73,9.78,7.79C61,222.77,64.58,217.51,64.26,210.8Z"/><path class="cls-2" d="M46.57,181.92l0,.07,0-.07Z"/><path class="cls-2" d="M133,65.7l0-.07,0,.07Z"/><path class="cls-2" d="M143,23.43c-3.12-1-8,.74-9.75,7.8-.15.39-.3.38-.45,0-2.57-7.16-6.8-8.73-9.78-7.79-4.41,1.42-8,6.68-7.66,13.39.09,11.71,10.57,17.61,17.64,28.81,7.08-11.2,17.67-17.08,17.7-28.84C151.28,30,147.49,24.82,143,23.43Z"/><path class="cls-2" d="M150.72,210.8c-.09-11.71-10.57-17.61-17.64-28.81-7.08,11.2-17.67,17.08-17.7,28.84-.61,6.78,3.18,12,7.72,13.36,3.12,1,8-.74,9.75-7.81.15-.39.3-.38.45,0,2.57,7.16,6.8,8.73,9.78,7.79C147.47,222.77,151,217.51,150.72,210.8Z"/><path class="cls-2" d="M133,181.92l0,.07,0-.07Z"/><path class="cls-2" d="M20.34,32.63V30.24h-3V14.67H15L6.17,30.24v2.39h9v3.74h-1.5v2.39l5.24,0V36.36h-1.5V32.63ZM8.79,30.24l6.34-11.13V30.24Z"/><path class="cls-2" d="M159.24,217.82v2.39h3v15.57h2.31l8.88-15.57v-2.39h-9v-3.74h1.5v-2.39l-5.24,0v2.39h1.5v3.73Zm11.55,2.39-6.34,11.13V220.21Z"/></g></g></svg>