<svg xmlns="http://www.w3.org/2000/svg" viewBox="0 0 179.58 250.45"><defs><style>.cls-1{fill:#f9faf9;stroke:#231815;}.cls-2{fill:#e13837;}</style></defs><title>资源 5</title><g id="图层_2" data-name="图层 2"><g id="five"><rect class="cls-1" x="0.5" y="0.5" width="178.58" height="249.45" rx="14.17" ry="14.17"/><path class="cls-2" d="M13.25,60l0,0,0,0Z"/><path class="cls-2" d="M17.23,43.12c-1.25-.39-3.19.29-3.9,3.12-.06.15-.12.15-.18,0-1-2.87-2.72-3.49-3.91-3.12-1.76.57-3.19,2.67-3.06,5.36,0,4.68,4.23,7,7.06,11.52,2.83-4.48,7.07-6.83,7.08-11.54A4.94,4.94,0,0,0,17.23,43.12Z"/><path class="cls-2" d="M166.35,190.45c-2.83,4.48-7.07,6.83-7.08,11.54a4.94,4.94,0,0,0,3.09,5.34c1.25.39,3.19-.29,3.9-3.12.06-.15.12-.15.18,0,1,2.87,2.72,3.49,3.91,3.12,1.76-.57,3.19-2.67,3.06-5.36C173.37,197.29,169.18,194.93,166.35,190.45Z"/><path class="cls-2" d="M166.33,190.42l0,0,0,0Z"/><path class="cls-2" d="M56.5,23.43c-3.12-1-8,.74-9.75,7.8-.15.39-.3.38-.45,0-2.57-7.16-6.8-8.73-9.78-7.79-4.41,1.42-8,6.68-7.66,13.39C29,48.53,39.44,54.42,46.51,65.62c7.08-11.2,17.67-17.08,17.7-28.84C64.83,30,61,24.82,56.5,23.43Z"/><path class="cls-2" d="M46.56,65.7l0-.07,0,.07Z"/><path class="cls-2" d="M46.57,181.92l0,.07,0-.07Z"/><path class="cls-2" d="M64.26,210.8c-.09-11.71-10.57-17.61-17.64-28.81-7.08,11.2-17.67,17.08-17.7,28.84-.61,6.78,3.18,12,7.72,13.36,3.12,1,8-.73,9.75-7.8.15-.39.3-.38.45,0,2.57,7.16,6.8,8.73,9.78,7.79C61,222.77,64.59,217.51,64.26,210.8Z"/><path class="cls-2" d="M143,23.43c-3.12-1-8,.74-9.75,7.8-.15.39-.3.38-.45,0-2.57-7.16-6.8-8.73-9.78-7.79-4.41,1.42-8,6.68-7.66,13.39.09,11.71,10.57,17.61,17.64,28.81,7.08-11.2,17.67-17.08,17.7-28.84C151.28,30,147.49,24.82,143,23.43Z"/><path class="cls-2" d="M133,65.7l0-.07,0,.07Z"/><path class="cls-2" d="M150.72,208c-.09-11.71-10.57-17.61-17.64-28.81-7.08,11.2-17.67,17.08-17.7,28.84-.61,6.78,3.18,12,7.72,13.36,3.12,1,8-.74,9.75-7.8.15-.39.3-.38.44,0,2.57,7.16,6.8,8.73,9.78,7.79C147.47,219.93,151,214.67,150.72,208Z"/><path class="cls-2" d="M133,179.08l0,.07,0-.07Z"/><path class="cls-2" d="M99.73,104.21c-3.12-1-8,.74-9.75,7.8-.15.39-.3.38-.45,0-2.57-7.16-6.8-8.72-9.78-7.79-4.41,1.42-8,6.68-7.66,13.39.09,11.72,10.57,17.61,17.64,28.81,7.08-11.2,17.68-17.08,17.71-28.84C108.06,110.79,104.26,105.61,99.73,104.21Z"/><path class="cls-2" d="M89.78,146.48l0-.07,0,.07Z"/><path class="cls-2" d="M18.23,23.63A6.83,6.83,0,0,0,12.95,21a6.43,6.43,0,0,0-3.59,1.12V17h9.37V14.67H7.11v.83h0v9.73H9.36a5,5,0,0,1,3.59-1.9,4.63,4.63,0,0,1,3.58,1.85,7.79,7.79,0,0,1,0,9.37,4.63,4.63,0,0,1-3.58,1.85,4.36,4.36,0,0,1-2.77-1,6.36,6.36,0,0,1-1.91-2.78l-2.1.85a8.74,8.74,0,0,0,2.64,3.81,6.54,6.54,0,0,0,4.14,1.52h0a6.83,6.83,0,0,0,5.28-2.67,10.26,10.26,0,0,0,0-12.46Z"/><path class="cls-2" d="M161.35,226.81a6.83,6.83,0,0,0,5.29,2.67,6.43,6.43,0,0,0,3.59-1.12v5h-9.37v2.38h11.61v-.83h0v-9.73h-2.25a5,5,0,0,1-3.59,1.9,4.62,4.62,0,0,1-3.58-1.85,7.79,7.79,0,0,1,0-9.37,4.62,4.62,0,0,1,3.58-1.85,4.36,4.36,0,0,1,2.77,1,6.37,6.37,0,0,1,1.91,2.78l2.1-.85a8.73,8.73,0,0,0-2.64-3.81,6.54,6.54,0,0,0-4.14-1.52h0a6.83,6.83,0,0,0-5.28,2.67,10.25,10.25,0,0,0,0,12.46Z"/></g></g></svg>