<svg xmlns="http://www.w3.org/2000/svg" viewBox="0 0 179.58 250.45"><defs><style>.cls-1{fill:#f9faf9;stroke:#231815;}.cls-2{fill:#e13837;}</style></defs><title>资源 6</title><g id="图层_2" data-name="图层 2"><g id="six"><rect class="cls-1" x="0.5" y="0.5" width="178.58" height="249.45" rx="14.17" ry="14.17"/><path class="cls-2" d="M17.23,43.12c-1.25-.39-3.19.29-3.9,3.12-.06.15-.12.15-.18,0-1-2.86-2.72-3.49-3.91-3.12-1.76.57-3.19,2.67-3.06,5.36,0,4.68,4.23,7,7.06,11.52,2.83-4.48,7.07-6.83,7.08-11.54A4.94,4.94,0,0,0,17.23,43.12Z"/><path class="cls-2" d="M13.25,60l0,0,0,0Z"/><path class="cls-2" d="M166.33,190.42l0,0,0,0Z"/><path class="cls-2" d="M166.35,190.45c-2.83,4.48-7.07,6.83-7.08,11.54a4.94,4.94,0,0,0,3.09,5.34c1.25.39,3.19-.29,3.9-3.12.06-.15.12-.15.18,0,1,2.87,2.72,3.49,3.91,3.12,1.77-.57,3.2-2.67,3.06-5.36C173.37,197.29,169.18,194.93,166.35,190.45Z"/><path class="cls-2" d="M46.56,65.7l0-.07,0,.07Z"/><path class="cls-2" d="M56.5,23.43c-3.12-1-8,.74-9.75,7.8-.15.39-.3.38-.45,0-2.57-7.16-6.8-8.73-9.78-7.79-4.41,1.42-8,6.68-7.66,13.39C29,48.53,39.44,54.43,46.51,65.62c7.08-11.2,17.67-17.08,17.7-28.84C64.83,30,61,24.82,56.5,23.43Z"/><path class="cls-2" d="M46.57,181.92l0,.07,0-.07Z"/><path class="cls-2" d="M64.26,210.8c-.09-11.71-10.57-17.61-17.64-28.81-7.08,11.2-17.67,17.08-17.7,28.84-.61,6.78,3.18,12,7.72,13.36,3.12,1,8-.73,9.75-7.8.15-.39.3-.38.45,0,2.57,7.16,6.8,8.73,9.78,7.79C61,222.77,64.59,217.51,64.26,210.8Z"/><path class="cls-2" d="M133,145.07l0-.07,0,.07Z"/><path class="cls-2" d="M143,102.8c-3.12-1-8,.74-9.75,7.8-.15.39-.3.38-.45,0-2.57-7.16-6.8-8.73-9.78-7.79-4.41,1.42-8,6.68-7.66,13.39C115.41,127.9,125.89,133.8,133,145c7.08-11.2,17.67-17.08,17.7-28.84C151.28,109.37,147.49,104.19,143,102.8Z"/><path class="cls-2" d="M143,23.43c-3.12-1-8,.74-9.75,7.8-.15.39-.3.38-.44,0-2.57-7.16-6.8-8.73-9.78-7.79-4.41,1.42-8,6.68-7.66,13.39.09,11.71,10.57,17.61,17.64,28.81,7.08-11.2,17.67-17.08,17.7-28.84C151.28,30,147.49,24.82,143,23.43Z"/><path class="cls-2" d="M133,65.7l0-.07,0,.07Z"/><path class="cls-2" d="M133,181.92l0,.07,0-.07Z"/><path class="cls-2" d="M150.72,210.8c-.09-11.71-10.57-17.61-17.64-28.81-7.07,11.2-17.67,17.08-17.7,28.84-.61,6.78,3.18,12,7.72,13.36,3.12,1,8-.73,9.75-7.8.15-.39.3-.38.45,0,2.57,7.16,6.8,8.73,9.78,7.79C147.47,222.77,151,217.51,150.72,210.8Z"/><path class="cls-2" d="M46.56,145.07l0-.07,0,.07Z"/><path class="cls-2" d="M56.5,102.8c-3.12-1-8,.74-9.75,7.8-.15.39-.3.38-.45,0-2.57-7.16-6.8-8.73-9.78-7.79-4.41,1.42-8,6.68-7.66,13.39C29,127.9,39.44,133.8,46.51,145c7.08-11.2,17.67-17.08,17.7-28.84C64.83,109.37,61,104.19,56.5,102.8Z"/><path class="cls-2" d="M18.52,24a6.59,6.59,0,0,0-2.23-1.89,6.41,6.41,0,0,0-2.94-.69h-.08a6.19,6.19,0,0,0-2.95.77A6.58,6.58,0,0,0,8.76,23.4c0-.25.08-.49.13-.71.13-.68.26-1.21.36-1.58l.12-.41,0-.1v0h0v-.06h0a5.92,5.92,0,0,1,.91-1.74,4.5,4.5,0,0,1,1.24-1.13,4.07,4.07,0,0,1,1.92-.58h.32a4.59,4.59,0,0,1,3,1,4.24,4.24,0,0,1,.66.66l.14.19,0,0h0l.54-.39,1.3-.89A5.89,5.89,0,0,0,18,16.12a6.67,6.67,0,0,0-4.24-1.45h-.43a6.12,6.12,0,0,0-2.95.92A7.23,7.23,0,0,0,8,18.25a7.91,7.91,0,0,0-.66,1.55,29.67,29.67,0,0,0-1.16,8.38c0,.85,0,1.75.13,2.67a9.32,9.32,0,0,0,1.9,5.44,6.42,6.42,0,0,0,5.06,2.48h0a6.25,6.25,0,0,0,3-.72,7.27,7.27,0,0,0,3.06-3.27A10.83,10.83,0,0,0,20.34,30,9.91,9.91,0,0,0,18.52,24ZM16.79,34.57a4.6,4.6,0,0,1-1.51,1.32,4.23,4.23,0,0,1-2,.48A4.3,4.3,0,0,1,9.84,34.7a6.72,6.72,0,0,1-1.35-3.76h0c0-.09,0-.18,0-.27s0-.23,0-.34a8,8,0,0,1,1.34-4.64,4.63,4.63,0,0,1,1.5-1.35,4.14,4.14,0,0,1,2-.51h.06a4.38,4.38,0,0,1,2,.46,4.68,4.68,0,0,1,2,2.15A8.07,8.07,0,0,1,18.16,30,7.64,7.64,0,0,1,16.79,34.57Z"/><path class="cls-2" d="M161.06,226.46a6.59,6.59,0,0,0,2.23,1.89,6.4,6.4,0,0,0,2.94.69h.08a6.19,6.19,0,0,0,2.95-.77,6.61,6.61,0,0,0,1.56-1.22c0,.25-.08.49-.13.71-.13.68-.26,1.21-.36,1.58l-.12.41,0,.1v0h0v.06h0a6,6,0,0,1-.91,1.74,4.51,4.51,0,0,1-1.24,1.13,4.07,4.07,0,0,1-1.92.58h-.32a4.6,4.6,0,0,1-3-1,4.19,4.19,0,0,1-.66-.66l-.14-.19,0,0h0l-.54.39-1.3.89a5.89,5.89,0,0,0,1.39,1.55,6.67,6.67,0,0,0,4.24,1.45h.43a6.11,6.11,0,0,0,2.95-.92,7.22,7.22,0,0,0,2.44-2.65,7.83,7.83,0,0,0,.66-1.55,29.62,29.62,0,0,0,1.16-8.37c0-.85,0-1.75-.13-2.67a9.33,9.33,0,0,0-1.9-5.44,6.42,6.42,0,0,0-5.06-2.48h0a6.27,6.27,0,0,0-3,.72,7.27,7.27,0,0,0-3.05,3.27,10.84,10.84,0,0,0-1.06,4.79A9.9,9.9,0,0,0,161.06,226.46Zm1.73-10.57a4.59,4.59,0,0,1,1.51-1.32,4.21,4.21,0,0,1,2-.48,4.3,4.3,0,0,1,3.44,1.67,6.73,6.73,0,0,1,1.35,3.76h0c0,.09,0,.18,0,.28s0,.23,0,.34a8,8,0,0,1-1.34,4.64,4.64,4.64,0,0,1-1.5,1.35,4.14,4.14,0,0,1-2,.51h-.06a4.37,4.37,0,0,1-2-.46,4.67,4.67,0,0,1-2-2.15,8.06,8.06,0,0,1-.76-3.57A7.64,7.64,0,0,1,162.79,215.88Z"/></g></g></svg>