<svg xmlns="http://www.w3.org/2000/svg" viewBox="0 0 179.58 250.45"><defs><style>.cls-1{fill:#f9faf9;stroke:#231815;}.cls-2{fill:#e13837;}</style></defs><title>资源 7</title><g id="图层_2" data-name="图层 2"><g id="seven"><rect class="cls-1" x="0.5" y="0.5" width="178.58" height="249.45" rx="14.17" ry="14.17"/><path class="cls-2" d="M13.25,60l0,0,0,0Z"/><path class="cls-2" d="M17.23,43.12c-1.25-.39-3.19.29-3.9,3.12-.06.16-.12.15-.18,0-1-2.86-2.72-3.49-3.91-3.12-1.76.57-3.19,2.67-3.06,5.36,0,4.68,4.23,7,7.06,11.52,2.83-4.48,7.07-6.83,7.08-11.54A4.94,4.94,0,0,0,17.23,43.12Z"/><path class="cls-2" d="M166.33,190.42l0,0,0,0Z"/><path class="cls-2" d="M166.35,190.45c-2.83,4.48-7.07,6.83-7.08,11.54a4.94,4.94,0,0,0,3.09,5.34c1.25.39,3.19-.29,3.9-3.12.06-.15.12-.15.18,0,1,2.87,2.72,3.49,3.91,3.12,1.77-.57,3.19-2.67,3.06-5.36C173.37,197.29,169.18,194.93,166.35,190.45Z"/><path class="cls-2" d="M56.5,23.43c-3.12-1-8,.74-9.75,7.8-.15.39-.3.38-.45,0-2.57-7.16-6.8-8.73-9.78-7.79-4.41,1.42-8,6.68-7.66,13.39C29,48.53,39.43,54.43,46.51,65.62c7.08-11.2,17.67-17.08,17.7-28.84C64.83,30,61,24.82,56.5,23.43Z"/><path class="cls-2" d="M46.56,65.7l0-.07,0,.07Z"/><path class="cls-2" d="M64.26,210.8c-.09-11.71-10.57-17.61-17.64-28.81-7.08,11.2-17.67,17.08-17.7,28.84-.61,6.78,3.18,12,7.72,13.36,3.12,1,8-.73,9.75-7.8.15-.39.3-.38.45,0,2.57,7.16,6.8,8.73,9.78,7.79C61,222.77,64.59,217.51,64.26,210.8Z"/><path class="cls-2" d="M46.57,181.92l0,.07,0-.07Z"/><path class="cls-2" d="M133,146.48l0-.07,0,.07Z"/><path class="cls-2" d="M143,104.21c-3.12-1-8,.74-9.75,7.8-.15.39-.3.38-.45,0-2.57-7.16-6.8-8.73-9.78-7.79-4.41,1.42-8,6.68-7.66,13.39.09,11.71,10.57,17.61,17.64,28.81,7.08-11.2,17.67-17.08,17.7-28.84C151.28,110.79,147.49,105.61,143,104.21Z"/><path class="cls-2" d="M133,65.7l0-.07,0,.07Z"/><path class="cls-2" d="M143,23.43c-3.12-1-8,.74-9.75,7.8-.15.39-.3.38-.45,0-2.57-7.16-6.8-8.73-9.78-7.79-4.41,1.42-8,6.68-7.66,13.39.09,11.71,10.57,17.61,17.64,28.81,7.08-11.2,17.67-17.08,17.7-28.84C151.28,30,147.49,24.82,143,23.43Z"/><path class="cls-2" d="M150.72,210.8c-.09-11.71-10.57-17.61-17.64-28.81-7.08,11.2-17.67,17.08-17.7,28.84-.61,6.78,3.18,12,7.72,13.36,3.12,1,8-.73,9.75-7.8.15-.39.3-.38.45,0,2.57,7.16,6.8,8.73,9.78,7.79C147.47,222.77,151,217.51,150.72,210.8Z"/><path class="cls-2" d="M133,181.92l0,.07,0-.07Z"/><path class="cls-2" d="M56.5,104.21c-3.12-1-8,.73-9.75,7.8-.15.39-.3.38-.45,0-2.57-7.16-6.8-8.73-9.78-7.79-4.41,1.42-8,6.68-7.66,13.39.09,11.71,10.57,17.61,17.64,28.81,7.08-11.2,17.67-17.08,17.7-28.84C64.83,110.79,61,105.61,56.5,104.21Z"/><path class="cls-2" d="M46.56,146.48l0-.07,0,.07Z"/><path class="cls-2" d="M99.73,57.44c-3.12-1-8,.74-9.75,7.81-.15.39-.3.38-.45,0-2.57-7.16-6.8-8.73-9.78-7.79-4.41,1.42-8,6.68-7.65,13.39.09,11.71,10.57,17.61,17.64,28.81,7.08-11.2,17.68-17.08,17.71-28.84C108.06,64,104.26,58.84,99.73,57.44Z"/><path class="cls-2" d="M89.78,99.71l0-.07,0,.07Z"/><path class="cls-2" d="M6.17,14.67v1.44h0v2.45H8.4V17.08h9.34A63.63,63.63,0,0,0,11,38.77h2.24a57.91,57.91,0,0,1,3.88-15.41C17.9,21.46,18.66,20,19.22,19c.28-.5.5-.88.66-1.14l.47-.77V14.67Z"/><path class="cls-2" d="M173.41,235.77v-1.44h0v-2.45h-2.23v1.49h-9.35a63.6,63.6,0,0,0,6.77-21.69h-2.24a57.92,57.92,0,0,1-3.88,15.41c-.81,1.89-1.57,3.37-2.12,4.37-.28.5-.5.88-.66,1.14l-.47.77v2.41Z"/></g></g></svg>