<svg xmlns="http://www.w3.org/2000/svg" viewBox="0 0 179.58 250.45"><defs><style>.cls-1{fill:#f9faf9;stroke:#231815;}.cls-2{fill:#e13837;}</style></defs><title>资源 8</title><g id="图层_2" data-name="图层 2"><g id="eight"><rect class="cls-1" x="0.5" y="0.5" width="178.58" height="249.45" rx="14.17" ry="14.17"/><path class="cls-2" d="M166.35,190.45c-2.83,4.48-7.07,6.83-7.08,11.54a4.94,4.94,0,0,0,3.08,5.34c1.25.39,3.19-.29,3.9-3.12.06-.15.12-.15.18,0,1,2.87,2.72,3.49,3.91,3.12,1.77-.57,3.19-2.67,3.06-5.36C173.37,197.29,169.18,194.93,166.35,190.45Z"/><path class="cls-2" d="M166.33,190.42l0,0,0,0Z"/><path class="cls-2" d="M13.25,60l0,0,0,0Z"/><path class="cls-2" d="M17.23,43.12c-1.25-.39-3.18.3-3.9,3.12-.06.16-.12.15-.18,0-1-2.87-2.72-3.49-3.91-3.12-1.77.57-3.19,2.67-3.06,5.36,0,4.68,4.23,7,7.06,11.52,2.83-4.48,7.07-6.83,7.08-11.54A4.94,4.94,0,0,0,17.23,43.12Z"/><path class="cls-2" d="M150.71,210.79c-.09-11.71-10.57-17.61-17.64-28.81-7.08,11.2-17.67,17.08-17.7,28.84-.61,6.78,3.18,12,7.72,13.36,3.12,1,8-.74,9.75-7.81.14-.39.3-.38.45,0,2.57,7.16,6.8,8.73,9.78,7.79C147.47,222.76,151,217.5,150.71,210.79Z"/><path class="cls-2" d="M133,181.91l0,.07,0-.07Z"/><path class="cls-2" d="M133,65.7l0-.07,0,.07Z"/><path class="cls-2" d="M143,23.43c-3.12-1-8,.74-9.75,7.8-.14.39-.3.38-.44,0-2.57-7.16-6.8-8.73-9.79-7.79-4.41,1.42-8,6.68-7.66,13.39.09,11.71,10.57,17.61,17.64,28.81,7.08-11.2,17.68-17.08,17.7-28.84C151.28,30,147.49,24.82,143,23.43Z"/><path class="cls-2" d="M143,104.21c-3.12-1-8,.74-9.75,7.8-.14.39-.3.38-.44,0-2.57-7.16-6.8-8.73-9.79-7.79-4.41,1.42-8,6.68-7.66,13.39.09,11.71,10.57,17.61,17.64,28.81,7.08-11.2,17.68-17.08,17.7-28.84C151.28,110.79,147.49,105.61,143,104.21Z"/><path class="cls-2" d="M133,146.48l0-.07,0,.07Z"/><path class="cls-2" d="M61.42,208c-.09-11.71-10.57-17.61-17.64-28.81-7.08,11.2-17.67,17.08-17.7,28.84-.61,6.78,3.18,12,7.72,13.36,3.12,1,8-.74,9.74-7.81.15-.39.31-.38.45,0,2.57,7.16,6.8,8.73,9.78,7.79C58.18,219.93,61.75,214.67,61.42,208Z"/><path class="cls-2" d="M43.73,179.08l0,.07,0-.07Z"/><path class="cls-2" d="M53.66,23.43c-3.12-1-8,.73-9.74,7.8-.15.39-.31.38-.45,0-2.57-7.16-6.8-8.73-9.78-7.79-4.41,1.42-8,6.68-7.66,13.39.09,11.71,10.57,17.61,17.64,28.81,7.07-11.2,17.67-17.08,17.7-28.84C62,30,58.2,24.82,53.66,23.43Z"/><path class="cls-2" d="M43.73,65.7l0-.07,0,.07Z"/><path class="cls-2" d="M53.66,104.21c-3.12-1-8,.73-9.74,7.8-.15.39-.31.38-.45,0-2.57-7.16-6.8-8.73-9.78-7.79-4.41,1.42-8,6.68-7.66,13.39.09,11.71,10.57,17.61,17.64,28.81,7.07-11.2,17.67-17.08,17.7-28.84C62,110.79,58.2,105.61,53.66,104.21Z"/><path class="cls-2" d="M43.73,146.48l0-.07,0,.07Z"/><path class="cls-2" d="M107.49,169.69c-.08-11.71-10.57-17.61-17.64-28.81-7.08,11.2-17.68,17.08-17.71,28.84-.61,6.78,3.18,12,7.71,13.36,3.12,1,8-.74,9.75-7.81.15-.39.3-.38.45,0,2.57,7.16,6.8,8.73,9.78,7.79C104.24,181.66,107.81,176.4,107.49,169.69Z"/><path class="cls-2" d="M89.8,140.81l0,.07,0-.07Z"/><path class="cls-2" d="M99.72,64.53c-3.12-1-8,.74-9.74,7.8-.15.39-.31.38-.45,0-2.57-7.16-6.81-8.73-9.78-7.79-4.41,1.42-8,6.68-7.66,13.39.09,11.71,10.57,17.61,17.64,28.81,7.07-11.2,17.67-17.08,17.7-28.84C108.05,71.11,104.25,65.92,99.72,64.53Z"/><path class="cls-2" d="M89.79,106.8l0-.07,0,.07Z"/><path class="cls-2" d="M18.22,26.61a7.1,7.1,0,0,0-1.22-1,6.12,6.12,0,1,0-8-.46,6.29,6.29,0,0,0,.54.46,7.18,7.18,0,0,0-1.22,1,7.09,7.09,0,1,0,9.93,0ZM10.43,18.2a4,4,0,0,1,2.82-1.14h0a4,4,0,0,1,2.83,1.14,3.61,3.61,0,0,1,0,5.21,4.07,4.07,0,0,1-5.65,0,3.61,3.61,0,0,1,0-5.21Zm6.24,16.65a4.92,4.92,0,0,1-6.83,0,4.41,4.41,0,0,1,0-6.35,4.86,4.86,0,0,1,3.42-1.38h0a4.86,4.86,0,0,1,3.42,1.38,4.41,4.41,0,0,1,0,6.35Z"/><path class="cls-2" d="M161.36,223.84a7.15,7.15,0,0,0,1.22,1,6.37,6.37,0,0,0-.54.46,6.12,6.12,0,1,0,8.57,0,6.23,6.23,0,0,0-.54-.46,7.1,7.1,0,0,0,1.22-11.08,7.09,7.09,0,0,0-9.93,10.13Zm7.79,8.41a4,4,0,0,1-2.82,1.14h0a4,4,0,0,1-2.83-1.14,3.61,3.61,0,0,1,0-5.21,4.07,4.07,0,0,1,5.65,0,3.61,3.61,0,0,1,0,5.21Zm-6.24-16.65a4.92,4.92,0,0,1,6.83,0,4.41,4.41,0,0,1,0,6.35,4.86,4.86,0,0,1-3.42,1.38h0a4.86,4.86,0,0,1-3.42-1.38,4.41,4.41,0,0,1,0-6.35Z"/></g></g></svg>