<svg xmlns="http://www.w3.org/2000/svg" viewBox="0 0 179.58 250.45"><defs><style>.cls-1{fill:#f9faf9;stroke:#231815;}.cls-2{fill:#e13837;}</style></defs><title>资源 9</title><g id="图层_2" data-name="图层 2"><g id="nine"><rect class="cls-1" x="0.5" y="0.5" width="178.58" height="249.45" rx="14.17" ry="14.17"/><path class="cls-2" d="M17.23,43.12c-1.25-.39-3.19.29-3.9,3.12-.06.16-.12.15-.18,0-1-2.86-2.72-3.49-3.91-3.12-1.76.57-3.19,2.67-3.06,5.36,0,4.68,4.22,7,7.06,11.52,2.83-4.48,7.07-6.83,7.08-11.54A4.94,4.94,0,0,0,17.23,43.12Z"/><path class="cls-2" d="M13.25,60l0,0,0,0Z"/><path class="cls-2" d="M166.35,190.45c-2.83,4.48-7.07,6.83-7.08,11.53a4.94,4.94,0,0,0,3.09,5.34c1.25.39,3.19-.3,3.9-3.12.06-.16.12-.15.18,0,1,2.87,2.72,3.49,3.91,3.12,1.77-.57,3.2-2.67,3.06-5.36C173.37,197.29,169.18,194.93,166.35,190.45Z"/><path class="cls-2" d="M166.33,190.42l0,0,0,0Z"/><path class="cls-2" d="M56.5,23.43c-3.12-1-8,.74-9.75,7.81-.15.39-.3.38-.44,0-2.57-7.16-6.8-8.73-9.78-7.79-4.41,1.42-8,6.68-7.66,13.39C29,48.53,39.43,54.42,46.51,65.62c7.08-11.2,17.67-17.08,17.7-28.84C64.83,30,61,24.82,56.5,23.43Z"/><path class="cls-2" d="M46.56,65.7l0-.08,0,.08Z"/><path class="cls-2" d="M46.56,118.61l0-.08,0,.08Z"/><path class="cls-2" d="M56.5,76.34c-3.12-1-8,.74-9.75,7.81-.15.39-.3.38-.44,0-2.57-7.16-6.8-8.73-9.78-7.79-4.41,1.42-8,6.68-7.66,13.39.09,11.71,10.57,17.61,17.64,28.8,7.08-11.2,17.67-17.08,17.7-28.84C64.83,82.92,61,77.74,56.5,76.34Z"/><path class="cls-2" d="M46.57,181.92l0,.07,0-.07Z"/><path class="cls-2" d="M64.26,210.8c-.09-11.71-10.57-17.61-17.64-28.81-7.07,11.2-17.67,17.08-17.7,28.84-.61,6.78,3.18,12,7.72,13.36,3.12,1,8-.74,9.75-7.8.15-.39.3-.38.45,0,2.57,7.16,6.8,8.73,9.78,7.79C61,222.77,64.59,217.51,64.26,210.8Z"/><path class="cls-2" d="M46.57,129l0,.07,0-.07Z"/><path class="cls-2" d="M64.26,157.88c-.09-11.71-10.57-17.61-17.64-28.81-7.07,11.2-17.67,17.08-17.7,28.84-.61,6.78,3.18,12,7.72,13.36,3.12,1,8-.74,9.75-7.81.15-.39.3-.38.45,0,2.57,7.16,6.8,8.73,9.78,7.79C61,169.85,64.59,164.59,64.26,157.88Z"/><path class="cls-2" d="M133,65.7l0-.08,0,.08Z"/><path class="cls-2" d="M143,23.43c-3.12-1-8,.74-9.75,7.81-.14.39-.3.38-.45,0-2.57-7.16-6.8-8.73-9.78-7.79-4.41,1.42-8,6.68-7.66,13.39.09,11.71,10.57,17.61,17.64,28.8,7.08-11.2,17.67-17.08,17.7-28.84C151.28,30,147.49,24.82,143,23.43Z"/><path class="cls-2" d="M133,118.61l0-.08,0,.08Z"/><path class="cls-2" d="M143,76.34c-3.12-1-8,.74-9.75,7.81-.14.39-.3.38-.45,0C130.19,77,126,75.4,123,76.34c-4.41,1.42-8,6.68-7.66,13.39.09,11.71,10.57,17.61,17.64,28.8,7.08-11.2,17.67-17.08,17.7-28.84C151.28,82.92,147.49,77.74,143,76.34Z"/><path class="cls-2" d="M133,181.92l0,.08,0-.08Z"/><path class="cls-2" d="M150.72,210.8c-.09-11.71-10.57-17.61-17.64-28.81-7.08,11.2-17.68,17.08-17.7,28.84-.62,6.78,3.18,12,7.72,13.36,3.12,1,8-.74,9.75-7.8.14-.39.3-.38.44,0,2.57,7.16,6.8,8.73,9.79,7.79C147.47,222.77,151,217.51,150.72,210.8Z"/><path class="cls-2" d="M150.72,157.88c-.09-11.71-10.57-17.61-17.64-28.8-7.08,11.2-17.68,17.08-17.7,28.84-.62,6.78,3.18,12,7.72,13.36,3.12,1,8-.74,9.75-7.8.14-.39.3-.38.44,0,2.57,7.16,6.8,8.73,9.79,7.79C147.47,169.85,151,164.59,150.72,157.88Z"/><path class="cls-2" d="M133,129l0,.08,0-.08Z"/><path class="cls-2" d="M89.78,146.48l0-.07,0,.07Z"/><path class="cls-2" d="M99.73,104.21c-3.12-1-8,.74-9.75,7.81-.15.39-.3.38-.45,0-2.57-7.16-6.8-8.73-9.78-7.79-4.41,1.42-8,6.68-7.65,13.39.09,11.71,10.57,17.61,17.64,28.81,7.08-11.2,17.68-17.08,17.71-28.84C108.05,110.79,104.26,105.61,99.73,104.21Z"/><path class="cls-2" d="M20.15,22a8.72,8.72,0,0,0-1.86-5,6.37,6.37,0,0,0-5-2.38h0a6.28,6.28,0,0,0-2.9.69,7,7,0,0,0-3,3.13,10.17,10.17,0,0,0-1,4.58,9.32,9.32,0,0,0,1.79,5.74,6.29,6.29,0,0,0,5.08,2.47h.07a6.18,6.18,0,0,0,2.9-.74A6.59,6.59,0,0,0,18.11,29,12.41,12.41,0,0,1,17,33.92a4.51,4.51,0,0,1-1.54,1.77,4.91,4.91,0,0,1-2.75.72,4.52,4.52,0,0,1-2.16-.51,5.09,5.09,0,0,1-1.85-1.75,6,6,0,0,1-.41-.75l-.09-.21,0,0h0l-2,.79A8,8,0,0,0,7.6,36.36a7,7,0,0,0,2,1.65,6.61,6.61,0,0,0,3.12.75h0a7,7,0,0,0,3.87-1.06,6.51,6.51,0,0,0,1.89-1.9,10.29,10.29,0,0,0,1.4-3.55,20.3,20.3,0,0,0,.38-3.41c0-.71,0-1.39,0-2C20.34,24.43,20.18,22.38,20.15,22Zm-3.44,5.16a4.49,4.49,0,0,1-1.47,1.3,4.14,4.14,0,0,1-1.95.49h-.05a4.39,4.39,0,0,1-2-.44,4.52,4.52,0,0,1-2-2.06,7.53,7.53,0,0,1-.75-3.41A7.19,7.19,0,0,1,9.85,18.7a4.46,4.46,0,0,1,1.49-1.26,4.38,4.38,0,0,1,5.35,1.14A6.56,6.56,0,0,1,18,22.76,7.49,7.49,0,0,1,16.71,27.21Z"/><path class="cls-2" d="M159.43,228.4a8.71,8.71,0,0,0,1.86,5,6.37,6.37,0,0,0,5,2.38h0a6.29,6.29,0,0,0,2.9-.69,7,7,0,0,0,3-3.13,10.17,10.17,0,0,0,1-4.58,9.32,9.32,0,0,0-1.79-5.74,6.29,6.29,0,0,0-5.08-2.47h-.08a6.17,6.17,0,0,0-2.89.74,6.59,6.59,0,0,0-1.9,1.57,12.38,12.38,0,0,1,1.06-4.93,4.52,4.52,0,0,1,1.54-1.77,4.92,4.92,0,0,1,2.75-.72,4.53,4.53,0,0,1,2.16.51,5.08,5.08,0,0,1,1.85,1.75,6,6,0,0,1,.41.75l.09.21,0,0h0l2-.79a8,8,0,0,0-1.43-2.42,7,7,0,0,0-2-1.65,6.6,6.6,0,0,0-3.12-.75h0a7,7,0,0,0-3.87,1.06,6.5,6.5,0,0,0-1.89,1.9,10.29,10.29,0,0,0-1.4,3.55,20.31,20.31,0,0,0-.38,3.41c0,.71,0,1.39,0,2C159.24,226,159.41,228.06,159.43,228.4Zm3.44-5.16a4.53,4.53,0,0,1,1.47-1.3,4.14,4.14,0,0,1,1.95-.49h.05a4.36,4.36,0,0,1,2,.44,4.52,4.52,0,0,1,2,2.06,7.53,7.53,0,0,1,.75,3.41,7.19,7.19,0,0,1-1.34,4.38,4.47,4.47,0,0,1-1.49,1.26,4.38,4.38,0,0,1-5.34-1.14,6.56,6.56,0,0,1-1.35-4.2A7.49,7.49,0,0,1,162.87,223.24Z"/></g></g></svg>