<svg xmlns="http://www.w3.org/2000/svg" viewBox="0 0 179.58 250.45"><defs><style>.cls-1{fill:#f9faf9;}.cls-1,.cls-10,.cls-11,.cls-12,.cls-13,.cls-14,.cls-15,.cls-16,.cls-2,.cls-4,.cls-6,.cls-7,.cls-8,.cls-9{stroke:#231815;}.cls-10,.cls-11,.cls-12,.cls-13,.cls-14,.cls-15,.cls-16,.cls-2,.cls-5,.cls-6,.cls-7,.cls-8,.cls-9{fill:#231815;}.cls-10,.cls-11,.cls-12,.cls-13,.cls-14,.cls-15,.cls-16,.cls-2,.cls-4,.cls-6,.cls-7,.cls-8,.cls-9{stroke-linejoin:round;}.cls-2{stroke-width:0.07px;}.cls-14,.cls-15,.cls-2,.cls-4,.cls-6{fill-rule:evenodd;}.cls-3,.cls-4{fill:none;}.cls-4{stroke-width:1.5px;}.cls-6,.cls-7{stroke-width:0.46px;}.cls-8{stroke-width:0.35px;}.cls-9{stroke-width:0.26px;}.cls-10,.cls-11,.cls-12,.cls-16{stroke-linecap:round;}.cls-10{stroke-width:0.1px;}.cls-11{stroke-width:0.05px;}.cls-12{stroke-width:0.02px;}.cls-13{stroke-width:0.2px;}.cls-14{stroke-width:0.02px;}.cls-15{stroke-width:0.04px;}.cls-16{stroke-width:0.03px;}</style></defs><title>资源 1</title><g id="图层_2" data-name="图层 2"><g id="ace"><rect class="cls-1" x="0.5" y="0.5" width="178.58" height="249.45" rx="14.17" ry="14.17"/><path class="cls-2" d="M13.25,43l-.12.07c-3,1.94-6.58,5.72-6.95,10.44A3.29,3.29,0,0,0,9.3,57.37,2.93,2.93,0,0,0,12,56.16c.43-.67.54-1.7.61-1.22.25,1.82-.51,3.56-.92,5.09a4.92,4.92,0,0,1,1.61-.25h0a4.91,4.91,0,0,1,1.61.25c-.41-1.53-1.17-3.27-.92-5.09.07-.48.18.55.61,1.22a2.93,2.93,0,0,0,2.65,1.2,3.29,3.29,0,0,0,3.12-3.83C20,48.82,16.42,45,13.39,43.09L13.28,43Z"/><path class="cls-2" d="M166.32,207.43l-.12-.07c-3-1.94-6.58-5.72-6.95-10.44a3.29,3.29,0,0,1,3.12-3.83,2.93,2.93,0,0,1,2.65,1.2c.43.67.54,1.7.61,1.22.25-1.82-.51-3.56-.92-5.09a4.92,4.92,0,0,0,1.61.25h0a4.91,4.91,0,0,0,1.61-.25c-.41,1.53-1.17,3.27-.92,5.09.07.48.18-.55.61-1.22a2.93,2.93,0,0,1,2.65-1.2,3.29,3.29,0,0,1,3.12,3.83c-.36,4.72-3.91,8.5-6.94,10.44l-.11.07Z"/><polygon class="cls-3" points="164.22 219.82 168.54 219.82 166.38 231.38 164.22 219.82"/><path d="M173.41,214v-2.3H168V214h1.67l-.62,3.34h-5.26l-.62-3.33h1.57v-2.3h-5.45V214h1.71L165,235.76h.54v0l2.19,0L171.8,214Zm-4.87,5.84-2.16,11.55-2.17-11.56Z"/><polygon class="cls-3" points="11.14 30.63 15.47 30.63 13.31 19.07 11.14 30.63"/><path d="M18.73,36.47,14.66,14.7l-2.19,0v0h-.54L7.88,36.47H6.17v2.3h5.45v-2.3H10l.63-3.33h5.26l.62,3.34H14.89v2.3h5.45v-2.3Zm-7.59-5.83,2.17-11.56,2.16,11.55Z"/><path class="cls-4" d="M89.68,70.15l-.54.39C75.05,81,58.63,101.4,56.94,126.84c-.8,12.1,5.85,20.48,14.45,20.66,5.49.12,9.9-2.15,12.29-6.49,2-3.6,2.5-9.16,2.82-6.59,1.16,9.79-2.37,19.21-4.28,27.43a19.94,19.94,0,0,1,7.48-1.36h0a19.89,19.89,0,0,1,7.47,1.36c-1.91-8.22-5.43-17.64-4.27-27.43.32-2.57.83,3,2.81,6.59,2.39,4.33,6.8,6.6,12.29,6.49,8.6-.18,15.25-8.56,14.45-20.66C120.82,101.4,104.39,81,90.32,70.54a3.25,3.25,0,0,0-.51-.39Z"/><path class="cls-5" d="M66.45,132.81c0-.2,0-.4,0-.6h0a9.09,9.09,0,0,1,8.5-9.07h0l.74,0h0a11.24,11.24,0,0,1,11.21,10.51h0a.5.5,0,0,1-.47.53h0a.5.5,0,0,1-.53-.47h0a10.24,10.24,0,0,0-10.21-9.58h0l-.68,0h0a8.09,8.09,0,0,0-7.57,8.07h0c0,.18,0,.35,0,.54h0a6.37,6.37,0,0,0,6.35,6h.42a5,5,0,0,0,4.67-5h0c0-.11,0-.22,0-.33h0A3.9,3.9,0,0,0,75,129.72h-.26a3,3,0,0,0-2.82,3h0c0,.07,0,.13,0,.2h0a2.32,2.32,0,0,0,2.31,2.16h.15A1.75,1.75,0,0,0,76,133.36h0s0-.08,0-.12h0a1.3,1.3,0,0,0-1.3-1.22h-.08a.94.94,0,0,0-.88.94h0s0,0,0,.05h0a.5.5,0,0,1-.45.54h0a.5.5,0,0,1-.54-.45h0c0-.06,0-.1,0-.14h0a1.94,1.94,0,0,1,1.8-1.93h.17a2.3,2.3,0,0,1,2.3,2.16h0c0,.06,0,.11,0,.18h0a2.75,2.75,0,0,1-2.59,2.75h-.2a3.32,3.32,0,0,1-3.31-3.1h0c0-.09,0-.18,0-.27h0a4,4,0,0,1,3.75-4H75a4.9,4.9,0,0,1,4.89,4.58h0c0,.13,0,.26,0,.39h0a6,6,0,0,1-5.61,6H73.8a7.38,7.38,0,0,1-7.35-6.89Z"/><path class="cls-5" d="M105.2,139.68a6,6,0,0,1-5.6-6h0c0-.13,0-.26,0-.4h0a4.89,4.89,0,0,1,4.88-4.58h.32a4,4,0,0,1,3.75,4h0c0,.09,0,.18,0,.27h0a3.31,3.31,0,0,1-3.3,3.1H105a2.75,2.75,0,0,1-2.57-2.75h0c0-.06,0-.12,0-.18h0a2.3,2.3,0,0,1,2.29-2.15h.15a1.94,1.94,0,0,1,1.81,1.94h0s0,.08,0,.11h0a.5.5,0,0,1-.52.48h0a.5.5,0,0,1-.48-.52h0s0-.06,0-.08h0a.94.94,0,0,0-.89-.94h-.07a1.31,1.31,0,0,0-1.3,1.24h0a.84.84,0,0,0,0,.1h0a1.75,1.75,0,0,0,1.62,1.75h.16a2.31,2.31,0,0,0,2.3-2.16h0c0-.07,0-.14,0-.21h0a3,3,0,0,0-2.83-3h-.25a3.9,3.9,0,0,0-3.88,3.65h0c0,.1,0,.21,0,.33h0a5,5,0,0,0,4.66,5h.42a6.37,6.37,0,0,0,6.34-6h0c0-.18,0-.36,0-.54h0a8.09,8.09,0,0,0-7.55-8.07h0l-.68,0h0a10.24,10.24,0,0,0-10.2,9.58h0a.5.5,0,0,1-.53.47h0a.5.5,0,0,1-.47-.53h0a11.24,11.24,0,0,1,11.2-10.51h0l.74,0h0A9.09,9.09,0,0,1,113,132.2h0c0,.2,0,.4,0,.6h0a7.37,7.37,0,0,1-7.34,6.89h-.49Z"/><path class="cls-5" d="M89.75,138a.5.5,0,0,1-.35-.15h0a.49.49,0,0,1-.15-.35h0c0-.08,0-.16,0-.23h0c-.1-1.85-1.64-3.79-2.44-4.64h0c-.28-.29-.45-.45-.45-.45h0a.5.5,0,0,1-.14-.52h0s.95-3,1.65-6.14h0c.49-2.17.86-4.51,1.41-6.47h0a17.28,17.28,0,0,0-.7-2h0a.48.48,0,0,1,0-.09h0a6.49,6.49,0,0,0-6-4.15h0a6.17,6.17,0,0,0-2.06.35h0a5,5,0,0,0-3.31,4.67h0a4.94,4.94,0,0,0,.28,1.64h0A3.86,3.86,0,0,0,81.15,122h0a3.84,3.84,0,0,0,1.28-.22h0a3,3,0,0,0,2-2.82h0a3,3,0,0,0-.17-1h0a2.29,2.29,0,0,0-2.16-1.53h0a2.27,2.27,0,0,0-.76.13h0a1.73,1.73,0,0,0-1.16,1.63h0a1.73,1.73,0,0,0,.1.58h0a1.29,1.29,0,0,0,1.21.86h0a1.3,1.3,0,0,0,.43-.07h0a.93.93,0,0,0,.62-.88h0a.92.92,0,0,0-.05-.31h0a.64.64,0,0,0-.61-.43h0a.62.62,0,0,0-.21,0h0a.41.41,0,0,0-.28.39h0a.44.44,0,0,0,0,.14h0a.5.5,0,0,1-.31.64h0a.5.5,0,0,1-.64-.31h0a1.37,1.37,0,0,1-.08-.47h0a1.41,1.41,0,0,1,.94-1.33h0a1.63,1.63,0,0,1,.55-.09h0a1.64,1.64,0,0,1,1.55,1.1h0a1.93,1.93,0,0,1,.11.64h0a1.93,1.93,0,0,1-1.29,1.82h0a2.29,2.29,0,0,1-.76.13h0a2.29,2.29,0,0,1-2.16-1.53h0a2.72,2.72,0,0,1-.16-.91h0A2.73,2.73,0,0,1,81,115.64h0a3.25,3.25,0,0,1,1.09-.19h0a3.29,3.29,0,0,1,3.1,2.2h0a4,4,0,0,1,.23,1.33h0a4,4,0,0,1-2.67,3.76h0a4.83,4.83,0,0,1-1.61.28h0a4.86,4.86,0,0,1-4.58-3.25h0a5.94,5.94,0,0,1-.34-2h0a6,6,0,0,1,4-5.61h0a7.19,7.19,0,0,1,2.39-.41h0a7.5,7.5,0,0,1,6.94,4.87h0l0,.05h0q.15.35.28.74h0a9,9,0,0,1,.38-.84h0c1.46-2.79,4.05-4.79,7-4.8h0a6.78,6.78,0,0,1,2.27.4h0a6,6,0,0,1,4,5.61h0a6,6,0,0,1-.34,2h0A4.86,4.86,0,0,1,98.56,123h0a4.82,4.82,0,0,1-1.61-.28h0A4,4,0,0,1,94.28,119h0a3.94,3.94,0,0,1,.23-1.32h0a3.29,3.29,0,0,1,3.1-2.2h0a3.25,3.25,0,0,1,1.09.19h0a2.73,2.73,0,0,1,1.82,2.58h0a2.76,2.76,0,0,1-.16.91h0a2.28,2.28,0,0,1-2.16,1.53h0a2.24,2.24,0,0,1-.76-.13h0a1.93,1.93,0,0,1-1.29-1.82h0a1.83,1.83,0,0,1,.11-.64h0a1.64,1.64,0,0,1,1.55-1.1h0a1.6,1.6,0,0,1,.54.09h0a1.41,1.41,0,0,1,.94,1.33h0a1.47,1.47,0,0,1-.08.46h0a.5.5,0,0,1-.63.31h0a.5.5,0,0,1-.31-.63h0a.48.48,0,0,0,0-.14h0A.41.41,0,0,0,98,118h0a.6.6,0,0,0-.21,0h0a.64.64,0,0,0-.61.43h0a.91.91,0,0,0-.05.3h0a.93.93,0,0,0,.62.88h0a1.29,1.29,0,0,0,.43.07h0a1.28,1.28,0,0,0,1.21-.86h0a1.75,1.75,0,0,0,.1-.58h0a1.73,1.73,0,0,0-1.16-1.63h0a2.26,2.26,0,0,0-.76-.13h0A2.29,2.29,0,0,0,95.45,118h0a2.94,2.94,0,0,0-.17,1h0a3,3,0,0,0,2,2.82h0a3.87,3.87,0,0,0,1.28.22h0a3.86,3.86,0,0,0,3.64-2.58h0a5,5,0,0,0,.28-1.64h0a5,5,0,0,0-3.31-4.67h0a5.77,5.77,0,0,0-1.93-.34h0c-2.5,0-4.81,1.72-6.15,4.26h0a10.76,10.76,0,0,0-.76,2h0c.55,2,1,4.26,1.48,6.46h0c.67,3,1.56,5.83,1.65,6.12h0a.5.5,0,0,1-.14.57h0s-.18.16-.48.45h0a13.31,13.31,0,0,0-1.07,1.23h0a6.73,6.73,0,0,0-1.51,3.41h0c0,.08,0,.15,0,.23h0a.49.49,0,0,1-.15.35h0a.49.49,0,0,1-.35.15h0Zm0-2.75a11.64,11.64,0,0,1,2.65-3.59h0c-.26-.83-1-3.3-1.59-5.94h0c-.34-1.56-.67-3.15-1-4.62h0c-.32,1.47-.62,3.09-1,4.63h0c-.59,2.64-1.33,5.11-1.59,5.94h0a11.69,11.69,0,0,1,2.5,3.58Z"/><path class="cls-5" d="M99.38,98.62a7.41,7.41,0,0,1-5-2h0a6,6,0,0,1-2-4.46h0A6,6,0,0,1,94,88.12h0a4.92,4.92,0,0,1,3.64-1.6h0a4.93,4.93,0,0,1,3.34,1.3h0a4,4,0,0,1,1.31,3h0a4,4,0,0,1-1.07,2.74h0a3.34,3.34,0,0,1-2.46,1.08h0a3.33,3.33,0,0,1-2.26-.88h0a2.76,2.76,0,0,1-.9-2h0a2.75,2.75,0,0,1,.73-1.87h0A2.31,2.31,0,0,1,98,89.07h0a2.32,2.32,0,0,1,1.57.61h0a2,2,0,0,1,.63,1.44h0a2,2,0,0,1-.51,1.32h0a1.67,1.67,0,0,1-1.23.54h0a1.66,1.66,0,0,1-1.12-.44h0a.5.5,0,0,1,0-.71h0a.5.5,0,0,1,.71,0h0a.66.66,0,0,0,.45.17h0a.66.66,0,0,0,.49-.21h0a1,1,0,0,0,.25-.65h0a1,1,0,0,0-.31-.7h0a1.32,1.32,0,0,0-.89-.35h0a1.31,1.31,0,0,0-1,.43h0a1.76,1.76,0,0,0-.47,1.2h0A1.77,1.77,0,0,0,97.17,93h0a2.32,2.32,0,0,0,1.58.62h0a2.34,2.34,0,0,0,1.73-.76h0a3,3,0,0,0,.8-2.06h0a3,3,0,0,0-1-2.25h0a3.92,3.92,0,0,0-2.66-1h0a3.93,3.93,0,0,0-2.91,1.28h0a5,5,0,0,0-1.33,3.41h0A5,5,0,0,0,95,95.93h0a6.41,6.41,0,0,0,4.35,1.69h0a6.43,6.43,0,0,0,4.75-2.09h0A8.16,8.16,0,0,0,106.28,90h0a8.16,8.16,0,0,0-2.65-6h0a.5.5,0,0,1,0-.71h0a.5.5,0,0,1,.71,0h0a9.15,9.15,0,0,1,3,6.77h0a9.15,9.15,0,0,1-2.41,6.2h0a7.43,7.43,0,0,1-5.48,2.41h0Z"/><path class="cls-5" d="M74.52,96.21A9.15,9.15,0,0,1,72.1,90h0a9.16,9.16,0,0,1,3-6.77h0a.5.5,0,0,1,.71,0h0a.5.5,0,0,1,0,.71h0a8.15,8.15,0,0,0-2.65,6h0a8.15,8.15,0,0,0,2.15,5.52h0A6.42,6.42,0,0,0,80,97.62h0a6.43,6.43,0,0,0,4.36-1.69h0A5,5,0,0,0,86,92.2h0a5,5,0,0,0-1.33-3.41h0a3.94,3.94,0,0,0-2.91-1.28h0a3.93,3.93,0,0,0-2.67,1h0a3,3,0,0,0-1,2.25h0a3,3,0,0,0,.8,2.06h0a2.34,2.34,0,0,0,1.73.76h0A2.34,2.34,0,0,0,82.22,93h0a1.77,1.77,0,0,0,.58-1.31h0a1.77,1.77,0,0,0-.47-1.2h0a1.32,1.32,0,0,0-1-.43h0a1.31,1.31,0,0,0-.89.35h0a1,1,0,0,0-.31.71h0a1,1,0,0,0,.25.64h0a.66.66,0,0,0,.49.22h0a.67.67,0,0,0,.45-.18h0a.5.5,0,0,1,.71,0h0a.5.5,0,0,1,0,.71h0A1.67,1.67,0,0,1,80.9,93h0a1.67,1.67,0,0,1-1.23-.54h0a2,2,0,0,1-.52-1.32h0a2,2,0,0,1,.64-1.44h0a2.32,2.32,0,0,1,1.57-.61h0a2.32,2.32,0,0,1,1.71.75h0a2.77,2.77,0,0,1,.73,1.87h0a2.77,2.77,0,0,1-.9,2h0a3.35,3.35,0,0,1-2.26.88h0a3.34,3.34,0,0,1-2.47-1.08h0A4,4,0,0,1,77.1,90.8h0a4,4,0,0,1,1.32-3h0a4.93,4.93,0,0,1,3.34-1.3h0a4.94,4.94,0,0,1,3.65,1.6h0A6,6,0,0,1,87,92.2h0a6,6,0,0,1-2,4.46h0a7.44,7.44,0,0,1-5,2h0a7.43,7.43,0,0,1-5.49-2.41Z"/><path class="cls-5" d="M71.8,113.19a5.64,5.64,0,0,1-3.87-5.35h0a5.59,5.59,0,0,1,.29-1.77h0a4.61,4.61,0,0,1,4.38-3.17h0a4.58,4.58,0,0,1,1.45.23h0a3.79,3.79,0,0,1,2.6,3.6h0a3.79,3.79,0,0,1-.19,1.19h0a3.13,3.13,0,0,1-3,2.15h0a3.15,3.15,0,0,1-1-.16h0a2.61,2.61,0,0,1-1.79-2.47h0a2.59,2.59,0,0,1,.13-.82h0a2.18,2.18,0,0,1,2.07-1.5h0a2.15,2.15,0,0,1,.69.11h0A1.85,1.85,0,0,1,74.86,107h0a1.89,1.89,0,0,1-.09.58h0a.5.5,0,0,1-.63.32h0a.5.5,0,0,1-.32-.63h0a.83.83,0,0,0,0-.27h0a.85.85,0,0,0-.58-.81h0a1.16,1.16,0,0,0-.37-.06h0a1.18,1.18,0,0,0-1.12.81h0a1.57,1.57,0,0,0-.08.5h0a1.6,1.6,0,0,0,1.1,1.52h0a2.1,2.1,0,0,0,.67.11h0a2.13,2.13,0,0,0,2-1.46h0a2.81,2.81,0,0,0,.14-.88h0a2.79,2.79,0,0,0-1.91-2.65h0a3.62,3.62,0,0,0-1.13-.18h0a3.61,3.61,0,0,0-3.43,2.48h0a4.6,4.6,0,0,0-.24,1.45h0a4.64,4.64,0,0,0,3.18,4.4h0a5.93,5.93,0,0,0,1.86.3h0a5.92,5.92,0,0,0,5.62-4.07h0a7.55,7.55,0,0,0,.38-2.36h0A7.53,7.53,0,0,0,74.81,99h0a9.54,9.54,0,0,0-3-.48h0A9.54,9.54,0,0,0,62.76,105h0a.5.5,0,0,1-.63.32h0a.5.5,0,0,1-.32-.63h0a10.54,10.54,0,0,1,10-7.24h0a10.48,10.48,0,0,1,3.3.53h0a8.53,8.53,0,0,1,5.86,8.1h0a8.51,8.51,0,0,1-.43,2.67h0A6.93,6.93,0,0,1,74,113.54h0a6.91,6.91,0,0,1-2.17-.35Z"/><path class="cls-5" d="M99,108.79a8.47,8.47,0,0,1-.43-2.68h0A8.53,8.53,0,0,1,104.43,98h0a10.46,10.46,0,0,1,3.3-.53h0a10.52,10.52,0,0,1,10,7.24h0a.5.5,0,0,1-.32.63h0a.5.5,0,0,1-.63-.32h0a9.52,9.52,0,0,0-9-6.55h0a9.46,9.46,0,0,0-3,.48h0a7.53,7.53,0,0,0-5.16,7.14h0a7.49,7.49,0,0,0,.38,2.36h0a5.92,5.92,0,0,0,5.61,4.07h0a5.93,5.93,0,0,0,1.85-.3h0a4.64,4.64,0,0,0,3.18-4.4h0a4.64,4.64,0,0,0-.24-1.45h0a3.6,3.6,0,0,0-3.42-2.48h0a3.56,3.56,0,0,0-1.13.18h0a2.79,2.79,0,0,0-1.91,2.65h0a2.79,2.79,0,0,0,.14.87h0a2.13,2.13,0,0,0,2,1.46h0a2.09,2.09,0,0,0,.67-.11h0a1.6,1.6,0,0,0,1.1-1.52h0a1.61,1.61,0,0,0-.08-.5h0a1.18,1.18,0,0,0-1.12-.81h0a1.16,1.16,0,0,0-.37.06h0a.85.85,0,0,0-.58.8h0a.83.83,0,0,0,0,.26h0a.5.5,0,0,1-.31.63h0a.5.5,0,0,1-.63-.31h0a1.82,1.82,0,0,1-.1-.58h0a1.85,1.85,0,0,1,1.26-1.75h0a2.14,2.14,0,0,1,.69-.11h0a2.18,2.18,0,0,1,2.07,1.5h0a2.64,2.64,0,0,1,.13.81h0a2.61,2.61,0,0,1-1.79,2.47h0a3.14,3.14,0,0,1-1,.16h0a3.12,3.12,0,0,1-3-2.15h0a3.76,3.76,0,0,1-.19-1.19h0a3.79,3.79,0,0,1,2.6-3.6h0a4.57,4.57,0,0,1,1.44-.24h0a4.61,4.61,0,0,1,4.37,3.17h0a5.62,5.62,0,0,1,.28,1.77h0a5.64,5.64,0,0,1-3.87,5.35h0a7,7,0,0,1-2.17.35h0A6.91,6.91,0,0,1,99,108.79Z"/><path class="cls-5" d="M96.11,171.81a4.64,4.64,0,0,1-1.57-.27h0A3.81,3.81,0,0,1,92,168h0a3.75,3.75,0,0,1,.22-1.29h0a3.14,3.14,0,0,1,3-2.08h0a3.1,3.1,0,0,1,1.06.19h0A2.62,2.62,0,0,1,98,167.23h0a2.65,2.65,0,0,1-.15.88h0a2.2,2.2,0,0,1-2.07,1.45h0a2.21,2.21,0,0,1-.74-.13h0a1.86,1.86,0,0,1-1.23-1.75h0a1.79,1.79,0,0,1,.11-.63h0a1.58,1.58,0,0,1,1.49-1h0a1.57,1.57,0,0,1,.54.09h0a1.36,1.36,0,0,1,.91,1.29h0a1.4,1.4,0,0,1-.08.46h0a1.19,1.19,0,0,1-.44.57h0a1.18,1.18,0,0,0,.57-.65h0a1.65,1.65,0,0,0,.1-.55h0a1.62,1.62,0,0,0-1.07-1.52h0a2.18,2.18,0,0,0-.73-.13h0a2.15,2.15,0,0,0-2,1.42h0A2.76,2.76,0,0,0,93,168h0a2.81,2.81,0,0,0,1.86,2.64h0a3.66,3.66,0,0,0,1.23.21h0a3.64,3.64,0,0,0,3.42-2.41h0a4.69,4.69,0,0,0,.27-1.58h0a4.66,4.66,0,0,0-3.09-4.39h0a.5.5,0,0,1-.3-.64h0a.5.5,0,0,1,.64-.3h0a5.67,5.67,0,0,1,3.75,5.33h0a5.67,5.67,0,0,1-.33,1.91h0a4.64,4.64,0,0,1-4.36,3.07h0Zm-1.25-4.4a.8.8,0,0,0,0,.28h0a.85.85,0,0,0,.1.41h0a.48.48,0,0,1,0-.16h0a.5.5,0,0,1,.64-.3h.07a.19.19,0,0,0,.18-.12h0a.4.4,0,0,0,0-.13h0a.37.37,0,0,0-.25-.35h0a.58.58,0,0,0-.2,0h0a.58.58,0,0,0-.55.39Z"/><path class="cls-5" d="M101.95,164.72a5.65,5.65,0,0,1-3.89-1.55h0a.5.5,0,0,1,0-.71h0a.5.5,0,0,1,.71,0h0a4.64,4.64,0,0,0,3.2,1.27h0a4.66,4.66,0,0,0,3.4-1.46h0a3.63,3.63,0,0,0,1-2.5h0a3.62,3.62,0,0,0-1.14-2.64h0a2.8,2.8,0,0,0-1.93-.77h0a2.79,2.79,0,0,0-2,.88h0a2.13,2.13,0,0,0-.58,1.47h0a2.14,2.14,0,0,0,.67,1.56h0a1.61,1.61,0,0,0,1.11.44h0a1.62,1.62,0,0,0,1.18-.51h0a1.18,1.18,0,0,0,.32-.8h0a1.2,1.2,0,0,1-.31.65h0a1.37,1.37,0,0,1-1,.43h0a1.36,1.36,0,0,1-.94-.37h0a1.58,1.58,0,0,1-.5-1.15h0a1.58,1.58,0,0,1,.43-1.09h0a1.85,1.85,0,0,1,1.35-.58h0a1.85,1.85,0,0,1,1.27.51h0a2.19,2.19,0,0,1,.69,1.59h0a2.19,2.19,0,0,1-.6,1.51h0a2.62,2.62,0,0,1-1.9.82h0a2.61,2.61,0,0,1-1.8-.71h0a3.14,3.14,0,0,1-1-2.29h0a3.13,3.13,0,0,1,.86-2.16h0a3.8,3.8,0,0,1,2.77-1.2h0a3.8,3.8,0,0,1,2.61,1h0a4.62,4.62,0,0,1,1.45,3.37h0a4.62,4.62,0,0,1-1.26,3.18h0a5.66,5.66,0,0,1-4.12,1.77h0Zm.4-6.17a.58.58,0,0,0-.16.4h0a.58.58,0,0,0,.18.42h0a.37.37,0,0,0,.25.1h0a.38.38,0,0,0,.27-.11h0a.19.19,0,0,0,.05-.13h0a.19.19,0,0,0-.06-.14h0a.5.5,0,0,1,0-.71h0a.49.49,0,0,1,.13-.1h0a.84.84,0,0,0-.62.27Z"/><path class="cls-5" d="M108.55,169a3,3,0,0,1-2.19-1h0a2.48,2.48,0,0,1-.66-1.68h0a2.47,2.47,0,0,1,.8-1.83h0a2.08,2.08,0,0,1,1.41-.55h0a2.09,2.09,0,0,1,1.54.68h0a1.76,1.76,0,0,1,.47,1.2h0a1.77,1.77,0,0,1-.57,1.3h0a1.52,1.52,0,0,1-1,.4h0a1.52,1.52,0,0,1-1.12-.49h0a1.32,1.32,0,0,1-.35-.89h0a1.3,1.3,0,0,1,.42-1h0l.16-.12h0a1.12,1.12,0,0,0-.26.18h0a1.47,1.47,0,0,0-.48,1.09h0a1.48,1.48,0,0,0,.39,1h0a2,2,0,0,0,1.46.64h0a2,2,0,0,0,1.34-.52h0a2.61,2.61,0,0,0,.84-1.92h0a2.6,2.6,0,0,0-.69-1.76h0a3.37,3.37,0,0,0-2.49-1.09h0a3.36,3.36,0,0,0-2.28.89h0a.5.5,0,0,1-.71,0h0a.5.5,0,0,1,0-.71h0a4.35,4.35,0,0,1,3-1.16h0a4.37,4.37,0,0,1,3.22,1.41h0a3.59,3.59,0,0,1,.95,2.44h0a3.6,3.6,0,0,1-1.16,2.65h0a3,3,0,0,1-2,.79h0ZM108,166a.3.3,0,0,0-.1.23h0a.31.31,0,0,0,.08.21h0l.08.07h0a.5.5,0,0,1,.14-.47h0v0h0a.15.15,0,0,0-.11,0h0a.15.15,0,0,0-.1,0Z"/><path class="cls-5" d="M79,168.72a5.62,5.62,0,0,1-.33-1.91h0a5.67,5.67,0,0,1,3.76-5.33h0a.5.5,0,0,1,.64.3h0a.5.5,0,0,1-.3.64h0a4.67,4.67,0,0,0-3.09,4.39h0a4.68,4.68,0,0,0,.28,1.58h0a3.64,3.64,0,0,0,3.42,2.41h0a3.66,3.66,0,0,0,1.23-.21h0a2.81,2.81,0,0,0,1.86-2.64h0a2.8,2.8,0,0,0-.17-.95h0a2.15,2.15,0,0,0-2-1.42h0a2.08,2.08,0,0,0-.73.13h0a1.62,1.62,0,0,0-1.07,1.52h0a1.63,1.63,0,0,0,.1.55h0a1.19,1.19,0,0,0,.57.65h0a1.19,1.19,0,0,1-.43-.57h0a1.38,1.38,0,0,1-.08-.46h0a1.37,1.37,0,0,1,.9-1.28h0a1.52,1.52,0,0,1,.54-.1h0a1.58,1.58,0,0,1,1.49,1h0a1.87,1.87,0,0,1,.11.63h0a1.86,1.86,0,0,1-1.23,1.75h0a2.19,2.19,0,0,1-.74.13h0a2.19,2.19,0,0,1-2.06-1.45h0a2.6,2.6,0,0,1-.16-.88h0a2.62,2.62,0,0,1,1.73-2.46h0a3.09,3.09,0,0,1,1.07-.19h0a3.15,3.15,0,0,1,3,2.08h0a3.8,3.8,0,0,1,.22,1.29h0A3.81,3.81,0,0,1,85,171.52h0a4.66,4.66,0,0,1-1.56.27h0A4.64,4.64,0,0,1,79,168.72Zm5.53-.79a.51.51,0,0,1,0,.15h0a.85.85,0,0,0,.1-.41h0a.84.84,0,0,0,0-.29h0a.59.59,0,0,0-.55-.39h0a.59.59,0,0,0-.2,0h0a.37.37,0,0,0-.24.34h0a.36.36,0,0,0,0,.13h0a.19.19,0,0,0,.18.13h.07l.16,0h0a.5.5,0,0,1,.47.34Z"/><path class="cls-5" d="M73.44,162.93a4.63,4.63,0,0,1-1.26-3.18h0a4.62,4.62,0,0,1,1.45-3.37h0a3.8,3.8,0,0,1,2.61-1h0A3.8,3.8,0,0,1,79,156.54h0a3.14,3.14,0,0,1,.86,2.16h0a3.15,3.15,0,0,1-1,2.29h0a2.62,2.62,0,0,1-1.8.71h0a2.62,2.62,0,0,1-1.9-.82h0a2.19,2.19,0,0,1-.6-1.51h0a2.18,2.18,0,0,1,.69-1.59h0a1.85,1.85,0,0,1,1.27-.51h0a1.85,1.85,0,0,1,1.35.58h0a1.58,1.58,0,0,1,.43,1.09h0a1.58,1.58,0,0,1-.5,1.15h0a1.36,1.36,0,0,1-.94.37h0a1.36,1.36,0,0,1-1-.43h0a1.19,1.19,0,0,1-.31-.65h0a1.18,1.18,0,0,0,.33.8h0a1.61,1.61,0,0,0,1.18.51h0a1.62,1.62,0,0,0,1.11-.44h0a2.15,2.15,0,0,0,.67-1.56h0a2.14,2.14,0,0,0-.59-1.47h0a2.8,2.8,0,0,0-2-.88h0a2.8,2.8,0,0,0-1.93.77h0a3.62,3.62,0,0,0-1.14,2.64h0a3.63,3.63,0,0,0,1,2.49h0a4.65,4.65,0,0,0,3.39,1.46h0a4.65,4.65,0,0,0,3.2-1.27h0a.5.5,0,0,1,.71,0h0a.5.5,0,0,1,0,.71h0a5.66,5.66,0,0,1-3.89,1.55h0a5.67,5.67,0,0,1-4.12-1.78Zm3.22-4.56a.5.5,0,0,1,0,.71h0a.19.19,0,0,0-.06.14h0a.19.19,0,0,0,.05.13h0a.37.37,0,0,0,.27.12h0a.36.36,0,0,0,.25-.1h0a.58.58,0,0,0,.19-.43h0a.58.58,0,0,0-.16-.4h0a.86.86,0,0,0-.62-.27h0a.49.49,0,0,1,.13.1Z"/><path class="cls-5" d="M68.94,168.24a3.6,3.6,0,0,1-1.16-2.65h0a3.6,3.6,0,0,1,.95-2.44h0A4.36,4.36,0,0,1,72,161.73h0a4.36,4.36,0,0,1,3,1.16h0a.5.5,0,0,1,0,.71h0a.5.5,0,0,1-.71,0h0a3.36,3.36,0,0,0-2.29-.89h0a3.37,3.37,0,0,0-2.49,1.09h0a2.6,2.6,0,0,0-.69,1.76h0a2.6,2.6,0,0,0,.84,1.92h0A2,2,0,0,0,71,168h0a2,2,0,0,0,1.46-.64h0a1.48,1.48,0,0,0,.39-1h0a1.49,1.49,0,0,0-.48-1.09h0a1.08,1.08,0,0,0-.27-.18h0l.16.12h0a1.3,1.3,0,0,1,.42,1h0a1.31,1.31,0,0,1-.35.89h0a1.52,1.52,0,0,1-1.11.49h0a1.51,1.51,0,0,1-1-.4h0a1.77,1.77,0,0,1-.57-1.3h0a1.76,1.76,0,0,1,.47-1.2h0A2.09,2.09,0,0,1,71.6,164h0a2.08,2.08,0,0,1,1.41.55h0a2.48,2.48,0,0,1,.8,1.83h0a2.46,2.46,0,0,1-.66,1.68h0A3,3,0,0,1,71,169h0a3,3,0,0,1-2-.79Zm2.4-2.26h0v0h0a.5.5,0,0,1,.15.47h0l.08-.07h0a.32.32,0,0,0,.08-.21h0a.3.3,0,0,0-.1-.23h0a.14.14,0,0,0-.1,0h0a.15.15,0,0,0-.11,0Z"/><path class="cls-5" d="M86,72a5.66,5.66,0,0,1-4.12-1.78h0A4.63,4.63,0,0,1,80.66,67h0a4.63,4.63,0,0,1,1.45-3.37h0a3.8,3.8,0,0,1,2.61-1h0A3.81,3.81,0,0,1,87.5,63.8h0A3.13,3.13,0,0,1,88.35,66h0a3.14,3.14,0,0,1-1,2.29h0a2.6,2.6,0,0,1-1.8.71h0a2.61,2.61,0,0,1-1.9-.82h0a2.19,2.19,0,0,1-.6-1.51h0A2.18,2.18,0,0,1,83.76,65h0A1.84,1.84,0,0,1,85,64.53h0a1.85,1.85,0,0,1,1.35.58h0a1.58,1.58,0,0,1,.43,1.09h0a1.59,1.59,0,0,1-.5,1.15h0a1.37,1.37,0,0,1-.94.37h0a1.37,1.37,0,0,1-1-.43h0a1.2,1.2,0,0,1-.31-.64h0a1.19,1.19,0,0,0,.33.8h0a1.61,1.61,0,0,0,1.17.51h0a1.61,1.61,0,0,0,1.11-.44h0A2.14,2.14,0,0,0,87.35,66h0a2.14,2.14,0,0,0-.58-1.47h0a2.8,2.8,0,0,0-2-.88h0a2.79,2.79,0,0,0-1.93.77h0A3.62,3.62,0,0,0,81.66,67h0a3.62,3.62,0,0,0,1,2.5h0A4.65,4.65,0,0,0,86,71h0a4.65,4.65,0,0,0,3.2-1.27h0a.5.5,0,0,1,.71,0h0a.5.5,0,0,1,0,.71h0A5.64,5.64,0,0,1,86.05,72h0Zm-.91-6.34a.5.5,0,0,1,0,.71h0a.18.18,0,0,0-.06.14h0a.19.19,0,0,0,.05.13h0a.37.37,0,0,0,.27.12h0a.37.37,0,0,0,.25-.1h0a.59.59,0,0,0,.18-.43h0a.59.59,0,0,0-.16-.4h0a.85.85,0,0,0-.62-.27h0a.52.52,0,0,1,.13.1Z"/><path class="cls-5" d="M79.44,76.29a3,3,0,0,1-2-.79h0a3.6,3.6,0,0,1-1.16-2.65h0a3.59,3.59,0,0,1,.95-2.44h0A4.37,4.37,0,0,1,80.43,69h0a4.36,4.36,0,0,1,3,1.16h0a.5.5,0,0,1,0,.71h0a.5.5,0,0,1-.71,0h0A3.35,3.35,0,0,0,80.43,70h0a3.36,3.36,0,0,0-2.49,1.09h0a2.59,2.59,0,0,0-.69,1.76h0a2.6,2.6,0,0,0,.84,1.92h0a2,2,0,0,0,1.34.52h0a2,2,0,0,0,1.46-.64h0a1.47,1.47,0,0,0,.39-1h0a1.48,1.48,0,0,0-.48-1.09h0a1.08,1.08,0,0,0-.27-.18h0l.16.13h0a1.31,1.31,0,0,1,.42,1h0a1.31,1.31,0,0,1-.35.89h0a1.52,1.52,0,0,1-1.11.49h0a1.51,1.51,0,0,1-1-.4h0a1.77,1.77,0,0,1-.57-1.3h0a1.77,1.77,0,0,1,.47-1.2h0a2.08,2.08,0,0,1,1.54-.68h0a2.08,2.08,0,0,1,1.41.55h0a2.48,2.48,0,0,1,.8,1.83h0a2.48,2.48,0,0,1-.66,1.68h0a3,3,0,0,1-2.19,1h0Zm.38-3h0v0h0a.5.5,0,0,1,.15.47h0l.08-.07h0a.31.31,0,0,0,.08-.21h0a.31.31,0,0,0-.1-.23h0a.15.15,0,0,0-.1,0h0a.15.15,0,0,0-.11,0Z"/><path class="cls-5" d="M89.48,70.38a.5.5,0,0,1,0-.71h0a.5.5,0,0,1,.71,0h0a4.66,4.66,0,0,0,3.2,1.27h0a4.66,4.66,0,0,0,3.4-1.46h0a3.63,3.63,0,0,0,1-2.5h0a3.63,3.63,0,0,0-1.14-2.64h0a2.79,2.79,0,0,0-1.93-.77h0a2.79,2.79,0,0,0-2,.88h0a2.13,2.13,0,0,0-.59,1.47h0a2.14,2.14,0,0,0,.67,1.56h0a1.6,1.6,0,0,0,1.11.44h0A1.61,1.61,0,0,0,95,67.41h0a1.19,1.19,0,0,0,.33-.81h0a1.2,1.2,0,0,1-.31.65h0a1.37,1.37,0,0,1-1,.43h0a1.36,1.36,0,0,1-.94-.37h0a1.58,1.58,0,0,1-.5-1.15h0A1.57,1.57,0,0,1,93,65.07h0a1.85,1.85,0,0,1,1.35-.58h0a1.85,1.85,0,0,1,1.27.51h0a2.19,2.19,0,0,1,.69,1.59h0a2.19,2.19,0,0,1-.6,1.51h0a2.62,2.62,0,0,1-1.9.82h0a2.61,2.61,0,0,1-1.8-.71h0a3.14,3.14,0,0,1-1-2.29h0a3.13,3.13,0,0,1,.86-2.16h0a3.79,3.79,0,0,1,2.77-1.19h0a3.79,3.79,0,0,1,2.61,1h0A4.62,4.62,0,0,1,98.76,67h0a4.62,4.62,0,0,1-1.27,3.18h0a5.66,5.66,0,0,1-4.12,1.78h0a5.65,5.65,0,0,1-3.89-1.55Zm4.28-4.62a.58.58,0,0,0-.16.4h0a.58.58,0,0,0,.18.42h0a.37.37,0,0,0,.25.1h0a.37.37,0,0,0,.27-.11h0a.19.19,0,0,0,.05-.13h0a.2.2,0,0,0-.06-.14h0a.5.5,0,0,1,0-.71h0a.5.5,0,0,1,.13-.1h0a.85.85,0,0,0-.62.27Z"/><path class="cls-5" d="M100,76.24a3,3,0,0,1-2.19-1h0a2.48,2.48,0,0,1-.66-1.68h0a2.48,2.48,0,0,1,.8-1.83h0a2.08,2.08,0,0,1,1.41-.55h0a2.08,2.08,0,0,1,1.54.68h0a1.76,1.76,0,0,1,.47,1.2h0a1.78,1.78,0,0,1-.57,1.3h0a1.51,1.51,0,0,1-1,.4h0a1.51,1.51,0,0,1-1.11-.49h0a1.31,1.31,0,0,1-.35-.89h0a1.3,1.3,0,0,1,.42-1h0l.16-.12h0a1.07,1.07,0,0,0-.27.18h0a1.47,1.47,0,0,0-.48,1.09h0a1.47,1.47,0,0,0,.39,1h0a2,2,0,0,0,1.46.64h0a2,2,0,0,0,1.34-.52h0a2.6,2.6,0,0,0,.84-1.92h0a2.59,2.59,0,0,0-.69-1.76h0A3.37,3.37,0,0,0,99,69.95h0a3.36,3.36,0,0,0-2.28.89h0a.5.5,0,0,1-.71,0h0a.5.5,0,0,1,0-.71h0a4.36,4.36,0,0,1,3-1.16h0a4.37,4.37,0,0,1,3.22,1.41h0a3.59,3.59,0,0,1,.95,2.44h0A3.6,3.6,0,0,1,102,75.45h0a3,3,0,0,1-2,.79h0Zm-.59-3.05a.3.3,0,0,0-.1.23h0a.31.31,0,0,0,.08.21h0l.08.07h0a.5.5,0,0,1,.15-.47h0v0h0a.15.15,0,0,0-.11,0h0a.15.15,0,0,0-.1,0Z"/><path class="cls-6" d="M89.76,73.5C73.36,86.07,75.48,90.13,75.48,90.13S89.42,73.37,103.54,90c0,0,2.62-3.88-13.78-16.45Z"/><path class="cls-6" d="M112.42,102.13s13.32,23.59,4.87,37.22c-7.15,11.54-22.75,2.76-20.64-6.34,0,0,2,9.75,11.54,9.1,0,0,10.37-.84,7.64-13.33-.21-.94-2.6-8.61-10.56-9.59C105.26,119.19,114,118.7,112.42,102.13Z"/><path class="cls-6" d="M67.23,102.13s-13.32,23.59-4.87,37.22C69.5,150.88,85.51,143.13,83,133c0,0-2,9.75-11.54,9.1,0,0-10.37-.84-7.64-13.33.21-.94,2.6-8.61,10.56-9.59C74.37,119.19,65.6,118.7,67.23,102.13Z"/><path class="cls-6" d="M89.87,90.75s1,12.46,7.8,9.86a8.45,8.45,0,0,0-.81,8.34s-6.64.29-6.8,4.52h-.21c-.16-4.22-7.17-4.52-7.17-4.52a8.44,8.44,0,0,0-.81-8.34c6.83,2.6,7.8-9.86,7.8-9.86Z"/><circle class="cls-7" cx="73.37" cy="107.11" r="1.19"/><circle class="cls-7" cx="81.21" cy="91.3" r="1.19"/><circle class="cls-7" cx="98.14" cy="91.34" r="1.19"/><circle class="cls-7" cx="106.06" cy="107.06" r="1.19"/><circle class="cls-7" cx="74.25" cy="133" r="1.19"/><circle class="cls-7" cx="105.28" cy="133" r="1.19"/><circle class="cls-8" cx="81.49" cy="118.43" r="0.9"/><circle class="cls-8" cx="98.14" cy="118.49" r="0.9"/><circle class="cls-8" cx="81.27" cy="110.4" r="1.2"/><circle class="cls-8" cx="98.25" cy="110.4" r="1.2"/><circle class="cls-9" cx="89.86" cy="115.19" r="0.91"/><circle class="cls-9" cx="80.45" cy="99.99" r="0.91"/><circle class="cls-9" cx="99.21" cy="99.85" r="0.91"/><circle class="cls-9" cx="89.55" cy="87.73" r="2.12"/><path class="cls-5" d="M56.42,105.67a4.64,4.64,0,0,1-2.88-4.29h0a4.6,4.6,0,0,1,.35-1.75h0a3.81,3.81,0,0,1,3.52-2.37h0a3.8,3.8,0,0,1,1.44.29h0a3.14,3.14,0,0,1,2,2.91h0a3.17,3.17,0,0,1-.23,1.19h0a2.62,2.62,0,0,1-2.42,1.63h0a2.6,2.6,0,0,1-1-.19h0a2.19,2.19,0,0,1-1.36-2h0a2.16,2.16,0,0,1,.16-.83h0a1.85,1.85,0,0,1,1.72-1.15h0a1.84,1.84,0,0,1,.7.14h0a1.58,1.58,0,0,1,1,1.47h0a1.6,1.6,0,0,1-.12.6h0a1.37,1.37,0,0,1-1.26.85h0a1.37,1.37,0,0,1-.52-.1h0a1.19,1.19,0,0,1-.55-.46h0a1.19,1.19,0,0,0,.63.6h0a1.62,1.62,0,0,0,.61.12h0a1.62,1.62,0,0,0,1.5-1h0a2.19,2.19,0,0,0,.16-.81h0a2.14,2.14,0,0,0-1.33-2h0a2.77,2.77,0,0,0-1.06-.21h0a2.81,2.81,0,0,0-2.6,1.75h0a3.6,3.6,0,0,0-.27,1.37h0a3.64,3.64,0,0,0,2.26,3.37h0a4.66,4.66,0,0,0,1.77.35h0a4.67,4.67,0,0,0,4.32-2.9h0a.5.5,0,0,1,.65-.27h0a.5.5,0,0,1,.27.65h0a5.67,5.67,0,0,1-5.25,3.52h0a5.68,5.68,0,0,1-2.15-.42Zm1-5.48a.5.5,0,0,1,.27.65h0a.19.19,0,0,0,0,.07h0a.19.19,0,0,0,.12.18h0l.14,0h0a.37.37,0,0,0,.34-.23h0a.59.59,0,0,0,0-.22h0a.58.58,0,0,0-.36-.54h0a.83.83,0,0,0-.32-.07h0a.87.87,0,0,0-.37.09h0l.16,0Z"/><path class="cls-5" d="M55.45,112.5a3,3,0,0,1-.93-.15h0A3.6,3.6,0,0,1,52,108.93h0a3.61,3.61,0,0,1,.18-1.12h0a4.38,4.38,0,0,1,4.16-3h0a4.38,4.38,0,0,1,1.37.22h0a.5.5,0,0,1,.32.63h0a.5.5,0,0,1-.63.32h0a3.36,3.36,0,0,0-1.06-.17h0a3.37,3.37,0,0,0-3.21,2.32h0a2.6,2.6,0,0,0-.13.81h0a2.61,2.61,0,0,0,1.79,2.47h0a2,2,0,0,0,.62.1h0a2,2,0,0,0,1.88-1.36h0a1.47,1.47,0,0,0,.07-.46h0a1.48,1.48,0,0,0-1-1.41h0a1.08,1.08,0,0,0-.31-.05h0l.19,0h0a1.31,1.31,0,0,1,.9,1.25h0a1.26,1.26,0,0,1-.07.41h0a1.51,1.51,0,0,1-1.44,1h0a1.51,1.51,0,0,1-.47-.08h0A1.77,1.77,0,0,1,54,109.2h0a1.73,1.73,0,0,1,.09-.55h0a2.09,2.09,0,0,1,2-1.44h0a2.08,2.08,0,0,1,.65.1h0a2.49,2.49,0,0,1,1.71,2.36h0a2.45,2.45,0,0,1-.12.78h0a3,3,0,0,1-2.83,2h0Zm.31-3.2h0a0,0,0,0,0,0,0h0a.5.5,0,0,1,.33.37h0l0-.1h0a.35.35,0,0,0,0-.1h0a.31.31,0,0,0-.22-.3h0a.15.15,0,0,0-.14.11Z"/><path class="cls-5" d="M115.77,102.57h0a.5.5,0,0,1,.27-.65h0a.5.5,0,0,1,.65.27h0a4.67,4.67,0,0,0,4.32,2.9h0a4.7,4.7,0,0,0,1.77-.35h0a3.64,3.64,0,0,0,2.26-3.37h0a3.65,3.65,0,0,0-.27-1.37h0a2.81,2.81,0,0,0-2.6-1.75h0a2.78,2.78,0,0,0-1.06.21h0a2.14,2.14,0,0,0-1.33,2h0a2.12,2.12,0,0,0,.16.81h0a1.62,1.62,0,0,0,1.5,1h0a1.66,1.66,0,0,0,.61-.12h0a1.19,1.19,0,0,0,.63-.59h0a1.2,1.2,0,0,1-.55.46h0a1.36,1.36,0,0,1-.52.1h0a1.36,1.36,0,0,1-1.26-.85h0a1.56,1.56,0,0,1-.12-.6h0a1.59,1.59,0,0,1,1-1.47h0a1.85,1.85,0,0,1,.7-.14h0a1.86,1.86,0,0,1,1.72,1.16h0a2.21,2.21,0,0,1,.16.83h0a2.2,2.2,0,0,1-1.36,2h0a2.63,2.63,0,0,1-1,.19h0a2.62,2.62,0,0,1-2.42-1.62h0a3.09,3.09,0,0,1-.24-1.19h0a3.14,3.14,0,0,1,2-2.91h0a3.78,3.78,0,0,1,1.44-.29h0a3.81,3.81,0,0,1,3.53,2.37h0a4.66,4.66,0,0,1,.34,1.75h0a4.64,4.64,0,0,1-2.88,4.29h0a5.66,5.66,0,0,1-2.14.42h0a5.67,5.67,0,0,1-5.25-3.52Zm5.81-2.44a.59.59,0,0,0-.36.54h0a.59.59,0,0,0,0,.22h0a.37.37,0,0,0,.34.23h0l.14,0h0a.2.2,0,0,0,.12-.18h0a.2.2,0,0,0,0-.07h0a.5.5,0,0,1,.27-.65h0l.15,0h0a.86.86,0,0,0-.37-.08h0a.86.86,0,0,0-.32.06Z"/><path class="cls-5" d="M121.31,110.46a2.46,2.46,0,0,1-.13-.78h0a2.49,2.49,0,0,1,1.71-2.36h0a2.1,2.1,0,0,1,.65-.1h0a2.09,2.09,0,0,1,2,1.44h0a1.76,1.76,0,0,1,.09.55h0a1.77,1.77,0,0,1-1.22,1.68h0a1.55,1.55,0,0,1-.47.08h0a1.51,1.51,0,0,1-1.44-1h0a1.3,1.3,0,0,1-.07-.41h0a1.31,1.31,0,0,1,.9-1.25h0l.2,0h0a1.06,1.06,0,0,0-.31.05h0a1.48,1.48,0,0,0-1,1.41h0a1.46,1.46,0,0,0,.08.46h0a2,2,0,0,0,1.88,1.36h0a2,2,0,0,0,.62-.1h0a2.61,2.61,0,0,0,1.79-2.47h0a2.61,2.61,0,0,0-.13-.81h0a3.38,3.38,0,0,0-3.21-2.32h0a3.36,3.36,0,0,0-1.06.17h0a.5.5,0,0,1-.63-.32h0a.5.5,0,0,1,.32-.63h0a4.37,4.37,0,0,1,1.37-.22h0a4.38,4.38,0,0,1,4.16,3h0a3.55,3.55,0,0,1,.18,1.13h0a3.61,3.61,0,0,1-2.47,3.42h0a3,3,0,0,1-.93.15h0a3,3,0,0,1-2.83-2Zm2.32-1.25a.31.31,0,0,0-.21.3h0a.27.27,0,0,0,0,.1h0a.46.46,0,0,0,0,.1h0a.5.5,0,0,1,.33-.37h0a0,0,0,0,0,0,0h0a.15.15,0,0,0-.14-.11h0Z"/><polygon class="cls-10" points="92.5 157.12 86.8 157.11 89.65 144.26 92.5 157.12"/><polygon class="cls-11" points="91.22 131.64 88.37 131.63 89.8 125.2 91.22 131.64"/><polygon class="cls-11" points="68.76 95.24 70.29 92.84 74.95 97.49 68.76 95.24"/><polygon class="cls-11" points="110.8 95.18 109.27 92.78 104.61 97.44 110.8 95.18"/><polygon class="cls-11" points="72.17 101.64 73.7 99.23 78.36 103.89 72.17 101.64"/><polygon class="cls-11" points="107.48 101.64 105.95 99.23 101.3 103.89 107.48 101.64"/><polygon class="cls-11" points="93.31 125.77 95.86 124.52 91.76 119.37 93.31 125.77"/><polygon class="cls-11" points="86.41 125.79 83.85 124.54 87.96 119.39 86.41 125.79"/><polygon class="cls-11" points="74.66 124.62 76.1 127.08 69.83 129.1 74.66 124.62"/><polygon class="cls-11" points="105.09 124.75 103.65 127.21 109.92 129.22 105.09 124.75"/><rect class="cls-12" x="87.99" y="139.34" width="3.64" height="3.64"/><circle class="cls-13" cx="89.67" cy="69.3" r="0.68"/><polygon class="cls-14" points="74.6 122.26 74.23 121.12 75.2 120.41 76.17 121.12 75.8 122.26 74.6 122.26"/><polygon class="cls-14" points="71.68 122.94 71.31 121.79 72.28 121.09 73.25 121.79 72.88 122.94 71.68 122.94"/><polygon class="cls-14" points="68.91 124.38 68.54 123.23 69.51 122.52 70.49 123.23 70.11 124.38 68.91 124.38"/><polygon class="cls-14" points="104.73 122.1 105.1 120.96 104.13 120.25 103.16 120.96 103.53 122.1 104.73 122.1"/><polygon class="cls-14" points="107.66 122.77 108.03 121.63 107.06 120.92 106.08 121.63 106.45 122.77 107.66 122.77"/><polygon class="cls-14" points="110.42 124.21 110.79 123.07 109.82 122.36 108.85 123.07 109.22 124.21 110.42 124.21"/><circle class="cls-13" cx="85.99" cy="70.63" r="0.68"/><circle class="cls-13" cx="93.4" cy="70.6" r="0.68"/><circle class="cls-13" cx="58.67" cy="104.89" r="0.68"/><circle class="cls-13" cx="121.19" cy="104.8" r="0.68"/><circle class="cls-13" cx="77.15" cy="163.2" r="0.68"/><circle class="cls-13" cx="102.66" cy="163.21" r="0.68"/><polygon class="cls-15" points="84.18 159.49 85.6 157.03 87.02 159.49 84.18 159.49"/><polygon class="cls-15" points="92.53 159.47 93.95 157.01 95.37 159.47 92.53 159.47"/><polygon class="cls-15" points="84.33 85.18 85.74 87.64 87.16 85.18 84.33 85.18"/><polygon class="cls-15" points="92.06 85.31 93.47 87.76 94.89 85.31 92.06 85.31"/><polygon class="cls-16" points="101.92 105.21 100.14 105.72 102.17 109.48 101.92 105.21"/><polygon class="cls-16" points="103.88 110.25 104.15 112.09 108.15 110.56 103.88 110.25"/><polygon class="cls-16" points="77.48 105.21 79.26 105.72 77.23 109.48 77.48 105.21"/><polygon class="cls-16" points="75.33 110.25 75.06 112.09 71.06 110.56 75.33 110.25"/><polygon class="cls-16" points="78.69 95.14 78.96 96.97 82.96 95.45 78.69 95.14"/><polygon class="cls-16" points="72.19 136.1 72.46 137.93 76.46 136.4 72.19 136.1"/><polygon class="cls-16" points="70.07 131.21 68.29 131.72 70.32 135.49 70.07 131.21"/><polygon class="cls-16" points="109.49 130.56 111.27 131.07 109.24 134.84 109.49 130.56"/><polygon class="cls-16" points="107.99 136.26 107.72 138.09 103.72 136.57 107.99 136.26"/><polygon class="cls-16" points="100.51 95.14 100.24 96.97 96.25 95.45 100.51 95.14"/><polygon class="cls-16" points="86.09 118.11 87.66 117.13 84.65 114.08 86.09 118.11"/><polygon class="cls-16" points="93.69 118.25 92.13 117.27 95.14 114.23 93.69 118.25"/><circle class="cls-9" cx="81.38" cy="129.13" r="2.12"/><circle class="cls-9" cx="97.77" cy="129.28" r="2.12"/><circle class="cls-8" cx="73.62" cy="115.62" r="1.2"/><circle class="cls-8" cx="106.53" cy="115.62" r="1.2"/></g></g></svg>