<svg xmlns="http://www.w3.org/2000/svg" viewBox="0 0 179.58 250.44"><defs><style>.cls-1{fill:#f9faf9;}.cls-1,.cls-2{stroke:#231815;}.cls-2{fill:#231815;stroke-linejoin:round;fill-rule:evenodd;}</style></defs><title>资源 10</title><g id="图层_2" data-name="图层 2"><g id="ten"><rect class="cls-1" x="0.5" y="0.5" width="178.58" height="249.44" rx="14.17" ry="14.17"/><polygon points="6.17 38.73 6.17 14.67 8.35 14.67 8.35 38.73 6.17 38.73 6.17 38.73"/><path d="M12.91,37.45a4.68,4.68,0,0,1-1.3-3.26h0V19.25A4.68,4.68,0,0,1,12.91,16h0A4.25,4.25,0,0,1,16,14.67h0A4.26,4.26,0,0,1,19,16h0a4.68,4.68,0,0,1,1.3,3.26h0V34.19A4.68,4.68,0,0,1,19,37.45h0A4.26,4.26,0,0,1,16,38.77h0a4.25,4.25,0,0,1-3.07-1.32Zm1.5-19.72a2.18,2.18,0,0,0-.62,1.53h0V34.19a2.18,2.18,0,0,0,.62,1.53h0a2.17,2.17,0,0,0,1.57.67h0a2.17,2.17,0,0,0,1.57-.67h0a2.18,2.18,0,0,0,.62-1.53h0V19.25a2.18,2.18,0,0,0-.62-1.53h0A2.18,2.18,0,0,0,16,17.06h0a2.17,2.17,0,0,0-1.57.67Z"/><polygon points="173.41 211.71 173.41 235.77 171.23 235.77 171.23 211.71 173.41 211.71 173.41 211.71"/><path d="M166.67,213a4.68,4.68,0,0,1,1.3,3.26h0v14.94a4.68,4.68,0,0,1-1.3,3.26h0a4.26,4.26,0,0,1-3.07,1.32h0a4.26,4.26,0,0,1-3.07-1.32h0a4.68,4.68,0,0,1-1.3-3.26h0V216.25a4.68,4.68,0,0,1,1.3-3.26h0a4.26,4.26,0,0,1,3.07-1.32h0a4.26,4.26,0,0,1,3.07,1.32Zm-1.5,19.72a2.18,2.18,0,0,0,.62-1.53h0V216.25a2.18,2.18,0,0,0-.62-1.53h0a2.16,2.16,0,0,0-1.57-.67h0a2.17,2.17,0,0,0-1.57.67h0a2.17,2.17,0,0,0-.62,1.53h0v14.94a2.17,2.17,0,0,0,.62,1.53h0a2.17,2.17,0,0,0,1.57.67h0a2.17,2.17,0,0,0,1.57-.67Z"/><path class="cls-2" d="M13.25,43l-.12.07c-3,1.94-6.58,5.72-6.95,10.44A3.29,3.29,0,0,0,9.3,57.37,2.93,2.93,0,0,0,12,56.16c.43-.67.54-1.7.61-1.22.25,1.82-.51,3.56-.92,5.09a4.92,4.92,0,0,1,1.61-.25h0a4.91,4.91,0,0,1,1.61.25c-.41-1.53-1.17-3.27-.92-5.09.07-.48.18.55.61,1.22a2.93,2.93,0,0,0,2.65,1.2,3.29,3.29,0,0,0,3.12-3.83C20,48.82,16.42,45,13.39,43.09L13.28,43Z"/><path class="cls-2" d="M166.32,207.42l-.12-.07c-3-1.94-6.58-5.72-6.95-10.44a3.29,3.29,0,0,1,3.12-3.83,2.93,2.93,0,0,1,2.65,1.2c.43.67.54,1.7.61,1.22.25-1.82-.51-3.56-.92-5.09a4.92,4.92,0,0,0,1.61.25h0a4.9,4.9,0,0,0,1.61-.25c-.41,1.53-1.17,3.27-.92,5.09.07.48.18-.55.61-1.22a2.93,2.93,0,0,1,2.65-1.2,3.29,3.29,0,0,1,3.12,3.83c-.36,4.72-3.91,8.5-6.94,10.44l-.11.07Z"/><path class="cls-2" d="M46.54,26l-.29.18C38.65,31,29.79,40.5,28.88,52.3c-.43,5.61,3.16,9.5,7.79,9.58,3,.05,5.34-1,6.63-3,1.07-1.67,1.35-4.25,1.52-3.06.62,4.54-1.28,8.91-2.31,12.72a12.33,12.33,0,0,1,4-.63h0a12.29,12.29,0,0,1,4,.63c-1-3.81-2.93-8.18-2.3-12.72.17-1.19.45,1.39,1.52,3.06,1.29,2,3.67,3.06,6.63,3,4.64-.09,8.23-4,7.79-9.58C63.34,40.5,54.47,31,46.89,26.19L46.61,26Z"/><path class="cls-2" d="M91.19,54.36l-.29.18c-7.6,4.85-16.46,14.31-17.37,26.1-.43,5.61,3.16,9.5,7.79,9.58,3,.05,5.34-1,6.63-3C89,85.54,89.3,83,89.47,84.16c.62,4.54-1.28,8.91-2.31,12.72a12.34,12.34,0,0,1,4-.63h0a12.3,12.3,0,0,1,4,.63c-1-3.81-2.93-8.18-2.3-12.72.17-1.19.45,1.39,1.52,3.06,1.29,2,3.67,3.06,6.63,3,4.64-.08,8.23-4,7.79-9.58-.91-11.79-9.77-21.25-17.36-26.1l-.27-.18Z"/><path class="cls-2" d="M134.41,26l-.29.18c-7.6,4.85-16.46,14.31-17.37,26.1-.43,5.61,3.16,9.5,7.79,9.58,3,.05,5.34-1,6.63-3,1.07-1.67,1.35-4.25,1.52-3.06.62,4.54-1.28,8.91-2.31,12.72a12.34,12.34,0,0,1,4-.63h0a12.3,12.3,0,0,1,4,.63c-1-3.81-2.93-8.18-2.3-12.72.17-1.19.45,1.39,1.52,3.06,1.29,2,3.67,3.06,6.63,3,4.64-.09,8.23-4,7.79-9.58-.91-11.79-9.77-21.25-17.36-26.1l-.27-.18Z"/><path class="cls-2" d="M46.54,78l-.29.18C38.65,83,29.79,92.47,28.88,104.26c-.43,5.61,3.16,9.49,7.79,9.58,3,.05,5.34-1,6.63-3,1.07-1.67,1.35-4.25,1.52-3.06.62,4.54-1.28,8.9-2.31,12.72a12.32,12.32,0,0,1,4-.63h0a12.28,12.28,0,0,1,4,.63c-1-3.81-2.93-8.18-2.3-12.72.17-1.19.45,1.39,1.52,3.06,1.29,2,3.67,3.06,6.63,3,4.64-.08,8.23-4,7.79-9.58C63.34,92.47,54.47,83,46.89,78.16L46.61,78Z"/><path class="cls-2" d="M133,78l-.29.18c-7.6,4.85-16.46,14.31-17.37,26.1-.43,5.61,3.16,9.49,7.79,9.58,3,.05,5.34-1,6.63-3,1.07-1.67,1.35-4.25,1.52-3.06.63,4.54-1.28,8.9-2.31,12.72a12.32,12.32,0,0,1,4-.63h0a12.29,12.29,0,0,1,4,.63c-1-3.81-2.93-8.18-2.3-12.72.17-1.19.45,1.39,1.52,3.06,1.29,2,3.67,3.06,6.63,3,4.64-.08,8.23-4,7.79-9.58-.91-11.79-9.77-21.25-17.36-26.1l-.27-.18Z"/><path class="cls-2" d="M46.54,224.43l-.29-.18c-7.59-4.85-16.46-14.31-17.36-26.1-.43-5.61,3.16-9.5,7.79-9.58,3-.05,5.34,1,6.63,3,1.07,1.67,1.35,4.25,1.52,3.06.62-4.54-1.28-8.91-2.31-12.72a12.33,12.33,0,0,0,4,.63h0a12.29,12.29,0,0,0,4-.63c-1,3.81-2.93,8.18-2.3,12.72.17,1.19.45-1.39,1.52-3.06,1.29-2,3.67-3.06,6.63-3,4.64.08,8.23,4,7.79,9.58-.91,11.79-9.77,21.25-17.36,26.1l-.27.18Z"/><path class="cls-2" d="M133,224.43l-.29-.18c-7.59-4.85-16.46-14.31-17.36-26.1-.43-5.61,3.15-9.5,7.79-9.58,3-.05,5.34,1,6.63,3,1.07,1.67,1.35,4.25,1.52,3.06.63-4.54-1.28-8.91-2.31-12.72a12.32,12.32,0,0,0,4,.63h0a12.28,12.28,0,0,0,4-.63c-1,3.81-2.93,8.18-2.3,12.72.17,1.19.45-1.39,1.52-3.06,1.29-2,3.67-3.06,6.63-3,4.64.08,8.23,4,7.79,9.58-.91,11.79-9.77,21.25-17.36,26.1l-.28.18Z"/><path class="cls-2" d="M46.54,172.46l-.29-.18c-7.59-4.85-16.46-14.31-17.36-26.1-.43-5.61,3.16-9.5,7.79-9.58,3-.05,5.34,1,6.63,3,1.07,1.67,1.35,4.25,1.52,3.06.62-4.54-1.28-8.91-2.31-12.72a12.33,12.33,0,0,0,4,.63h0a12.29,12.29,0,0,0,4-.63c-1,3.81-2.93,8.18-2.3,12.72.17,1.19.45-1.39,1.52-3.06,1.29-2,3.67-3.06,6.63-3,4.64.08,8.23,4,7.79,9.58-.91,11.79-9.77,21.25-17.36,26.1l-.27.18Z"/><path class="cls-2" d="M89.77,196.08l-.29-.18c-7.59-4.85-16.46-14.31-17.36-26.1-.43-5.61,3.16-9.5,7.79-9.58,3-.05,5.34,1,6.63,3,1.07,1.67,1.35,4.25,1.52,3.06.62-4.54-1.28-8.91-2.31-12.72a12.33,12.33,0,0,0,4,.63h0a12.28,12.28,0,0,0,4-.63c-1,3.81-2.93,8.18-2.3,12.72.17,1.19.45-1.39,1.52-3.06,1.29-2,3.67-3.06,6.63-3,4.64.09,8.23,4,7.79,9.58-.91,11.79-9.77,21.25-17.36,26.1l-.28.18Z"/><path class="cls-2" d="M133,172.46l-.29-.18c-7.59-4.85-16.46-14.31-17.36-26.1-.43-5.61,3.15-9.5,7.79-9.58,3-.05,5.34,1,6.63,3,1.07,1.67,1.35,4.25,1.52,3.06.63-4.54-1.28-8.91-2.31-12.72a12.32,12.32,0,0,0,4,.63h0a12.28,12.28,0,0,0,4-.63c-1,3.81-2.93,8.18-2.3,12.72.17,1.19.45-1.39,1.52-3.06,1.29-2,3.67-3.06,6.63-3,4.64.08,8.23,4,7.79,9.58-.91,11.79-9.77,21.25-17.36,26.1l-.28.18Z"/></g></g></svg>