<svg xmlns="http://www.w3.org/2000/svg" viewBox="0 0 179.58 250.45"><defs><style>.cls-1{fill:#f9faf9;}.cls-1,.cls-2,.cls-3{stroke:#231815;}.cls-2,.cls-3{fill:#231815;stroke-linejoin:round;fill-rule:evenodd;}.cls-2{stroke-width:0.16px;}.cls-3{stroke-width:0.07px;}</style></defs><title>资源 2</title><g id="图层_2" data-name="图层 2"><g id="two"><rect class="cls-1" x="0.5" y="0.5" width="178.58" height="249.45" rx="14.17" ry="14.17"/><path class="cls-2" d="M89.77,26l-.29.18C81.88,31,73,40.5,72.11,52.3c-.43,5.61,3.16,9.49,7.79,9.58,3,.05,5.34-1,6.63-3,1.07-1.67,1.35-4.25,1.52-3.06.62,4.54-1.28,8.91-2.31,12.72a12.32,12.32,0,0,1,4-.63h0a12.29,12.29,0,0,1,4,.63c-1-3.81-2.93-8.18-2.3-12.72.17-1.19.45,1.39,1.52,3.06,1.29,2,3.67,3.06,6.63,3,4.64-.08,8.23-4,7.79-9.58C106.56,40.5,97.7,31,90.11,26.19L89.84,26Z"/><path class="cls-2" d="M89.77,224.44l-.29-.18c-7.6-4.85-16.46-14.31-17.36-26.1-.43-5.61,3.16-9.5,7.79-9.58,3-.05,5.34,1,6.63,3,1.07,1.67,1.35,4.25,1.52,3.06.62-4.54-1.28-8.91-2.31-12.72a12.32,12.32,0,0,0,4,.63h0a12.29,12.29,0,0,0,4-.63c-1,3.81-2.93,8.18-2.3,12.72.17,1.19.45-1.39,1.52-3.06,1.29-2,3.67-3.06,6.63-3,4.64.09,8.23,4,7.79,9.58-.91,11.79-9.77,21.25-17.36,26.1l-.27.18Z"/><path class="cls-3" d="M13.25,43l-.12.07c-3,1.94-6.58,5.72-6.95,10.44A3.29,3.29,0,0,0,9.3,57.37,2.94,2.94,0,0,0,12,56.16c.43-.67.54-1.7.61-1.22.25,1.82-.51,3.56-.92,5.09a4.92,4.92,0,0,1,1.61-.25h0a4.91,4.91,0,0,1,1.61.25c-.41-1.53-1.17-3.27-.92-5.09.07-.48.18.55.61,1.22a2.93,2.93,0,0,0,2.65,1.2,3.29,3.29,0,0,0,3.12-3.83C20,48.82,16.42,45,13.39,43.09L13.28,43Z"/><path class="cls-3" d="M166.32,207.43l-.12-.07c-3-1.94-6.58-5.72-6.95-10.44a3.29,3.29,0,0,1,3.12-3.83,2.94,2.94,0,0,1,2.65,1.2c.43.67.54,1.7.61,1.22.25-1.82-.51-3.56-.92-5.09a4.92,4.92,0,0,0,1.61.25h0a4.91,4.91,0,0,0,1.61-.25c-.41,1.53-1.17,3.27-.92,5.09.07.48.18-.55.61-1.22a2.93,2.93,0,0,1,2.65-1.2,3.29,3.29,0,0,1,3.12,3.83c-.36,4.72-3.91,8.5-6.94,10.44l-.11.07Z"/><path d="M20.34,35H18.06v1.45H8.48a3.79,3.79,0,0,1,.46-1.24,14.37,14.37,0,0,1,2.39-3,42.92,42.92,0,0,1,3.42-3h0a42.8,42.8,0,0,0,3.62-3.1,7.07,7.07,0,0,0,1.24-1.76,6.4,6.4,0,0,0,.61-2.24c0-.17,0-.36,0-.56a8.06,8.06,0,0,0-.25-2,6.57,6.57,0,0,0-1.93-3.29,6.8,6.8,0,0,0-4.68-1.6,7,7,0,0,0-4,1.11,6.2,6.2,0,0,0-1.77,1.83A8.39,8.39,0,0,0,6.53,20.5a9.21,9.21,0,0,0-.18,1.69s0,.06,0,.07l2-.05h.3v0a7.08,7.08,0,0,1,.67-2.86,4.08,4.08,0,0,1,1.37-1.61A4.76,4.76,0,0,1,13.4,17a5.27,5.27,0,0,1,2.42.51,3.68,3.68,0,0,1,1.72,1.88A5.57,5.57,0,0,1,18,21.54c0,.13,0,.25,0,.34a4,4,0,0,1-.38,1.42,6,6,0,0,1-1.49,1.8c-.72.64-1.66,1.36-2.76,2.28A38.46,38.46,0,0,0,8.66,31.7,13.61,13.61,0,0,0,7,34a5.79,5.79,0,0,0-.77,2.38h0v.14h0v2.18H20.34V35Z"/><path d="M159.24,215.45h2.28V214h9.57a3.83,3.83,0,0,1-.46,1.24,14.36,14.36,0,0,1-2.39,3,42.89,42.89,0,0,1-3.42,3h0a42.8,42.8,0,0,0-3.62,3.1,7.09,7.09,0,0,0-1.24,1.76,6.42,6.42,0,0,0-.61,2.24c0,.17,0,.36,0,.56a8.06,8.06,0,0,0,.25,2,6.55,6.55,0,0,0,1.93,3.29,6.8,6.8,0,0,0,4.68,1.6,7,7,0,0,0,4-1.11,6.23,6.23,0,0,0,1.77-1.83,8.37,8.37,0,0,0,1.12-2.89,9.26,9.26,0,0,0,.18-1.7s0-.06,0-.07l-2,.05H171v0a7.08,7.08,0,0,1-.67,2.86,4.09,4.09,0,0,1-1.37,1.61,4.76,4.76,0,0,1-2.73.72,5.26,5.26,0,0,1-2.42-.51,3.68,3.68,0,0,1-1.72-1.88,5.56,5.56,0,0,1-.44-2.14c0-.13,0-.25,0-.34a4,4,0,0,1,.38-1.42,6,6,0,0,1,1.49-1.8c.72-.64,1.66-1.36,2.76-2.28a38.25,38.25,0,0,0,4.67-4.33,13.62,13.62,0,0,0,1.71-2.35,5.79,5.79,0,0,0,.77-2.38h0v-.14h0v-2.18H159.24v3.77Z"/></g></g></svg>