<svg xmlns="http://www.w3.org/2000/svg" viewBox="0 0 179.58 250.45"><defs><style>.cls-1{fill:#f9faf9;}.cls-1,.cls-2,.cls-3{stroke:#231815;}.cls-2,.cls-3{fill:#231815;stroke-linejoin:round;fill-rule:evenodd;}.cls-2{stroke-width:0.07px;}.cls-3{stroke-width:0.16px;}</style></defs><title>资源 3</title><g id="图层_2" data-name="图层 2"><g id="three"><rect class="cls-1" x="0.5" y="0.5" width="178.58" height="249.45" rx="14.17" ry="14.17"/><path d="M14.31,22.46l5.88-5.25h0v0h0V14.67H6.68v4.07H8.77V17.2h7.91l-7.77,7.2L10,26.06a4.52,4.52,0,0,1,3.08-1.24,4.91,4.91,0,0,1,3.64,1.68,6.39,6.39,0,0,1,0,8.11,4.91,4.91,0,0,1-3.64,1.68,4.62,4.62,0,0,1-3.5-1.68,6,6,0,0,1-1.33-2.78l-2.11.44c.68,3.72,3.53,6.5,6.94,6.51,3.92,0,7.23-3.68,7.23-8.22C20.34,26.49,17.68,23.12,14.31,22.46Z"/><polygon points="10.03 26.06 10.03 26.06 10.03 26.06 10.03 26.06"/><path d="M165.27,228l-5.88,5.25h0v0h0v2.51h13.53v-4.07h-2.08v1.54h-7.91l7.77-7.2-1.12-1.66a4.52,4.52,0,0,1-3.08,1.24,4.91,4.91,0,0,1-3.64-1.68,6.39,6.39,0,0,1,0-8.11,4.91,4.91,0,0,1,3.64-1.68,4.61,4.61,0,0,1,3.5,1.68,6,6,0,0,1,1.33,2.78l2.11-.44c-.68-3.72-3.53-6.5-6.94-6.51-3.92,0-7.23,3.68-7.23,8.22C159.24,224,161.9,227.33,165.27,228Z"/><polygon points="169.56 224.39 169.56 224.39 169.56 224.39 169.56 224.39"/><path class="cls-2" d="M166.32,207.43l-.12-.07c-3-1.94-6.58-5.72-6.95-10.44a3.29,3.29,0,0,1,3.12-3.83,2.93,2.93,0,0,1,2.65,1.2c.43.67.54,1.7.61,1.22.25-1.82-.51-3.56-.92-5.09a4.92,4.92,0,0,0,1.61.25h0a4.9,4.9,0,0,0,1.61-.25c-.41,1.53-1.17,3.27-.92,5.09.07.48.18-.55.61-1.22a2.93,2.93,0,0,1,2.65-1.2,3.29,3.29,0,0,1,3.12,3.83c-.36,4.72-3.91,8.5-6.94,10.44l-.11.07Z"/><path class="cls-2" d="M13.25,43l-.12.07c-3,1.94-6.58,5.72-6.95,10.44A3.29,3.29,0,0,0,9.3,57.37,2.93,2.93,0,0,0,12,56.16c.43-.67.54-1.7.61-1.22.25,1.82-.51,3.56-.92,5.09a4.92,4.92,0,0,1,1.61-.25h0a4.9,4.9,0,0,1,1.61.25c-.41-1.53-1.17-3.27-.92-5.09.07-.48.18.55.61,1.22a2.93,2.93,0,0,0,2.65,1.2,3.29,3.29,0,0,0,3.12-3.83C20,48.82,16.42,45,13.39,43.09L13.28,43Z"/><path class="cls-3" d="M89.77,26l-.29.18C81.88,31,73,40.5,72.11,52.3c-.43,5.61,3.15,9.49,7.79,9.58,3,.05,5.34-1,6.63-3,1.07-1.67,1.35-4.25,1.52-3.06.62,4.54-1.28,8.91-2.3,12.72a12.32,12.32,0,0,1,4-.63h0a12.3,12.3,0,0,1,4,.63c-1-3.81-2.93-8.18-2.3-12.72.17-1.19.45,1.39,1.52,3.06,1.29,2,3.67,3.06,6.63,3,4.64-.08,8.22-4,7.79-9.58C106.57,40.5,97.7,31,90.11,26.19L89.84,26Z"/><path class="cls-3" d="M89.77,104l-.29.18C81.88,109,73,118.46,72.11,130.25c-.43,5.61,3.15,9.5,7.79,9.58,3,.05,5.34-1,6.63-3,1.07-1.67,1.35-4.25,1.52-3.06.62,4.54-1.28,8.91-2.3,12.72a12.32,12.32,0,0,1,4-.63h0a12.3,12.3,0,0,1,4,.63c-1-3.81-2.93-8.18-2.3-12.72.17-1.19.45,1.39,1.52,3.06,1.29,2,3.67,3.06,6.63,3,4.64-.08,8.22-4,7.79-9.58-.91-11.79-9.77-21.25-17.36-26.1l-.28-.18Z"/><path class="cls-3" d="M89.77,224.44l-.29-.18c-7.59-4.85-16.46-14.31-17.36-26.1-.43-5.61,3.15-9.5,7.79-9.58,3-.05,5.34,1,6.63,3,1.07,1.67,1.35,4.25,1.52,3.06.62-4.54-1.28-8.91-2.3-12.72a12.32,12.32,0,0,0,4,.63h0a12.3,12.3,0,0,0,4-.63c-1,3.81-2.93,8.18-2.3,12.72.17,1.19.45-1.39,1.52-3.06,1.29-2,3.67-3.06,6.63-3,4.64.08,8.22,4,7.79,9.58-.91,11.79-9.77,21.25-17.36,26.1l-.28.18Z"/></g></g></svg>