<svg xmlns="http://www.w3.org/2000/svg" viewBox="0 0 179.58 250.45"><defs><style>.cls-1{fill:#f9faf9;}.cls-1,.cls-3{stroke:#231815;}.cls-2,.cls-3{fill-rule:evenodd;}.cls-3{fill:#231815;stroke-linejoin:round;stroke-width:0.16px;}</style></defs><title>资源 4</title><g id="图层_2" data-name="图层 2"><g id="four"><rect class="cls-1" x="0.5" y="0.5" width="178.58" height="249.45" rx="14.17" ry="14.17"/><path class="cls-2" d="M14.57,56.16c-.43-.67-.54-1.7-.61-1.22-.25,1.82.51,3.56.92,5.09a5.35,5.35,0,0,0-3.25,0,13.38,13.38,0,0,0,1-5.09c-.08-.43-.19.52-.63,1.21a3,3,0,0,1-2.62,1.22A3.13,3.13,0,0,1,6.2,54.8a6.45,6.45,0,0,1,0-1.21c.33-4.69,4-8.8,7.06-10.58.06,0,.07.07.14.07,3,1.94,6.56,5.73,6.92,10.45.17,2.25-.95,3.87-3.11,3.88A3,3,0,0,1,14.57,56.16Z"/><path class="cls-2" d="M165,194.29c.43.67.54,1.7.6,1.22.25-1.82-.51-3.56-.92-5.09a5.33,5.33,0,0,0,3.25,0,13.37,13.37,0,0,0-1,5.09c.08.44.19-.52.63-1.2a3,3,0,0,1,2.62-1.22,3.13,3.13,0,0,1,3.17,2.56,6.55,6.55,0,0,1,0,1.21c-.33,4.69-4,8.8-7.06,10.58-.06,0-.07-.07-.14-.07-3-1.94-6.56-5.73-6.92-10.45-.17-2.24.95-3.87,3.11-3.88A3,3,0,0,1,165,194.29Z"/><polygon points="173.4 219.6 173.41 220.21 164.54 235.77 164.3 235.77 162.84 234.2 171.79 218.46 173.4 219.6"/><polygon points="164.46 235.77 162.23 235.78 162.22 211.74 164.45 211.73 164.46 235.77 164.46 235.77"/><polygon points="165.95 214.07 160.71 214.09 160.71 211.7 165.94 211.68 165.95 214.07 165.95 214.07"/><polygon points="173.41 217.82 173.41 220.21 159.24 220.21 159.24 217.82 173.41 217.82 173.41 217.82"/><path class="cls-3" d="M46.54,26l-.29.18C38.65,31,29.79,40.5,28.88,52.3c-.43,5.61,3.16,9.49,7.79,9.58,3,.05,5.34-1,6.63-3,1.07-1.67,1.35-4.25,1.52-3.06.63,4.54-1.28,8.91-2.31,12.72a12.32,12.32,0,0,1,4-.63h0a12.28,12.28,0,0,1,4,.63c-1-3.81-2.93-8.18-2.3-12.72.17-1.19.45,1.39,1.52,3.06,1.29,2,3.67,3.06,6.63,3,4.64-.08,8.23-4,7.79-9.58C63.34,40.5,54.47,31,46.89,26.19L46.61,26Z"/><path class="cls-3" d="M133,26l-.29.18c-7.6,4.85-16.46,14.31-17.36,26.1-.43,5.61,3.15,9.49,7.79,9.58,3,.05,5.34-1,6.63-3,1.07-1.67,1.35-4.25,1.52-3.06.63,4.54-1.28,8.91-2.3,12.72a12.31,12.31,0,0,1,4-.63h0a12.29,12.29,0,0,1,4,.63c-1-3.81-2.93-8.18-2.3-12.72.17-1.19.45,1.39,1.52,3.06,1.29,2,3.67,3.06,6.63,3,4.64-.08,8.23-4,7.79-9.58-.91-11.79-9.77-21.25-17.36-26.1l-.28-.18Z"/><path class="cls-3" d="M46.54,224.44l-.29-.18c-7.59-4.85-16.46-14.31-17.36-26.1-.43-5.61,3.16-9.49,7.79-9.58,3-.05,5.34,1,6.63,3,1.07,1.67,1.35,4.25,1.52,3.06.63-4.54-1.28-8.91-2.31-12.72a12.33,12.33,0,0,0,4,.63h0a12.29,12.29,0,0,0,4-.63c-1,3.81-2.93,8.18-2.3,12.72.17,1.19.45-1.39,1.52-3.06,1.29-2,3.67-3.06,6.63-3,4.64.09,8.23,4,7.79,9.58-.91,11.79-9.77,21.25-17.36,26.1l-.27.18Z"/><path class="cls-3" d="M133,224.44l-.29-.18c-7.6-4.85-16.46-14.31-17.36-26.1-.43-5.61,3.15-9.49,7.79-9.58,3-.05,5.34,1,6.63,3,1.07,1.67,1.35,4.25,1.52,3.06.63-4.54-1.28-8.91-2.3-12.72a12.32,12.32,0,0,0,4,.63h0a12.29,12.29,0,0,0,4-.63c-1,3.81-2.93,8.18-2.3,12.72.17,1.19.45-1.39,1.52-3.06,1.29-2,3.67-3.06,6.63-3,4.64.09,8.23,4,7.79,9.58-.91,11.79-9.77,21.25-17.36,26.1l-.28.18Z"/><polygon points="6.18 30.85 6.17 30.24 15.05 14.68 15.28 14.68 16.75 16.25 7.8 31.99 6.18 30.85"/><polygon points="15.12 14.68 17.36 14.67 17.37 38.71 15.13 38.72 15.12 14.68 15.12 14.68"/><polygon points="13.63 36.38 18.87 36.36 18.88 38.75 13.64 38.77 13.63 36.38 13.63 36.38"/><polygon points="6.17 32.63 6.17 30.24 20.34 30.24 20.34 32.63 6.17 32.63 6.17 32.63"/></g></g></svg>