<svg xmlns="http://www.w3.org/2000/svg" viewBox="0 0 179.58 250.45"><defs><style>.cls-1{fill:#f9faf9;}.cls-1,.cls-2,.cls-3,.cls-4{stroke:#231815;}.cls-3,.cls-4{fill:#231815;stroke-linejoin:round;fill-rule:evenodd;}.cls-3{stroke-width:0.07px;}.cls-4{stroke-width:0.16px;}</style></defs><title>资源 5</title><g id="图层_2" data-name="图层 2"><g id="five"><rect class="cls-1" x="0.5" y="0.5" width="178.58" height="249.45" rx="14.17" ry="14.17"/><path class="cls-2" d="M18.23,23.63A6.84,6.84,0,0,0,12.95,21a6.44,6.44,0,0,0-3.59,1.12V17h9.37V14.67H7.11v.83h0v9.73H9.36a5,5,0,0,1,3.59-1.9,4.62,4.62,0,0,1,3.58,1.85,7.79,7.79,0,0,1,0,9.37,4.63,4.63,0,0,1-3.58,1.84,4.36,4.36,0,0,1-2.77-1,6.37,6.37,0,0,1-1.91-2.78l-2.1.85A8.74,8.74,0,0,0,8.8,37.25a6.55,6.55,0,0,0,4.14,1.52h0a6.84,6.84,0,0,0,5.28-2.67,10.26,10.26,0,0,0,0-12.46Z"/><path class="cls-2" d="M161.35,226.81a6.84,6.84,0,0,0,5.29,2.68,6.44,6.44,0,0,0,3.59-1.12v5h-9.37v2.38h11.61v-.83h0v-9.73h-2.25a4.94,4.94,0,0,1-3.59,1.9,4.62,4.62,0,0,1-3.58-1.85,7.79,7.79,0,0,1,0-9.37,4.63,4.63,0,0,1,3.58-1.85,4.36,4.36,0,0,1,2.77,1,6.38,6.38,0,0,1,1.91,2.78l2.1-.85a8.73,8.73,0,0,0-2.64-3.81,6.55,6.55,0,0,0-4.14-1.52h0a6.84,6.84,0,0,0-5.28,2.67,10.25,10.25,0,0,0,0,12.46Z"/><path class="cls-3" d="M13.25,43l-.12.07c-3,1.94-6.58,5.72-6.95,10.44A3.29,3.29,0,0,0,9.3,57.37,2.93,2.93,0,0,0,12,56.16c.43-.67.54-1.7.61-1.22.25,1.82-.51,3.56-.92,5.09a4.92,4.92,0,0,1,1.61-.25h0a4.91,4.91,0,0,1,1.61.25c-.41-1.53-1.17-3.27-.92-5.09.07-.48.18.55.61,1.22a2.93,2.93,0,0,0,2.65,1.2,3.29,3.29,0,0,0,3.12-3.83C20,48.82,16.42,45,13.38,43.09L13.27,43Z"/><path class="cls-3" d="M166.32,207.43l-.12-.07c-3-1.94-6.58-5.72-6.95-10.44a3.29,3.29,0,0,1,3.12-3.83,2.93,2.93,0,0,1,2.65,1.2c.43.67.54,1.7.61,1.22.25-1.82-.51-3.56-.92-5.09a5,5,0,0,0,1.61.25h0a4.94,4.94,0,0,0,1.61-.25c-.41,1.53-1.17,3.27-.92,5.09.07.48.18-.55.61-1.22a2.93,2.93,0,0,1,2.65-1.2,3.29,3.29,0,0,1,3.12,3.83c-.36,4.72-3.91,8.5-6.94,10.44l-.11.07Z"/><path class="cls-4" d="M46.54,26l-.29.18C38.65,31,29.79,40.5,28.88,52.3c-.43,5.61,3.16,9.49,7.79,9.58,3,.05,5.34-1,6.63-3,1.07-1.67,1.35-4.25,1.52-3.06.62,4.54-1.28,8.91-2.31,12.72a12.33,12.33,0,0,1,4-.63h0a12.29,12.29,0,0,1,4,.63c-1-3.81-2.93-8.18-2.3-12.72.17-1.19.45,1.39,1.52,3.06,1.29,2,3.67,3.06,6.63,3,4.64-.08,8.23-4,7.79-9.58C63.33,40.5,54.47,31,46.88,26.19L46.61,26Z"/><path class="cls-4" d="M133,26l-.29.18c-7.6,4.85-16.45,14.31-17.36,26.1-.43,5.61,3.15,9.49,7.79,9.58,3,.05,5.34-1,6.63-3,1.07-1.67,1.35-4.25,1.52-3.06.63,4.54-1.28,8.91-2.3,12.72a12.32,12.32,0,0,1,4-.63h0a12.29,12.29,0,0,1,4,.63c-1-3.81-2.93-8.18-2.3-12.72.17-1.19.45,1.39,1.52,3.06,1.29,2,3.67,3.06,6.63,3,4.64-.08,8.23-4,7.79-9.58-.91-11.79-9.77-21.25-17.36-26.1l-.28-.18Z"/><path class="cls-4" d="M89.77,104l-.29.18C81.88,109,73,118.45,72.11,130.25c-.43,5.61,3.16,9.49,7.79,9.58,3,.05,5.34-1,6.63-3,1.07-1.67,1.35-4.25,1.52-3.06.62,4.54-1.28,8.91-2.3,12.72a12.32,12.32,0,0,1,4-.63h0a12.29,12.29,0,0,1,4,.63c-1-3.81-2.93-8.18-2.3-12.72.17-1.19.45,1.39,1.52,3.06,1.29,2,3.67,3.06,6.63,3,4.64-.08,8.23-4,7.79-9.58-.91-11.79-9.77-21.26-17.36-26.1l-.28-.18Z"/><path class="cls-4" d="M46.54,224.44l-.29-.18c-7.59-4.85-16.46-14.31-17.36-26.1-.43-5.61,3.16-9.49,7.79-9.58,3-.05,5.34,1,6.63,3,1.07,1.67,1.35,4.25,1.52,3.06.62-4.54-1.28-8.91-2.31-12.72a12.33,12.33,0,0,0,4,.63h0a12.29,12.29,0,0,0,4-.63c-1,3.81-2.93,8.18-2.3,12.72.17,1.19.45-1.39,1.52-3.06,1.29-2,3.67-3.06,6.63-3,4.64.09,8.23,4,7.79,9.58-.91,11.79-9.77,21.25-17.36,26.1l-.27.18Z"/><path class="cls-4" d="M133,224.44l-.29-.18c-7.59-4.85-16.45-14.31-17.36-26.1-.43-5.61,3.15-9.49,7.79-9.58,3-.05,5.34,1,6.63,3,1.07,1.67,1.35,4.25,1.52,3.06.63-4.54-1.28-8.91-2.31-12.72a12.32,12.32,0,0,0,4,.63h0a12.28,12.28,0,0,0,4-.63c-1,3.81-2.93,8.18-2.3,12.72.17,1.19.45-1.39,1.52-3.06,1.29-2,3.67-3.06,6.63-3,4.64.09,8.23,4,7.79,9.58-.91,11.79-9.77,21.25-17.36,26.1l-.28.18Z"/></g></g></svg>