<svg xmlns="http://www.w3.org/2000/svg" viewBox="0 0 179.58 250.45"><defs><style>.cls-1{fill:#f9faf9;}.cls-1,.cls-3,.cls-4{stroke:#231815;}.cls-2{fill:none;}.cls-3,.cls-4{fill:#231815;stroke-linejoin:round;fill-rule:evenodd;}.cls-3{stroke-width:0.07px;}.cls-4{stroke-width:0.16px;}</style></defs><title>资源 6</title><g id="图层_2" data-name="图层 2"><g id="six"><rect class="cls-1" x="0.5" y="0.5" width="178.58" height="249.45" rx="14.17" ry="14.17"/><path class="cls-2" d="M15.36,24.28a4.37,4.37,0,0,0-2-.46h-.06a4.14,4.14,0,0,0-2,.51,4.62,4.62,0,0,0-1.5,1.35,8,8,0,0,0-1.34,4.64c0,.12,0,.23,0,.34s0,.18,0,.27h0A6.72,6.72,0,0,0,9.84,34.7a4.3,4.3,0,0,0,3.44,1.67,4.24,4.24,0,0,0,2-.48,4.61,4.61,0,0,0,1.51-1.32A7.64,7.64,0,0,0,18.16,30a8.07,8.07,0,0,0-.76-3.57A4.68,4.68,0,0,0,15.36,24.28Z"/><path d="M18.52,24a6.59,6.59,0,0,0-2.23-1.89,6.4,6.4,0,0,0-2.94-.69h-.08a6.19,6.19,0,0,0-2.95.77A6.58,6.58,0,0,0,8.76,23.4c0-.25.08-.49.13-.71.13-.68.26-1.21.36-1.58l.12-.41,0-.1v0h0v-.06h0a5.91,5.91,0,0,1,.91-1.74,4.49,4.49,0,0,1,1.24-1.13,4.07,4.07,0,0,1,1.92-.58h.32a4.59,4.59,0,0,1,3,1,4.26,4.26,0,0,1,.66.66l.14.19,0,0h0l.54-.39,1.3-.89a5.9,5.9,0,0,0-1.39-1.55,6.67,6.67,0,0,0-4.24-1.45h-.43a6.11,6.11,0,0,0-2.95.92A7.23,7.23,0,0,0,8,18.25a7.92,7.92,0,0,0-.66,1.55,29.67,29.67,0,0,0-1.16,8.38c0,.85,0,1.75.13,2.67a9.32,9.32,0,0,0,1.9,5.44,6.42,6.42,0,0,0,5.06,2.48h0a6.25,6.25,0,0,0,3-.72,7.26,7.26,0,0,0,3.06-3.27A10.84,10.84,0,0,0,20.34,30,9.91,9.91,0,0,0,18.52,24ZM16.79,34.57a4.61,4.61,0,0,1-1.51,1.32,4.24,4.24,0,0,1-2,.48A4.3,4.3,0,0,1,9.84,34.7a6.72,6.72,0,0,1-1.35-3.76h0c0-.09,0-.18,0-.27s0-.23,0-.34a8,8,0,0,1,1.34-4.64,4.62,4.62,0,0,1,1.5-1.35,4.14,4.14,0,0,1,2-.51h.06a4.37,4.37,0,0,1,2,.46,4.68,4.68,0,0,1,2,2.15A8.07,8.07,0,0,1,18.16,30,7.64,7.64,0,0,1,16.79,34.57Z"/><path class="cls-2" d="M164.22,226.17a4.4,4.4,0,0,0,2,.46h.06a4.14,4.14,0,0,0,2-.51,4.6,4.6,0,0,0,1.5-1.36,8,8,0,0,0,1.34-4.64c0-.12,0-.23,0-.34s0-.18,0-.27h0a6.71,6.71,0,0,0-1.35-3.76,4.3,4.3,0,0,0-3.44-1.67,4.22,4.22,0,0,0-2,.48,4.6,4.6,0,0,0-1.51,1.32,7.64,7.64,0,0,0-1.36,4.57,8,8,0,0,0,.76,3.57A4.68,4.68,0,0,0,164.22,226.17Z"/><path d="M161.06,226.45a6.61,6.61,0,0,0,2.23,1.89,6.41,6.41,0,0,0,2.94.69h.08a6.19,6.19,0,0,0,2.95-.77,6.58,6.58,0,0,0,1.56-1.22c0,.25-.08.49-.13.71-.13.68-.26,1.21-.36,1.58l-.12.41,0,.1v0h0v.05h0a6,6,0,0,1-.91,1.74,4.52,4.52,0,0,1-1.24,1.13,4.07,4.07,0,0,1-1.92.58h-.32a4.6,4.6,0,0,1-3-1,4.32,4.32,0,0,1-.66-.65l-.14-.2,0,0h0l-.54.39-1.3.89a5.91,5.91,0,0,0,1.39,1.55,6.67,6.67,0,0,0,4.24,1.45h.43a6.12,6.12,0,0,0,2.95-.92,7.22,7.22,0,0,0,2.44-2.65,7.86,7.86,0,0,0,.66-1.55,29.66,29.66,0,0,0,1.16-8.38c0-.85,0-1.75-.13-2.67a9.31,9.31,0,0,0-1.9-5.43,6.41,6.41,0,0,0-5.06-2.48h0a6.24,6.24,0,0,0-3,.72,7.28,7.28,0,0,0-3.05,3.27,10.84,10.84,0,0,0-1.06,4.79A9.91,9.91,0,0,0,161.06,226.45Zm1.73-10.57a4.6,4.6,0,0,1,1.51-1.32,4.22,4.22,0,0,1,2-.48,4.3,4.3,0,0,1,3.44,1.67,6.71,6.71,0,0,1,1.35,3.76h0c0,.09,0,.18,0,.27s0,.23,0,.34a8,8,0,0,1-1.34,4.64,4.6,4.6,0,0,1-1.5,1.36,4.14,4.14,0,0,1-2,.51h-.06a4.4,4.4,0,0,1-2-.46,4.68,4.68,0,0,1-2-2.15,8,8,0,0,1-.76-3.57A7.64,7.64,0,0,1,162.79,215.88Z"/><path class="cls-3" d="M13.25,43l-.12.07c-3,1.94-6.58,5.72-6.95,10.44A3.29,3.29,0,0,0,9.3,57.37,2.93,2.93,0,0,0,12,56.16c.43-.67.54-1.7.61-1.22.25,1.82-.51,3.56-.92,5.09a4.92,4.92,0,0,1,1.61-.25h0a4.91,4.91,0,0,1,1.61.25c-.41-1.53-1.17-3.27-.92-5.09.07-.48.18.55.61,1.22a2.93,2.93,0,0,0,2.65,1.2,3.29,3.29,0,0,0,3.12-3.83C20,48.82,16.42,45,13.39,43.09L13.27,43Z"/><path class="cls-3" d="M166.32,207.43l-.12-.07c-3-1.94-6.58-5.72-6.95-10.44a3.29,3.29,0,0,1,3.12-3.83,2.93,2.93,0,0,1,2.65,1.2c.43.67.54,1.7.61,1.22.25-1.82-.51-3.56-.92-5.09a5,5,0,0,0,1.61.25h0a4.93,4.93,0,0,0,1.61-.25c-.41,1.53-1.17,3.27-.92,5.09.07.48.18-.55.61-1.22a2.93,2.93,0,0,1,2.65-1.2,3.29,3.29,0,0,1,3.12,3.83c-.36,4.72-3.91,8.5-6.94,10.44l-.11.07Z"/><path class="cls-4" d="M46.54,26l-.29.18C38.65,31,29.79,40.5,28.88,52.3c-.43,5.61,3.16,9.5,7.79,9.58,3,.05,5.34-1,6.63-3,1.07-1.67,1.35-4.25,1.52-3.06.63,4.54-1.28,8.91-2.31,12.72a12.33,12.33,0,0,1,4-.63h0a12.29,12.29,0,0,1,4,.63c-1-3.81-2.93-8.18-2.3-12.72.17-1.19.45,1.39,1.52,3.06,1.29,2,3.67,3.06,6.63,3,4.64-.08,8.23-4,7.79-9.58C63.34,40.5,54.47,31,46.89,26.19L46.61,26Z"/><path class="cls-4" d="M133,26l-.29.18c-7.6,4.85-16.46,14.31-17.36,26.1-.43,5.61,3.15,9.49,7.79,9.58,3,.05,5.34-1,6.63-3,1.07-1.67,1.35-4.25,1.52-3.06.63,4.54-1.28,8.91-2.3,12.72a12.32,12.32,0,0,1,4-.63h0a12.29,12.29,0,0,1,4,.63c-1-3.81-2.93-8.18-2.3-12.72.17-1.19.45,1.39,1.52,3.06,1.29,2,3.67,3.06,6.63,3,4.64-.09,8.22-4,7.79-9.58-.91-11.79-9.77-21.25-17.36-26.1l-.28-.18Z"/><path class="cls-4" d="M46.54,104l-.29.18c-7.6,4.85-16.46,14.31-17.36,26.1-.43,5.61,3.16,9.49,7.79,9.58,3,.05,5.34-1,6.63-3,1.07-1.67,1.35-4.25,1.52-3.06.63,4.54-1.28,8.91-2.31,12.72a12.33,12.33,0,0,1,4-.63h0a12.3,12.3,0,0,1,4,.63c-1-3.81-2.93-8.18-2.3-12.72.17-1.19.45,1.39,1.52,3.06,1.29,2,3.67,3.06,6.63,3,4.64-.08,8.23-4,7.79-9.58-.91-11.79-9.77-21.25-17.36-26.1l-.27-.18Z"/><path class="cls-4" d="M133,104l-.29.18c-7.6,4.85-16.46,14.31-17.36,26.1-.43,5.61,3.15,9.49,7.79,9.58,3,.05,5.34-1,6.63-3,1.07-1.67,1.35-4.25,1.52-3.06.63,4.54-1.28,8.91-2.3,12.72a12.32,12.32,0,0,1,4-.63h0a12.29,12.29,0,0,1,4,.63c-1-3.81-2.93-8.18-2.3-12.72.17-1.19.45,1.39,1.52,3.06,1.29,2,3.67,3.06,6.63,3,4.64-.08,8.22-4,7.79-9.58-.91-11.79-9.77-21.25-17.36-26.1l-.28-.18Z"/><path class="cls-4" d="M46.54,224.43l-.29-.18c-7.6-4.85-16.46-14.31-17.36-26.1-.43-5.61,3.16-9.49,7.79-9.58,3-.05,5.34,1,6.63,3,1.07,1.67,1.35,4.25,1.52,3.06.63-4.54-1.28-8.91-2.31-12.72a12.33,12.33,0,0,0,4,.63h0a12.29,12.29,0,0,0,4-.63c-1,3.81-2.93,8.18-2.3,12.72.17,1.19.45-1.38,1.52-3.06,1.29-2,3.67-3.06,6.63-3,4.64.09,8.23,4,7.79,9.58-.91,11.79-9.77,21.25-17.36,26.1l-.27.18Z"/><path class="cls-4" d="M133,224.43l-.29-.18c-7.6-4.85-16.46-14.31-17.36-26.1-.43-5.61,3.15-9.49,7.79-9.58,3-.05,5.34,1,6.63,3,1.07,1.67,1.35,4.25,1.52,3.06.63-4.54-1.28-8.91-2.3-12.72a12.32,12.32,0,0,0,4,.63h0a12.29,12.29,0,0,0,4-.63c-1,3.81-2.93,8.18-2.3,12.72.17,1.19.45-1.39,1.52-3.06,1.29-2,3.67-3.06,6.63-3,4.64.08,8.22,4,7.79,9.58-.91,11.79-9.77,21.26-17.36,26.1l-.28.18Z"/></g></g></svg>