<svg xmlns="http://www.w3.org/2000/svg" viewBox="0 0 179.58 250.44"><defs><style>.cls-1{fill:#f9faf9;}.cls-1,.cls-3,.cls-4{stroke:#231815;}.cls-2{fill:none;}.cls-3,.cls-4{fill:#231815;stroke-linejoin:round;fill-rule:evenodd;}.cls-3{stroke-width:0.07px;}.cls-4{stroke-width:0.16px;}</style></defs><title>资源 8</title><g id="图层_2" data-name="图层 2"><g id="ten"><rect class="cls-1" x="0.5" y="0.5" width="178.58" height="249.44" rx="14.17" ry="14.17"/><path class="cls-2" d="M13.26,27.11h0A4.85,4.85,0,0,0,9.84,28.5a4.41,4.41,0,0,0,0,6.35,4.92,4.92,0,0,0,6.83,0,4.41,4.41,0,0,0,0-6.35A4.86,4.86,0,0,0,13.26,27.11Z"/><path class="cls-2" d="M13.26,24.56a4,4,0,0,0,2.83-1.14,3.61,3.61,0,0,0,0-5.21,4,4,0,0,0-2.83-1.14h0a4,4,0,0,0-2.82,1.14,3.61,3.61,0,0,0,0,5.21A4,4,0,0,0,13.26,24.56Z"/><path d="M18.22,26.61a7.09,7.09,0,0,0-1.22-1,6.51,6.51,0,0,0,.54-.46,6.12,6.12,0,1,0-8.57,0,5.94,5.94,0,0,0,.54.46,7,7,0,0,0-1.22,1,7.09,7.09,0,1,0,9.93,0ZM10.43,18.2a4,4,0,0,1,2.82-1.14h0a4,4,0,0,1,2.83,1.14,3.61,3.61,0,0,1,0,5.21,4.07,4.07,0,0,1-5.65,0,3.61,3.61,0,0,1,0-5.21Zm6.24,16.65a4.92,4.92,0,0,1-6.83,0,4.41,4.41,0,0,1,0-6.35,4.85,4.85,0,0,1,3.42-1.38h0a4.86,4.86,0,0,1,3.42,1.38,4.41,4.41,0,0,1,0,6.35Z"/><path class="cls-2" d="M166.33,223.33h0a4.87,4.87,0,0,0,3.42-1.38,4.41,4.41,0,0,0,0-6.36,4.92,4.92,0,0,0-6.84,0,4.41,4.41,0,0,0,0,6.36A4.87,4.87,0,0,0,166.33,223.33Z"/><path class="cls-2" d="M166.33,225.89A4,4,0,0,0,163.5,227a3.61,3.61,0,0,0,0,5.21,4,4,0,0,0,2.83,1.14h0a4,4,0,0,0,2.82-1.14,3.61,3.61,0,0,0,0-5.21A4,4,0,0,0,166.33,225.89Z"/><path d="M161.36,223.83a7.1,7.1,0,0,0,1.22,1,6.12,6.12,0,1,0,8,.46,6.42,6.42,0,0,0-.54-.46,7.08,7.08,0,1,0-8.71-1Zm7.79,8.41a4,4,0,0,1-2.82,1.14h0a4,4,0,0,1-2.83-1.14,3.61,3.61,0,0,1,0-5.21,4.07,4.07,0,0,1,5.65,0,3.61,3.61,0,0,1,0,5.21Zm-6.24-16.65a4.92,4.92,0,0,1,6.84,0,4.41,4.41,0,0,1,0,6.36,4.87,4.87,0,0,1-3.42,1.38h0a4.87,4.87,0,0,1-3.42-1.38,4.41,4.41,0,0,1,0-6.36Z"/><path class="cls-3" d="M13.25,43l-.12.07c-3,1.94-6.58,5.72-6.95,10.44A3.29,3.29,0,0,0,9.3,57.37,2.94,2.94,0,0,0,12,56.16c.43-.67.54-1.7.61-1.22.25,1.82-.51,3.56-.92,5.09a4.92,4.92,0,0,1,1.61-.25h0a4.91,4.91,0,0,1,1.61.25c-.41-1.53-1.17-3.27-.92-5.09.07-.48.18.55.61,1.22a2.93,2.93,0,0,0,2.65,1.2,3.29,3.29,0,0,0,3.12-3.83C20,48.82,16.42,45,13.39,43.09L13.28,43Z"/><path class="cls-3" d="M166.32,207.42l-.12-.07c-3-1.94-6.58-5.72-6.95-10.44a3.29,3.29,0,0,1,3.12-3.83,2.94,2.94,0,0,1,2.65,1.2c.43.67.54,1.7.61,1.22.25-1.82-.51-3.56-.92-5.09a4.9,4.9,0,0,0,1.61.25h0a4.88,4.88,0,0,0,1.61-.25c-.41,1.53-1.17,3.27-.92,5.09.07.48.18-.55.61-1.22a2.94,2.94,0,0,1,2.65-1.2,3.29,3.29,0,0,1,3.12,3.83c-.37,4.72-3.91,8.5-6.94,10.44l-.11.07Z"/><path class="cls-4" d="M46.54,26l-.29.18C38.65,31,29.79,40.5,28.88,52.3c-.43,5.61,3.16,9.5,7.79,9.58,3,.05,5.34-1,6.63-3,1.07-1.67,1.35-4.25,1.52-3.06.62,4.54-1.28,8.91-2.31,12.72a12.33,12.33,0,0,1,4-.63h0a12.3,12.3,0,0,1,4,.63c-1-3.81-2.93-8.18-2.3-12.72.17-1.19.45,1.39,1.52,3.06,1.29,2,3.67,3.06,6.63,3,4.64-.08,8.23-4,7.79-9.58C63.34,40.5,54.48,31,46.89,26.19L46.61,26Z"/><path class="cls-4" d="M133,26l-.29.18c-7.6,4.85-16.45,14.31-17.36,26.1-.43,5.61,3.15,9.5,7.79,9.58,3,.05,5.34-1,6.63-3,1.07-1.67,1.35-4.25,1.52-3.06.63,4.54-1.28,8.91-2.3,12.72a12.32,12.32,0,0,1,4-.63h0a12.29,12.29,0,0,1,4,.63c-1-3.81-2.93-8.18-2.3-12.72.17-1.19.45,1.39,1.52,3.06,1.29,2,3.67,3.06,6.63,3,4.64-.08,8.22-4,7.79-9.58-.91-11.79-9.77-21.25-17.36-26.1l-.28-.18Z"/><path class="cls-4" d="M89.77,67.11l-.29.18C81.88,72.14,73,81.61,72.11,93.4c-.43,5.61,3.16,9.49,7.79,9.58,3,.05,5.34-1,6.63-3,1.07-1.67,1.35-4.25,1.52-3.06.62,4.54-1.28,8.91-2.3,12.72a12.32,12.32,0,0,1,4-.63h0a12.3,12.3,0,0,1,4,.63c-1-3.81-2.93-8.18-2.3-12.72C91.71,95.72,92,98.3,93,100c1.29,2,3.67,3.06,6.63,3,4.64-.09,8.22-4,7.79-9.58-.91-11.79-9.77-21.25-17.36-26.1l-.28-.18Z"/><path class="cls-4" d="M46.54,104l-.29.18c-7.6,4.85-16.46,14.31-17.36,26.1-.43,5.61,3.16,9.5,7.79,9.58,3,.05,5.34-1,6.63-3,1.07-1.67,1.35-4.25,1.52-3.06.62,4.54-1.28,8.91-2.31,12.72a12.34,12.34,0,0,1,4-.63h0a12.3,12.3,0,0,1,4,.63c-1-3.81-2.93-8.18-2.3-12.72.17-1.19.45,1.39,1.52,3.06,1.29,2,3.67,3.06,6.63,3,4.64-.08,8.23-4,7.79-9.58-.91-11.79-9.77-21.25-17.36-26.1l-.27-.18Z"/><path class="cls-4" d="M130.16,104l-.29.18c-7.6,4.85-16.46,14.31-17.37,26.1-.43,5.61,3.16,9.5,7.79,9.58,3,.05,5.34-1,6.63-3,1.07-1.67,1.35-4.25,1.52-3.06.63,4.54-1.28,8.91-2.31,12.72a12.34,12.34,0,0,1,4-.63h0a12.3,12.3,0,0,1,4,.63c-1-3.81-2.93-8.18-2.3-12.72.17-1.19.45,1.39,1.52,3.06,1.29,2,3.67,3.06,6.63,3,4.64-.09,8.23-4,7.79-9.58-.91-11.79-9.77-21.25-17.36-26.1l-.27-.18Z"/><path class="cls-4" d="M89.77,183.33l-.29-.18C81.88,178.3,73,168.84,72.11,157c-.43-5.61,3.15-9.49,7.79-9.58,3-.05,5.34,1,6.63,3,1.07,1.67,1.35,4.25,1.52,3.06.62-4.54-1.28-8.91-2.3-12.72a12.32,12.32,0,0,0,4,.63h0a12.3,12.3,0,0,0,4-.63c-1,3.81-2.93,8.18-2.3,12.72.17,1.19.45-1.39,1.52-3.06,1.29-2,3.67-3.06,6.63-3,4.64.08,8.22,4,7.79,9.58-.91,11.79-9.77,21.25-17.36,26.1l-.28.18Z"/><path class="cls-4" d="M46.54,224.43l-.29-.18c-7.6-4.85-16.45-14.31-17.36-26.1-.43-5.61,3.15-9.5,7.79-9.58,3-.05,5.34,1,6.63,3,1.07,1.67,1.35,4.25,1.52,3.06.62-4.54-1.28-8.91-2.3-12.72a12.32,12.32,0,0,0,4,.63h0a12.29,12.29,0,0,0,4-.63c-1,3.81-2.93,8.18-2.3,12.72.17,1.19.45-1.39,1.52-3.06,1.29-2,3.67-3.06,6.63-3,4.64.08,8.22,4,7.79,9.58-.91,11.79-9.77,21.25-17.36,26.1l-.28.18Z"/><path class="cls-4" d="M133,224.43l-.29-.18c-7.6-4.85-16.45-14.31-17.36-26.1-.43-5.61,3.15-9.5,7.79-9.58,3-.05,5.34,1,6.63,3,1.07,1.67,1.35,4.25,1.52,3.06.63-4.54-1.28-8.91-2.3-12.72a12.32,12.32,0,0,0,4,.63h0a12.29,12.29,0,0,0,4-.63c-1,3.81-2.93,8.18-2.3,12.72.17,1.19.45-1.39,1.52-3.06,1.29-2,3.67-3.06,6.63-3,4.64.08,8.22,4,7.79,9.58-.91,11.79-9.77,21.25-17.36,26.1l-.28.18Z"/></g></g></svg>