<svg xmlns="http://www.w3.org/2000/svg" viewBox="0 0 179.58 250.44"><defs><style>.cls-1{fill:#f9faf9;}.cls-1,.cls-3,.cls-4{stroke:#231815;}.cls-2{fill:none;}.cls-3,.cls-4{fill:#231815;stroke-linejoin:round;fill-rule:evenodd;}.cls-3{stroke-width:0.07px;}.cls-4{stroke-width:0.16px;}</style></defs><title>资源 9</title><g id="图层_2" data-name="图层 2"><g id="nine"><rect class="cls-1" x="0.5" y="0.5" width="178.58" height="249.44" rx="14.17" ry="14.17"/><path class="cls-2" d="M13.3,17a4.23,4.23,0,0,0-2,.46A4.45,4.45,0,0,0,9.85,18.7a7.19,7.19,0,0,0-1.34,4.38,7.55,7.55,0,0,0,.75,3.41,4.51,4.51,0,0,0,2,2.06,4.37,4.37,0,0,0,2,.44h.05a4.15,4.15,0,0,0,2-.49,4.51,4.51,0,0,0,1.47-1.3A7.49,7.49,0,0,0,18,22.77a6.56,6.56,0,0,0-1.35-4.19A4.26,4.26,0,0,0,13.3,17Z"/><path d="M20.15,22a8.72,8.72,0,0,0-1.86-5,6.37,6.37,0,0,0-5-2.38h0a6.29,6.29,0,0,0-2.9.69,7,7,0,0,0-3,3.13,10.14,10.14,0,0,0-1,4.58,9.31,9.31,0,0,0,1.79,5.74,6.28,6.28,0,0,0,5.08,2.47h.08a6.17,6.17,0,0,0,2.9-.74A6.59,6.59,0,0,0,18.11,29,12.39,12.39,0,0,1,17,33.92a4.51,4.51,0,0,1-1.54,1.77,4.91,4.91,0,0,1-2.75.72,4.52,4.52,0,0,1-2.16-.51,5.09,5.09,0,0,1-1.85-1.75,6,6,0,0,1-.41-.75l-.09-.21,0,0h0l-2,.79A8,8,0,0,0,7.6,36.36a7,7,0,0,0,2,1.65,6.61,6.61,0,0,0,3.12.75h0a7,7,0,0,0,3.87-1.06,6.51,6.51,0,0,0,1.89-1.9,10.29,10.29,0,0,0,1.4-3.55,20.21,20.21,0,0,0,.38-3.41c0-.71,0-1.39,0-2C20.34,24.43,20.18,22.38,20.15,22Zm-3.44,5.16a4.51,4.51,0,0,1-1.47,1.3,4.15,4.15,0,0,1-2,.49h-.05a4.37,4.37,0,0,1-2-.44,4.51,4.51,0,0,1-2-2.06,7.55,7.55,0,0,1-.75-3.41A7.19,7.19,0,0,1,9.85,18.7a4.45,4.45,0,0,1,1.49-1.26,4.38,4.38,0,0,1,5.35,1.14A6.56,6.56,0,0,1,18,22.77,7.49,7.49,0,0,1,16.71,27.21Z"/><path class="cls-2" d="M166.28,233.47a4.23,4.23,0,0,0,2-.46,4.48,4.48,0,0,0,1.49-1.26,7.18,7.18,0,0,0,1.34-4.38,7.53,7.53,0,0,0-.75-3.41,4.52,4.52,0,0,0-2-2.06,4.39,4.39,0,0,0-2-.44h-.05a4.14,4.14,0,0,0-1.95.49,4.49,4.49,0,0,0-1.47,1.3,7.49,7.49,0,0,0-1.32,4.44,6.56,6.56,0,0,0,1.35,4.19A4.26,4.26,0,0,0,166.28,233.47Z"/><path d="M159.44,228.4a8.73,8.73,0,0,0,1.86,5,6.37,6.37,0,0,0,5,2.38h0a6.28,6.28,0,0,0,2.9-.69,7,7,0,0,0,3-3.13,10.17,10.17,0,0,0,1-4.58,9.32,9.32,0,0,0-1.79-5.74,6.29,6.29,0,0,0-5.08-2.47h-.07a6.19,6.19,0,0,0-2.9.73,6.61,6.61,0,0,0-1.9,1.57,12.41,12.41,0,0,1,1.06-4.93,4.5,4.5,0,0,1,1.54-1.77,4.91,4.91,0,0,1,2.75-.72,4.51,4.51,0,0,1,2.16.51,5.08,5.08,0,0,1,1.85,1.75,6,6,0,0,1,.41.75l.09.21,0,0h0l2-.79a8,8,0,0,0-1.43-2.42,7,7,0,0,0-2-1.65,6.61,6.61,0,0,0-3.12-.75h0a7,7,0,0,0-3.87,1.06,6.52,6.52,0,0,0-1.89,1.9,10.29,10.29,0,0,0-1.4,3.55,20.31,20.31,0,0,0-.38,3.41c0,.71,0,1.39,0,2C159.24,226,159.41,228.06,159.44,228.4Zm3.44-5.16a4.49,4.49,0,0,1,1.47-1.3,4.14,4.14,0,0,1,1.95-.49h.05a4.39,4.39,0,0,1,2,.44,4.52,4.52,0,0,1,2,2.06,7.53,7.53,0,0,1,.75,3.41,7.18,7.18,0,0,1-1.34,4.38,4.48,4.48,0,0,1-1.49,1.26,4.38,4.38,0,0,1-5.35-1.14,6.56,6.56,0,0,1-1.35-4.19A7.49,7.49,0,0,1,162.87,223.24Z"/><path class="cls-3" d="M13.25,43l-.12.07c-3,1.94-6.58,5.72-6.95,10.44A3.29,3.29,0,0,0,9.3,57.37,2.93,2.93,0,0,0,12,56.16c.43-.67.54-1.7.61-1.22.25,1.82-.51,3.56-.92,5.09a4.92,4.92,0,0,1,1.61-.25h0a4.9,4.9,0,0,1,1.61.25c-.41-1.53-1.17-3.27-.92-5.09.07-.48.18.55.61,1.22a2.93,2.93,0,0,0,2.65,1.2,3.29,3.29,0,0,0,3.12-3.83C20,48.82,16.42,45,13.39,43.09L13.28,43Z"/><path class="cls-3" d="M166.32,207.42l-.12-.07c-3-1.94-6.58-5.72-6.95-10.44a3.29,3.29,0,0,1,3.12-3.83,2.94,2.94,0,0,1,2.65,1.2c.43.67.54,1.7.61,1.22.25-1.82-.51-3.56-.92-5.09a4.9,4.9,0,0,0,1.61.25h0a4.88,4.88,0,0,0,1.61-.25c-.41,1.53-1.17,3.27-.92,5.09.07.48.18-.55.61-1.22a2.94,2.94,0,0,1,2.65-1.2,3.29,3.29,0,0,1,3.12,3.83c-.36,4.72-3.91,8.5-6.94,10.44l-.11.07Z"/><path class="cls-4" d="M46.54,26l-.29.18C38.65,31,29.79,40.5,28.88,52.3c-.43,5.61,3.16,9.5,7.79,9.58,3,.05,5.34-1,6.63-3,1.07-1.67,1.35-4.25,1.52-3.06.63,4.54-1.28,8.91-2.31,12.72a12.33,12.33,0,0,1,4-.63h0a12.29,12.29,0,0,1,4,.63c-1-3.81-2.93-8.18-2.3-12.72.17-1.19.45,1.39,1.52,3.06,1.29,2,3.67,3.06,6.63,3,4.64-.08,8.23-4,7.79-9.58C63.34,40.5,54.47,31,46.89,26.19L46.61,26Z"/><path class="cls-4" d="M133,26l-.29.18c-7.6,4.85-16.46,14.31-17.37,26.1-.43,5.61,3.16,9.5,7.79,9.58,3,.05,5.34-1,6.63-3,1.07-1.67,1.35-4.25,1.52-3.06.63,4.54-1.28,8.91-2.31,12.72a12.34,12.34,0,0,1,4-.63h0a12.3,12.3,0,0,1,4,.63c-1-3.81-2.93-8.18-2.3-12.72.17-1.19.45,1.39,1.52,3.06,1.29,2,3.67,3.06,6.63,3,4.64-.08,8.23-4,7.79-9.58-.91-11.79-9.77-21.25-17.36-26.1l-.27-.18Z"/><path class="cls-4" d="M46.54,78l-.29.18C38.65,83,29.79,92.47,28.88,104.27c-.43,5.61,3.16,9.49,7.79,9.58,3,.05,5.34-1,6.63-3,1.07-1.67,1.35-4.25,1.52-3.06.63,4.54-1.28,8.91-2.31,12.72a12.33,12.33,0,0,1,4-.63h0a12.29,12.29,0,0,1,4,.63c-1-3.81-2.93-8.18-2.3-12.72.17-1.19.45,1.39,1.52,3.06,1.29,2,3.67,3.06,6.63,3,4.64-.08,8.23-4,7.79-9.58C63.34,92.47,54.47,83,46.89,78.16L46.61,78Z"/><path class="cls-4" d="M133,78l-.29.18c-7.6,4.85-16.46,14.31-17.37,26.1-.43,5.61,3.16,9.49,7.79,9.58,3,.05,5.34-1,6.63-3,1.07-1.67,1.35-4.25,1.52-3.06.63,4.54-1.28,8.91-2.31,12.72a12.34,12.34,0,0,1,4-.63h0a12.3,12.3,0,0,1,4,.63c-1-3.81-2.93-8.18-2.3-12.72.17-1.19.45,1.39,1.52,3.06,1.29,2,3.67,3.06,6.63,3,4.64-.08,8.23-4,7.79-9.58-.91-11.79-9.77-21.25-17.36-26.1l-.27-.18Z"/><path class="cls-4" d="M89.77,104l-.29.18C81.88,109,73,118.45,72.11,130.24c-.43,5.61,3.16,9.5,7.79,9.58,3,.05,5.34-1,6.63-3,1.07-1.67,1.35-4.25,1.52-3.06.62,4.54-1.28,8.91-2.31,12.72a12.33,12.33,0,0,1,4-.63h0a12.28,12.28,0,0,1,4,.63c-1-3.81-2.93-8.18-2.3-12.72.17-1.19.45,1.38,1.52,3.06,1.29,2,3.67,3.06,6.63,3,4.64-.09,8.23-4,7.79-9.58-.91-11.79-9.77-21.25-17.36-26.1l-.27-.18Z"/><path class="cls-4" d="M46.54,172.46l-.29-.18c-7.59-4.85-16.46-14.31-17.36-26.1-.43-5.61,3.16-9.49,7.79-9.58,3-.05,5.34,1,6.63,3,1.07,1.67,1.35,4.25,1.52,3.06.63-4.54-1.28-8.91-2.31-12.72a12.33,12.33,0,0,0,4,.63h0a12.29,12.29,0,0,0,4-.63c-1,3.81-2.93,8.18-2.3,12.72.17,1.19.45-1.38,1.52-3.06,1.29-2,3.67-3.06,6.63-3,4.64.09,8.23,4,7.79,9.58-.91,11.79-9.77,21.25-17.36,26.1l-.27.18Z"/><path class="cls-4" d="M133,172.46l-.29-.18c-7.59-4.85-16.46-14.31-17.36-26.1-.43-5.61,3.15-9.49,7.79-9.58,3-.05,5.34,1,6.63,3,1.07,1.67,1.35,4.25,1.52,3.06.63-4.54-1.28-8.91-2.31-12.72a12.33,12.33,0,0,0,4,.63h0a12.28,12.28,0,0,0,4-.63c-1,3.81-2.93,8.18-2.3,12.72.17,1.19.45-1.38,1.52-3.06,1.29-2,3.67-3.06,6.63-3,4.64.09,8.23,4,7.79,9.58-.91,11.79-9.77,21.25-17.36,26.1l-.28.18Z"/><path class="cls-4" d="M46.54,224.43l-.29-.18c-7.59-4.85-16.46-14.31-17.36-26.1-.43-5.61,3.16-9.5,7.79-9.58,3-.05,5.34,1,6.63,3,1.07,1.67,1.35,4.25,1.52,3.06.63-4.54-1.28-8.91-2.31-12.72a12.33,12.33,0,0,0,4,.63h0a12.29,12.29,0,0,0,4-.63c-1,3.81-2.93,8.18-2.3,12.72.17,1.19.45-1.38,1.52-3.06,1.29-2,3.67-3.06,6.63-3,4.64.09,8.23,4,7.79,9.58-.91,11.79-9.77,21.25-17.36,26.1l-.27.18Z"/><path class="cls-4" d="M133,224.43l-.29-.18c-7.59-4.85-16.46-14.31-17.36-26.1-.43-5.61,3.15-9.5,7.79-9.58,3-.05,5.34,1,6.63,3,1.07,1.67,1.35,4.25,1.52,3.06.63-4.54-1.28-8.91-2.31-12.72a12.32,12.32,0,0,0,4,.63h0a12.28,12.28,0,0,0,4-.63c-1,3.81-2.93,8.18-2.3,12.72.17,1.19.45-1.38,1.52-3.06,1.29-2,3.67-3.06,6.63-3,4.64.09,8.23,4,7.79,9.58-.91,11.79-9.77,21.25-17.36,26.1l-.28.18Z"/></g></g></svg>